<svg xmlns="http://www.w3.org/2000/svg" xmlns:xlink="http://www.w3.org/1999/xlink" viewBox="0 0 609.28 452.34"><defs><style>.cls-1{fill:url(#Degradado_sin_nombre_3);}.cls-2{fill:#351e0f;}.cls-3{fill:#eb1c25;}.cls-4{fill:#fbfbfb;}.cls-5{fill:#eb1c24;}.cls-6{fill:#90320c;}.cls-7{fill:#e81b25;}.cls-8{fill:#f1a53f;}.cls-9{fill:#f8f8f9;}.cls-10{fill:#e4c1b4;}.cls-11{fill:#f9f8f9;}.cls-12{fill:#8f310f;}.cls-13{fill:#e91c25;}.cls-14{fill:#aab2ba;}.cls-15{fill:#b7652f;}.cls-16{fill:#e41b26;}.cls-17{fill:#f8f7f9;}.cls-18{fill:#e4bfb2;}.cls-19{fill:#f7f4f2;}.cls-20{fill:#a9b1b9;}.cls-21{fill:#dfb5aa;}.cls-22{fill:#eeedf0;}.cls-23{fill:#e7deda;}.cls-24{fill:#371e50;}.cls-25{fill:#75270c;}.cls-26{fill:#f24452;}.cls-27{fill:#c48660;}.cls-28{fill:#c4865f;}.cls-29{fill:#673615;}.cls-30{fill:#7f1618;}.cls-31{fill:#7e1517;}.cls-32{fill:#3c3b3d;}.cls-33{fill:#dd3039;}.cls-34{fill:#e2212a;}.cls-35{fill:#b10309;}.cls-36{fill:#bbbcbe;}.cls-37{fill:#262122;}.cls-38{fill:#ededeb;}.cls-39{font-size:37.1px;fill:#f2f2f0;font-family:Poppins-Light, Poppins;font-weight:300;}</style><linearGradient id="Degradado_sin_nombre_3" x1="154.11" y1="196.19" x2="451.99" y2="196.19" gradientUnits="userSpaceOnUse"><stop offset="0" stop-color="#f2602f"/><stop offset="1" stop-color="#fac41c"/></linearGradient></defs><g id="Capa_2" data-name="Capa 2"><g id="Capa_1-2" data-name="Capa 1"><path class="cls-1" d="M434.68,266.4c-1.16,2.17-2.37,4.33-3.65,6.47q-2.94,4.92-6.3,9.68-2.91,4.13-6.15,8.09c-.93,1.13-1.87,2.26-2.83,3.37-.5.58-1,1.16-1.52,1.73-.79.88-1.58,1.75-2.38,2.6A146.58,146.58,0,0,1,401,308.84c-1.45,1.27-2.93,2.51-4.42,3.72a148.23,148.23,0,0,1-17.3,12.06q-4.37,2.61-8.88,4.9l-2.27,1.12-.6.29a149,149,0,0,1-47,13.62q-7.29-.19-14.62-.2c-6.33,0-12.77.11-19.23.33a148.56,148.56,0,0,1-27.06-5.54,148.84,148.84,0,0,1-30.83-13.37q-2.21-1.27-4.38-2.63-2-1.26-4-2.59t-4-2.78l-1.4-1q-5.66-4.17-11-8.93-2.74-2.46-5.35-5-1.62-1.57-3.18-3.21-3.9-4.06-7.44-8.38-1.5-1.8-2.92-3.65a147.79,147.79,0,0,1-9.42-13.73c-1.3-2.13-2.53-4.3-3.71-6.48a149,149,0,1,1,262.76-1Z"/><path class="cls-2" d="M481.83,216.2a186.93,186.93,0,0,1-18.25,58.38c-1.11,2.2-2.31,4.45-3.54,6.67-1.68,3-3.44,6-5.25,8.86-1.3,2.07-2.67,4.15-4.19,6.35s-3.09,4.38-4.74,6.58l-.31.4h0c-1.85,2.43-3.76,4.83-5.69,7.13-1.24,1.49-2.56,3-3.91,4.53l-.16.18c-.46.52-.93,1-1.4,1.55-2.62,2.86-5.39,5.72-8.23,8.46-2,1.95-4.11,3.9-6.23,5.77-1.27,1.12-2.58,2.25-3.89,3.34l-.25.21c-.42.35-.84.7-1.27,1-2.24,1.84-4.52,3.63-6.81,5.32-4,3-8.17,5.84-12.41,8.49-3.32,2.08-6.72,4.07-10.14,5.91l-1.84,1-2.08-.29c-2.36-.34-4.74-.66-7.11-1-1.41-.19-2.82-.36-4.22-.53l-2.84-.35c-4.44-.52-9-1-13.52-1.4l-.61-5.06-.09-.8c4.81-1.71,11.42-4.26,15.49-6.11a159,159,0,0,0,29.16-17.22A159.09,159.09,0,0,0,413,310.49l.52-.5q2.73-2.67,5.36-5.5c.79-.84,1.57-1.7,2.34-2.56l.18-.2q5.22-5.88,9.76-12.12,2-2.79,3.92-5.64,3-4.47,5.59-9.07c1.22-2.13,2.39-4.28,3.49-6.46a158.79,158.79,0,1,0-282.42,1c1.13,2.17,2.31,4.33,3.55,6.46a158.39,158.39,0,0,0,13.47,19.65c1,1.26,2,2.52,3.12,3.76A159.14,159.14,0,0,0,197,314.8l.77.68q2.13,1.88,4.31,3.66c3,2.51,6.17,4.87,9.34,7.11q2.79,2,5.64,3.79l1.89,1.19q2.49,1.54,5,3,6.86,3.91,14,7.09c3.85,1.72,10.56,4.78,15.53,6.71l-.17,1.51-.42,3.68q-8.3.8-16.62,1.85c-5.06.64-10.12,1.34-15.15,2.12q-3.51.54-7,1.13l-2.07.34-1.86-.95c-3.46-1.76-6.93-3.66-10.3-5.65a189.6,189.6,0,0,1-29.67-21.68c-1.59-1.42-3.14-2.85-4.59-4.25-.87-.82-1.79-1.71-2.72-2.63-3.66-3.63-7.19-7.42-10.46-11.24a187.82,187.82,0,0,1-12.9-16.89c-2.18-3.21-4.27-6.52-6.23-9.84-1.24-2.08-2.45-4.23-3.7-6.55A188.25,188.25,0,1,1,481.83,216.2Z"/><path class="cls-3" d="M416.46,54.11A181.9,181.9,0,0,0,135.19,276c1.15,2.13,2.34,4.25,3.59,6.35q2.83,4.81,6,9.49a180.78,180.78,0,0,0,12.47,16.33Q162,313.7,167.37,319c.86.86,1.74,1.71,2.63,2.55q2.17,2.09,4.44,4.09a181.84,181.84,0,0,0,28.66,20.95c2.69,1.59,12.67,7.59,18,10.61,1.14.65,2.07,1.16,2.66,1.47a62.38,62.38,0,0,0,12.49-3.59c5.46-2.12,10.44-4.44,17-5.53,1-.17,2.06-.3,3.16-.41-.88-.29-1.89-.67-3-1.1-5-1.93-11.68-5-15.53-6.71q-7.11-3.18-14-7.09-2.5-1.44-5-3L217.06,330q-2.85-1.83-5.64-3.79c-3.17-2.24-6.29-4.6-9.34-7.11q-2.18-1.78-4.31-3.66l-.77-.68a159.14,159.14,0,0,1-15.17-15.48c-1.07-1.24-2.1-2.5-3.12-3.76a158.39,158.39,0,0,1-13.47-19.65c-1.24-2.13-2.42-4.29-3.55-6.46a158.8,158.8,0,1,1,282.42-1c-1.1,2.18-2.27,4.33-3.49,6.46Q438,279.51,435,284q-1.89,2.85-3.92,5.64-4.55,6.22-9.76,12.12l-.18.2c-.77.86-1.55,1.72-2.34,2.56q-2.62,2.83-5.36,5.5l-.52.5a159.09,159.09,0,0,1-15.45,13.16,159,159,0,0,1-29.16,17.22c-4.07,1.85-10.68,4.4-15.49,6.11l-2,.69c.64.05,1.33.09,2.07.11,4.63.14,11-.31,14.88.15,3.47.41,1.61,4.28,2.09,6.66a2.1,2.1,0,0,0,2,1.79c.51-.27,1.26-.71,2.19-1.26,5-3,15.08-9.33,17.8-11q6.12-3.84,12-8.22c2.23-1.65,4.42-3.36,6.59-5.14.43-.35.86-.7,1.28-1.07a.31.31,0,0,0,.11-.09c1.29-1.06,2.56-2.16,3.81-3.27,2-1.8,4-3.66,6-5.57q4.08-3.94,7.95-8.19c.46-.5.92-1,1.37-1.51l.14-.15c1.28-1.45,2.55-2.91,3.78-4.38,2-2.4,3.93-4.82,5.79-7.29h0q2.37-3.15,4.59-6.36c1.39-2,2.74-4.07,4-6.14,1.78-2.81,3.47-5.67,5.08-8.55q1.77-3.2,3.41-6.45A181.94,181.94,0,0,0,416.46,54.11Z"/><path class="cls-2" d="M336.85,83.26c0,.44-.05.89-.08,1.34a15.28,15.28,0,0,1,7,2.19c-.09-1.59-.16-3.16-.23-4.71,0-.87-.08-1.74-.11-2.6a111.24,111.24,0,0,0-1.27-14,79.28,79.28,0,0,0-2.36-10C336.84,46,332.14,38,325.1,31.75a51.32,51.32,0,0,0-17.35-9.9h0q-2.89-1-6.07-1.81h0l-.23-.05a40.24,40.24,0,0,0-10.12-1.19h0a38.49,38.49,0,0,0-5.81.52,36.47,36.47,0,0,0-5.31,1.32h0a35.93,35.93,0,0,0-5.2,2.18h0a36.49,36.49,0,0,0-10.92,8.64,38.46,38.46,0,0,0-4.36,6.18c-.45.79-1,1.51-1.14,1.71-4.61,0-8.67-.2-12.71,0A32.32,32.32,0,0,0,235,41.92a31.79,31.79,0,0,0-10,6.7c-.45.44-.89.9-1.31,1.36a31.65,31.65,0,0,0-4.52,6.44,31.24,31.24,0,0,0-2.6,6.48l.1,0,1.3-.15c.46,0,.93-.1,1.4-.13s.94-.08,1.41-.1.95-.06,1.43-.07.69,0,1,0c.22-.54.45-1.07.7-1.59.13-.26.26-.52.4-.77s.27-.5.42-.75.29-.49.44-.73.31-.49.47-.72.33-.47.5-.7.34-.45.51-.68h0a26.6,26.6,0,0,1,3.55-3.72,4.09,4.09,0,0,1,.33-.28l.09-.08c.18-.16.37-.31.57-.47l.8-.62,0,0c.29-.22.57-.42.87-.62l.52-.35.41-.26a29.71,29.71,0,0,1,2.63-1.47l.47-.22.53-.25.63-.28,1-.37c.24-.1.47-.18.71-.26l.66-.22c.34-.11.68-.21,1-.3s.45-.13.68-.18h0l.69-.16.2,0,.55-.11q.47-.09.93-.15l.76-.1c3.84-.4,7.71-.55,11.38,1.08l5.69,1c2.44-6.12,4.46-12,10.05-15.57a30.14,30.14,0,0,1,13.33-6.63,30.91,30.91,0,0,1,12.89.25A58.15,58.15,0,0,1,310.74,30h0a41.6,41.6,0,0,1,6.34,3.62h0l.38.27c8.39,6,13.23,14.36,16.31,24,.45,1.39.84,2.78,1.19,4.18h0a69.2,69.2,0,0,1,1.89,13.68c.07,1.54.09,3.07.07,4.61Q336.93,81.79,336.85,83.26Zm-59.46,11.2-1.17.46-.42.18-1.32.56-1,.45a4.54,4.54,0,0,0-.45.21c-.4.18-.8.38-1.19.58l-1.16.59c-.52.27-1,.54-1.53.83s-.81.45-1.2.68-.72.42-1.07.64-.8.48-1.19.73l-.57.37a80.51,80.51,0,0,1,16.25-7.57l.09-.11C280.13,93.46,278.76,93.93,277.39,94.46Z"/><path class="cls-2" d="M283.05,92.63l-.65.17-.91.26-.09.11c1.1-.36,1.87-.59,2.22-.68l-.18,0ZM223,62.88c-.17.45-.32.91-.46,1.38C222.67,63.79,222.82,63.33,223,62.88Z"/><path class="cls-2" d="M392.16,271.57a10.39,10.39,0,0,1-1-4A35,35,0,0,0,385.59,246l4.81-9.45a18.12,18.12,0,0,0-2-1.12c-10.82-4.28-17.87-12.35-22.68-22.64-3.76-8-5.64-16.57-6.62-25.32-.36-3.26-1.26-6.53-.59-10.42l10.14,7.81c3.81-15.21,5.19-29.62-5.37-42.24,2.51-9.53,2.52-14.36-.51-20.31a13.14,13.14,0,0,1-1.34-7.15c.07-1.12.09-2.2.06-3.26a29.9,29.9,0,0,0-.58-5.24c0-.11-.05-.22-.07-.33l.2.23.09-.07c-.35-1.84-3-13.62-12.74-15.76a.12.12,0,0,1,.05,0l-.15-.08A30.52,30.52,0,0,0,344,89.08c-.26-.07-.44-.39-.14-.11-.05-.73-.1-1.46-.14-2.18a15.28,15.28,0,0,0-7-2.19c0,.81-.1,1.63-.18,2.44-.25,3-1.74,5.85-2.66,8.77a18.69,18.69,0,0,1-7.73,10.45c-3.08-2.52-6-5.27-9.29-7.52A39.87,39.87,0,0,0,293,91.21h-.46l-.42,0-.58,0-1.07.08-.69.06-.88.1-.55.07-1.13.17c-.4.07-.8.13-1.2.22l-.6.11q-.8.17-1.59.36h0l-.06,0h-.06l-.08,0c-.35.09-1.12.32-2.22.68a80.51,80.51,0,0,0-16.25,7.57l-.14.09-1,.65-.84.57-.52.36c-.59.41-1.17.84-1.75,1.27-.18.14-.36.28-.55.41l-.73.57-.57.44-.89.72-1,.83-.07.06h0c-.75.63-1.49,1.27-2.23,1.93l-.7.64s0,0,0,0h0c-.52.48-1.05,1-1.57,1.47-6.15,5.85-12.27,11.75-16.73,19.08h0v0c-.21.35-.42.7-.63,1.07-.89,1.55-1.77,3.11-2.65,4.64a48.19,48.19,0,0,0-3.62,11.66l0,.06c-.09.53-.18,1.07-.26,1.61-.16,1-.3,2-.43,3a62.61,62.61,0,0,0-.53,6.68,41.18,41.18,0,0,0,.52,7.58,9.39,9.39,0,0,1-2,7.76,139.27,139.27,0,0,0-17.7,30.33c-2.94,7.14-4.09,14.45-2.52,22.06a8.81,8.81,0,0,1-.64,5.81c-4.16,9.08-6.2,18.4-2.16,28.15a4.62,4.62,0,0,1,.27,2.27c-1.25,9.59,3.42,16.2,10.75,21.45,5.54,4,11.83,6.33,18.28,8.34,1.11.35,2.21.76,3.43,1.17l-.28.35c2.21.79,4.88,1.7,8,2.64,2.25-1.77,4.63-1.74,7.29-.35s4.2,2.41,5,3.68q3.87.94,8.19,1.81a38.88,38.88,0,0,0,.46-4.67h28.08l-4.76,8.1q2.94.27,6,.46c1.85-3.94,3.73-7.86,5.59-11.79.73-1.54,1.51-3.06,2.42-4.9-4.34.34-8.34.81-12.35.94-10.31.32-20.63.51-30.95.69a5.12,5.12,0,0,1-2.23-.59c-3.9-1.83-7.85-3.19-12.18-1.54a.73.73,0,0,1-.46,0c-11-2.82-21.89-6-27.63-17.23-1.23-2.39-1.53-5.24-2.55-9,9,4,16.72,8.13,26.67,7.57-4.44-2.45-8.31-4.27-11.8-6.62a107.22,107.22,0,0,1-11-8.65c-3.85-3.41-5.86-7.7-4.6-13.37l2.47,1.23,12.79-11.44c.86,6,1.24,11.26,2.47,16.3a30.13,30.13,0,0,0,4.4,9.69c4.07,6,10.22,8,17.23,7.34,3.39-.33,5.5.66,7.88,3.36,7,7.92,14.65,9.65,24.93,5.57,1.45-.57,2.83-1.33,4.39-2.07,1.29,5.83,4,10.52,9.64,13l.39-.41c-.38-3.28-2.61-6.28-1.5-10.48,8.18,7,16.65,8.76,25.59,2.14,1.71,6.29-1.53,10-12.59,14.37,2.18,2.13,4.2,4.36,6.32,6.43.6.58,1.21,1.16,1.84,1.71a32.72,32.72,0,0,0,3.47,2.75l.53.35c.35.23.71.45,1.08.67.18.1.36.21.56.31.55.31,1.12.59,1.71.85l0,0h0c-1.36-2.16-2.74-4.31-4.08-6.49s-2.54-4.16-4.15-6.8c9.88-2.05,14.35-7.62,12.92-17.51l14,8.06c-3.46,4.31-6.78,8.8-10.52,12.91-1,1.16-3.31,1.21-5.31,1.86.52.91,1.09,1.92,1.79,3.18a24.8,24.8,0,0,1-1.8,3.37,3,3,0,0,1-.29.32,3.37,3.37,0,0,1-1.1.76l-.41.16h0l-.2.05a4.92,4.92,0,0,1-.81.12h0l0,0,0,0a4.65,4.65,0,0,1,.35.77,2.56,2.56,0,0,1,.1.34,2.64,2.64,0,0,1,0,1.22c3.07-.28,6.18-.62,9.33-1,3.36-5.15,7-10.11,10.67-15.05,2.21-3,5.31-5.29,8-7.92,2.09-2.06,4.23-2,6.81-.71,6.38,3.29,7,4.4,4.37,11.39a67,67,0,0,1-3,6.88,204.64,204.64,0,0,0,19.77-6.45h0a27.9,27.9,0,0,0,3-1.51C393.47,286.17,395.41,279.92,392.16,271.57Zm-27.42-107.3c0,2.45.16,4.91,0,7.36-.08,1.5-.94,1.25-1.75.38l-1-.91-.83-.42-1.37-.69-1.38-.7-1.36-.7-1.63-.87c-10.3-5.63-20.83-5.75-31.48-1.2-5.34,2.28-10.61,4.36-16.64,3.69A14.42,14.42,0,0,1,294.49,158h4.56a2.52,2.52,0,0,1,.82-.08l0-1.79c-4.48-.74-8.37.26-11.23,4-1.94,2.55-2.74,5.23-.37,8.19.85-2.22,1.65-4.33,2.63-6.88,3.11,2.5,4.12,5.6,5,8.63,1.22,4.31,2.06,8.72,3.06,13.09.35,1,.69,2,1,3l0-.06q3.81,6.56,7.6,13.11h0a4.2,4.2,0,0,1,3.76,3.79l1.83,1,3.75,2.82h0l2.84,1.92-.06,0,1.86,1h0l.07,0-.06,0,.95,1.08c4.5,1.39,8.58,4.38,14.16,3.69-.43-1.67-.86-3.08-1.15-4.52-1.4-7-3.33-14-4-21.07a36.13,36.13,0,0,1,3.78-19.07c1.71-3.54,2-3.59,7.53-3.16-2.33,8.72-4.31,17.44-4.42,26.52a51,51,0,0,0,6.72,26.08c-4.29,1.52-7.73,1-11,.58-8.26-.95-16.14-3.51-23.85-6.57-9.52-3.78-13.89-11.78-16.57-20.86-1.45-4.9-1.95-10.07-2.86-15l-2,6.27c-6.42-5.08-11.19-10.62-11.52-19-.33-9.1,3.41-15.14,10.86-16.84a18.13,18.13,0,0,1,14.3,2.49l7.7,2.37v5l6.42-7.34,1.2-.88h0c4.58-6,11.13-8.36,18.22-8.81,9.8-.63,18.62,1.72,24.43,10.61A24.48,24.48,0,0,1,364.74,164.27Zm-36.58,43.56c-4.78-.15-7.92-3.43-11.07-6.27a39.61,39.61,0,0,1-10.55-14.46l-.86-2c-.06-.23-.11-.45-.15-.69-2.91-3-3.31-7.06-5.32-11.61,1.83.63,2.63.85,3.38,1.16a18.28,18.28,0,0,0,11.28,1.23c6-1.21,7.9-.49,8.7,3.33,3,1.72,1.38,5.05,2.58,7.47.63,1.29.1,3.15.1,4.75a9.89,9.89,0,0,1,1,1.93q1.85,7.23,3.57,14.49a12.87,12.87,0,0,1,0,2.54l-1.89-1-.81-.83,0,0Zm-9.46,17.83c4.31,1.15,8.7.57,11.36,4.63l2.94,4.83a22,22,0,0,1,1.53,3.71c1,4.83-1.1,7.28-6.3,7.45l-6.67-.81-2.3-.22c.47-3.31,1.33-6.45,1.25-9.57S319.42,229.4,318.7,225.66Zm-3.3,4.87c1.25,4.08.39,8.06-.8,11.93a6.4,6.4,0,0,1-6.63,4.9c-3.63-.06-7.13-.44-10.1-2.8a21.66,21.66,0,0,1-11.14-10.34c-4.44-4.73-6.54-10.69-7.29-16.81a42.46,42.46,0,0,1,4.45-25.4c.35-.65.84-1.24,1.68-2.48.83,3.16,1.42,5.68,2.15,8.15,2.71,9.25,7.29,17.26,15.71,22.45a23.86,23.86,0,0,0,8.09,3.45c3.23.57,3.77,2.22,3.55,4.85ZM295,132.79c-3.53,3.56-5.69,4.31-8.39,2.92-2.86-1.47-3.52-3.64-2.5-8.75-4.3.11-7,2.44-8.63,6-2.37,5.27-.58,9.7,3.65,13.62l-4.43,3.57c-6.36-5.25-8.41-17-1.12-25.57a19.08,19.08,0,0,1,25.07-3.21c8.14,5.72,10.38,16,5.28,25.06l-8.78-3.23C296,139.67,297.28,136.18,295,132.79Zm62.57,5.54-9.54-3c-.09-1.25-.19-2.6-.3-4.24-2.45,1-4.87,1.8-6.82-.53s-1.19-4.6,1-7.46l-7.87.83c4.49-6.5,12.13-8.12,18.76-4C359.16,123.82,361.18,131.48,357.6,138.33ZM364,244.49c.68,4.37,1.61,8.71,2,13.11.17,2.16-.72,4.4-1.14,6.6-.76,5-2.35,6.1-6.95,7.94a17.22,17.22,0,0,1-14.87-.7c-5.6-2.85-10.37-6.81-13-12.79l-2.28-2.52c-2.52,4.45-3.91,9.54-8.8,12a14,14,0,0,1-17.06,0c-3.16-2.43-6.12-5.21-6.39-9.65l-1.19-2-2.67,3c-5.44,6-17.71,7.94-24.44,3.46-1.73-1.15-2.82-3.52-3.75-5.53-.61-1.3-.39-3-.57-4.79-3.15,2.13-5.51,5.53-9.78,4.8-4.62.94-7.89-1.55-10.45-4.75-6.19-7.75-7.67-16.79-6.32-26.41.05-.36.62-.65.94-1l.06-1.11c.09-.52.17-1,.25-1.54.09-.75.17-1.5.28-2.47-4.62-.25-8.38,1.69-12,3.77-2.29,1.31-4.27,3.16-6.49,4.61-.55.35-1.49.09-2.25.11-3.91-2.37-4.39-6.57-4.16-10.22.64-10.23,4.84-19.28,10.83-27.53,3-5.06,5.88-10.24,9.16-15.13,1.66-2.47,2.71-4.7,2-7.73a38.07,38.07,0,0,1-.85-8,54.28,54.28,0,0,1,.48-7.31c.1-.84.22-1.67.35-2.5.08-.45.15-.9.23-1.35A40.15,40.15,0,0,1,242,132.07l.16-.22a106.48,106.48,0,0,1,28.74-27.59c14.73-9.64,39.77-8,53,8.87.67.86,1.4,1.67,2.41,2.88l3.82-2.27,12.06-18.15,3,1c6.21,2,10.57,8.34,9.82,18-1-.27-2-.5-2.91-.8-13.15-4.13-25.65,5-25.72,18.78,0,.93,0,1.86-.05,2.79-.32.91-.37,2.32-1,2.63-4.66,2.37-8.84,5.23-11.87,9.63-.41.58-1.53.66-3,1.27,1-3.38,1.76-6.08,2.55-8.78.2-11.12-3.93-19.81-14.3-24.74a24.05,24.05,0,0,0-29.12,6.88c-6.95,8.77-7.3,21.32-.47,29.94,2.09,2.64,3.07,5,2.52,8.42-1,5.94,1.11,11.37,3.63,16.63l6.83,6.42a55.45,55.45,0,0,0-7,19.85c-2.08,15.4.32,29.65,12.25,40.8,3,2.82,6.86,4.78,10.32,7.13a26.78,26.78,0,0,0,17.86-1.25,7,7,0,0,1,3.46-.06c4.47.65,8.86,1.82,13.39.08,4.06-1.56,6.35-4,6.17-8.36-.12-3.05-1.13-6.08-1.85-9.08a24.1,24.1,0,0,0-1.36-3.25c2.32,0,4.3,0,6.29,0,1.25,0,2.51,0,3.76-.1,6.26-.65,8.27-4.34,5-9.69-2.37-3.91-4.47-7.85-5.34-12.39-2-10.31-1.2-20.56.64-30.79.35-2,.87-3.92,1.35-6,3.64.83,4.66,2.86,4.81,6.31.6,13.18,2.59,26.15,7.53,38.48,4,9.95,9.72,18.56,19.65,23.63l1.61.5-1.1,1.62-.19.13c-1.61,2.47-4.15,3.18-6.82,3.34S366.81,244.51,364,244.49ZM373.52,275c-1.12,1.07-2.21,2.45-4.07.44a40.68,40.68,0,0,0,2-24l8.19-.94c2.69,2.32,3.68,5.26,2.45,9.25C380.36,265.51,378,270.8,373.52,275Zm10,9.3A23.5,23.5,0,0,1,380,286.7c-1.33.75-2.76,1.33-4.5,2.14l-1.17-9.61L384.86,271C388.5,275.74,388.07,280.5,383.49,284.31Zm-74.3,12.9c.56,2.92,1.09,5.85,1.49,8.76q4.35-.06,8.84-.3l-9.4-8.75Zm-7.48,8.7,1.76,0a31.43,31.43,0,0,0-.54-7.37A74.19,74.19,0,0,1,301.71,305.91Z"/><path class="cls-4" d="M358.28,233.19l-.7-.35q.35.16.69.36c.79,4.33,3.42,7.72,5.72,11.29.68,4.37,1.61,8.71,2,13.11.17,2.16-.72,4.4-1.14,6.6a12.38,12.38,0,0,0-2.3.33c-10.14,3.44-19.59,2.09-28.46-3.88a32,32,0,0,0-4.07-2l-2.28-2.52c-2.52,4.45-3.91,9.54-8.8,12-8.42.23-15.75-2.19-21.49-8.64a6.17,6.17,0,0,0-2-1l-1.19-2-2.67,3c-5.44,6-17.71,7.94-24.44,3.46-1.73-1.15-2.82-3.52-3.75-5.53-.61-1.3-.39-3-.57-4.79-3.15,2.13-5.51,5.53-9.78,4.8a19.55,19.55,0,0,0-2.05-3,51.68,51.68,0,0,1-9.1-12.81c-2.75-5.16-3.3-10.85-4.68-16.35l.06-1.11c.09-.52.17-1,.25-1.54.09-.75.17-1.5.28-2.47-4.62-.25-8.38,1.69-12,3.77-2.29,1.31-4.27,3.16-6.49,4.61-.55.35-1.49.09-2.25.11-.07-9.21,1.66-18.16,3.91-27,.9-3.58,1.84-7.15,2.76-10.72,3-5.06,5.88-10.24,9.16-15.13,1.66-2.47,2.71-4.7,2-7.73a38.07,38.07,0,0,1-.85-8,54.28,54.28,0,0,1,.48-7.31c.1-.84.22-1.67.35-2.5.08-.45.15-.9.23-1.35A40.15,40.15,0,0,1,242,132.07l.16-.22a106.48,106.48,0,0,1,28.74-27.59c14.73-9.64,39.77-8,53,8.87.67.86,1.4,1.67,2.41,2.88l3.82-2.27c1.47-.69,3.18-1.09,4.37-2.1,4.8-4.12,8-9.42,10.67-15.09,6.21,2,10.57,8.34,9.82,18-1-.27-2-.5-2.91-.8-13.15-4.13-25.65,5-25.72,18.78,0,.93,0,1.86-.05,2.79-5,0-9.11,2.57-13.34,4.75.2-11.12-3.93-19.81-14.3-24.74a24.05,24.05,0,0,0-29.12,6.88c-6.95,8.77-7.3,21.32-.47,29.94,2.09,2.64,3.07,5,2.52,8.42-1,5.94,1.11,11.37,3.63,16.63-.07,1.65-.57,3.44-.14,5a11.55,11.55,0,0,1-.61,8.16A59.17,59.17,0,0,0,270,221c1.85,14.93,10.72,24.85,24.45,30.52.87.36,2.05-.05,3.09-.1a26.78,26.78,0,0,0,17.86-1.25,7,7,0,0,1,3.46-.06c4.47.65,8.86,1.82,13.39.08,4.06-1.56,6.35-4,6.17-8.36-.12-3.05-1.13-6.08-1.85-9.08a24.1,24.1,0,0,0-1.36-3.25c2.32,0,4.3,0,6.29,0,1.25,0,2.51,0,3.76-.1,6.26-.65,8.27-4.34,5-9.69-2.37-3.91-4.47-7.85-5.34-12.39-2-10.31-1.2-20.56.64-30.79.35-2,.87-3.92,1.35-6,3.64.83,4.66,2.86,4.81,6.31.6,13.18,2.59,26.15,7.53,38.48,4,9.95,9.72,18.56,19.65,23.63l.51,2.12-.19.13C371.2,241.31,364.49,237.9,358.28,233.19Z"/><path class="cls-5" d="M211.75,117.32c-.35.64-.71,1.28-1.07,1.91-.06-.47-.11-.94-.14-1.4Z"/><path class="cls-5" d="M333.93,95.81a18.69,18.69,0,0,1-7.73,10.45,51.27,51.27,0,0,0-2.55-14.4,45.32,45.32,0,0,0-3.39-7.74h0a44.2,44.2,0,0,0-2.4-3.84,42.57,42.57,0,0,0-4.26-5.17,46.55,46.55,0,0,0-23.48-12.94c-.29,1.36-.6,2.72-.9,4.1s-.63,2.87-.95,4.36-.7,3.22-1.08,4.91c-1.84-.83-3.21-1.48-4.6-2.08a47.53,47.53,0,0,0-17.06-4.15,37.85,37.85,0,0,0-8.15.55c-6.21-2-12.44-4-18.76-5.66a58.13,58.13,0,0,0-8.87-1.55c.09-.18.19-.37.3-.55l.15-.28.24-.41a.47.47,0,0,1,.06-.09c.3-.51.61-1,.94-1.48l.1-.15c.12-.19.25-.37.38-.54s.16-.23.24-.33.3-.4.46-.59.25-.32.38-.47a.31.31,0,0,1,.09-.11l0-.06.38-.45a.93.93,0,0,1,.14-.14,7.57,7.57,0,0,1,.61-.66c.13-.15.27-.29.41-.43l.12-.12.3-.29.13-.12.33-.3.68-.59c.31-.27.64-.53,1-.78l.64-.47h0c.22-.16.45-.31.68-.46l.69-.44.72-.43.07,0,.62-.34.1-.05.51-.26.36-.18.53-.24.75-.33.35-.14.31-.12.35-.14c.57-.21,1.15-.41,1.75-.59l.68-.2,1-.26.61-.14.36-.08c.58-.13,1.17-.24,1.78-.34,2.2-.37,4.38-1,6.56-1.44l5.69,1c2.44-6.12,4.46-12,10.05-15.57,2.34.06,4.69,0,7,.12,1.09,0,2.19.09,3.28.2a76.18,76.18,0,0,1,11.07,1.65c10.48,2.54,18.69,7.55,24.95,14.67a49.29,49.29,0,0,1,4.13,5.42,56.54,56.54,0,0,1,3,5.09c.5,1,1,1.93,1.42,2.93h0c.7,1.55,1.36,3.15,2,4.81a69.83,69.83,0,0,1,2.5,8.58c.35,1.56.65,3.13.9,4.7h0q.26,1.55.45,3.09c0,.38.1.77.14,1.16C333.6,88.47,333.83,92.13,333.93,95.81Z"/><path class="cls-6" d="M235.81,129.87c-.21.36-.43.72-.64,1.09-.89,1.55-1.77,3.11-2.65,4.64A31.81,31.81,0,0,1,235.81,129.87Z"/><path class="cls-6" d="M265.15,100.74l-.14.09-1,.65-.84.57-.52.36c-.59.41-1.17.84-1.75,1.27-.18.14-.36.28-.55.41l-.73.57-.57.44-.89.72-1,.83-.07.06h0c-.75.63-1.49,1.27-2.23,1.93l-.7.64s0,0,0,0h0c-.52.48-1.05,1-1.57,1.47A62,62,0,0,1,265.15,100.74Z"/><path class="cls-6" d="M320.25,84.12q-3.84-.08-7.71-.35c-5.47-.37-10.91-1.31-16.35-2.08a34.91,34.91,0,0,1-5.35-1.15c-8.24-2.57-16.45-5.23-24.68-7.83-2.93-.93-5.86-1.89-8.79-2.85a37.85,37.85,0,0,1,8.15-.55,47.53,47.53,0,0,1,17.06,4.15c1.39.6,2.76,1.25,4.6,2.08.38-1.69.73-3.32,1.08-4.91s.64-2.93.95-4.36.61-2.74.9-4.1a46.55,46.55,0,0,1,23.48,12.94,42.57,42.57,0,0,1,4.26,5.17A44.2,44.2,0,0,1,320.25,84.12Z"/><path class="cls-7" d="M326.73,303.93a2.56,2.56,0,0,0-.1-.34,4.65,4.65,0,0,0-.35-.77c-.59-.26-1.16-.54-1.71-.85-.2-.1-.38-.21-.56-.31-.37-.22-.73-.44-1.08-.67l-.53-.35a32.72,32.72,0,0,1-3.47-2.75c-.63-.55-1.24-1.12-1.84-1.71-2.12-2.07-4.14-4.3-6.32-6.43,11.06-4.37,14.3-8.08,12.59-14.37-8.94,6.62-17.41,4.88-25.59-2.14-1.11,4.2,1.12,7.2,1.5,10.48l.24,1-.63-.56c-5.63-2.49-8.35-7.18-9.64-13-1.56.74-2.94,1.5-4.39,2.07-10.28,4.08-18,2.35-24.93-5.57-2.38-2.7-4.49-3.69-7.88-3.36-7,.67-13.16-1.36-17.23-7.34a30.13,30.13,0,0,1-4.4-9.69c-1.23-5-1.61-10.3-2.47-16.3l-12.79,11.44-2.47-1.23c-1.26,5.67.75,10,4.6,13.37a107.22,107.22,0,0,0,11,8.65c3.49,2.35,7.36,4.17,11.8,6.62-10,.56-17.69-3.55-26.67-7.57,1,3.72,1.32,6.57,2.55,9,5.74,11.18,16.59,14.41,27.63,17.23a.73.73,0,0,0,.46,0c4.33-1.65,8.28-.29,12.18,1.54a5.12,5.12,0,0,0,2.23.59c10.32-.18,20.64-.37,30.95-.69,4-.13,8-.6,12.35-.94-.91,1.84-1.69,3.36-2.42,4.9-1.86,3.93-3.74,7.85-5.59,11.79q3.88.26,7.92.36a74.19,74.19,0,0,0,1.22-7.33,31.43,31.43,0,0,1,.54,7.37c2.37.05,4.77.05,7.21,0-.4-2.91-.93-5.84-1.49-8.76l.93-.29,9.4,8.75c2.38-.14,4.78-.3,7.21-.52A2.64,2.64,0,0,0,326.73,303.93Zm-17.85-7.76v-.7c.1.13.27.25.27.36S309,296.06,308.88,296.17Zm17.38,6.62,0,0,0,0Z"/><path class="cls-8" d="M307.59,199.23h0v0Z"/><path class="cls-8" d="M316.93,206.8h0Z"/><path class="cls-8" d="M317.79,149.38l0,0h0Z"/><path class="cls-8" d="M321.62,209.69l-.06,0h0Z"/><path class="cls-8" d="M364.74,164.27c-1.88-2.82-3.57-5.79-5.68-8.43-5.21-6.55-11.87-10.33-20.49-10.39A40.48,40.48,0,0,0,323,148.1a37.17,37.17,0,0,1-5.29,1.31l-1.2.88-6.42,7.34v-5l-7.7-2.37c-3.7,0-7.45-.42-11.11,0-6.66.71-10.49,5-12.5,11.13a26,26,0,0,1-1.55,3.24c.33,8.36,5.1,13.9,11.52,19l2-6.27c.91,4.93,1.41,10.1,2.86,15,2.68,9.08,7.05,17.08,16.57,20.86,7.71,3.06,15.59,5.62,23.85,6.57,3.31.38,6.75.94,11-.58a51,51,0,0,1-6.72-26.08c.11-9.08,2.09-17.8,4.42-26.52-5.55-.43-5.82-.38-7.53,3.16a36.13,36.13,0,0,0-3.78,19.07c.66,7.09,2.59,14.06,4,21.07.29,1.44.72,2.85,1.15,4.52-5.58.69-9.66-2.3-14.16-3.69l-.95-1.08-1.86-1,.06,0-2.84-1.92h0L313.17,204l-1.83-1a4.2,4.2,0,0,0-3.76-3.79v0h0v0q-3.79-6.55-7.6-13.11l0,.06c-.34-1-.68-2-1-3-1-4.37-1.84-8.78-3.06-13.09-.87-3-1.88-6.13-5-8.63-1,2.55-1.78,4.66-2.63,6.88-2.37-3-1.57-5.64.37-8.19,2.86-3.74,6.75-4.74,11.23-4l1,.7-1,1.09a2.52,2.52,0,0,0-.82.08l-1.82,2.61c4.32,5.94,9.34,7.14,16.34,4.16A131.57,131.57,0,0,1,327,159.5c8.91-2.67,17.87-3,26.13,2.1,3.72,2.29,8.12,4.3,8.9,9.5l1,.91c.81.87,1.67,1.12,1.75-.38C364.9,169.18,364.76,166.72,364.74,164.27ZM308,201.09a2.83,2.83,0,0,1-.26-.67A2.83,2.83,0,0,0,308,201.09Z"/><path class="cls-9" d="M361.53,280.42c-2.58-1.32-4.72-1.35-6.81.71-2.68,2.63-5.78,4.94-8,7.92-3.64,4.94-7.31,9.9-10.67,15.05q5.9-.78,11.95-2a106.9,106.9,0,0,1,11.46-16.85c.34,3.45-1.59,9.23-4.7,15.42q4-.92,8.11-2a67,67,0,0,0,3-6.88C368.48,284.82,367.91,283.71,361.53,280.42Z"/><path class="cls-10" d="M333.93,95.81c-.27-9.71-1.39-19.29-4.74-28.49-6.2-17-17.52-28.58-35.44-32.93a76.18,76.18,0,0,0-11.07-1.65c-3.42-.32-6.87-.23-10.31-.32A29.2,29.2,0,0,1,298.6,26a50.76,50.76,0,0,1,18.88,7.84c8.4,6,13.23,14.36,16.31,24s3.65,19.33,2.8,29.19C336.34,90,334.85,92.89,333.93,95.81Z"/><path class="cls-9" d="M304,146.45l-8.78-3.23c.83-3.55,2.1-7-.15-10.43-3.53,3.56-5.69,4.31-8.39,2.92-2.86-1.47-3.52-3.64-2.5-8.75-4.3.11-7,2.44-8.63,6-2.37,5.27-.58,9.7,3.65,13.62l-4.43,3.57c-6.36-5.25-8.41-17-1.12-25.57a19.08,19.08,0,0,1,25.07-3.21C306.82,127.11,309.06,137.42,304,146.45Z"/><path class="cls-11" d="M292.57,297l-4.76,8.1A223.31,223.31,0,0,1,264,301.66a38.88,38.88,0,0,0,.46-4.67Z"/><path class="cls-5" d="M297.87,244.56a21.66,21.66,0,0,1-11.14-10.34c-2.28-7.39-2-15-1.81-22.58a17.67,17.67,0,0,1,.78-3.49c6.33,12.47,16.51,18.31,29.38,20.28.1.7.21,1.4.31,2.1a64.56,64.56,0,0,1-2,6.18c-2.71,6.29-5.85,8.17-12.73,7.87C299.73,244.54,298.8,244.56,297.87,244.56Z"/><path class="cls-12" d="M315.08,228.43c-12.87-2-23.05-7.81-29.38-20.28a17.67,17.67,0,0,0-.78,3.49c-.17,7.59-.47,15.19,1.81,22.58-4.43-4.73-6.54-10.69-7.29-16.81a42.38,42.38,0,0,1,4.45-25.4c.35-.65.83-1.24,1.68-2.48.83,3.16,1.42,5.68,2.15,8.16,2.71,9.24,7.29,17.25,15.71,22.44a23.86,23.86,0,0,0,8.09,3.45C314.75,224.15,315.28,225.8,315.08,228.43Z"/><path class="cls-13" d="M323.57,178.51c3,1.72,1.39,5.05,2.57,7.47.64,1.29.11,3.15.11,4.75-.28,1.41-1,2.89-.77,4.21.71,4.32,1.76,8.6,2.68,12.89-4.78-.15-7.92-3.43-11.07-6.27a39.87,39.87,0,0,1-10.56-14.46l-.84-2a5,5,0,0,1-.16-.67l.35-4,4.67.72C315.21,181.81,319.67,181.58,323.57,178.51Z"/><path class="cls-14" d="M297.55,251.4c-1,0-2.22.46-3.09.1-13.73-5.67-22.6-15.59-24.45-30.52a59.17,59.17,0,0,1,4.42-30.67,11.55,11.55,0,0,0,.61-8.16c-.43-1.51.07-3.3.14-5l6.83,6.43a55.45,55.45,0,0,0-7,19.85c-2.08,15.4.32,29.65,12.25,40.8C290.26,247.09,294.09,249.05,297.55,251.4Z"/><path class="cls-15" d="M362,171.1l-.83-.42-1.37-.69-1.38-.7-1.36-.7-1.63-.87c-10.3-5.63-20.83-5.75-31.48-1.2-5.34,2.28-10.61,4.36-16.64,3.69A14.42,14.42,0,0,1,294.49,158h4.56l-1.82,2.61c4.32,5.94,9.34,7.14,16.34,4.16A131.57,131.57,0,0,1,327,159.5c8.91-2.67,17.87-3,26.13,2.1C356.86,163.89,361.26,165.9,362,171.1Z"/><path class="cls-16" d="M326.31,302.84c-1.38-2.18-2.76-4.35-4.11-6.54s-2.54-4.16-4.15-6.8c9.88-2.05,14.35-7.62,12.92-17.51l14,8.06c-3.46,4.31-6.78,8.8-10.52,12.91-1,1.16-3.31,1.21-5.3,1.86l1.78,3.18c-1.09,1.89-1.49,4.6-4.68,4.79Z"/><path class="cls-17" d="M357.6,138.33l-9.54-3c-.09-1.25-.19-2.6-.3-4.24-2.45,1-4.87,1.8-6.82-.53s-1.19-4.6,1-7.46l-7.87.83c4.49-6.5,12.13-8.12,18.76-4C359.16,123.82,361.18,131.48,357.6,138.33Z"/><path class="cls-18" d="M256.63,47c-2.18.48-4.36,1.07-6.56,1.44-.61.1-1.2.21-1.78.34l-.36.08-.61.14-1,.26-.68.2c-.6.18-1.18.38-1.75.59l-.35.14-.31.12-.35.14-.75.33-.53.24-.36.18c-.18.08-.35.17-.51.26l-.1.05-.62.34-.07,0-.72.43-.69.44c-.23.15-.46.3-.68.46h0l-.64.47c-.33.25-.66.51-1,.78l-.68.59-.33.3-.13.12-.3.29-.12.12c-.14.14-.28.28-.41.43a7.57,7.57,0,0,0-.61.66.93.93,0,0,0-.14.14l-.38.45,0,.06a.31.31,0,0,0-.09.11c-.13.15-.26.31-.38.47s-.31.39-.46.59l-.24.33c-.13.17-.26.35-.38.54l-.1.15c-.33.48-.64,1-.94,1.48a.47.47,0,0,0-.06.09l-.24.41-.15.28c-.11.18-.21.37-.3.55s-.28.54-.42.81-.3.61-.44.92-.23.52-.34.77c-.36.86-.7,1.73-1,2.64-.09.27-.18.53-.26.81-.23.7-.44,1.43-.64,2.16-1,3.88-1.38,7.95-2,11.93a26.67,26.67,0,0,1-3-12.55,2.81,2.81,0,0,1,0-.29c0-.14,0-.3,0-.45l0-.5,0-.31a20.32,20.32,0,0,1,.43-2.74l.07-.32.09-.36c.08-.31.16-.61.26-.91.14-.47.29-.93.46-1.38.06-.17.13-.32.19-.48.21-.54.45-1.07.7-1.59.13-.26.26-.52.4-.77s.27-.5.42-.75.29-.49.44-.73.31-.49.47-.72.33-.47.5-.7.34-.45.51-.68h0a26.6,26.6,0,0,1,3.55-3.72c.11-.1.21-.19.33-.28l.09-.08c.18-.16.37-.31.57-.47l.8-.62,0,0c.29-.22.57-.42.87-.62l.52-.35.41-.26a29.71,29.71,0,0,1,2.63-1.47l.47-.22.53-.25.63-.28,1-.37c.24-.1.47-.18.71-.26l.66-.22c.34-.11.68-.21,1-.3s.45-.13.68-.18h0l.69-.16.2,0,.55-.11q.47-.09.93-.15l.76-.1C249.09,45.53,253,45.38,256.63,47Z"/><path class="cls-19" d="M364.74,164.27c-1.88-2.82-3.57-5.79-5.67-8.44-5.22-6.55-11.88-10.31-20.5-10.38A40.48,40.48,0,0,0,323,148.1a37.17,37.17,0,0,1-5.29,1.31c4.58-6,11.13-8.37,18.24-8.82,9.79-.63,18.61,1.72,24.42,10.61A24.57,24.57,0,0,1,364.74,164.27Z"/><path class="cls-7" d="M371.49,251.43l8.2-.94c2.68,2.32,3.67,5.26,2.44,9.25-1.77,5.76-4.18,11.06-8.61,15.27-1.12,1.07-2.21,2.45-4.07.44A40.68,40.68,0,0,0,371.49,251.43Z"/><path class="cls-20" d="M330,258.65a32,32,0,0,1,4.07,2c8.87,6,18.32,7.32,28.46,3.88a11.6,11.6,0,0,1,2.3-.33c-.76,5-2.35,6.1-6.95,7.94a17.22,17.22,0,0,1-14.87-.7C337.39,268.59,332.62,264.63,330,258.65Z"/><path class="cls-14" d="M237.22,225.22c1.37,5.5,1.93,11.19,4.68,16.35a51.68,51.68,0,0,0,9.1,12.81,19.55,19.55,0,0,1,2.05,3c-4.62.94-7.89-1.55-10.45-4.75-6.19-7.75-7.67-16.78-6.32-26.41C236.33,225.83,236.9,225.54,237.22,225.22Z"/><path class="cls-16" d="M375.52,288.85l-1.17-9.62L384.86,271c3.64,4.72,3.21,9.48-1.37,13.3a22.86,22.86,0,0,1-3.47,2.37C378.69,287.45,377.26,288,375.52,288.85Z"/><path class="cls-20" d="M223.73,190.84c-.92,3.57-1.86,7.14-2.76,10.72-2.25,8.87-4,17.82-3.91,27-3.9-2.37-4.39-6.57-4.16-10.22C213.53,208.14,217.75,199.09,223.73,190.84Z"/><path class="cls-13" d="M328.23,246.28l-6.67-.81c.89-4.94,1.78-9.88,2.74-15.18h5.76l2.94,4.83A13.58,13.58,0,0,1,328.23,246.28Z"/><path class="cls-12" d="M323.57,178.51c-3.9,3.07-8.36,3.3-13,2.58l-4.67-.72-.35,4c-2.92-3-3.31-7.07-5.32-11.62,1.83.63,2.63.85,3.38,1.16a18.28,18.28,0,0,0,11.28,1.23C320.91,174,322.77,174.69,323.57,178.51Z"/><path class="cls-14" d="M358.28,233.19c6.21,4.71,12.92,8.11,21,8-1.6,2.47-4.15,3.18-6.82,3.34s-5.63,0-8.45,0c-2.3-3.56-4.94-7-5.72-11.3Z"/><path class="cls-20" d="M295.45,258.47a6.75,6.75,0,0,1,2,1c5.74,6.45,13.07,8.87,21.49,8.63a14,14,0,0,1-17.06,0C298.69,265.71,295.72,262.92,295.45,258.47Z"/><path class="cls-12" d="M330.06,230.29H324.3c-1,5.3-1.85,10.24-2.74,15.18l-2.3-.22c.47-3.31,1.34-6.45,1.25-9.57s-1.09-6.28-1.81-10C323,226.81,327.4,226.23,330.06,230.29Z"/><path class="cls-21" d="M297.87,244.56c.93,0,1.86,0,2.79,0,6.88.3,10-1.58,12.73-7.87a64.56,64.56,0,0,0,2-6.18c1.26,4.08.4,8.07-.79,11.93a6.39,6.39,0,0,1-6.63,4.9C304.35,247.3,300.84,246.92,297.87,244.56Z"/><path class="cls-22" d="M302.43,150.3c-3.7,0-7.45-.42-11.11,0-6.66.71-10.49,5-12.5,11.13a26,26,0,0,1-1.55,3.24c-.33-9.1,3.41-15.14,10.86-16.84A18.13,18.13,0,0,1,302.43,150.3Z"/><path class="cls-20" d="M312.92,140.07c4.23-2.18,8.32-4.77,13.34-4.74-.32.9-.37,2.31-1,2.62-4.66,2.37-8.84,5.23-11.87,9.63-.41.58-1.53.67-3,1.27C311.35,145.47,312.13,142.77,312.92,140.07Z"/><path class="cls-20" d="M345.12,96.55c-2.66,5.67-5.87,11-10.67,15.09-1.19,1-2.9,1.41-4.37,2.1l12.06-18.15Z"/><path class="cls-21" d="M328.16,207.83c-.92-4.29-2-8.57-2.68-12.89-.22-1.32.49-2.8.77-4.21a9.89,9.89,0,0,1,1,1.93q1.85,7.23,3.57,14.49a12.85,12.85,0,0,1,0,2.54l-1.89-1-.84-.86Z"/><path class="cls-21" d="M328.23,246.28A13.58,13.58,0,0,0,333,235.12a22,22,0,0,1,1.53,3.71C335.55,243.66,333.43,246.11,328.23,246.28Z"/><path class="cls-23" d="M307.59,199.23h0v0h0Z"/><path class="cls-23" d="M307.58,199.2v0h0v0Z"/><path class="cls-23" d="M316.93,206.8h0Z"/><path class="cls-23" d="M316.93,206.8h0Z"/><path class="cls-14" d="M379.45,241l-.51-2.12,1.61.5Z"/><path class="cls-12" d="M305.69,185.08l.84,2Z"/><path class="cls-15" d="M299.9,156.1l1,.7-1,1.09Z"/><path class="cls-13" d="M328.13,207.79l.84.86Z"/><path class="cls-14" d="M237.53,222.57l-.25,1.54Z"/><path class="cls-19" d="M317.79,149.38l-1.24.91Z"/><path class="cls-15" d="M362,171.1l1,.91Z"/><path class="cls-14" d="M358.27,233.19l-.69-.35.7.35Z"/><path class="cls-24" d="M299.27,283.72l.24,1-.63-.56Z"/><path class="cls-24" d="M308.88,295.47c.11.13.27.25.27.36s-.17.23-.27.34Z"/><path class="cls-2" d="M400.4,22.09c-.49-5.22-1.41-10.38-3.83-15.1a17.81,17.81,0,0,0-2.88-4.15C390.06-.92,385.18-1,381.84,3a33.64,33.64,0,0,0-5.52,9c-4.85,12.11-9.32,24.38-14,36.55-2.8,7.23-5.86,14.37-8.72,21.58-1,2.48-3.44,1.73-5.23,2.9l-1-2.23c-2.37-5.15-4.87-10.21-7.54-15.17A217.06,217.06,0,0,0,325.1,31.75,180.19,180.19,0,0,0,311.29,14.6a71.07,71.07,0,0,0-10.93-9.3,19.59,19.59,0,0,0-6.8-2.7c-3.1-.76-5.84.33-8.11,2.58-1.1,1.1-2.32,2.08-3.38,3.21-5,5.34-11.06,6.37-17.87,4.64-3.69-.94-7.41-1.83-11.08-2.83-5.83-1.58-10.77-.18-14.76,4.32-4.37,4.92-6.72,10.92-8.63,17.07-1.75,5.63-3.23,11.34-4.8,17-.12.43-.25.86-.36,1.29l-.95.07c-3.73.28-7.57.4-11.33,1C195.43,53.55,181.57,61.31,172,75.68c-12.88,19.35-10.27,42.92,6.33,59.68,9.53,9.62,21.17,15.72,34,19.51,5,1.5,10.18,2.64,15.34,3.74a62.61,62.61,0,0,1,.53-6.68c-.5-.06-1-.14-1.5-.22q-1.77-.27-3.51-.6l-.63-.12-.68-.13-2.06-.44-1.22-.29-.89-.22-1-.26c-.79-.21-1.57-.43-2.35-.66l-.79-.24-.63-.2-.59-.2-.83-.27c-14.28-4.9-26.39-12.69-34.75-25.63-9.6-14.85-8.53-33.56,2.9-46.85C187,67.12,196.5,62.25,207,58.92l1.1-.34.76-.22.16,0,.9-.25.85-.22.76-.19.76-.17.76-.16c.52-.11,1-.22,1.57-.31l.45-.08.59-.09.23,0,.9-.13.82-.1.57-.06.3,0,.66-.06c.57-.05,1.14-.09,1.71-.11.29,0,.58,0,.87,0h2.14l.77,0h.16l.78,0h.11l1,.08c.48,0,1,.1,1.44.17l.51.07,1.3.22.64.13.59.12.71.17,1.27.31a127.52,127.52,0,0,1,18.15,6.15q7.1,3,14.29,5.51a200.77,200.77,0,0,0,52.33,11l1,.07a133.28,133.28,0,0,0,13.69.25h.09c.55,0,1.11,0,1.66-.09.27,0,.54,0,.81-.05l.77,0,1-.09.81-.07,1.18-.13L340,80l1.15-.15,1.15-.18,1.11-.18h0l1.15-.22q.57-.1,1.14-.24l1.15-.25c13.85-3.23,24.49-10.84,31.63-23.24,4.54-7.88,8.12-16.13,9.8-25.11A44.47,44.47,0,0,0,388.52,14c-2,19.77-8.07,37.63-23.78,51.61a15.34,15.34,0,0,1,.32-1.92c5-14.38,9.91-28.8,15.12-43.1A67.89,67.89,0,0,1,386.12,9c1.25-2.07,3.11-1.81,4,.46A62.75,62.75,0,0,1,392,17a3.23,3.23,0,0,1,.33.74,98.11,98.11,0,0,1-.81,33.79,104.73,104.73,0,0,1-9.86,28.62c-5.17,10.15-11.61,19.26-20.45,26.38l-.09.07-.13.1a29.9,29.9,0,0,1,.58,5.24,52.71,52.71,0,0,0,17.06-13.84c9.05-10.75,14.53-23.3,18.1-36.74C400.09,48.47,401.67,35.4,400.4,22.09ZM264.47,63.66c-5.85-2.45-11.68-5-17.65-7.14l-.86-.29c-.17-.07-.34-.12-.52-.18-.69-.23-1.37-.44-2.07-.65l-.1,0L242.12,55c-1.62-.46-3.26-.88-4.92-1.32L235,53.13l-1-.28-1.24-.33c0-.08,0-.16,0-.25s0-.34,0-.53a6.94,6.94,0,0,1,.11-1.09v0c0-.06,0-.13,0-.18s0-.14,0-.21c.52-2.08,1-4.16,1.51-6.24.16-.7.33-1.39.5-2.08.22-1,.45-1.9.69-2.85l.37-1.42c.24-.95.5-1.89.77-2.83.11-.42.23-.84.36-1.25a.09.09,0,0,1,0,0c.1-.36.21-.71.33-1.06.18-.62.38-1.23.58-1.84a48.8,48.8,0,0,1,5.86-11.16,6.58,6.58,0,0,1,7.82-2.78c4.05,1.2,8.07,2.52,12.19,3.41a22.06,22.06,0,0,0,16.54-2.45A71.72,71.72,0,0,0,288,12.08c3-2.37,6.05-2.56,9.2-.56a22.13,22.13,0,0,1,5.18,4c1.81,2.11,3.62,4.23,5.41,6.36l.6.72c.61.72,1.21,1.44,1.81,2.17l1.19,1.45,1.11,1.37,1.2,1.51,1.17,1.52c.39.5.77,1,1.15,1.51s.75,1,1.11,1.51l.44.6,1,1.41c.74,1.05,1.47,2.11,2.19,3.17l.75,1.11,1,1.44,1,1.45,1.89,2.9L327,48.4c1.91,3,3.81,6,5.74,8.93h0l0,0a.31.31,0,0,1,.09.07s0,.07,0,.11l-.09-.18,0,0,0,0-.61-.09c-.13,0-.26,0-.38-.06a2.94,2.94,0,0,1-.6-.16l-1.52-.53c-.46-.17-.92-.32-1.38-.47l-.21-.06c-.42-.14-.83-.27-1.25-.39l-.59-.18c-.79-.23-1.58-.45-2.38-.65l-1-.26-1-.24L320.68,54l-.69-.14c-.76-.16-1.53-.3-2.3-.43s-1.37-.23-2.07-.32-1.39-.19-2.08-.26l-.77-.08c-1.13-.11-2.26-.2-3.41-.26l-.76,0-.55,0-.68,0-1.23,0c-13.72-.12-26.44,3.08-37.79,11A3.55,3.55,0,0,1,264.47,63.66Zm72.4,12-5.18.19h0c-3.93-.08-7.88,0-11.8-.27-1.69-.12-3.38-.25-5.07-.41l-1.23-.11L312.13,75c-1-.1-1.93-.21-2.9-.33-.33,0-.65-.07-1-.12l-1-.13c-.9-.12-1.79-.24-2.68-.38l-2.23-.35c-1.56-.25-3.11-.54-4.65-.84L296,72.46l-1.81-.41c-.58-.12-1.16-.26-1.74-.4l-.13,0-1.76-.44-2.26-.55L273.19,67A4.4,4.4,0,0,1,275,65.38c12.51-6.74,26-8.7,39.94-7.56l.86.07.51.06.83.09,1.91.26a0,0,0,0,1,0,0l.93.14c1.51.25,3,.54,4.51.84l1.36.28,1.41.3,1.9.39,2.19.45.25,0,.37.07c.29.06.59.12.88.2l.38.1.4.13.19.07a3.17,3.17,0,0,1,.37.16l.17.08h0l.17.1a3.62,3.62,0,0,1,.32.22L335,62a1.54,1.54,0,0,1,.17.19,45.21,45.21,0,0,1,7.17,13.29C340.43,75.59,338.63,75.65,336.87,75.71Z"/><path class="cls-6" d="M361.08,106.56l-.13.1c0-.11-.05-.22-.07-.33Z"/><path class="cls-25" d="M323.65,91.86a45.32,45.32,0,0,0-3.39-7.74h0q-3.84-.08-7.71-.35c-5.47-.37-10.91-1.31-16.35-2.08a34.91,34.91,0,0,1-5.35-1.15c-8.24-2.57-16.45-5.23-24.68-7.83-2.93-.93-5.86-1.89-8.79-2.85-6.21-2-12.44-4-18.76-5.66a57.75,57.75,0,0,0-15.43-1.8c-.35,0-.69,0-1,0s-.95,0-1.43.07-.94.06-1.41.1-.94.08-1.4.13l-1.3.15-.1,0-.88.11-.78.12-1.66.29-.93.18-.7.15-.7.16-1.14.27c-.45.12-.9.23-1.34.36l-.07,0-.79.23c-.23.06-.46.14-.69.21l-.66.2-.92.31c-.85.29-1.68.6-2.51.93l-.69.28c-1,.42-2.06.88-3.08,1.38l-.75.37-.75.39c-.75.39-1.49.79-2.22,1.23l-.54.31-1,.64c-.21.12-.41.25-.62.39l-.72.47c-.24.15-.48.31-.71.48-5,3.44-9.3,7.63-11.87,13.23a43,43,0,0,0-3.35,23.71,22,22,0,0,0,2.81,8.81c.58-6.2,1.08-12.67,1.8-19.13a18.78,18.78,0,0,1,6.73-12.32A17.66,17.66,0,0,1,190.21,85c.86-.51,1.75-1,2.61-1.53a41.36,41.36,0,0,0-7.22,20.89,73,73,0,0,0,.28,9.46c.88,12,6.86,20.51,17.33,26.26l.79.43.66.34c.63.33,1.27.64,1.91.95l.86.41.75.34c.69.31,1.39.61,2.08.9l.64.26c.78.32,1.57.62,2.36.91l.79.29.8.28.69.24.17.05c.47.16.94.32,1.41.46l.25.08,1.47.45,1.62.47,1.55.43c1.11.29,2.22.57,3.34.83l1.63.38c.54.13,1.09.25,1.64.36.08-.54.17-1.08.26-1.61l0-.06a48.19,48.19,0,0,1,3.62-11.66,31.81,31.81,0,0,1,3.29-5.73h0c4.46-7.33,10.58-13.23,16.73-19.08a62,62,0,0,1,12.6-10.05l.57-.37c.39-.25.79-.5,1.19-.73s.71-.43,1.07-.64.79-.46,1.2-.68,1-.56,1.53-.83l1.16-.59c.39-.2.79-.4,1.19-.58a4.54,4.54,0,0,1,.45-.21l1-.45,1.32-.56.42-.18,1.17-.46c1.37-.53,2.74-1,4.1-1.4l.91-.26.65-.17.39-.1a.65.65,0,0,1,.18,0l.08,0h.06l.06,0h0q.8-.2,1.59-.36L286,92c.4-.09.8-.15,1.2-.22l1.13-.17.55-.07.88-.1.69-.06,1.07-.08.58,0,.42,0H293a39.87,39.87,0,0,1,23.91,7.53c3.27,2.25,6.21,5,9.29,7.52A51.27,51.27,0,0,0,323.65,91.86Zm-113,27.37c-.06-.47-.11-.94-.14-1.4l1.21-.51C211.4,118,211,118.6,210.68,119.23Z"/><path class="cls-6" d="M211.75,117.32c-.35.64-.71,1.28-1.07,1.91-.06-.47-.11-.94-.14-1.4Z"/><path class="cls-6" d="M235.81,129.87c-.21.36-.43.72-.64,1.09-.89,1.55-1.77,3.11-2.65,4.64A31.81,31.81,0,0,1,235.81,129.87Z"/><path class="cls-6" d="M265.15,100.74l-.14.09-1,.65-.84.57-.52.36c-.59.41-1.17.84-1.75,1.27-.18.14-.36.28-.55.41l-.73.57-.57.44-.89.72-1,.83-.07.06h0a33.88,33.88,0,0,0-2.93,2.57s0,0,0,0h0c-.52.48-1.05,1-1.57,1.47A62,62,0,0,1,265.15,100.74Z"/><path class="cls-6" d="M281.49,93.06l-.09.11a80.51,80.51,0,0,0-16.25,7.57l.57-.37c.39-.25.79-.5,1.19-.73s.71-.43,1.07-.64.79-.46,1.2-.68,1-.56,1.53-.83l1.16-.59c.39-.2.79-.4,1.19-.58a4.54,4.54,0,0,1,.45-.21l1-.45,1.32-.56.42-.18,1.17-.46C278.76,93.93,280.13,93.46,281.49,93.06Z"/><path class="cls-25" d="M391.48,51.49a104.73,104.73,0,0,1-9.86,28.62c-5.17,10.15-11.61,19.26-20.45,26.38-.35-1.84-3-13.62-12.74-15.76A24.87,24.87,0,0,0,345.49,88a17,17,0,0,0-1.75-1.2,15.28,15.28,0,0,0-7-2.19A13.35,13.35,0,0,0,326,89c-.82.91-1.57,1.88-2.32,2.87a45.32,45.32,0,0,0-3.39-7.74l2.56,0h1.76l1.42,0h.5l1.6-.06,1.32-.07.77,0c.54,0,1.09-.07,1.63-.12l1.19-.1h0l.6-.06,1.47-.16,1.64-.2h.1c1-.13,1.93-.28,2.89-.44l.81-.15.53-.1,1.49-.29.94-.2.79-.18c.79-.18,1.59-.37,2.38-.58l.79-.22.79-.22c.78-.22,1.57-.46,2.36-.72l.78-.26c.78-.26,1.56-.54,2.34-.83l.68-.26q.82-.32,1.65-.66c10-4.19,18.61-10.31,24.77-19.39a50.25,50.25,0,0,0,7.91-19.2c1.12-6.16,1.88-12.38,2.78-18.57.19-1.34.29-2.69.43-4a3.23,3.23,0,0,1,.33.74A98.11,98.11,0,0,1,391.48,51.49Z"/><path class="cls-5" d="M392,17c-.14,1.34-.24,2.69-.43,4-.9,6.19-1.66,12.41-2.78,18.57a50.25,50.25,0,0,1-7.91,19.2c-6.16,9.08-14.74,15.2-24.77,19.39q-.82.34-1.65.66l-.68.26c-.78.29-1.56.57-2.34.83l-.78.26c-.79.26-1.58.5-2.36.72l-.79.22-.79.22c-.79.21-1.59.4-2.38.58l-.79.18-.94.2-1.49.29-.53.1-.81.15c-1,.16-1.93.31-2.89.44h-.1l-1.64.2-1.47.16-.6.06h0l-1.19.1c-.54,0-1.09.08-1.63.12l-.77,0L328.1,84l-1.6.06H326l-1.42,0h-1.76l-2.56,0h0q-3.84-.08-7.71-.35c-5.47-.37-10.91-1.31-16.35-2.08a34.91,34.91,0,0,1-5.35-1.15c-8.24-2.57-16.45-5.23-24.68-7.83-2.93-.93-5.86-1.89-8.79-2.85-6.21-2-12.44-4-18.76-5.66a57.75,57.75,0,0,0-15.43-1.8c-.35,0-.69,0-1,0s-.95,0-1.43.07-.94.06-1.41.1-.94.08-1.4.13-.87.09-1.3.15l-.1,0-.88.11-.78.12-1.66.29-.93.18-.7.15-.7.16-1.14.27c-.45.11-.89.23-1.34.36l-.07,0-.79.23c-.23.06-.46.14-.69.21l-.66.2-.92.31c-.85.29-1.68.6-2.51.93l-.69.28c-1,.42-2.06.88-3.08,1.38l-.75.37c-.25.13-.5.25-.75.39-.75.39-1.49.79-2.22,1.23l-.54.31-1,.64c-.21.12-.41.25-.62.39l-.72.47c-.24.15-.48.31-.71.48-5,3.44-9.3,7.63-11.87,13.23a43,43,0,0,0-3.35,23.71,22,22,0,0,0,2.81,8.81c.58-6.2,1.08-12.67,1.8-19.13a18.78,18.78,0,0,1,6.73-12.32A17.66,17.66,0,0,1,190.21,85c.86-.51,1.75-1,2.61-1.53a41.36,41.36,0,0,0-7.22,20.89,73,73,0,0,0,.28,9.46c.88,12,6.86,20.51,17.33,26.26l.79.43.66.34c.63.33,1.27.64,1.91.95l.86.41.75.34c.69.31,1.39.61,2.08.9l.64.26c.78.32,1.57.62,2.36.91l.79.29.8.28.69.24.17.05c.47.16.94.32,1.41.46l.25.08,1.47.45,1.62.47,1.55.43c1.11.29,2.22.57,3.34.83l1.63.38c.54.13,1.09.25,1.64.36-.16,1-.3,2-.43,3l-1.5-.22q-1.77-.27-3.51-.6l-.63-.12-.68-.13-2.06-.44-1.22-.29-.89-.22-1-.26c-.79-.21-1.57-.43-2.35-.66l-.79-.24-.63-.2-.59-.2-.83-.27c-14.28-4.9-26.39-12.69-34.75-25.63-9.6-14.85-8.53-33.56,2.9-46.85C187,67.12,196.5,62.25,207,58.92l1.1-.34.76-.22.16,0,.9-.25.85-.22.76-.19.76-.17.76-.16c.52-.11,1-.22,1.57-.31l.45-.08.59-.09.23,0,.9-.13.82-.1.57-.06.3,0,.66-.06c.57-.05,1.14-.09,1.71-.11.29,0,.58,0,.87,0h2.14l.77,0h.16l.78,0h.11l1,.08c.48,0,1,.1,1.44.17l.51.07,1.3.22.64.13.59.12.71.17,1.27.31a127.52,127.52,0,0,1,18.15,6.15q7.1,3,14.29,5.51a200.77,200.77,0,0,0,52.33,11l1,.07a133.28,133.28,0,0,0,13.69.25h.09c.55,0,1.11,0,1.66-.09.27,0,.54,0,.81-.05l.77,0c.34,0,.68,0,1-.09l.81-.07,1.18-.13L340,80l1.15-.15,1.15-.18,1.11-.18h0l1.15-.22q.57-.1,1.14-.24l1.15-.25c13.85-3.23,24.49-10.84,31.63-23.24,4.54-7.88,8.12-16.13,9.8-25.11A44.47,44.47,0,0,0,388.52,14c-2,19.77-8.07,37.63-23.78,51.61a15.34,15.34,0,0,1,.32-1.92c5-14.38,9.91-28.8,15.12-43.1A67.89,67.89,0,0,1,386.12,9c1.25-2.07,3.11-1.81,4,.46A62.75,62.75,0,0,1,392,17Z"/><path class="cls-5" d="M332.79,57.36c-5.06-7.74-9.86-15.66-15.26-23.15-4.69-6.51-10-12.6-15.19-18.73a22.16,22.16,0,0,0-5.18-4c-3.15-2-6.23-1.8-9.21.56a70.56,70.56,0,0,1-7.47,5.56,22.06,22.06,0,0,1-16.54,2.45c-4.12-.89-8.14-2.21-12.19-3.41a6.58,6.58,0,0,0-7.82,2.78,49.19,49.19,0,0,0-5.86,11.16c-2.13,6.4-3.48,13.06-5.12,19.62a14.64,14.64,0,0,0-.25,2.27c4.82,1.35,9.57,2.39,14.12,4,6,2.13,11.8,4.69,17.65,7.14a3.53,3.53,0,0,0,3.88-.3c11.35-7.88,24.07-11.08,37.79-11a73.78,73.78,0,0,1,25,4.63,10.91,10.91,0,0,0,1.63.31ZM294.28,15.05c13.59,7.24,20.59,20.28,27.31,34.36-12.51-1.52-24.5-2.77-36,2.09-.17-.26-.29-.37-.31-.48a51.3,51.3,0,0,0-5.79-18,2.31,2.31,0,0,1,.54-2.08c1.66-1.62,3.71-2.88,5.22-4.61C288.31,22.79,291.11,19,294.28,15.05Zm-6,.28.27.22a20.45,20.45,0,0,1-1.63,2.35c-7.85,8.47-17.47,13.55-29,14.52-2.86.24-5.89-.53-8.73-1.27a5,5,0,0,1-4-4.63c-.14-2.71,1.27-4.55,3.62-5.71a9.16,9.16,0,0,1,8.39.28c8.73,4.32,17.06,3.41,25.13-1.64C284.31,18.16,286.26,16.71,288.26,15.33Z"/><path class="cls-26" d="M290.52,71.18a160.21,160.21,0,0,0,29.37,4.45c3.92.26,7.87.19,11.8.27-.79-3.69-1.54-7.39-2.38-11.07-.37-1.62-1.55-2.28-3.17-2.66a61.36,61.36,0,0,0-18.34-1.82c-5.86.4-11.7,1.13-17.55,1.71-2,.19-2.16,1.13-1.5,2.86C289.52,66.94,290,69.09,290.52,71.18Z"/><path class="cls-5" d="M290.52,71.18c-.57-2.09-1-4.24-1.77-6.26-.66-1.73-.5-2.67,1.5-2.86,5.85-.58,11.69-1.31,17.55-1.71a61.36,61.36,0,0,1,18.34,1.82c1.62.38,2.8,1,3.17,2.66.84,3.68,1.59,7.38,2.38,11.07l10.63-.38a45.23,45.23,0,0,0-7.16-13.3c-.76-.93-2.5-1.25-3.85-1.51-5.46-1.07-10.9-2.45-16.42-2.9-13.95-1.12-27.43.83-39.94,7.57A4.4,4.4,0,0,0,273.19,67Z"/><path class="cls-27" d="M332.81,57.34l.12.23s0-.09,0-.11a.45.45,0,0,0-.14-.1Z"/><path class="cls-28" d="M192.81,83.46l.19-.08-.19.08Z"/><path class="cls-26" d="M294.28,15.05c-3.17,4-6,7.74-9,11.28-1.51,1.73-3.56,3-5.22,4.61a2.31,2.31,0,0,0-.54,2.08,51.3,51.3,0,0,1,5.79,18c0,.11.14.22.31.48,11.5-4.86,23.49-3.61,36-2.09C314.87,35.33,307.87,22.29,294.28,15.05Z"/><path class="cls-29" d="M288.26,15.33c-2,1.38-3.95,2.83-6,4.12-8.07,5.05-16.4,6-25.13,1.64a9.16,9.16,0,0,0-8.39-.28c-2.35,1.16-3.76,3-3.62,5.71a5,5,0,0,0,4,4.63c2.84.74,5.87,1.51,8.73,1.27,11.54-1,21.16-6.05,29-14.52a20.45,20.45,0,0,0,1.63-2.35Z"/><path class="cls-30" d="M271,177.06l-.78-.35Z"/><path class="cls-31" d="M223,176.05l-.22-.26c0,.13,0,.26.05.4Z"/><path class="cls-32" d="M311.68,108.18l.41.23-.09-.49Z"/><path class="cls-33" d="M329.44,102.65l.28-.19-.38.08Z"/><path class="cls-4" d="M348.43,90.73a.12.12,0,0,1,.05,0l-.15-.08A.29.29,0,0,1,348.43,90.73Z"/><path class="cls-4" d="M361.21,106.72l-.13-.16.09-.07A1.17,1.17,0,0,1,361.21,106.72Z"/><path class="cls-6" d="M265.15,100.74l-.14.09-1,.65-.84.57-.52.36c-.59.41-1.17.84-1.75,1.27-.18.14-.36.28-.55.41l-.73.57-.57.44-.89.72-1,.83-.07.06h0c-.75.63-1.49,1.27-2.23,1.93l-.7.64s0,0,0,0h0c-.52.48-1.05,1-1.57,1.47A62,62,0,0,1,265.15,100.74Z"/><path class="cls-2" d="M211.75,117.32c-.35.64-.71,1.28-1.07,1.91-.06-.47-.11-.94-.14-1.4Z"/><path class="cls-2" d="M358.84,132.26c-7,0-15-4.28-16.4-16.28-.05-.44-.1-.86-.14-1.28a40.72,40.72,0,0,0-1.39-7.88c-.83-2.5-1.67-2.5-2.28-2.5a7.64,7.64,0,0,0-2.53.53,11.43,11.43,0,0,1-3.79.65,8.91,8.91,0,0,1-5.25-1.57l-.11-.07-.11-.09c-5.69-4.43-12.43-5.58-20.61-6.5l-7.73,1.48,1.33-9.62.34-2.37L302,85.19c3.62-3.09,7-6.45,10.62-10,6.47-6.37,13.14-12.95,21.2-18,3.6-3,8.78-4.61,14.67-4.61,8.57,0,18.64,3.48,21.8,11.28,1.25,3.09,2.3,9.26-4.57,16.13a23.6,23.6,0,0,1,15.76,12.06,24.56,24.56,0,0,1,.31,21,24.76,24.76,0,0,1-22.94,19.17Z"/><path class="cls-34" d="M336.1,86.87l.06-.05h0Z"/><path class="cls-34" d="M306.13,90c10.58-9.07,19.55-20.36,31.45-27.69,2.62,0,5.25-.15,7.85.09,6.55.62,10.35,6.41,7.05,11.06-4.39,5.63-14.2,5.51-16.32,13.35-.19.11-.62.49-.89.69,1,.08,2.16.47,3.09.19,8.25-2.39,16.56-3.64,25.09-1.71,12.06,2.53,17.45,14.11,12.17,25.29l0,0c-5.75,6.17-14.55,11.81-18.36.62-2-11.26-10.86-20.93-22.74-17.42a5.78,5.78,0,0,1-4.1-.55c-7.72-4.78-15.94-4.69-24.43-3.08Z"/><path class="cls-35" d="M306.13,90.87c8.44-1.74,16.63-1.66,24.31,3a5.78,5.78,0,0,0,4.1.55c11.88-3.51,20.77,6.17,22.74,17.43,3.79,11.18,12.63,5.54,18.36-.63-2.06,13.75-24.64,22.73-26.88,4a52.19,52.19,0,0,0-1.82-10.39c-2.08-6.32-6.74-8.2-13-6a4.1,4.1,0,0,1-3.2-.11C323.41,93,314.94,91.83,306.13,90.87Z"/><path class="cls-35" d="M336.16,86.83c2.12-7.84,11.94-7.73,16.32-13.35,3.3-4.65-.5-10.44-7.05-11.06-2.6-.24-5.23-.07-7.85-.09,9.36-8.4,37.41-.2,23.42,13.39C353.67,81,344.48,83.44,336.16,86.83Z"/><path class="cls-35" d="M335.27,87.52l.91-.72Z"/><path class="cls-2" d="M302.68,84.6s-6.28,5.23-13.78,6.9,9.35,5,9.35,5l2.64-1"/><path class="cls-35" d="M306,91s13.38,9,20.19,15.29c0,0,5.22-7,10.75-8.16s-6.06-2.51-6.06-2.51L321,91.79,314.68,91"/><path class="cls-2" d="M333.93,99.25a24.21,24.21,0,0,0-7.73,7c-3.21,4.64-1,4.37-1,4.37l4.36-2.71,3.63-3.25"/><polyline class="cls-2" points="332.04 110.79 327.35 117.63 323.85 113.13"/><path class="cls-2" d="M352.32,184.46v0Z"/><polygon class="cls-2" points="26.09 452.34 38.45 402.45 0 380.87 27.02 365.42 41.02 357.42 66.72 342.73 69.52 349.02 69.69 349.4 69.7 349.41 69.9 349.87 72.94 356.72 37.27 372.58 29.09 378.82 56.95 394.45 49.7 423.72 84.39 407.63 72.5 367.58 80.18 365.3 87.86 363.01 103.7 416.34 26.09 452.34"/><polygon class="cls-2" points="498.5 412.19 525.88 336.79 606.99 378.17 567.76 402.38 577.22 452.24 498.5 412.19"/><path class="cls-36" d="M351.45,330.66l-2.65-.1,2.61.07S351.44,330.65,351.45,330.66Z"/><path class="cls-37" d="M336,330.22c4,.06,8.29.17,12.75.34Z"/><path class="cls-2" d="M537,328.07a31.82,31.82,0,0,1-1.13,4l-1.57,4.53-.09.26c-.42,1.17-.82,2.35-1.23,3.53q-2.1,6-4.19,12-1.71,4.88-3.4,9.75L514.8,392.37c-.13.35-.25.7-.38,1l-.58,1.59a7.11,7.11,0,0,1-4.06,4.16,7.2,7.2,0,0,1-2.58.49,7.06,7.06,0,0,1-3.23-.78l-.53-.27c-1.5-.76-3-1.48-4.43-2.14l-.05,0c-1.22-.57-2.56-1.16-4.08-1.8l-1.53-.63c-1-.43-2.09-.85-3.14-1.25-10-3.84-20.59-6.85-30.86-9.75l-6.87-1.95c-7.1-2-14.37-3.95-21.58-5.67-1.7-.41-3.46-.82-5.42-1.27-14.74-3.35-30.23-6.18-46.22-8.43q-7.1-1-14.32-1.87-6.79-.79-13.69-1.42c-11.06-1-22.3-1.66-33.62-1.95q-7.29-.21-14.62-.2c-6.33,0-12.77.11-19.23.32-2.47.08-4.95.19-7.42.3q-13.5.63-27,1.91-19.65,1.88-39.21,5.15a575.77,575.77,0,0,0-99.24,25.94c-1.12.41-2.34.91-3.83,1.58-.84.37-1.68.77-2.54,1.17l-1.17.56c-1.21.57-2.46,1.16-3.79,1.75a8,8,0,0,1-1,.36,7.27,7.27,0,0,1-1.91.26,7,7,0,0,1-2.8-.58A7.12,7.12,0,0,1,90,394.82L87.31,387c-1.43-4-2.91-8.27-4.42-12.6q-.81-2.28-1.61-4.59c-.51-1.46-1-2.93-1.54-4.4-.19-.56-.39-1.12-.59-1.68l-.21-.63c-1.68-4.82-3.41-9.8-5.31-15.27L71,340.33c-1-2.95-2.09-6.05-3.22-9.34-3.39-9.88.92-15.52,3.8-18l0,0,.89-.71,0,0a19.52,19.52,0,0,1,3.12-1.87,20.76,20.76,0,0,1,2.21-.93c19.06-7,37.08-12.83,54.39-17.56q13.51-3.69,26.5-6.5,5.15-1.11,10.23-2.1l.16,0c8.47-1.64,16.81-3.16,24.78-4.52,4.32-.73,8.55-1.42,12.65-2.06,1.34-.22,2.66-.42,4-.62q3.87-.58,7.69-1.13c5.92-.84,11.73-1.59,17.35-2.25,3.89-.46,7.79-.88,11.62-1.25,2.9-.28,5.43-.5,7.77-.7h.07c2.58-.21,5-.39,7.27-.55l.42,0,3.89-.25c3.87-.23,7.79-.43,11.67-.58,6.53-.25,13.1-.38,19.54-.38l5.09,0h0q7.15.07,14.25.36h0q5.31.21,10.54.53l1.22.08,2.53.16c3.34.22,6.7.44,10.07.68h.08l.41,0,6.78.5q4.77.36,9.31.75c4.16.35,8.19.72,12.12,1.1l4.62.46c2,.21,3.94.41,5.87.63l3.29.36,2.87.34,3.22.4,3.22.41,2.76.38h.11c2.4.34,4.27.61,6,.88l6,.94c3,.5,6.05,1,9.05,1.56,4.77.86,9.59,1.8,14.42,2.8,3.14.65,6.29,1.34,9.44,2l6,1.38c2.13.5,4.33,1,6.54,1.59l1.22.3,4.1,1c3.82,1,7.78,2,11.79,3.14,3,.84,6,1.68,8.81,2.51,11.36,3.31,22.48,7,33.81,10.83l3.67,1.23,7.45,2.5a26.89,26.89,0,0,1,5.29,2.37l.06,0c.24.15.53.33.84.55a17.08,17.08,0,0,1,1.69,1.29c.19.17.39.35.58.55C535.71,316.18,538.46,320.72,537,328.07Z"/><path class="cls-3" d="M530,326.65a23.58,23.58,0,0,1-.88,3.07c-.52,1.52-1.06,3-1.58,4.55h0q-4.44,12.78-8.9,25.56l-10.5,30.1-.38,1.06-.58,1.59q-2.61-1.33-5.25-2.55-2.15-1-4.31-1.9l-1.62-.67c-1.08-.44-2.17-.88-3.26-1.3-12.5-4.81-25.48-8.21-38.33-11.9q-10.89-3.12-21.89-5.75c-1.83-.44-3.67-.86-5.5-1.28a585.72,585.72,0,0,0-61.27-10.43,548,548,0,0,0-89.73-3,571.63,571.63,0,0,0-167.49,33.41c-1.47.52-2.9,1.13-4.34,1.77-1,.44-1.94.89-2.92,1.36-1.47.69-3,1.42-4.57,2.13q-1.36-3.87-2.74-7.8c-2.77-7.86-5.58-15.87-8.37-23.88Q80,344.75,74.5,328.68c-1.56-4.55-1-7.95,1.74-10.35.18-.16.36-.3.55-.45a13.06,13.06,0,0,1,2-1.18,16.9,16.9,0,0,1,1.59-.67c29.43-10.83,59.39-19.93,90.17-25.88q12.28-2.37,24.63-4.49,8.24-1.4,16.49-2.66,12.39-1.87,24.81-3.35,5.73-.67,11.48-1.23c2.55-.24,5.1-.48,7.66-.69h0c2.55-.21,5.11-.4,7.66-.58l3.85-.24q5.75-.35,11.5-.57a482.74,482.74,0,0,1,48.71.53c1.23.08,2.48.15,3.71.24q5,.31,10,.68l.48,0,6.76.5c11.67.89,23.33,2,34.94,3.28q3,.34,6,.72c2,.25,4,.52,6,.8h0c2,.28,4,.56,6,.86l6,.94q4.47.72,8.92,1.53,14.83,2.69,29.51,6.15c2.16.51,4.3,1,6.45,1.57q2.64.65,5.27,1.32c3.9,1,7.79,2.05,11.67,3.12q4.37,1.2,8.72,2.48c11.27,3.28,22.41,7,33.54,10.74l11.13,3.74a19.85,19.85,0,0,1,3.9,1.73c.19.11.37.23.55.35a8.47,8.47,0,0,1,1,.79l.27.25C530.18,320.65,530.74,323.19,530,326.65Z"/><polygon class="cls-3" points="69.69 349.4 33.15 365.64 14.55 379.85 47.7 398.45 37.89 438.03 94.05 411.98 80.18 365.3 69.69 349.4"/><polygon class="cls-3" points="530.32 348.05 508.45 408.26 566.3 437.69 558.86 398.45 590.66 378.83 530.32 348.05"/><path class="cls-2" d="M172.58,418l-4.29-11.82-2.08-5.77-1.09-3,0-.08a7.05,7.05,0,0,1-.26-.85l-.83-3.82,9.57-2.23L189,386.8l4.07,14.57-.54.12,1.21,3.85,1.64-.44L200,419.35l-4.34,1.15c-1.11.3-2.38.66-3.6,1l-8.18,2.38-.5.14c-1.18.34-2.4.69-3.75,1.05l-4.4,1.17Z"/><polygon class="cls-2" points="193.3 418.63 192.94 417.06 191.2 410.92 190.03 406.77 184.59 387.46 201.13 383.67 206.55 402.86 212.35 401.55 216.36 416.14 198.51 420.14 196.55 420.59 193.3 418.63"/><path class="cls-2" d="M234.33,413.58c-.4,0-.8,0-1.2,0a16.55,16.55,0,0,1-1.68-.19h-.08l-.08,0c-.47-.08-.9-.18-1.28-.27l-.18,0-.08,0a17.74,17.74,0,0,1-9.37-6.17l0,0a22,22,0,0,1-1.27-1.82l-.09-.15c-.14-.23-.3-.49-.49-.84l-.1-.2c-.12-.21-.26-.48-.4-.78a16.92,16.92,0,0,1-1.54-8.88,17.33,17.33,0,0,1,3.41-8.71A18.57,18.57,0,0,1,234.68,378c.26,0,.52,0,.78,0a17.79,17.79,0,0,1,6.45,1.51l4.33,1.92-4.66,7.48a14.16,14.16,0,0,1,3.13,1.75,13.76,13.76,0,0,1,1.64,1.39c.22.22.46.48.71.76l.07.08.3.36c.11.14.28.36.45.6l0,0a11.67,11.67,0,0,1,2.07,6.28,11.35,11.35,0,0,1-2.07,6.8,14.15,14.15,0,0,1-2.15,2.42l-.07.06a15.42,15.42,0,0,1-2.72,1.93,17.61,17.61,0,0,1-6.4,2.09A18.16,18.16,0,0,1,234.33,413.58Z"/><path class="cls-2" d="M240,383.25,238.23,380l1.16-.48-.13-.78,3.73-.69a37.47,37.47,0,0,1,5.33-1.69,28.34,28.34,0,0,1,6.59-.81h.45l.9,0,1,.08h.08c.56.07,1.25.15,2.09.33a16.55,16.55,0,0,1,4.59,1.68,14.07,14.07,0,0,1,4,3.22,12,12,0,0,1,2.39,4.46,12,12,0,0,1-2.61,10.8,38.28,38.28,0,0,1,3.4,3.84l2.74,3.55-14.4,8.17-1.26-1.64-13.41,1.8Z"/><path class="cls-2" d="M263.46,408.25l.32-4.19c.17-2.21.41-4.38.74-6.85s.75-4.79,1.2-6.89a48.22,48.22,0,0,1,2.14-7.34c.31-.78.62-1.46.94-2.11.21-.41.42-.79.64-1.16l.26-.43.28-.41a11,11,0,0,1,.72-1,12.61,12.61,0,0,1,3.87-3.29,11.8,11.8,0,0,1,5.54-1.44h.31a13.16,13.16,0,0,1,5.14,1.08l0,0a13.52,13.52,0,0,1,4.15,2.91c.26.26.46.49.61.67l.11.12c.19.22.36.42.51.63l.21.27c.28.38.54.77.78,1.15a23,23,0,0,1,1.17,2.11,40.67,40.67,0,0,1,2.64,7.45c.55,2.15,1,4.42,1.44,7,.18,1.12.35,2.27.5,3.43.13,1,.27,2.15.38,3.5l.36,4.14-17,1.09L281.2,406l-.46,0-.24,3Z"/><polygon class="cls-2" points="289.7 373.17 305.64 372.66 306.19 374.25 320.9 373.84 322.13 407.68 305.07 408.16 305.06 407.74 291.24 408.18 289.7 373.17"/><path class="cls-2" d="M328.29,408.53l1.51-29.19-1.1-3.61,1.29-.27.05-1.06,4.12.19a39,39,0,0,1,5.31-.65c.56,0,1.14-.05,1.69-.05a27.38,27.38,0,0,1,5.36.51l1,.21,1,.26.08,0a20.61,20.61,0,0,1,2,.7,16.15,16.15,0,0,1,4.17,2.48,13.47,13.47,0,0,1,3.24,3.9,11.56,11.56,0,0,1,1.38,4.83,11.82,11.82,0,0,1-3.6,9,14.6,14.6,0,0,1-4.29,2.95,15,15,0,0,1-2.51.89l-.09,0c-.34.09-.76.19-1.24.27l-.54.1-.48.07-.76.08-.47,9.12Z"/><path class="cls-2" d="M363.12,411.7l.34-2.67L363,409l-.87,2.9-16.56-3.74,1.21-4.06c.64-2.13,1.34-4.22,2.2-6.59s1.75-4.56,2.65-6.55a50,50,0,0,1,3.67-6.83c.47-.7.91-1.32,1.38-1.9.28-.36.57-.7.87-1l.35-.37.36-.36c.31-.31.61-.58.92-.84a13.15,13.15,0,0,1,4.5-2.55,12.17,12.17,0,0,1,5.74-.44,12.52,12.52,0,0,1,5.12,2l0,0a12.67,12.67,0,0,1,3.45,3.58,7.66,7.66,0,0,1,.46.77s0,.09.08.14a6.91,6.91,0,0,1,.37.7l.14.3c.2.43.37.86.53,1.27.25.7.48,1.45.69,2.27a39.47,39.47,0,0,1,1,7.78c.09,2.21.06,4.52-.07,7.08-.06,1.14-.14,2.3-.24,3.46-.13,1.39-.24,2.43-.38,3.5l-.53,4.12Z"/><polygon class="cls-2" points="373.1 412.98 378.36 378.44 395.26 380.62 390 415.17 373.1 412.98"/><path class="cls-2" d="M397.9,417a14.9,14.9,0,0,1-6-1.22,13.72,13.72,0,0,1-5.59-4.35,11.92,11.92,0,0,1-2.33-5.83l-.36-3.27,5.83-1.78c-.16-.21-.33-.43-.49-.66l-.06-.09a11.92,11.92,0,0,1-1.48-2.88,10.09,10.09,0,0,1-.55-3.7,9.33,9.33,0,0,1,.2-1.59l0-.22,0-.1a10.89,10.89,0,0,1,.5-1.57,11.61,11.61,0,0,1,1.64-2.83,13.52,13.52,0,0,1,5.37-4.08,15.08,15.08,0,0,1,6-1.21c.53,0,1.07,0,1.59.08a15.62,15.62,0,0,1,6.73,2.34,23.88,23.88,0,0,1,5.54,5.89l2.46,3.84-8.17,3.58.07.08a12.73,12.73,0,0,1,2.57,5.26,10.86,10.86,0,0,1,.23,3.2,10.6,10.6,0,0,1-.26,1.64c-.05.24-.12.48-.19.71l0,.08a8,8,0,0,1-.31.83l-.07.17a11.28,11.28,0,0,1-2,3,14,14,0,0,1-2.53,2.15,15.42,15.42,0,0,1-6.52,2.38h0A15,15,0,0,1,397.9,417Z"/><path class="cls-2" d="M416.44,421.6l.71-2.62-.45-.11-1.27,2.78-15.91-5.57,1.76-3.89c.93-2.05,1.91-4,3.08-6.29s2.37-4.34,3.53-6.21a52.31,52.31,0,0,1,4.58-6.36c.57-.65,1.1-1.21,1.63-1.73.34-.33.67-.64,1-.92l.39-.34.41-.31c.35-.27.68-.51,1-.73a13.57,13.57,0,0,1,4.82-2,11.61,11.61,0,0,1,2.44-.26,12.36,12.36,0,0,1,3.31.46,12.16,12.16,0,0,1,4.8,2.57l0,0a12.41,12.41,0,0,1,2.93,3.94,8.6,8.6,0,0,1,.35.81l.06.15a6.73,6.73,0,0,1,.27.74l.1.31c.13.45.25.89.34,1.32.16.73.28,1.49.38,2.33a39.31,39.31,0,0,1-.09,7.83c-.21,2.19-.56,4.48-1,7-.22,1.12-.46,2.27-.72,3.4-.22,1-.5,2.13-.85,3.43l-1.1,4Z"/><path class="cls-38" d="M190.82,409.53l2.05,6.53c-1.21.32-2.57.71-3.89,1.09l-4,1.16-4,1.17c-1.35.39-2.66.77-4.13,1.16l-1.38-4.37-4.31-11.9-2.09-5.76-.71-2-.36-1a4.66,4.66,0,0,1-.16-.49l.6-.14,4.8-1.11,11-2.57,1.84,6.58-8.21,1.91.84,2.33.81,2.24,7.28-1.89,2.07,6.53-7,1.82.41,1.12.38-.11,4-1.17C188,410.31,189.34,409.92,190.82,409.53Z"/><path class="cls-38" d="M209.37,412.64l-12.21,2.74-1.13.26h-.1a0,0,0,0,1,0,0l0-.11-.06-.23-.13-.45-.51-1.81-1-3.62L193,405.26,188.66,390l7.72-1.78,4.32,15.31,1.09,3.86,5.77-1.29Z"/><path class="cls-38" d="M244,399.76a7.43,7.43,0,0,1-1.35,4.47,10.1,10.1,0,0,1-1.54,1.73,11.22,11.22,0,0,1-1.94,1.39,12.75,12.75,0,0,1-4.64,1.52,12.26,12.26,0,0,1-2.5.07c-.42,0-.83-.08-1.25-.14l-1.17-.25a12.87,12.87,0,0,1-4.09-1.92,13.57,13.57,0,0,1-2.86-2.72c-.38-.48-.72-1-1-1.46-.15-.26-.28-.46-.43-.74s-.29-.54-.42-.81a13.21,13.21,0,0,1-1.2-6.92,13.45,13.45,0,0,1,2.64-6.75A14.1,14.1,0,0,1,229,382.3a13,13,0,0,1,4.82-.7,12.85,12.85,0,0,1,4.67,1.09l-3.77,6.05a3.86,3.86,0,0,0-2.93-.13,6.25,6.25,0,0,0-2.88,2.19,6.81,6.81,0,0,0-1.27,2.79,15.42,15.42,0,0,1,2.63-1.34,12.53,12.53,0,0,1,3.27-.77,10.18,10.18,0,0,1,3.77.33,9.72,9.72,0,0,1,3.11,1.53,9.26,9.26,0,0,1,1.15,1,6.51,6.51,0,0,1,.51.54l.25.29c.09.11.19.25.28.38A7.84,7.84,0,0,1,244,399.76Zm-8.26-.7h0l-.06-.07-.16-.17a2.92,2.92,0,0,0-.34-.29,1.71,1.71,0,0,0-.52-.27,1,1,0,0,0-.42,0,4,4,0,0,0-.84.2,6.76,6.76,0,0,0-2.09,1.37,9,9,0,0,0-1.09,1.21l.42.33a4.65,4.65,0,0,0,1.46.7l.38.08.34,0a2.78,2.78,0,0,0,.7,0,3.25,3.25,0,0,0,2.31-1.3,1.27,1.27,0,0,0,.22-.8A1.9,1.9,0,0,0,235.69,399.06Z"/><path class="cls-38" d="M259.59,395.54a35.37,35.37,0,0,1,6.4,6.36l-6.67,3.78a28.58,28.58,0,0,0-5.08-5.05l.85,5.05-7.87,1.06L243,381.53h0a33.66,33.66,0,0,1,5-1.64,23.35,23.35,0,0,1,5.74-.67l.77,0,.79.06a14.39,14.39,0,0,1,1.61.25,12.06,12.06,0,0,1,3.29,1.2,9.42,9.42,0,0,1,2.73,2.19,7.89,7.89,0,0,1,1.6,3,7.66,7.66,0,0,1-1.06,6.3A9.31,9.31,0,0,1,261,394.7,9.74,9.74,0,0,1,259.59,395.54Zm-2.82-8a1.79,1.79,0,0,0-.93-1.08,3.55,3.55,0,0,0-.94-.34c-.17,0-.44-.07-.67-.1l-.37,0h-.39a11,11,0,0,0-1.69.1l.74,4.37a15.06,15.06,0,0,0,2.6-.57l.19-.06.11,0c.08,0,.14-.06.21-.08l.37-.22a2.35,2.35,0,0,0,.54-.55A1.68,1.68,0,0,0,256.77,387.56Z"/><path class="cls-38" d="M283.88,401.17l-8.83.45c-.09.88-.18,1.75-.24,2.6l-7.95-.36c.18-2.27.42-4.42.72-6.63s.67-4.39,1.15-6.61a43.59,43.59,0,0,1,2-6.75c.23-.58.49-1.17.79-1.77.15-.3.32-.61.5-.92l.2-.32.23-.35c.16-.24.32-.47.5-.69a8.09,8.09,0,0,1,2.55-2.18,7,7,0,0,1,3.29-.86,8.13,8.13,0,0,1,3.38.67,8.86,8.86,0,0,1,2.78,2c.21.19.38.42.57.63l.27.32.18.24c.22.3.43.6.61.9a19.34,19.34,0,0,1,1,1.75,36,36,0,0,1,2.37,6.74c.57,2.22,1,4.42,1.37,6.61q.27,1.65.48,3.3c.14,1.12.27,2.19.37,3.35l-7.94.51C284.09,403,284,402.06,283.88,401.17Zm-7.9-6.39,6.8-.35c-.2-1-.42-1.95-.67-2.9a31.24,31.24,0,0,0-1.95-5.6,12.58,12.58,0,0,0-.64-1.16c-.11-.18-.22-.34-.33-.49l-.08-.1s0,0,0,0h0l0,0c-.1.17-.2.35-.3.55-.19.38-.38.81-.56,1.25a38.44,38.44,0,0,0-1.66,5.8C276.35,392.79,276.16,393.78,276,394.78Z"/><path class="cls-38" d="M316,403.2l-8,.22-.07-1.76c-1.94-2.52-6.17-8.8-6.17-8.8l.35,10.31-8,.26L293,376.65l7.9-.25c.59,1.7,4.75,11.18,6.6,13.16l-.39-11.74,7.95-.22Zm-15-26.8h-.06a1.75,1.75,0,0,1-.07-.26Z"/><path class="cls-38" d="M350.87,392.56a10,10,0,0,1-3,2,11.6,11.6,0,0,1-1.74.62,9.24,9.24,0,0,1-.91.21l-.45.08-.38.05a24.69,24.69,0,0,1-4.44.16l-.45,8.8-8-.37,1.33-25.75,0-.11h0v0h.15a33,33,0,0,1,5.18-.68,23.43,23.43,0,0,1,5.84.37l.76.16.77.21c.51.16,1,.31,1.54.54a11.55,11.55,0,0,1,3,1.78,8.84,8.84,0,0,1,2.22,2.66,7.65,7.65,0,0,1,.93,3.22A7.94,7.94,0,0,1,350.87,392.56Zm-5.51-5.81a1.81,1.81,0,0,0-.71-1.28,3.54,3.54,0,0,0-.89-.52c-.16-.07-.42-.15-.65-.22l-.36-.1-.39-.08a10.85,10.85,0,0,0-1.78-.21l-.24,4.59a15,15,0,0,0,2.79-.09l.21,0,.12,0,.24-.05a2.6,2.6,0,0,0,.42-.15,2.07,2.07,0,0,0,.68-.47A1.78,1.78,0,0,0,345.36,386.75Z"/><path class="cls-38" d="M367,405l-8.76-1.11c-.28.84-.55,1.68-.79,2.51l-7.72-1.75c.65-2.19,1.35-4.26,2.12-6.38s1.6-4.19,2.54-6.28a47,47,0,0,1,3.37-6.28c.35-.53.73-1.06,1.16-1.6q.31-.4.69-.81l.26-.28.31-.3c.2-.21.41-.4.63-.59a8.69,8.69,0,0,1,3-1.7,7.07,7.07,0,0,1,3.42-.26,7.76,7.76,0,0,1,3.17,1.25,8.53,8.53,0,0,1,2.31,2.44c.16.23.28.48.42.72s.14.25.19.36l.13.27c.15.33.29.66.41,1a16.17,16.17,0,0,1,.57,1.89,35.32,35.32,0,0,1,.89,7c.08,2.28,0,4.51-.08,6.73-.05,1.11-.13,2.22-.23,3.32s-.21,2.19-.36,3.35l-7.9-.89C366.81,406.8,366.9,405.9,367,405Zm-6.38-7.66,6.75.85c0-1,0-2,0-3a29.9,29.9,0,0,0-.72-5.84c-.11-.44-.23-.86-.37-1.25-.07-.19-.15-.37-.23-.54l-.05-.11h0l0,0a4.91,4.91,0,0,0-.41.48c-.28.35-.55.73-.82,1.13a38.85,38.85,0,0,0-2.88,5.4C361.39,395.46,361,396.4,360.61,397.35Z"/><path class="cls-38" d="M376.76,409l4-26.37,7.89,1-4,26.37Z"/><path class="cls-38" d="M398,393.24s0,.06,0,.07,0,.05,0,.11a1.61,1.61,0,0,0,.19.33,10.44,10.44,0,0,0,1.31,1.4c.31.29.66.6,1,1l.52.51.49.5c.33.33.68.69,1,1.05l.45.49.27.29a4.23,4.23,0,0,1,.34.4,8.81,8.81,0,0,1,1.81,3.66,7,7,0,0,1,.15,2.1,6.73,6.73,0,0,1-.17,1.08,5.26,5.26,0,0,1-.15.53,5.1,5.1,0,0,1-.22.57,6.89,6.89,0,0,1-1.28,1.94,8.47,8.47,0,0,1-1.7,1.46,10.5,10.5,0,0,1-4.47,1.63,10.32,10.32,0,0,1-5.21-.74,9.35,9.35,0,0,1-3.8-3,8,8,0,0,1-1.56-3.93l6.79-2.08a19,19,0,0,0,1.53,2.39,1.44,1.44,0,0,0,.49.41,1,1,0,0,0,.45.05,1.78,1.78,0,0,0,.75-.29,1.32,1.32,0,0,0,.46-.45h.08l-.08,0h0a.19.19,0,0,1,0-.07c0-.05,0-.1,0-.15a1.23,1.23,0,0,0,0-.37,2.24,2.24,0,0,0-.47-.92l-.09-.11-.06-.07-.13-.13-.46-.5c-.27-.3-.55-.59-.85-.89l-.9-.9-.94-.88a17.18,17.18,0,0,1-2.31-2.55,8.16,8.16,0,0,1-1-1.95,6.24,6.24,0,0,1-.35-2.35,5.5,5.5,0,0,1,.16-1.16,5.87,5.87,0,0,1,.32-1,7.78,7.78,0,0,1,1.08-1.87,9,9,0,0,1,3.62-2.75,10.2,10.2,0,0,1,5.06-.75,10.74,10.74,0,0,1,4.64,1.62,20,20,0,0,1,4.21,4.58l-6.73,3a19.88,19.88,0,0,0-2.19-2,1.77,1.77,0,0,0-.71-.27,1.08,1.08,0,0,0-.54.09,1.53,1.53,0,0,0-.61.48,1.46,1.46,0,0,0-.2.33C398.07,393.13,398.06,393.2,398,393.24Z"/><path class="cls-38" d="M421.12,415.55l-8.54-2.09c-.39.81-.77,1.61-1.13,2.4l-7.42-2.6c1-2.1,1.93-4.07,3-6.09s2.16-4,3.38-5.94a47.26,47.26,0,0,1,4.2-5.86c.43-.48.87-1,1.37-1.45.25-.25.51-.49.8-.73l.3-.25.34-.27a8.3,8.3,0,0,1,.71-.5,9,9,0,0,1,3.18-1.36,7.08,7.08,0,0,1,3.42.13,7.37,7.37,0,0,1,3,1.59,8.11,8.11,0,0,1,2,2.68c.13.24.21.51.32.76a3.57,3.57,0,0,1,.14.38l.09.28c.11.35.2.7.27,1a17.71,17.71,0,0,1,.31,1.94,35.31,35.31,0,0,1-.09,7.07c-.22,2.27-.57,4.48-1,6.67q-.33,1.64-.69,3.27c-.26,1.09-.51,2.15-.82,3.28l-7.72-1.77C420.7,417.31,420.91,416.42,421.12,415.55Zm-5.27-8.32,6.57,1.61c.15-1,.27-2,.37-2.95a29.75,29.75,0,0,0,.09-5.87,11.84,11.84,0,0,0-.2-1.28c-.05-.2-.1-.39-.15-.56l0-.12h0l0,0a6.39,6.39,0,0,0-.48.44c-.32.31-.64.66-1,1a40.81,40.81,0,0,0-3.6,5C416.88,405.45,416.36,406.34,415.85,407.23Z"/><polygon class="cls-3" points="67.47 350.39 73.63 347.84 81.7 370.42 67.47 350.39"/><polygon class="cls-2" points="66.44 342.07 73.63 339.35 73.63 347.84 68.81 349.75 60.63 347.84 66.44 342.07"/><polygon class="cls-2" points="73.63 347.84 69.97 349.83 69.9 349.87 14.55 379.84 27.02 365.42 41.02 357.42 44.09 356.31 69.52 349.02 73.63 347.84"/><path class="cls-4" d="M133.91,342.63a7,7,0,0,1,2.19,9.29,9.92,9.92,0,0,1-5.57,4L118.67,360,110,334.53l11.45-3.92a9.86,9.86,0,0,1,6.68-.3,6.8,6.8,0,0,1,3.95,8.2,6.47,6.47,0,0,1-2.43,3.14A6.25,6.25,0,0,1,133.91,342.63Zm-14.23.07,4.06-1.39a3.76,3.76,0,0,0,2.11-1.47,2.53,2.53,0,0,0,.14-2.25,2.62,2.62,0,0,0-1.5-1.72,3.78,3.78,0,0,0-2.57.11l-4.06,1.39Zm10.21,7.06a2.63,2.63,0,0,0,.15-2.34,2.74,2.74,0,0,0-1.6-1.8,3.85,3.85,0,0,0-2.71.07l-4.5,1.54,1.93,5.62,4.57-1.56A3.92,3.92,0,0,0,129.89,349.76Z"/><path class="cls-4" d="M155.51,348.51l-8.13-8.27-1.51.42,2.74,9.78-6.31,1.76L135,326.3l10.59-3a12.14,12.14,0,0,1,5.52-.39,7.59,7.59,0,0,1,4,2,8.42,8.42,0,0,1,2.24,3.85,8,8,0,0,1-.17,5,8.19,8.19,0,0,1-3.49,4.08l8.85,8.58ZM144.62,336.2l3.91-1.1a3.68,3.68,0,0,0,2.36-1.58,3.31,3.31,0,0,0,.2-2.64,3.25,3.25,0,0,0-1.52-2.08,3.76,3.76,0,0,0-2.84-.12l-3.91,1.1Z"/><path class="cls-4" d="M181.32,337.22l-9.78,2.26-.5,5L164.36,346l3.44-28.4,7.39-1.7,15.53,24L184,341.49Zm-2.77-4.55-5.46-8.85-1,10.34Z"/><path class="cls-4" d="M197.58,338a8.68,8.68,0,0,1-4.18-2.12,7.71,7.71,0,0,1-2.26-4.18l6.86-1.25a3.1,3.1,0,0,0,3.83,2.41A3.61,3.61,0,0,0,204,331.8a2.22,2.22,0,0,0,.49-2,2.2,2.2,0,0,0-1-1.5,5.34,5.34,0,0,0-1.82-.76,25.1,25.1,0,0,0-2.9-.44,30.51,30.51,0,0,1-4.47-.82,7.85,7.85,0,0,1-3.22-1.83,6.58,6.58,0,0,1-1.9-3.82,7,7,0,0,1,1.62-6.27,11.15,11.15,0,0,1,6.59-3.37,11.32,11.32,0,0,1,7.43.81,7.6,7.6,0,0,1,3.93,5.3l-7,1.27a2.74,2.74,0,0,0-1.31-1.84,3.31,3.31,0,0,0-2.36-.33,2.83,2.83,0,0,0-1.77,1,2.29,2.29,0,0,0-.39,1.92,2.26,2.26,0,0,0,1.57,1.78,20.29,20.29,0,0,0,4.06.86,33,33,0,0,1,4.46.9,8,8,0,0,1,3.19,1.79,6.23,6.23,0,0,1,1.88,3.67,7.72,7.72,0,0,1-.4,4.32,8.17,8.17,0,0,1-2.8,3.55,11.62,11.62,0,0,1-5,2A13.9,13.9,0,0,1,197.58,338Z"/><path class="cls-4" d="M221.71,333.11a13.28,13.28,0,0,1-5.62-4.22,14.47,14.47,0,0,1-1.87-14.07,13.22,13.22,0,0,1,4.33-5.53,14,14,0,0,1,6.66-2.66,14.17,14.17,0,0,1,7.13.83,13,13,0,0,1,5.58,4.21,14.65,14.65,0,0,1,1.85,14.07,13.12,13.12,0,0,1-4.29,5.54,13.88,13.88,0,0,1-6.64,2.66A14.06,14.06,0,0,1,221.71,333.11Zm7.25-32-8.65,5.05-.59-4.48,8.56-5.62Zm3.92,24.14a9.3,9.3,0,0,0-1.5-11.26,6.58,6.58,0,0,0-5.39-1.43,6.71,6.71,0,0,0-4.87,2.77,9.37,9.37,0,0,0,1.51,11.3,7.34,7.34,0,0,0,10.25-1.38Z"/><path class="cls-4" d="M269.71,329.67l-6.53.51L251,314.5l1.3,16.54-6.53.51-2.11-26.81,6.54-.51L262.38,320l-1.31-16.61,6.53-.52Z"/><path class="cls-4" d="M302.71,328.88l-2.52-2.39a14.29,14.29,0,0,1-8.86,2.93,13.31,13.31,0,0,1-5.41-1,8,8,0,0,1-3.57-2.84,7.5,7.5,0,0,1-1.29-4.33,8.12,8.12,0,0,1,1.31-4.6,9.88,9.88,0,0,1,4-3.39A8.63,8.63,0,0,1,285,311a7,7,0,0,1-.45-2.47,6.45,6.45,0,0,1,1-3.5,6.78,6.78,0,0,1,2.87-2.5,10.5,10.5,0,0,1,4.49-.95,9.69,9.69,0,0,1,4.5.92,6.38,6.38,0,0,1,3.66,6.05l-6.17.06a2,2,0,0,0-.53-1.58,2,2,0,0,0-1.48-.54,2.25,2.25,0,0,0-1.53.55,1.79,1.79,0,0,0-.6,1.39,3.44,3.44,0,0,0,.54,1.68,11.45,11.45,0,0,0,1.65,2l6.61,6.33c.05-.13.12-.28.21-.46s.18-.39.28-.62l1.39-2.43,6.56-.06-1.81,3.35a31.3,31.3,0,0,1-2.33,4.31l6.54,6.3Zm-6.58-6.26-6-5.72c-1.83,1-2.73,2.25-2.72,3.86a3.08,3.08,0,0,0,1.16,2.42,4.53,4.53,0,0,0,3.05.95A7.51,7.51,0,0,0,296.13,322.62Z"/><path class="cls-4" d="M340.56,316.29a7.87,7.87,0,0,1-3.46,2.94,11.58,11.58,0,0,1-5.57.88l-4.06-.22-.53,9.64-6.54-.36,1.47-26.85,10.6.58a12,12,0,0,1,5.37,1.41,7.63,7.63,0,0,1,3.16,3.24,8.89,8.89,0,0,1,.87,4.53A8.66,8.66,0,0,1,340.56,316.29Zm-6.41-2.13a3.84,3.84,0,0,0,.28-5,3.93,3.93,0,0,0-2.75-1l-3.56-.2-.36,6.74,3.55.19A3.91,3.91,0,0,0,334.15,314.16Z"/><path class="cls-4" d="M361.09,327.54l-10-1L349,331.06l-6.83-.72,12.48-25.74,7.54.79,6.89,27.76-6.9-.72Zm-1.15-5.2-2.29-10.14-4.3,9.45Z"/><path class="cls-4" d="M385.26,335.67l-4-10.88-1.55-.23-1.53,10-6.47-1L375.75,307l10.87,1.65a12.12,12.12,0,0,1,5.19,1.92,7.68,7.68,0,0,1,2.86,3.51,8.58,8.58,0,0,1,.44,4.43A7.94,7.94,0,0,1,392.9,323a8.1,8.1,0,0,1-4.87,2.28l4.54,11.47ZM380.4,320l4,.61a3.68,3.68,0,0,0,2.8-.46,3.33,3.33,0,0,0,1.26-2.33,3.21,3.21,0,0,0-.52-2.52,3.73,3.73,0,0,0-2.54-1.28l-4-.61Z"/><path class="cls-4" d="M409.57,340.06l-3.52-11-1.54-.31-2,10-6.43-1.27L401.33,311l10.79,2.14a12,12,0,0,1,5.1,2.14,7.71,7.71,0,0,1,2.7,3.64,8.42,8.42,0,0,1,.25,4.44,8,8,0,0,1-2.41,4.41,8.13,8.13,0,0,1-5,2.06l4,11.66Zm-4.16-15.9,4,.79a3.72,3.72,0,0,0,2.82-.34,3.32,3.32,0,0,0,1.37-2.27,3.23,3.23,0,0,0-.41-2.54,3.75,3.75,0,0,0-2.48-1.39l-4-.79Z"/><path class="cls-4" d="M432.86,317.68l-6.13,26.19-6.38-1.49,6.13-26.19Z"/><path class="cls-4" d="M438.81,341.72l8.31,2.16-1.28,4.89L431.2,345l6.77-26,6.34,1.65Z"/><path class="cls-4" d="M456.37,346.63l8.24,2.4-1.41,4.85-14.53-4.22,7.5-25.83,6.29,1.83Z"/><path class="cls-4" d="M483.29,355.5l-9.46-3.35-3.1,3.94-6.47-2.29,18.16-22.1,7.15,2.53.19,28.6-6.54-2.31Zm.1-5.33.15-10.39L477.15,348Z"/><text class="cls-39" transform="translate(590.65 372.58)"></text></g></g></svg>