<svg xmlns="http://www.w3.org/2000/svg" viewBox="0 0 30.45 39.32"><defs><style>.cls-1{fill:#351e0f;}.cls-2{fill:#fbfbfb;}.cls-3{fill:#eb1c24;}.cls-4{fill:#90320c;}.cls-5{fill:#e81b25;}.cls-6{fill:#f1a53f;}.cls-7{fill:#f8f8f9;}.cls-8{fill:#e4c1b4;}.cls-9{fill:#f9f8f9;}.cls-10{fill:#8f310f;}.cls-11{fill:#e91c25;}.cls-12{fill:#aab2ba;}.cls-13{fill:#b7652f;}.cls-14{fill:#e41b26;}.cls-15{fill:#f8f7f9;}.cls-16{fill:#e4bfb2;}.cls-17{fill:#f7f4f2;}.cls-18{fill:#a9b1b9;}.cls-19{fill:#dfb5aa;}.cls-20{fill:#eeedf0;}.cls-21{fill:#e7deda;}.cls-22{fill:#371e50;}.cls-23{fill:#75270c;}.cls-24{fill:#f24452;}.cls-25{fill:#c48660;}.cls-26{fill:#c4865f;}.cls-27{fill:#673615;}.cls-28{fill:#7f1618;}.cls-29{fill:#7e1517;}.cls-30{fill:#3c3b3d;}.cls-31{fill:#dd3039;}.cls-32{fill:#e2212a;}.cls-33{fill:#b10309;}</style></defs><g id="Capa_2" data-name="Capa 2"><g id="Capa_1-2" data-name="Capa 1"><path class="cls-1" d="M22.23,10.7a.91.91,0,0,0,0,.17,1.94,1.94,0,0,1,.89.28l0-.6v-.34a14.88,14.88,0,0,0-.16-1.79,9.59,9.59,0,0,0-.31-1.28,6.48,6.48,0,0,0-1.88-3.06,6.71,6.71,0,0,0-2.23-1.27h0a6.41,6.41,0,0,0-.78-.23h0a4.9,4.9,0,0,0-1.3-.15h0a4.65,4.65,0,0,0-.75.06,5.2,5.2,0,0,0-.68.17h0a5,5,0,0,0-.67.28h0A4.84,4.84,0,0,0,12.87,4a6,6,0,0,0-.56.8c-.05.1-.13.19-.14.22-.6,0-1.12,0-1.64,0a4.1,4.1,0,0,0-1.4.33,4,4,0,0,0-1.28.86l-.17.17a3.65,3.65,0,0,0-.58.83,4,4,0,0,0-.34.83h0l.16,0,.18,0h.5l.09-.21a.93.93,0,0,0,0-.1l.06-.09a.47.47,0,0,1,0-.1l.06-.09L8,7.34l.06-.09h0a3.41,3.41,0,0,1,.46-.47s0,0,0,0h0l.08-.06.1-.08h0l.12-.08.06,0,.06,0,.33-.19.06,0,.07,0a.2.2,0,0,0,.08,0l.13,0,.09,0,.08,0L10,6l.09,0h0l.09,0h0l.07,0,.12,0h.1A2.8,2.8,0,0,1,11.92,6l.73.13a3.67,3.67,0,0,1,1.29-2,3.85,3.85,0,0,1,1.71-.86,4.06,4.06,0,0,1,1.66,0,6.93,6.93,0,0,1,1.56.5h0a5.12,5.12,0,0,1,.82.47h0l0,0a5.72,5.72,0,0,1,2.09,3.08c.06.18.11.36.16.54h0a8.77,8.77,0,0,1,.24,1.76c0,.2,0,.39,0,.59S22.23,10.57,22.23,10.7Zm-7.64,1.44-.15.06-.06,0-.17.07-.12.06-.06,0-.15.07-.15.08-.2.1-.15.09-.14.08-.15.1-.08,0a10.76,10.76,0,0,1,2.09-1h0A5.34,5.34,0,0,0,14.59,12.14Z"/><path class="cls-1" d="M15.31,11.9l-.08,0-.12,0h0l.29-.09h-.08ZM7.6,8.08l-.06.18Z"/><path class="cls-1" d="M29.33,34.89a1.53,1.53,0,0,1-.13-.51,4.44,4.44,0,0,0-.71-2.77l.62-1.22-.25-.14a5.37,5.37,0,0,1-2.92-2.91,10.48,10.48,0,0,1-.85-3.25A4.48,4.48,0,0,1,25,22.75l1.31,1c.49-1.95.66-3.8-.69-5.43a3.24,3.24,0,0,0-.07-2.61,1.69,1.69,0,0,1-.17-.91c0-.15,0-.29,0-.42a3.72,3.72,0,0,0-.08-.68v0l0,0h0c0-.23-.38-1.75-1.64-2h0a3.27,3.27,0,0,0-.55-.2s-.06,0,0,0,0-.19,0-.28a1.94,1.94,0,0,0-.89-.28l0,.31a5.07,5.07,0,0,1-.34,1.13,2.39,2.39,0,0,1-1,1.34c-.4-.32-.78-.67-1.2-1a5.1,5.1,0,0,0-3.07-1h-.41l-.11,0H16l-.15,0-.15,0h-.08l-.21.05h0L15.1,12a10.76,10.76,0,0,0-2.09,1v0a.57.57,0,0,0-.13.08l-.11.07-.06.05-.23.16-.07,0-.09.08-.08.05-.11.1-.13.1h0l-.29.25L11.6,14h0l-.2.18a12.63,12.63,0,0,0-2.16,2.46h0l-.08.14-.34.59a6.23,6.23,0,0,0-.46,1.5h0l0,.21-.06.38a8.28,8.28,0,0,0-.06.86,5.27,5.27,0,0,0,.06,1,1.2,1.2,0,0,1-.25,1,17.7,17.7,0,0,0-2.28,3.9,4.82,4.82,0,0,0-.32,2.83,1.21,1.21,0,0,1-.08.75,4.33,4.33,0,0,0-.28,3.62.56.56,0,0,1,0,.29,2.79,2.79,0,0,0,1.38,2.75,7.93,7.93,0,0,0,2.35,1.07l.44.16,0,0,1,.34a.81.81,0,0,1,.94-.05,1.61,1.61,0,0,1,.64.48c.33.08.68.16,1,.23a5.54,5.54,0,0,0,.06-.6h3.61l-.61,1,.76.06.72-1.52c.1-.19.2-.39.31-.63-.55,0-1.07.11-1.58.13-1.33,0-2.65.06-4,.08a.59.59,0,0,1-.29-.07,1.91,1.91,0,0,0-1.56-.2h-.06c-1.42-.37-2.81-.78-3.55-2.22a6.26,6.26,0,0,1-.33-1.15,7.06,7.06,0,0,0,3.43,1,17.24,17.24,0,0,1-1.52-.85A12.62,12.62,0,0,1,6.86,32.7,1.69,1.69,0,0,1,6.27,31l.32.16,1.64-1.47c.11.77.16,1.45.32,2.1A3.88,3.88,0,0,0,9.12,33a2.22,2.22,0,0,0,2.21.94,1.06,1.06,0,0,1,1,.44,2.56,2.56,0,0,0,3.21.71c.18-.07.36-.17.56-.27a2.19,2.19,0,0,0,1.24,1.68l0-.06c0-.42-.34-.8-.2-1.34a2.4,2.4,0,0,0,3.29.27c.22.81-.19,1.29-1.61,1.85.28.27.54.56.81.83l.23.22a5.37,5.37,0,0,0,.45.35l.07,0,.14.09.07,0a1.51,1.51,0,0,0,.22.11h0l-.53-.84-.53-.87A1.8,1.8,0,0,0,21.47,35l1.8,1c-.44.56-.87,1.13-1.35,1.66-.14.15-.43.16-.68.24.06.12.14.25.23.41a2.93,2.93,0,0,1-.23.43l0,0a.45.45,0,0,1-.14.1l0,0h0l-.1,0h0a.42.42,0,0,1,0,.1l0,0a.43.43,0,0,1,0,.16c.39,0,.79-.08,1.2-.14.43-.66.9-1.3,1.37-1.93a9.82,9.82,0,0,1,1-1A.68.68,0,0,1,25.4,36c.82.42.89.57.56,1.46a7.06,7.06,0,0,1-.39.89c.84-.23,1.68-.5,2.54-.83h0l.39-.19A1.79,1.79,0,0,0,29.33,34.89ZM25.81,21.11c0,.31,0,.63,0,.94s-.12.16-.22.05L25.46,22l-.1-.05-.18-.09L25,21.75l-.17-.09-.21-.11a4.42,4.42,0,0,0-4.05-.15,4.13,4.13,0,0,1-2.13.47,1.87,1.87,0,0,1-1.66-1.57h.59a.2.2,0,0,1,.11,0v-.23a1.37,1.37,0,0,0-1.44.51.76.76,0,0,0,0,1.05l.34-.88A2,2,0,0,1,17,21.85c.15.55.26,1.12.39,1.68.05.13.09.26.13.39h0c.32.56.65,1.12,1,1.69h0a.53.53,0,0,1,.48.48l.23.13.49.36h0l.36.25h0l.24.13h0l.12.14a4.06,4.06,0,0,0,1.82.47c-.05-.21-.11-.39-.14-.58-.18-.9-.43-1.8-.52-2.71A4.68,4.68,0,0,1,22,21.81c.22-.45.25-.46,1-.4a13.59,13.59,0,0,0-.57,3.4,6.55,6.55,0,0,0,.86,3.36,2.91,2.91,0,0,1-1.42.07,12.09,12.09,0,0,1-3.06-.84,3.74,3.74,0,0,1-2.13-2.68,18.74,18.74,0,0,1-.37-1.93l-.26.8a3.22,3.22,0,0,1-1.48-2.44A1.88,1.88,0,0,1,16,19a2.33,2.33,0,0,1,1.83.32l1,.31v.63l.83-.94.15-.11h0a3,3,0,0,1,2.35-1.14,3.17,3.17,0,0,1,3.13,1.37A3.07,3.07,0,0,1,25.81,21.11Zm-4.7,5.59a2.29,2.29,0,0,1-1.42-.8A5.12,5.12,0,0,1,18.33,24l-.11-.26s0-.06,0-.09a4.79,4.79,0,0,1-.68-1.49l.43.15a2.31,2.31,0,0,0,1.45.16c.78-.16,1-.06,1.12.43.38.22.18.65.33,1s0,.4,0,.61a.94.94,0,0,1,.13.24c.16.62.32,1.24.46,1.87a1.54,1.54,0,0,1,0,.32l-.25-.13-.1-.11ZM19.89,29c.56.15,1.12.08,1.46.6.13.21.26.41.38.62a2.86,2.86,0,0,1,.2.48c.13.62-.14.93-.81.95l-.86-.1-.29,0a7.68,7.68,0,0,0,.16-1.23A7.76,7.76,0,0,0,19.89,29Zm-.42.63a2.58,2.58,0,0,1-.1,1.53.82.82,0,0,1-.85.63,1.94,1.94,0,0,1-1.3-.36,2.77,2.77,0,0,1-1.43-1.33,3.74,3.74,0,0,1-.94-2.16,5.46,5.46,0,0,1,.57-3.26l.22-.32c.1.41.18.73.27,1a4.74,4.74,0,0,0,2,2.88,3.19,3.19,0,0,0,1,.45c.42.07.49.28.46.62C19.44,29.44,19.46,29.53,19.47,29.62ZM16.85,17.06c-.45.46-.73.56-1.08.38s-.45-.47-.32-1.13a1.18,1.18,0,0,0-1.1.78,1.43,1.43,0,0,0,.46,1.75l-.56.45A2.35,2.35,0,0,1,14.1,16a2.45,2.45,0,0,1,3.22-.41A2.38,2.38,0,0,1,18,18.82l-1.13-.42A1.57,1.57,0,0,0,16.85,17.06Zm8,.71-1.22-.39c0-.16,0-.33,0-.54-.32.13-.63.23-.88-.07s-.15-.59.13-1l-1,.11a1.72,1.72,0,0,1,2.41-.52A1.76,1.76,0,0,1,24.89,17.77Zm.82,13.64c.09.56.21,1.12.25,1.69a3.21,3.21,0,0,1-.14.85c-.1.64-.3.78-.89,1A2.23,2.23,0,0,1,23,34.88a3.45,3.45,0,0,1-1.68-1.65l-.29-.32c-.32.57-.5,1.23-1.13,1.54a1.79,1.79,0,0,1-2.19,0,1.69,1.69,0,0,1-.82-1.24L16.75,33l-.34.38a2.74,2.74,0,0,1-3.14.45,1.76,1.76,0,0,1-.48-.72,1.86,1.86,0,0,1-.07-.61c-.41.27-.71.71-1.26.62a1.34,1.34,0,0,1-1.34-.61,4.27,4.27,0,0,1-.82-3.4s.08-.08.13-.12v-.15a1.29,1.29,0,0,1,0-.19l0-.32A2.81,2.81,0,0,0,8,28.76c-.3.17-.55.41-.84.6-.07,0-.19,0-.29,0a1.3,1.3,0,0,1-.53-1.31,6.68,6.68,0,0,1,1.39-3.54c.39-.65.76-1.31,1.18-1.94a1.21,1.21,0,0,0,.26-1,4.43,4.43,0,0,1-.11-1,7.3,7.3,0,0,1,.06-.94c0-.11,0-.22.05-.32l0-.18A5,5,0,0,1,10,17l0,0a13.52,13.52,0,0,1,3.69-3.54,5.3,5.3,0,0,1,6.81,1.14c.08.11.18.21.31.37l.49-.3,1.55-2.33.38.13a2,2,0,0,1,1.26,2.31l-.37-.1A2.5,2.5,0,0,0,20.87,17v.36c-.05.11-.05.29-.13.33A4,4,0,0,0,19.21,19c-.05.08-.19.09-.39.17L19.15,18a3.13,3.13,0,0,0-1.84-3.18,3.09,3.09,0,0,0-3.74.88,3.12,3.12,0,0,0-.06,3.85,1.28,1.28,0,0,1,.33,1.08,3.58,3.58,0,0,0,.46,2.14l.88.82a7.15,7.15,0,0,0-.9,2.55,5.68,5.68,0,0,0,1.57,5.25,10.39,10.39,0,0,0,1.33.91,3.41,3.41,0,0,0,2.29-.16,1,1,0,0,1,.45,0,3.14,3.14,0,0,0,1.72,0,1,1,0,0,0,.79-1.07,7,7,0,0,0-.24-1.17,2.57,2.57,0,0,0-.17-.41h.81c.16,0,.32,0,.48,0,.8-.08,1.06-.55.64-1.24a4.87,4.87,0,0,1-.68-1.59,10.55,10.55,0,0,1,.08-4c0-.25.11-.5.17-.78.47.11.6.37.62.82a14.91,14.91,0,0,0,1,4.94,5.48,5.48,0,0,0,2.52,3l.21.06L27.7,31h0a1,1,0,0,1-.88.43A9.91,9.91,0,0,1,25.71,31.41Zm1.23,3.93c-.15.13-.29.31-.52,0a5.26,5.26,0,0,0,.26-3.08l1.05-.12A1,1,0,0,1,28,33.37,4.34,4.34,0,0,1,26.94,35.34Zm1.28,1.19a2.77,2.77,0,0,1-.45.31l-.57.27c-.06-.47-.11-.86-.16-1.23l1.36-1.06A1.13,1.13,0,0,1,28.22,36.53Zm-9.55,1.66c.07.37.14.75.19,1.12.38,0,.76,0,1.14,0l-1.21-1.12Zm-1,1.12h.23a4.44,4.44,0,0,0-.07-1A7.53,7.53,0,0,1,17.71,39.31Z"/><path class="cls-2" d="M25,30l-.09,0L25,30a4,4,0,0,0,.73,1.45c.09.56.21,1.12.25,1.69a3.21,3.21,0,0,1-.14.85,1.54,1.54,0,0,0-.3,0,3.94,3.94,0,0,1-3.65-.5,4.34,4.34,0,0,0-.53-.26l-.29-.32c-.32.57-.5,1.23-1.13,1.54a3.36,3.36,0,0,1-2.76-1.11,1,1,0,0,0-.25-.13L16.75,33l-.34.38a2.74,2.74,0,0,1-3.14.45,1.76,1.76,0,0,1-.48-.72,1.86,1.86,0,0,1-.07-.61c-.41.27-.71.71-1.26.62a3.77,3.77,0,0,0-.26-.39A6.54,6.54,0,0,1,10,31a8.25,8.25,0,0,1-.6-2.1v-.15a1.29,1.29,0,0,1,0-.19l0-.32A2.81,2.81,0,0,0,8,28.76c-.3.17-.55.41-.84.6-.07,0-.19,0-.29,0a14.06,14.06,0,0,1,.51-3.47c.11-.46.23-.92.35-1.38.39-.65.76-1.31,1.18-1.94a1.21,1.21,0,0,0,.26-1,4.43,4.43,0,0,1-.11-1,7.3,7.3,0,0,1,.06-.94c0-.11,0-.22.05-.32l0-.18A5,5,0,0,1,10,17l0,0a13.52,13.52,0,0,1,3.69-3.54,5.3,5.3,0,0,1,6.81,1.14c.08.11.18.21.31.37l.49-.3a2.08,2.08,0,0,0,.56-.27,5.62,5.62,0,0,0,1.37-1.93,2,2,0,0,1,1.26,2.31l-.37-.1A2.5,2.5,0,0,0,20.87,17v.36a3.68,3.68,0,0,0-1.72.61,3.13,3.13,0,0,0-1.84-3.18,3.09,3.09,0,0,0-3.74.88,3.12,3.12,0,0,0-.06,3.85,1.28,1.28,0,0,1,.33,1.08,3.58,3.58,0,0,0,.46,2.14,1.91,1.91,0,0,0,0,.63,1.58,1.58,0,0,1-.08,1.05,7.53,7.53,0,0,0-.57,3.94,4.71,4.71,0,0,0,3.14,3.92.91.91,0,0,0,.4,0,3.41,3.41,0,0,0,2.29-.16,1,1,0,0,1,.45,0,3.14,3.14,0,0,0,1.72,0,1,1,0,0,0,.79-1.07,7,7,0,0,0-.24-1.17,2.57,2.57,0,0,0-.17-.41h.81c.16,0,.32,0,.48,0,.8-.08,1.06-.55.64-1.24a4.87,4.87,0,0,1-.68-1.59,10.55,10.55,0,0,1,.08-4c0-.25.11-.5.17-.78.47.11.6.37.62.82a14.91,14.91,0,0,0,1,4.94,5.48,5.48,0,0,0,2.52,3,2.68,2.68,0,0,1,.07.27h0A4.25,4.25,0,0,1,25,30Z"/><path class="cls-3" d="M6.15,15.07a2,2,0,0,1-.14.25c0-.06,0-.12,0-.18Z"/><path class="cls-3" d="M21.85,12.31a2.39,2.39,0,0,1-1,1.34,6.82,6.82,0,0,0-.33-1.85,5.52,5.52,0,0,0-.44-1h0a5.09,5.09,0,0,0-.3-.5,6.87,6.87,0,0,0-.55-.66,5.93,5.93,0,0,0-3-1.66c0,.17-.08.35-.11.52s-.09.37-.13.56-.09.42-.14.64l-.59-.27a5.86,5.86,0,0,0-2.19-.53A4.13,4.13,0,0,0,12,9c-.79-.26-1.59-.52-2.41-.73a7.15,7.15,0,0,0-1.14-.2A.25.25,0,0,0,8.5,8a.05.05,0,0,0,0,0l0-.05h0l.12-.19v0l.05-.07,0,0,.06-.08.05-.06h0l0-.06,0,0L9,7.24l.06-.06h0s0,0,0,0h0s0,0,0,0L9.3,7l.12-.1.08-.06h0l.08-.06.09-.06.1,0h0l.08,0h0l.06,0,.05,0,.07,0,.09,0h0l0,0,0,0,.23-.07.09,0,.12,0,.08,0h0l.23,0c.28,0,.56-.12.84-.18l.73.13a3.67,3.67,0,0,1,1.29-2h.9c.15,0,.29,0,.43,0a9.93,9.93,0,0,1,1.42.21,6.07,6.07,0,0,1,3.2,1.88,5.15,5.15,0,0,1,.53.7c.14.21.27.43.39.65L21,8h0c.09.2.17.41.25.62a8.62,8.62,0,0,1,.32,1.1,6,6,0,0,1,.12.61h0l.06.39a.77.77,0,0,0,0,.15Q21.83,11.6,21.85,12.31Z"/><path class="cls-4" d="M9.24,16.69l-.08.14-.34.59A4.51,4.51,0,0,1,9.24,16.69Z"/><path class="cls-4" d="M13,12.94v0a.57.57,0,0,0-.13.08l-.11.07-.06.05-.23.16-.07,0-.09.08-.08.05-.11.1-.13.1h0l-.29.25L11.6,14h0l-.2.18A8.21,8.21,0,0,1,13,12.94Z"/><path class="cls-4" d="M20.09,10.81c-.33,0-.66,0-1-.05-.7,0-1.4-.17-2.1-.26a5.15,5.15,0,0,1-.68-.15l-3.18-1L12,9a4.13,4.13,0,0,1,1.05-.07,5.86,5.86,0,0,1,2.19.53l.59.27c.05-.22.1-.43.14-.64s.09-.37.13-.56.07-.35.11-.52a5.93,5.93,0,0,1,3,1.66,6.87,6.87,0,0,1,.55.66A5.09,5.09,0,0,1,20.09,10.81Z"/><path class="cls-5" d="M20.93,39.05l0,0a.42.42,0,0,0,0-.1,1.51,1.51,0,0,1-.22-.11l-.07,0-.14-.09-.07,0a5.37,5.37,0,0,1-.45-.35l-.23-.22c-.27-.27-.53-.56-.81-.83,1.42-.56,1.83-1,1.61-1.85a2.4,2.4,0,0,1-3.29-.27c-.14.54.15.92.2,1.34l0,.13-.08-.07a2.19,2.19,0,0,1-1.24-1.68c-.2.1-.38.2-.56.27a2.56,2.56,0,0,1-3.21-.71,1.06,1.06,0,0,0-1-.44A2.22,2.22,0,0,1,9.12,33a3.88,3.88,0,0,1-.57-1.24c-.16-.65-.21-1.33-.32-2.1L6.59,31.14,6.27,31a1.69,1.69,0,0,0,.59,1.72,12.62,12.62,0,0,0,1.42,1.11,17.24,17.24,0,0,0,1.52.85,7.06,7.06,0,0,1-3.43-1,6.26,6.26,0,0,0,.33,1.15c.74,1.44,2.13,1.85,3.55,2.22h.06a1.91,1.91,0,0,1,1.56.2.59.59,0,0,0,.29.07c1.33,0,2.65,0,4-.08.51,0,1-.08,1.58-.13-.11.24-.21.44-.31.63l-.72,1.52,1,.05a7.53,7.53,0,0,0,.16-1,4.44,4.44,0,0,1,.07,1h.92c-.05-.37-.12-.75-.19-1.12l.12,0L20,39.27l.93-.06A.43.43,0,0,0,20.93,39.05Zm-2.3-1V38l0,0S18.65,38,18.63,38.05Zm2.24.86Z"/><polygon class="cls-6" points="18.47 25.6 18.46 25.6 18.46 25.59 18.47 25.6"/><polygon class="cls-6" points="19.67 26.57 19.66 26.57 19.66 26.57 19.67 26.57"/><polygon class="cls-6" points="19.78 19.19 19.77 19.2 19.77 19.2 19.78 19.19"/><polygon class="cls-6" points="20.27 26.94 20.26 26.94 20.26 26.94 20.27 26.94"/><path class="cls-6" d="M25.81,21.11c-.24-.37-.46-.75-.73-1.09a3.27,3.27,0,0,0-2.63-1.33,5,5,0,0,0-2,.34,6.76,6.76,0,0,1-.68.17l-.15.11-.83.94v-.63l-1-.31a13.45,13.45,0,0,0-1.42,0,1.85,1.85,0,0,0-1.61,1.43,3.11,3.11,0,0,1-.2.41,3.22,3.22,0,0,0,1.48,2.44l.26-.8a18.74,18.74,0,0,0,.37,1.93,3.74,3.74,0,0,0,2.13,2.68,12.09,12.09,0,0,0,3.06.84,2.91,2.91,0,0,0,1.42-.07,6.55,6.55,0,0,1-.86-3.36,13.59,13.59,0,0,1,.57-3.4c-.72-.06-.75-.05-1,.4a4.68,4.68,0,0,0-.49,2.45c.09.91.34,1.81.52,2.71,0,.19.09.37.14.58a4.06,4.06,0,0,1-1.82-.47l-.12-.14L20,26.81h0l-.36-.25h0l-.49-.36L19,26.08a.53.53,0,0,0-.48-.48h0c-.32-.57-.65-1.13-1-1.69h0c0-.13-.08-.26-.13-.39-.13-.56-.24-1.13-.39-1.68a2,2,0,0,0-.64-1.11l-.34.88a.76.76,0,0,1,0-1.05,1.37,1.37,0,0,1,1.44-.51l.12.09-.12.14a.2.2,0,0,0-.11,0l-.23.33a1.53,1.53,0,0,0,2.1.54A17.08,17.08,0,0,1,21,20.49a4,4,0,0,1,3.36.27c.48.3,1,.56,1.14,1.22l.13.12c.1.11.21.14.22-.05S25.81,21.42,25.81,21.11Zm-7.28,4.73a.36.36,0,0,1,0-.09A.36.36,0,0,0,18.53,25.84Z"/><path class="cls-7" d="M25.4,36a.68.68,0,0,0-.88.09,9.82,9.82,0,0,0-1,1c-.47.63-.94,1.27-1.37,1.93.5-.06,1-.15,1.53-.25a13.73,13.73,0,0,1,1.47-2.16,4.31,4.31,0,0,1-.6,2l1-.26a7.06,7.06,0,0,0,.39-.89C26.29,36.6,26.22,36.45,25.4,36Z"/><path class="cls-8" d="M21.85,12.31a11.38,11.38,0,0,0-.61-3.66,6.21,6.21,0,0,0-4.55-4.23,9.93,9.93,0,0,0-1.42-.21c-.44,0-.89,0-1.33,0a3.72,3.72,0,0,1,3.37-.82,6.49,6.49,0,0,1,2.43,1,5.72,5.72,0,0,1,2.09,3.08,9.36,9.36,0,0,1,.36,3.75A5.07,5.07,0,0,1,21.85,12.31Z"/><path class="cls-7" d="M18,18.82l-1.13-.42a1.57,1.57,0,0,0,0-1.34c-.45.46-.73.56-1.08.38s-.45-.47-.32-1.13a1.18,1.18,0,0,0-1.1.78,1.43,1.43,0,0,0,.46,1.75l-.56.45A2.35,2.35,0,0,1,14.1,16a2.45,2.45,0,0,1,3.22-.41A2.38,2.38,0,0,1,18,18.82Z"/><path class="cls-9" d="M16.54,38.16l-.61,1a29.16,29.16,0,0,1-3.06-.44,5.54,5.54,0,0,0,.06-.6Z"/><path class="cls-3" d="M17.22,31.42a2.77,2.77,0,0,1-1.43-1.33,8.84,8.84,0,0,1-.24-2.9,3.13,3.13,0,0,1,.1-.44,4.73,4.73,0,0,0,3.78,2.6l0,.27a6.64,6.64,0,0,1-.26.79,1.43,1.43,0,0,1-1.63,1Z"/><path class="cls-10" d="M19.43,29.35a4.73,4.73,0,0,1-3.78-2.6,3.13,3.13,0,0,0-.1.44,8.84,8.84,0,0,0,.24,2.9,3.74,3.74,0,0,1-.94-2.16,5.46,5.46,0,0,1,.57-3.26l.22-.32c.1.41.18.73.27,1a4.74,4.74,0,0,0,2,2.88,3.19,3.19,0,0,0,1,.45C19.39,28.8,19.46,29,19.43,29.35Z"/><path class="cls-11" d="M20.52,22.94c.38.22.18.65.33,1s0,.4,0,.61a1.75,1.75,0,0,0-.09.54c.09.55.22,1.1.34,1.65a2.29,2.29,0,0,1-1.42-.8A5.12,5.12,0,0,1,18.33,24l-.11-.26s0-.06,0-.09l.05-.51.6.09A2.06,2.06,0,0,0,20.52,22.94Z"/><path class="cls-12" d="M17.18,32.3a.91.91,0,0,1-.4,0,4.71,4.71,0,0,1-3.14-3.92,7.53,7.53,0,0,1,.57-3.94,1.58,1.58,0,0,0,.08-1.05,1.91,1.91,0,0,1,0-.63l.88.82a7.15,7.15,0,0,0-.9,2.55,5.68,5.68,0,0,0,1.57,5.25A10.39,10.39,0,0,0,17.18,32.3Z"/><path class="cls-13" d="M25.46,22l-.1-.05-.18-.09L25,21.75l-.17-.09-.21-.11a4.42,4.42,0,0,0-4.05-.15,4.13,4.13,0,0,1-2.13.47,1.87,1.87,0,0,1-1.66-1.57h.59l-.23.33a1.53,1.53,0,0,0,2.1.54A17.08,17.08,0,0,1,21,20.49a4,4,0,0,1,3.36.27C24.8,21.06,25.36,21.32,25.46,22Z"/><path class="cls-14" d="M20.87,38.91c-.17-.28-.35-.56-.53-.84l-.53-.87A1.8,1.8,0,0,0,21.47,35l1.8,1c-.44.56-.87,1.13-1.35,1.66-.14.15-.43.16-.68.24l.23.41c-.14.24-.19.59-.6.62Z"/><path class="cls-15" d="M24.89,17.77l-1.22-.39c0-.16,0-.33,0-.54-.32.13-.63.23-.88-.07s-.15-.59.13-1l-1,.11a1.72,1.72,0,0,1,2.41-.52A1.76,1.76,0,0,1,24.89,17.77Z"/><path class="cls-16" d="M11.92,6c-.28.06-.56.14-.84.18l-.23,0h0l-.08,0-.12,0-.09,0-.23.07,0,0,0,0h0l-.09,0-.07,0-.05,0-.06,0h0l-.08,0h0l-.1,0-.09.06-.08.06h0l-.08.06L9.3,7l-.09.08s0,0,0,0h0s0,0,0,0h0L9,7.24,9,7.32l0,0,0,.06h0l-.05.06-.06.08,0,0-.05.07v0l-.12.19h0l0,.05a.05.05,0,0,1,0,0,.25.25,0,0,1,0,.07l-.05.1-.06.12a1,1,0,0,1,0,.1,3.42,3.42,0,0,0-.13.34l0,.1-.09.28c-.13.5-.17,1-.26,1.53A3.35,3.35,0,0,1,7.42,9v-.2c0-.12,0-.24.05-.35v0a.09.09,0,0,0,0-.05s0-.08,0-.11l.06-.18a.14.14,0,0,1,0-.06l.09-.21a.93.93,0,0,0,0-.1l.06-.09a.47.47,0,0,1,0-.1l.06-.09L8,7.34l.06-.09h0a3.41,3.41,0,0,1,.46-.47s0,0,0,0h0l.08-.06.1-.08h0l.12-.08.06,0,.06,0,.33-.19.06,0,.07,0a.2.2,0,0,0,.08,0l.13,0,.09,0,.08,0L10,6l.09,0h0l.09,0h0l.07,0,.12,0h.1A2.8,2.8,0,0,1,11.92,6Z"/><path class="cls-17" d="M25.81,21.11c-.24-.37-.46-.75-.73-1.09a3.27,3.27,0,0,0-2.63-1.33,5.08,5.08,0,0,0-2,.34,6.76,6.76,0,0,1-.68.17,3,3,0,0,1,2.35-1.14,3.17,3.17,0,0,1,3.13,1.37A3.07,3.07,0,0,1,25.81,21.11Z"/><path class="cls-5" d="M26.68,32.31l1.05-.12A1,1,0,0,1,28,33.37a4.34,4.34,0,0,1-1.1,2c-.15.13-.29.31-.52,0A5.26,5.26,0,0,0,26.68,32.31Z"/><path class="cls-18" d="M21.34,33.23a4.34,4.34,0,0,1,.53.26,3.94,3.94,0,0,0,3.65.5,1.54,1.54,0,0,1,.3,0c-.1.64-.3.78-.89,1A2.23,2.23,0,0,1,23,34.88,3.45,3.45,0,0,1,21.34,33.23Z"/><path class="cls-12" d="M9.43,28.94A8.25,8.25,0,0,0,10,31a6.54,6.54,0,0,0,1.17,1.64,3.77,3.77,0,0,1,.26.39,1.34,1.34,0,0,1-1.34-.61,4.27,4.27,0,0,1-.82-3.4S9.38,29,9.43,28.94Z"/><path class="cls-14" d="M27.2,37.11,27,35.88l1.36-1.06a1.13,1.13,0,0,1-.18,1.71,2.77,2.77,0,0,1-.45.31Z"/><path class="cls-18" d="M7.69,24.52c-.12.46-.24.92-.35,1.38a14.06,14.06,0,0,0-.51,3.47,1.3,1.3,0,0,1-.53-1.31A6.68,6.68,0,0,1,7.69,24.52Z"/><path class="cls-11" d="M21.12,31.64l-.86-.1.35-1.95h.74l.38.62A1.7,1.7,0,0,1,21.12,31.64Z"/><path class="cls-10" d="M20.52,22.94a2.06,2.06,0,0,1-1.67.33l-.6-.09-.05.51a4.79,4.79,0,0,1-.68-1.49l.43.15a2.31,2.31,0,0,0,1.45.16C20.18,22.35,20.42,22.45,20.52,22.94Z"/><path class="cls-12" d="M25,30a4.25,4.25,0,0,0,2.7,1,1,1,0,0,1-.88.43,9.91,9.91,0,0,1-1.09,0A4,4,0,0,1,25,30Z"/><path class="cls-18" d="M16.91,33.21a1,1,0,0,1,.25.13,3.36,3.36,0,0,0,2.76,1.11,1.79,1.79,0,0,1-2.19,0A1.69,1.69,0,0,1,16.91,33.21Z"/><path class="cls-10" d="M21.35,29.59h-.74l-.35,1.95-.29,0a7.68,7.68,0,0,0,.16-1.23A7.76,7.76,0,0,0,19.89,29C20.45,29.14,21,29.07,21.35,29.59Z"/><path class="cls-19" d="M17.22,31.42h.36a1.43,1.43,0,0,0,1.63-1,6.64,6.64,0,0,0,.26-.79,2.58,2.58,0,0,1-.1,1.53.82.82,0,0,1-.85.63A2,2,0,0,1,17.22,31.42Z"/><path class="cls-20" d="M17.8,19.31a13.45,13.45,0,0,0-1.42,0,1.85,1.85,0,0,0-1.61,1.43,3.11,3.11,0,0,1-.2.41A1.88,1.88,0,0,1,16,19,2.33,2.33,0,0,1,17.8,19.31Z"/><path class="cls-18" d="M19.15,18a3.68,3.68,0,0,1,1.72-.61c-.05.11-.05.29-.13.33A4,4,0,0,0,19.21,19c-.05.08-.19.09-.39.16Z"/><path class="cls-18" d="M23.29,12.41a5.62,5.62,0,0,1-1.37,1.93,2.08,2.08,0,0,1-.56.27l1.55-2.33Z"/><path class="cls-19" d="M21.11,26.7c-.12-.55-.25-1.1-.34-1.65a1.75,1.75,0,0,1,.09-.54.94.94,0,0,1,.13.24c.16.62.32,1.24.46,1.87a1.54,1.54,0,0,1,0,.32l-.25-.13-.1-.11Z"/><path class="cls-19" d="M21.12,31.64a1.7,1.7,0,0,0,.61-1.43,2.86,2.86,0,0,1,.2.48C22.06,31.31,21.79,31.62,21.12,31.64Z"/><polygon class="cls-21" points="18.47 25.6 18.46 25.6 18.46 25.59 18.46 25.59 18.47 25.6"/><polygon class="cls-21" points="18.46 25.59 18.47 25.6 18.46 25.6 18.46 25.59 18.46 25.59"/><polygon class="cls-21" points="19.67 26.57 19.66 26.57 19.66 26.57 19.67 26.57"/><polygon class="cls-21" points="19.67 26.57 19.66 26.57 19.66 26.57 19.67 26.57"/><path class="cls-12" d="M27.7,31l-.07-.27.21.06Z"/><path class="cls-10" d="M18.22,23.78l.11.26Z"/><path class="cls-13" d="M17.48,20.06l.12.09-.13.14Z"/><path class="cls-11" d="M21.11,26.7l.1.11Z"/><path class="cls-12" d="M9.47,28.6l0,.19Z"/><path class="cls-17" d="M19.78,19.19l-.16.12Z"/><path class="cls-13" d="M25.46,22l.13.12Z"/><path class="cls-12" d="M25,30l-.09,0L25,30Z"/><path class="cls-22" d="M17.4,36.45l0,.13-.08-.07Z"/><path class="cls-22" d="M18.63,38l0,0s0,0,0,0Z"/><path class="cls-1" d="M30.39,2.84A5.24,5.24,0,0,0,29.9.9a2.19,2.19,0,0,0-.37-.53A1,1,0,0,0,28,.38a4.16,4.16,0,0,0-.71,1.15c-.63,1.56-1.2,3.13-1.81,4.7-.36.93-.75,1.84-1.12,2.77-.12.32-.44.22-.67.37l-.13-.28c-.3-.67-.63-1.32-1-1.95a27.26,27.26,0,0,0-1.88-3.06,23.44,23.44,0,0,0-1.78-2.2,8.88,8.88,0,0,0-1.4-1.2,2.62,2.62,0,0,0-.88-.35,1.09,1.09,0,0,0-1,.34c-.14.14-.3.26-.43.41a2.17,2.17,0,0,1-2.3.59c-.47-.12-1-.23-1.42-.36a1.76,1.76,0,0,0-1.9.56A5.83,5.83,0,0,0,8.46,4.06c-.22.72-.41,1.46-.61,2.19a1,1,0,0,0,0,.16H7.68c-.48,0-1,0-1.46.13A7.25,7.25,0,0,0,1.05,9.72a5.92,5.92,0,0,0,.81,7.67A10,10,0,0,0,6.23,19.9c.64.19,1.3.34,2,.48a8.28,8.28,0,0,1,.06-.86l-.19,0-.45-.07-.08,0-.09,0-.26-.05-.16,0-.11,0-.13,0-.3-.09-.1,0-.08,0-.08,0-.11,0a8.21,8.21,0,0,1-4.46-3.3,5,5,0,0,1,.37-6A7.4,7.4,0,0,1,5.54,7.57l.14,0,.1,0h0l.11,0,.11,0,.1,0,.1,0,.09,0,.21,0,.05,0h.11l.11,0H7.1l.22,0h.74l.19,0h.06l.17,0,.08,0,.08,0,.09,0,.16,0a16.1,16.1,0,0,1,2.34.79c.6.25,1.21.49,1.83.71a26,26,0,0,0,6.73,1.4h.13a17.3,17.3,0,0,0,1.76,0h.66l.15,0h.14l.15,0,.15,0,.14,0h0l.15,0,.15,0,.14,0a6.1,6.1,0,0,0,4.07-3,10.39,10.39,0,0,0,1.26-3.22,5.76,5.76,0,0,0,0-2.11,9.65,9.65,0,0,1-3.06,6.63,1.64,1.64,0,0,1,0-.24c.64-1.85,1.27-3.7,1.94-5.54a8.86,8.86,0,0,1,.77-1.5c.16-.26.4-.23.51.06s.16.65.24,1l0,.09a12.71,12.71,0,0,1-.1,4.35A13.54,13.54,0,0,1,28,10.29a10.07,10.07,0,0,1-2.63,3.39h0a3.72,3.72,0,0,1,.08.68,6.85,6.85,0,0,0,2.19-1.78,11.8,11.8,0,0,0,2.32-4.72A14.28,14.28,0,0,0,30.39,2.84ZM12.93,8.18c-.76-.32-1.5-.64-2.27-.92l-.11,0-.07,0-.26-.08h0l-.15,0L9.42,6.9l-.29-.07L9,6.79l-.16,0v-.1a.68.68,0,0,1,0-.14h0v0c.06-.27.13-.54.19-.81l.06-.26L9.22,5a1.21,1.21,0,0,0,0-.18l.1-.37a1.42,1.42,0,0,1,.05-.16h0s0-.09,0-.14,0-.16.07-.24a6.35,6.35,0,0,1,.76-1.43.85.85,0,0,1,1-.36c.52.16,1,.33,1.57.44A2.85,2.85,0,0,0,15,2.27a9.61,9.61,0,0,0,1-.72,1,1,0,0,1,1.19-.07,2.77,2.77,0,0,1,.66.51c.23.27.47.54.7.82l.07.09.24.28.15.18.14.18.16.2.15.19.14.19.15.2a.22.22,0,0,1,0,.08l.13.18.29.4.09.15.13.18.12.19.24.37.22.35.74,1.15h0v0h-.14l-.07,0-.2-.07-.18-.06h0l-.16-.05-.08,0L20.56,7l-.14,0-.13,0-.14,0-.09,0-.3-.06-.26,0-.27,0h-.1a3.15,3.15,0,0,0-.44,0h-.41a8.18,8.18,0,0,0-4.85,1.41A.44.44,0,0,1,12.93,8.18Zm9.3,1.55-.67,0h0c-.5,0-1,0-1.51,0l-.65-.05-.16,0-.19,0-.37,0-.13,0h-.13l-.34-.05-.29,0-.6-.11-.22,0-.23-.05-.22,0h0l-.23,0L16,9.07,14.05,8.6a.57.57,0,0,1,.22-.2,9,9,0,0,1,5.13-1h.29l.24,0h0l.12,0,.58.11.18,0,.18,0,.24,0,.28.06h.08l.12,0h.05l0,0h0l.05,0h0l0,0,0,0,0,0a0,0,0,0,0,0,0,6,6,0,0,1,.92,1.71Z"/><path class="cls-4" d="M25.34,13.69h0v0Z"/><path class="cls-23" d="M20.53,11.8a5.52,5.52,0,0,0-.44-1h0c-.33,0-.66,0-1-.05-.7,0-1.4-.17-2.1-.26a5.15,5.15,0,0,1-.68-.15l-3.18-1L12,9c-.79-.26-1.59-.52-2.41-.73a7.15,7.15,0,0,0-1.14-.2,5.9,5.9,0,0,0-.84,0h-.5l-.18,0-.16,0h0l-.11,0h-.1l-.21,0-.12,0-.09,0L6,8.21l-.15,0-.17,0h0l-.1,0-.09,0-.09,0-.11,0L5,8.54l-.08,0-.4.18-.1.05-.09,0L4,9,4,9.05l-.13.08-.08,0-.09.06-.09.06A4.18,4.18,0,0,0,2,11a5.59,5.59,0,0,0-.43,3.05A2.84,2.84,0,0,0,2,15.18c.08-.8.14-1.63.23-2.46a2.39,2.39,0,0,1,.87-1.58l.31-.22.34-.2a5.34,5.34,0,0,0-.93,2.69,9.79,9.79,0,0,0,0,1.21A4,4,0,0,0,5.06,18l.1.05.08.05.25.12.11.05.09,0,.27.12.08,0,.31.12.1,0,.1,0,.09,0h0l.18.06h0l.19.06.21.06.2.05L7.9,19l.21.05.21.05,0-.21h0a6.23,6.23,0,0,1,.46-1.5,4.51,4.51,0,0,1,.42-.73h0a12.63,12.63,0,0,1,2.16-2.46A8.21,8.21,0,0,1,13,12.94l.08,0,.15-.1.14-.08.15-.09.2-.1.15-.08.15-.07.06,0,.12-.06.17-.07.06,0,.15-.06a5.34,5.34,0,0,1,.52-.18l.12,0,.08,0h.1l.21-.05h.08l.15,0,.15,0h.07l.11,0h.41a5.1,5.1,0,0,1,3.07,1c.42.29.8.64,1.2,1A6.82,6.82,0,0,0,20.53,11.8ZM6,15.32c0-.06,0-.12,0-.18l.15-.07A2,2,0,0,1,6,15.32Z"/><path class="cls-4" d="M6.15,15.07a2,2,0,0,1-.14.25c0-.06,0-.12,0-.18Z"/><path class="cls-4" d="M9.24,16.69l-.08.14-.34.59A4.51,4.51,0,0,1,9.24,16.69Z"/><path class="cls-4" d="M13,12.94v0a.57.57,0,0,0-.13.08l-.11.07-.06.05-.23.16-.07,0-.09.08-.08.05-.11.1-.13.1h0a3.9,3.9,0,0,0-.38.33h0l-.2.18A8.21,8.21,0,0,1,13,12.94Z"/><path class="cls-4" d="M15.11,12h0a10.76,10.76,0,0,0-2.09,1l.08,0,.15-.1.14-.08.15-.09.2-.1.15-.08.15-.07.06,0,.12-.06.17-.07.06,0,.15-.06A5.34,5.34,0,0,1,15.11,12Z"/><path class="cls-23" d="M29.25,6.62A13.54,13.54,0,0,1,28,10.29a10.07,10.07,0,0,1-2.63,3.39c0-.23-.38-1.75-1.64-2a2.47,2.47,0,0,0-.37-.35l-.23-.16a1.94,1.94,0,0,0-.89-.28,1.75,1.75,0,0,0-.46,0,1.66,1.66,0,0,0-.93.53c-.11.12-.2.25-.3.37a5.52,5.52,0,0,0-.44-1h1.49l.15,0h.08l.19,0,.21,0h0l.37-.06.1,0h.07l.19,0,.12,0,.1,0,.31-.07.1,0,.1,0L24,10.3l.1,0,.3-.11.08,0L24.7,10a7,7,0,0,0,3.18-2.49,6.37,6.37,0,0,0,1-2.47c.15-.79.25-1.59.36-2.38,0-.18,0-.35.06-.52l0,.09A12.71,12.71,0,0,1,29.25,6.62Z"/><path class="cls-3" d="M29.31,2.18c0,.17,0,.34-.06.52-.11.79-.21,1.59-.36,2.38a6.37,6.37,0,0,1-1,2.47A7,7,0,0,1,24.7,10l-.22.09-.08,0-.3.11-.1,0-.31.09-.1,0-.1,0-.31.07-.1,0-.12,0-.19,0H22.7l-.1,0-.37.06h0l-.21,0-.19,0h-.08l-.15,0H20.09c-.33,0-.66,0-1-.05-.7,0-1.4-.17-2.1-.26a5.15,5.15,0,0,1-.68-.15l-3.18-1L12,9c-.79-.26-1.59-.52-2.41-.73a7.15,7.15,0,0,0-1.14-.2,5.9,5.9,0,0,0-.84,0h-.5l-.18,0-.16,0h0l-.11,0h-.1l-.21,0-.12,0-.09,0L6,8.21l-.15,0-.17,0h0l-.1,0-.09,0-.09,0-.11,0L5,8.54l-.08,0-.4.18-.1.05-.09,0L4,9,4,9.05l-.13.08-.08,0-.09.06-.09.06A4.18,4.18,0,0,0,2,11a5.59,5.59,0,0,0-.43,3.05A2.84,2.84,0,0,0,2,15.18c.08-.8.14-1.63.23-2.46a2.39,2.39,0,0,1,.87-1.58l.31-.22.34-.2a5.34,5.34,0,0,0-.93,2.69,9.79,9.79,0,0,0,0,1.21A4,4,0,0,0,5.06,18l.1.05.08.05.25.12.11.05.09,0,.27.12.08,0,.31.12.1,0,.1,0,.09,0h0l.18.06h0l.19.06.21.06.2.05L7.9,19l.21.05.21.05-.06.38-.19,0-.45-.07-.08,0-.09,0-.26-.05-.16,0-.11,0-.13,0-.3-.09-.1,0-.08,0-.08,0-.11,0a8.21,8.21,0,0,1-4.46-3.3,5,5,0,0,1,.37-6A7.4,7.4,0,0,1,5.54,7.57l.14,0,.1,0h0l.11,0,.11,0,.1,0,.1,0,.09,0,.21,0,.05,0h.11l.11,0H7.1l.22,0h.74l.19,0h.06l.17,0,.08,0,.08,0,.09,0,.16,0a16.1,16.1,0,0,1,2.34.79c.6.25,1.21.49,1.83.71a26,26,0,0,0,6.73,1.4h.13a17.3,17.3,0,0,0,1.76,0h.66l.15,0h.14l.15,0,.15,0,.14,0h0l.15,0,.15,0,.14,0a6.1,6.1,0,0,0,4.07-3,10.39,10.39,0,0,0,1.26-3.22,5.76,5.76,0,0,0,0-2.11,9.65,9.65,0,0,1-3.06,6.63,1.64,1.64,0,0,1,0-.24c.64-1.85,1.27-3.7,1.94-5.54a8.86,8.86,0,0,1,.77-1.5c.16-.26.4-.23.51.06S29.23,1.86,29.31,2.18Z"/><path class="cls-3" d="M21.7,7.37c-.65-1-1.26-2-2-3S18.46,2.78,17.79,2a2.77,2.77,0,0,0-.66-.51,1,1,0,0,0-1.19.07,9.61,9.61,0,0,1-1,.72,2.85,2.85,0,0,1-2.12.31c-.53-.11-1-.28-1.57-.44a.85.85,0,0,0-1,.36,6.35,6.35,0,0,0-.76,1.43c-.27.83-.44,1.68-.65,2.53a1.67,1.67,0,0,0,0,.29c.62.17,1.23.3,1.82.51.77.28,1.51.6,2.27.92a.44.44,0,0,0,.5,0,8.18,8.18,0,0,1,4.85-1.41,9.57,9.57,0,0,1,3.22.6l.21,0ZM16.76,1.93c1.74.93,2.64,2.61,3.51,4.42a8.73,8.73,0,0,0-4.63.27s0,0,0-.07a6.79,6.79,0,0,0-.74-2.31A.26.26,0,0,1,14.93,4c.21-.21.47-.37.67-.6C16,2.93,16.35,2.45,16.76,1.93ZM16,2l0,0a3.21,3.21,0,0,1-.21.3,5.63,5.63,0,0,1-3.73,1.87A3.31,3.31,0,0,1,11,4a.64.64,0,0,1-.52-.59.74.74,0,0,1,.47-.74,1.19,1.19,0,0,1,1.07,0,3.1,3.1,0,0,0,3.23-.21C15.48,2.33,15.73,2.15,16,2Z"/><path class="cls-24" d="M16.27,9.15a20.91,20.91,0,0,0,3.78.57c.5,0,1,0,1.51,0-.1-.47-.19-.95-.3-1.42-.05-.21-.2-.29-.41-.34a8.17,8.17,0,0,0-2.36-.24c-.75.06-1.5.15-2.25.22-.26,0-.28.15-.19.37A7.44,7.44,0,0,1,16.27,9.15Z"/><path class="cls-3" d="M16.27,9.15a7.44,7.44,0,0,0-.22-.81C16,8.12,16,8,16.24,8c.75-.07,1.5-.16,2.25-.22A8.17,8.17,0,0,1,20.85,8c.21,0,.36.13.41.34.11.47.2.95.3,1.42l1.37-.05A5.78,5.78,0,0,0,22,8a.81.81,0,0,0-.5-.2,19,19,0,0,0-2.11-.37,9,9,0,0,0-5.13,1,.57.57,0,0,0-.22.2Z"/><path class="cls-25" d="M21.71,7.37v0s0,0,0,0h0Z"/><path class="cls-26" d="M3.72,10.72h0Z"/><path class="cls-24" d="M16.76,1.93c-.41.52-.77,1-1.16,1.45-.2.23-.46.39-.67.6a.26.26,0,0,0-.07.26,6.79,6.79,0,0,1,.74,2.31s0,0,0,.07a8.73,8.73,0,0,1,4.63-.27C19.4,4.54,18.5,2.86,16.76,1.93Z"/><path class="cls-27" d="M16,2c-.25.18-.5.36-.77.53A3.1,3.1,0,0,1,12,2.71a1.19,1.19,0,0,0-1.07,0,.74.74,0,0,0-.47.74A.64.64,0,0,0,11,4a3.31,3.31,0,0,0,1.12.17A5.63,5.63,0,0,0,15.81,2.3,3.21,3.21,0,0,0,16,2Z"/><path class="cls-28" d="M13.76,22.75l-.1,0Z"/><path class="cls-29" d="M7.6,22.62l0,0v.05Z"/><path class="cls-30" d="M19,13.9l.05,0v-.06Z"/><path class="cls-31" d="M21.27,13.19l0,0h0Z"/><path class="cls-2" d="M23.71,11.66h0Z"/><path class="cls-2" d="M25.36,13.71l0,0h0Z"/><path class="cls-4" d="M13,12.94v0a.57.57,0,0,0-.13.08l-.11.07-.06.05-.23.16-.07,0-.09.08-.08.05-.11.1-.13.1h0l-.29.25L11.6,14h0l-.2.18A8.21,8.21,0,0,1,13,12.94Z"/><path class="cls-1" d="M6.15,15.07a2,2,0,0,1-.14.25c0-.06,0-.12,0-.18Z"/><path class="cls-1" d="M25.05,17A2.1,2.1,0,0,1,23,14.9a.88.88,0,0,1,0-.16,5.54,5.54,0,0,0-.18-1c-.11-.33-.22-.33-.3-.33a1.23,1.23,0,0,0-.32.07,1.33,1.33,0,0,1-.49.08,1.09,1.09,0,0,1-.67-.2h0a5,5,0,0,0-2.65-.83l-1,.19.17-1.24,0-.3.24-.2c.46-.4.9-.83,1.36-1.29a16.11,16.11,0,0,1,2.73-2.31,2.93,2.93,0,0,1,1.88-.59,2.94,2.94,0,0,1,2.8,1.45,1.83,1.83,0,0,1-.59,2.07,3,3,0,0,1,2,1.55,3.15,3.15,0,0,1,0,2.7,3.06,3.06,0,0,1-1.06,1.73A3,3,0,0,1,25.05,17Z"/><polygon class="cls-32" points="22.13 11.16 22.14 11.15 22.14 11.16 22.13 11.16"/><path class="cls-32" d="M18.28,11.57a34,34,0,0,1,4-3.56c.34,0,.68,0,1,0,.84.08,1.33.82.9,1.42s-1.82.71-2.09,1.72a.74.74,0,0,0-.12.09,1.38,1.38,0,0,0,.4,0,6.3,6.3,0,0,1,3.22-.22,2.21,2.21,0,0,1,1.57,3.25h0c-.74.79-1.87,1.51-2.36.08-.25-1.45-1.39-2.69-2.92-2.24a.81.81,0,0,1-.53-.07,4.15,4.15,0,0,0-3.14-.4Z"/><path class="cls-33" d="M18.28,11.68a4.05,4.05,0,0,1,3.12.39.81.81,0,0,0,.53.07c1.53-.45,2.67.79,2.92,2.24.49,1.43,1.62.71,2.36-.08-.26,1.76-3.16,2.92-3.45.5a7.41,7.41,0,0,0-.24-1.33,1.15,1.15,0,0,0-1.67-.77.49.49,0,0,1-.41,0A5.78,5.78,0,0,0,18.28,11.68Z"/><path class="cls-33" d="M22.14,11.16c.27-1,1.53-1,2.09-1.72S24.17,8.1,23.33,8c-.33,0-.67,0-1,0,1.2-1.08,4.81,0,3,1.72A15,15,0,0,1,22.14,11.16Z"/><path class="cls-33" d="M22,11.25l.12-.1Z"/><path class="cls-1" d="M17.84,10.87a4.9,4.9,0,0,1-1.77.89c-1,.21,1.2.65,1.2.65l.34-.13"/><path class="cls-33" d="M18.26,11.69a30,30,0,0,1,2.6,2,3,3,0,0,1,1.38-1.05c.71-.14-.78-.32-.78-.32l-1.27-.49-.81-.1"/><path class="cls-1" d="M21.85,12.75a3.18,3.18,0,0,0-1,.9c-.41.6-.13.56-.13.56l.56-.34.46-.42"/><polyline class="cls-1" points="21.61 14.23 21.01 15.11 20.56 14.54"/><path class="cls-1" d="M24.21,23.7h0Z"/></g></g></svg>