<?xml version="1.0" encoding="utf-8"?>
<!-- Generator: Adobe Illustrator 26.0.1, SVG Export Plug-In . SVG Version: 6.00 Build 0)  -->
<svg version="1.1" id="Capa_1" xmlns="http://www.w3.org/2000/svg" xmlns:xlink="http://www.w3.org/1999/xlink" x="0px" y="0px"
	 viewBox="0 0 609.3 452.3" style="enable-background:new 0 0 609.3 452.3;" xml:space="preserve">
<style type="text/css">
	.st0{opacity:8.000000e-02;}
	.st1{fill:url(#SVGID_1_);}
	.st2{fill:#351E0F;}
	.st3{fill:#EB1C25;}
	.st4{fill:#FBFBFB;}
	.st5{fill:#EB1C24;}
	.st6{fill:#90320C;}
	.st7{fill:#E81B25;}
	.st8{fill:#F1A53F;}
	.st9{fill:#F8F8F9;}
	.st10{fill:#E4C1B4;}
	.st11{fill:#F9F8F9;}
	.st12{fill:#8F310F;}
	.st13{fill:#E91C25;}
	.st14{fill:#AAB2BA;}
	.st15{fill:#B7652F;}
	.st16{fill:#E41B26;}
	.st17{fill:#F8F7F9;}
	.st18{fill:#E4BFB2;}
	.st19{fill:#F7F4F2;}
	.st20{fill:#A9B1B9;}
	.st21{fill:#DFB5AA;}
	.st22{fill:#EEEDF0;}
	.st23{fill:#E7DEDA;}
	.st24{fill:#371E50;}
	.st25{fill:#75270C;}
	.st26{fill:#F24452;}
	.st27{fill:#C48660;}
	.st28{fill:#C4865F;}
	.st29{fill:#673615;}
	.st30{fill:#7F1618;}
	.st31{fill:#7E1517;}
	.st32{fill:#3C3B3D;}
	.st33{fill:#DD3039;}
	.st34{fill:#E2212A;}
	.st35{fill:#B10309;}
	.st36{fill:#BBBCBE;}
	.st37{fill:#262122;}
	.st38{fill:#EDEDEB;}
	.st39{fill:#F2F2F0;}
	.st40{font-family:'Poppins-Light';}
	.st41{font-size:37.1px;}
</style>
<g id="Capa_2_00000044870111955875428770000013059797172273227398_" class="st0">
	<g id="Capa_1-2">
		
			<linearGradient id="SVGID_1_" gradientUnits="userSpaceOnUse" x1="154.0738" y1="257.8719" x2="452.1025" y2="257.8719" gradientTransform="matrix(1 0 0 -1 0 454)">
			<stop  offset="0" style="stop-color:#F2602F"/>
			<stop  offset="1" style="stop-color:#FAC41C"/>
		</linearGradient>
		<path class="st1" d="M434.7,266.4c-1.2,2.2-2.4,4.3-3.6,6.5c-2,3.3-4.1,6.5-6.3,9.7c-1.9,2.8-4,5.5-6.1,8.1
			c-0.9,1.1-1.9,2.3-2.8,3.4c-0.5,0.6-1,1.2-1.5,1.7c-0.8,0.9-1.6,1.8-2.4,2.6c-3.4,3.7-7.1,7.2-10.9,10.5c-1.5,1.3-2.9,2.5-4.4,3.7
			c-5.5,4.4-11.3,8.5-17.3,12.1c-2.9,1.7-5.9,3.4-8.9,4.9l-2.3,1.1l-0.6,0.3c-14.8,7.1-30.7,11.7-47,13.6c-4.9-0.1-9.7-0.2-14.6-0.2
			c-6.3,0-12.8,0.1-19.2,0.3c-9.2-1-18.2-2.9-27.1-5.5c-10.7-3.3-21.1-7.8-30.8-13.4c-1.5-0.8-2.9-1.7-4.4-2.6
			c-1.3-0.8-2.7-1.7-4-2.6c-1.3-0.9-2.7-1.8-4-2.8l-1.4-1c-3.8-2.8-7.4-5.8-11-8.9c-1.8-1.6-3.6-3.3-5.4-5c-1.1-1-2.1-2.1-3.2-3.2
			c-2.6-2.7-5.1-5.5-7.4-8.4c-1-1.2-2-2.4-2.9-3.6c-3.4-4.4-6.5-9-9.4-13.7c-1.3-2.1-2.5-4.3-3.7-6.5
			c-39.1-72.4-12.1-162.8,60.3-201.9s162.8-12.1,201.9,60.3C457.9,169.6,458.1,222.4,434.7,266.4L434.7,266.4z"/>
		<path class="st2" d="M481.8,216.2c-2.8,20.3-9,40.1-18.2,58.4c-1.1,2.2-2.3,4.5-3.5,6.7c-1.7,3-3.4,6-5.2,8.9
			c-1.3,2.1-2.7,4.1-4.2,6.4s-3.1,4.4-4.7,6.6l-0.3,0.4l0,0c-1.9,2.4-3.8,4.8-5.7,7.1c-1.2,1.5-2.6,3-3.9,4.5l-0.2,0.2
			c-0.5,0.5-0.9,1-1.4,1.5c-2.6,2.9-5.4,5.7-8.2,8.5c-2,2-4.1,3.9-6.2,5.8c-1.3,1.1-2.6,2.2-3.9,3.3l-0.2,0.2
			c-0.4,0.4-0.8,0.7-1.3,1c-2.2,1.8-4.5,3.6-6.8,5.3c-4,3-8.2,5.8-12.4,8.5c-3.3,2.1-6.7,4.1-10.1,5.9l-1.8,1l-2.1-0.3
			c-2.4-0.3-4.7-0.7-7.1-1c-1.4-0.2-2.8-0.4-4.2-0.5l-2.8-0.4c-4.4-0.5-9-1-13.5-1.4l-0.6-5.1l-0.1-0.8c4.8-1.7,11.4-4.3,15.5-6.1
			c10.3-4.7,20.1-10.5,29.2-17.2c5.4-4,10.6-8.4,15.5-13.1l0.5-0.5c1.8-1.8,3.6-3.6,5.4-5.5c0.8-0.8,1.6-1.7,2.3-2.6l0.2-0.2
			c3.5-3.9,6.7-8,9.8-12.1c1.3-1.9,2.6-3.7,3.9-5.6c2-3,3.9-6,5.6-9.1c1.2-2.1,2.4-4.3,3.5-6.5c39.8-78.1,8.8-173.8-69.3-213.6
			s-173.8-8.8-213.6,69.3c-23.3,45.7-23.1,99.7,0.5,145.2c1.1,2.2,2.3,4.3,3.6,6.5c4,6.9,8.5,13.4,13.5,19.6c1,1.3,2,2.5,3.1,3.8
			c4.7,5.5,9.7,10.7,15.1,15.5l0.8,0.7c1.4,1.3,2.9,2.5,4.3,3.7c3,2.5,6.2,4.9,9.3,7.1c1.9,1.3,3.7,2.6,5.6,3.8l1.9,1.2
			c1.7,1,3.3,2,5,3c4.6,2.6,9.2,5,14,7.1c3.9,1.7,10.6,4.8,15.5,6.7l-0.2,1.5l-0.4,3.7c-5.5,0.5-11.1,1.1-16.6,1.9
			c-5.1,0.6-10.1,1.3-15.1,2.1c-2.3,0.4-4.7,0.7-7,1.1l-2.1,0.3l-1.9-1c-3.5-1.8-6.9-3.7-10.3-5.6c-10.6-6.2-20.5-13.5-29.7-21.7
			c-1.6-1.4-3.1-2.9-4.6-4.2c-0.9-0.8-1.8-1.7-2.7-2.6c-3.7-3.6-7.2-7.4-10.5-11.2c-4.6-5.4-8.9-11-12.9-16.9
			c-2.2-3.2-4.3-6.5-6.2-9.8c-1.2-2.1-2.4-4.2-3.7-6.5C80.4,187.4,114.7,73.3,206.3,24S412,9.1,461.2,100.7
			C480.2,136,487.4,176.5,481.8,216.2z"/>
		<path class="st3" d="M416.5,54.1c-75-66.9-190-60.3-256.8,14.7C108.8,125.9,99,208.7,135.2,276c1.1,2.1,2.3,4.2,3.6,6.4
			c1.9,3.2,3.9,6.4,6,9.5c3.8,5.7,8,11.1,12.5,16.3c3.2,3.7,6.5,7.3,10.1,10.8c0.9,0.9,1.7,1.7,2.6,2.5c1.4,1.4,2.9,2.8,4.4,4.1
			c8.8,7.9,18.4,14.9,28.7,21c2.7,1.6,12.7,7.6,18,10.6c1.1,0.6,2.1,1.2,2.7,1.5c4.3-0.8,8.5-2,12.5-3.6c5.5-2.1,10.4-4.4,17-5.5
			c1-0.2,2.1-0.3,3.2-0.4c-0.9-0.3-1.9-0.7-3-1.1c-5-1.9-11.7-5-15.5-6.7c-4.7-2.1-9.4-4.5-14-7.1c-1.7-1-3.3-2-5-3l-1.8-1.2
			c-1.9-1.2-3.8-2.5-5.6-3.8c-3.2-2.2-6.3-4.6-9.3-7.1c-1.5-1.2-2.9-2.4-4.3-3.7l-0.8-0.7c-5.4-4.8-10.5-10-15.2-15.5
			c-1.1-1.2-2.1-2.5-3.1-3.8c-5-6.2-9.5-12.8-13.5-19.6c-1.2-2.1-2.4-4.3-3.6-6.5c-40.4-77.8-10-173.7,67.8-214.1
			s173.7-10,214.1,67.8c23.6,45.5,23.8,99.6,0.5,145.3c-1.1,2.2-2.3,4.3-3.5,6.5c-1.7,3.1-3.6,6.1-5.6,9.1c-1.3,1.9-2.6,3.8-3.9,5.6
			c-3,4.1-6.3,8.2-9.8,12.1l-0.2,0.2c-0.8,0.9-1.5,1.7-2.3,2.6c-1.7,1.9-3.5,3.7-5.4,5.5l-0.5,0.5c-4.9,4.7-10,9.1-15.5,13.2
			c-9.1,6.8-18.9,12.5-29.2,17.2c-4.1,1.9-10.7,4.4-15.5,6.1l-2,0.7c0.6,0,1.3,0.1,2.1,0.1c4.6,0.1,11-0.3,14.9,0.1
			c3.5,0.4,1.6,4.3,2.1,6.7c0.1,1,1,1.8,2,1.8c0.5-0.3,1.3-0.7,2.2-1.3c5-3,15.1-9.3,17.8-11c4.1-2.6,8.1-5.3,12-8.2
			c2.2-1.6,4.4-3.4,6.6-5.1c0.4-0.4,0.9-0.7,1.3-1.1c0,0,0.1-0.1,0.1-0.1c1.3-1.1,2.6-2.2,3.8-3.3c2-1.8,4-3.7,6-5.6
			c2.7-2.6,5.4-5.4,8-8.2c0.5-0.5,0.9-1,1.4-1.5l0.1-0.1c1.3-1.5,2.5-2.9,3.8-4.4c2-2.4,3.9-4.8,5.8-7.3l0,0
			c1.6-2.1,3.1-4.2,4.6-6.4c1.4-2,2.7-4.1,4-6.1c1.8-2.8,3.5-5.7,5.1-8.5c1.2-2.1,2.3-4.3,3.4-6.5C494.8,198.2,477.9,109,416.5,54.1
			z"/>
		<path class="st2" d="M336.9,83.3c0,0.4,0,0.9-0.1,1.3c2.5,0.2,4.9,0.9,7,2.2c-0.1-1.6-0.2-3.2-0.2-4.7c0-0.9-0.1-1.7-0.1-2.6
			c-0.1-4.7-0.6-9.4-1.3-14c-0.6-3.4-1.4-6.7-2.4-10c-3-9.5-7.7-17.5-14.7-23.7c-5.1-4.4-11-7.8-17.4-9.9l0,0
			c-1.9-0.7-4-1.3-6.1-1.8l0,0l-0.2,0c-3.3-0.8-6.7-1.2-10.1-1.2l0,0c-1.9,0-3.9,0.2-5.8,0.5c-1.8,0.3-3.6,0.7-5.3,1.3l0,0
			c-1.8,0.6-3.5,1.3-5.2,2.2l0,0c-4.2,2.2-7.9,5.1-10.9,8.6c-1.7,1.9-3.1,4-4.4,6.2c-0.5,0.8-1,1.5-1.1,1.7c-4.6,0-8.7-0.2-12.7,0
			c-3.7,0.2-7.4,1.1-10.9,2.6c-3.7,1.6-7.1,3.9-10,6.7c-0.4,0.4-0.9,0.9-1.3,1.4c-1.8,2-3.3,4.1-4.5,6.4c-1.1,2.1-2,4.2-2.6,6.5h0.1
			l1.3-0.2c0.5,0,0.9-0.1,1.4-0.1s0.9-0.1,1.4-0.1s0.9-0.1,1.4-0.1s0.7,0,1,0c0.2-0.5,0.4-1.1,0.7-1.6c0.1-0.3,0.3-0.5,0.4-0.8
			s0.3-0.5,0.4-0.8s0.3-0.5,0.4-0.7s0.3-0.5,0.5-0.7s0.3-0.5,0.5-0.7s0.3-0.5,0.5-0.7l0,0c1.1-1.4,2.2-2.6,3.6-3.7
			c0.1-0.1,0.2-0.2,0.3-0.3l0.1-0.1c0.2-0.2,0.4-0.3,0.6-0.5l0.8-0.6l0,0c0.3-0.2,0.6-0.4,0.9-0.6l0.5-0.3l0.4-0.3
			c0.9-0.5,1.7-1,2.6-1.5l0.5-0.2l0.5-0.2l0.6-0.3l1-0.4c0.2-0.1,0.5-0.2,0.7-0.3l0.7-0.2c0.3-0.1,0.7-0.2,1-0.3s0.4-0.1,0.7-0.2
			l0,0l0.7-0.2h0.2l0.6-0.1c0.3-0.1,0.6-0.1,0.9-0.2l0.8-0.1c3.8-0.4,7.7-0.5,11.4,1.1l5.7,1c2.4-6.1,4.5-12,10-15.6
			c3.8-3.3,8.4-5.6,13.3-6.6c4.3-0.8,8.7-0.7,12.9,0.2c4.2,0.8,8.3,2.1,12.2,3.8l0,0c2.2,1,4.3,2.2,6.3,3.6l0,0l0.4,0.3
			c8.4,6,13.2,14.4,16.3,24c0.5,1.4,0.8,2.8,1.2,4.2l0,0c1.1,4.5,1.7,9.1,1.9,13.7c0.1,1.5,0.1,3.1,0.1,4.6
			C336.9,81.3,336.9,82.3,336.9,83.3z M277.4,94.5l-1.2,0.5l-0.4,0.2l-1.3,0.6l-1,0.4c-0.2,0.1-0.3,0.1-0.5,0.2
			c-0.4,0.2-0.8,0.4-1.2,0.6l-1.2,0.6c-0.5,0.3-1,0.5-1.5,0.8s-0.8,0.4-1.2,0.7s-0.7,0.4-1.1,0.6s-0.8,0.5-1.2,0.7l-0.6,0.4
			c5.1-3.1,10.6-5.7,16.2-7.6l0.1-0.1C280.1,93.5,278.8,93.9,277.4,94.5z"/>
		<path class="st2" d="M283,92.6l-0.6,0.2l-0.9,0.3l-0.1,0.1c1.1-0.4,1.9-0.6,2.2-0.7h-0.2L283,92.6z M223,62.9
			c-0.2,0.5-0.3,0.9-0.5,1.4C222.7,63.8,222.8,63.3,223,62.9z"/>
		<path class="st2" d="M392.2,271.6c-0.6-1.3-0.9-2.6-1-4c0.5-7.6-1.4-15.2-5.6-21.6l4.8-9.4c-0.6-0.4-1.3-0.8-2-1.1
			c-10.8-4.3-17.9-12.4-22.7-22.6c-3.8-8-5.6-16.6-6.6-25.3c-0.4-3.3-1.3-6.5-0.6-10.4l10.1,7.8c3.8-15.2,5.2-29.6-5.4-42.2
			c2.5-9.5,2.5-14.4-0.5-20.3c-1.1-2.2-1.6-4.7-1.3-7.2c0.1-1.1,0.1-2.2,0.1-3.3c0-1.8-0.2-3.5-0.6-5.2c0-0.1,0-0.2-0.1-0.3l0.2,0.2
			l0.1-0.1c-0.4-1.8-3-13.6-12.7-15.8c0,0,0,0,0,0l-0.1-0.1c-1.4-0.6-2.8-1.2-4.3-1.6c-0.3-0.1-0.4-0.4-0.1-0.1
			c0-0.7-0.1-1.5-0.1-2.2c-2.1-1.3-4.5-2-7-2.2c0,0.8-0.1,1.6-0.2,2.4c-0.2,3-1.7,5.8-2.7,8.8c-1.2,4.3-4,8-7.7,10.4
			c-3.1-2.5-6-5.3-9.3-7.5c-6.9-5-15.3-7.6-23.9-7.5h-0.5h-0.4h-0.6l-1.1,0.1l-0.7,0.1l-0.9,0.1l-0.5,0.1l-1.1,0.2
			c-0.4,0.1-0.8,0.1-1.2,0.2l-0.6,0.1c-0.5,0.1-1.1,0.2-1.6,0.4l0,0h-0.1h-0.1h-0.1c-0.4,0.1-1.1,0.3-2.2,0.7
			c-5.7,1.9-11.1,4.4-16.2,7.6l-0.1,0.1l-1,0.7l-0.8,0.6l-0.5,0.4c-0.6,0.4-1.2,0.8-1.8,1.3c-0.2,0.1-0.4,0.3-0.5,0.4l-0.7,0.6
			l-0.6,0.4l-0.9,0.7l-1,0.8l-0.1,0.1l0,0c-0.8,0.6-1.5,1.3-2.2,1.9l-0.7,0.6l0,0l0,0c-0.5,0.5-1.1,1-1.6,1.5
			c-6.1,5.8-12.3,11.8-16.7,19.1l0,0l0,0c-0.2,0.4-0.4,0.7-0.6,1.1c-0.9,1.6-1.8,3.1-2.6,4.6c-1.7,3.7-2.9,7.6-3.6,11.7v0.1
			c-0.1,0.5-0.2,1.1-0.3,1.6c-0.2,1-0.3,2-0.4,3c-0.3,2.2-0.5,4.4-0.5,6.7c-0.1,2.5,0.1,5.1,0.5,7.6c0.5,2.8-0.2,5.6-2,7.8
			c-7.2,9.3-13.1,19.5-17.7,30.3c-2.9,7.1-4.1,14.4-2.5,22.1c0.5,2,0.2,4-0.6,5.8c-4.2,9.1-6.2,18.4-2.2,28.2
			c0.3,0.7,0.4,1.5,0.3,2.3c-1.2,9.6,3.4,16.2,10.8,21.5c5.5,4,11.8,6.3,18.3,8.3c1.1,0.4,2.2,0.8,3.4,1.2l-0.3,0.4
			c2.2,0.8,4.9,1.7,8,2.6c2.2-1.8,4.6-1.7,7.3-0.4s4.2,2.4,5,3.7c2.6,0.6,5.3,1.2,8.2,1.8c0.2-1.5,0.4-3.1,0.5-4.7h28.1l-4.8,8.1
			c2,0.2,4,0.3,6,0.5c1.9-3.9,3.7-7.9,5.6-11.8c0.7-1.5,1.5-3.1,2.4-4.9c-4.3,0.3-8.3,0.8-12.4,0.9c-10.3,0.3-20.6,0.5-31,0.7
			c-0.8,0-1.5-0.2-2.2-0.6c-3.9-1.8-7.9-3.2-12.2-1.5c-0.1,0-0.3,0-0.5,0c-11-2.8-21.9-6-27.6-17.2c-1.2-2.4-1.5-5.2-2.6-9
			c9,4,16.7,8.1,26.7,7.6c-4.4-2.5-8.3-4.3-11.8-6.6c-3.9-2.6-7.5-5.5-11-8.6c-3.9-3.4-5.9-7.7-4.6-13.4l2.5,1.2l12.8-11.4
			c0.9,6,1.2,11.3,2.5,16.3c0.9,3.5,2.4,6.7,4.4,9.7c4.1,6,10.2,8,17.2,7.3c3.4-0.3,5.5,0.7,7.9,3.4c7,7.9,14.6,9.6,24.9,5.6
			c1.5-0.6,2.8-1.3,4.4-2.1c1.3,5.8,4,10.5,9.6,13l0.4-0.4c-0.4-3.3-2.6-6.3-1.5-10.5c8.2,7,16.6,8.8,25.6,2.1
			c1.7,6.3-1.5,10-12.6,14.4c2.2,2.1,4.2,4.4,6.3,6.4c0.6,0.6,1.2,1.2,1.8,1.7c1.1,1,2.3,1.9,3.5,2.8l0.5,0.4
			c0.4,0.2,0.7,0.5,1.1,0.7c0.2,0.1,0.4,0.2,0.6,0.3c0.5,0.3,1.1,0.6,1.7,0.9l0,0l0,0c-1.4-2.2-2.7-4.3-4.1-6.5s-2.5-4.2-4.1-6.8
			c9.9-2,14.4-7.6,12.9-17.5l14,8.1c-3.5,4.3-6.8,8.8-10.5,12.9c-1,1.2-3.3,1.2-5.3,1.9c0.5,0.9,1.1,1.9,1.8,3.2
			c-0.5,1.2-1.1,2.3-1.8,3.4c-0.1,0.1-0.2,0.2-0.3,0.3c-0.3,0.3-0.7,0.6-1.1,0.8l-0.4,0.2l0,0l-0.2,0c-0.3,0.1-0.5,0.1-0.8,0.1l0,0
			l0,0l0,0c0.1,0.2,0.3,0.5,0.4,0.8c0,0.1,0.1,0.2,0.1,0.3c0.1,0.4,0.1,0.8,0,1.2c3.1-0.3,6.2-0.6,9.3-1c3.4-5.1,7-10.1,10.7-15
			c2.2-3,5.3-5.3,8-7.9c2.1-2.1,4.2-2,6.8-0.7c6.4,3.3,7,4.4,4.4,11.4c-0.9,2.3-1.9,4.6-3,6.9c6.7-1.8,13.3-4,19.8-6.5l0,0
			c1-0.4,2-0.9,3-1.5C393.5,286.2,395.4,279.9,392.2,271.6z M364.7,164.3c0,2.4,0.2,4.9,0,7.4c-0.1,1.5-0.9,1.2-1.8,0.4l-1-0.9
			l-0.8-0.4l-1.4-0.7l-1.4-0.7l-1.4-0.7l-1.6-0.9c-10.3-5.6-20.8-5.8-31.5-1.2c-5.3,2.3-10.6,4.4-16.6,3.7
			c-6.6-0.7-11.8-5.7-12.8-12.2h4.6c0.3-0.1,0.5-0.1,0.8-0.1v-1.8c-4.5-0.7-8.4,0.3-11.2,4c-1.9,2.6-2.7,5.2-0.4,8.2
			c0.9-2.2,1.6-4.3,2.6-6.9c3.1,2.5,4.1,5.6,5,8.6c1.2,4.3,2.1,8.7,3.1,13.1c0.4,1,0.7,2,1,3v-0.1c2.5,4.4,5.1,8.7,7.6,13.1l0,0
			c2,0.2,3.6,1.8,3.8,3.8l1.8,1l3.8,2.8l0,0l2.8,1.9h-0.1l1.9,1l0,0h0.1h-0.1l1,1.1c4.5,1.4,8.6,4.4,14.2,3.7
			c-0.4-1.7-0.9-3.1-1.1-4.5c-1.4-7-3.3-14-4-21.1c-0.5-6.6,0.8-13.2,3.8-19.1c1.7-3.5,2-3.6,7.5-3.2c-2.3,8.7-4.3,17.4-4.4,26.5
			c-0.1,9.1,2.2,18.1,6.7,26.1c-4.3,1.5-7.7,1-11,0.6c-8.3-0.9-16.1-3.5-23.9-6.6c-9.5-3.8-13.9-11.8-16.6-20.9
			c-1.5-4.9-2-10.1-2.9-15l-2,6.3c-6.4-5.1-11.2-10.6-11.5-19c-0.3-9.1,3.4-15.1,10.9-16.8c4.9-1.2,10.1-0.3,14.3,2.5l7.7,2.4v5
			l6.4-7.3l1.2-0.9l0,0c4.6-6,11.1-8.4,18.2-8.8c9.8-0.6,18.6,1.7,24.4,10.6C363.1,155.1,364.6,159.6,364.7,164.3z M328.2,207.8
			c-4.8-0.1-7.9-3.4-11.1-6.3c-4.6-4-8.2-8.9-10.5-14.5l-0.9-2c-0.1-0.2-0.1-0.4-0.1-0.7c-2.9-3-3.3-7.1-5.3-11.6
			c1.8,0.6,2.6,0.9,3.4,1.2c3.5,1.6,7.5,2,11.3,1.2c6-1.2,7.9-0.5,8.7,3.3c3,1.7,1.4,5.1,2.6,7.5c0.6,1.3,0.1,3.1,0.1,4.8
			c0.4,0.6,0.7,1.3,1,1.9c1.2,4.8,2.4,9.7,3.6,14.5c0.1,0.8,0.1,1.7,0,2.5l-1.9-1L328.2,207.8L328.2,207.8L328.2,207.8z
			 M318.7,225.7c4.3,1.1,8.7,0.6,11.4,4.6l2.9,4.8c0.6,1.2,1.1,2.4,1.5,3.7c1,4.8-1.1,7.3-6.3,7.4l-6.7-0.8l-2.3-0.2
			c0.5-3.3,1.3-6.4,1.2-9.6S319.4,229.4,318.7,225.7L318.7,225.7z M315.4,230.5c1.2,4.1,0.4,8.1-0.8,11.9c-0.7,3-3.5,5.1-6.6,4.9
			c-3.6-0.1-7.1-0.4-10.1-2.8c-4.8-2-8.8-5.7-11.1-10.3c-4.4-4.7-6.5-10.7-7.3-16.8c-1.2-8.7,0.4-17.6,4.5-25.4
			c0.4-0.6,0.8-1.2,1.7-2.5c0.8,3.2,1.4,5.7,2.1,8.1c2.7,9.2,7.3,17.3,15.7,22.4c2.5,1.6,5.2,2.8,8.1,3.4c3.2,0.6,3.8,2.2,3.5,4.9
			L315.4,230.5z M295,132.8c-3.5,3.6-5.7,4.3-8.4,2.9c-2.9-1.5-3.5-3.6-2.5-8.8c-4.3,0.1-7,2.4-8.6,6c-2.4,5.3-0.6,9.7,3.6,13.6
			l-4.4,3.6c-6.4-5.2-8.4-17-1.1-25.6c6.3-7.2,17.1-8.6,25.1-3.2c8.1,5.7,10.4,16,5.3,25.1l-8.8-3.2
			C296,139.7,297.3,136.2,295,132.8z M357.6,138.3l-9.5-3c-0.1-1.2-0.2-2.6-0.3-4.2c-2.5,1-4.9,1.8-6.8-0.5s-1.2-4.6,1-7.5l-7.9,0.8
			c4.5-6.5,12.1-8.1,18.8-4C359.2,123.8,361.2,131.5,357.6,138.3L357.6,138.3z M364,244.5c0.7,4.4,1.6,8.7,2,13.1
			c0.2,2.2-0.7,4.4-1.1,6.6c-0.8,5-2.4,6.1-7,7.9c-4.8,2-10.3,1.8-14.9-0.7c-5.6-2.9-10.4-6.8-13-12.8l-2.3-2.5
			c-2.5,4.5-3.9,9.5-8.8,12c-5,3.9-12,3.9-17.1,0c-3.2-2.4-6.1-5.2-6.4-9.6l-1.2-2l-2.7,3c-5.4,6-17.7,7.9-24.4,3.5
			c-1.7-1.1-2.8-3.5-3.8-5.5c-0.6-1.3-0.4-3-0.6-4.8c-3.1,2.1-5.5,5.5-9.8,4.8c-4.6,0.9-7.9-1.6-10.4-4.8
			c-6.2-7.8-7.7-16.8-6.3-26.4c0.1-0.4,0.6-0.6,0.9-1l0.1-1.1c0.1-0.5,0.2-1,0.2-1.5c0.1-0.8,0.2-1.5,0.3-2.5
			c-4.6-0.2-8.4,1.7-12,3.8c-2.3,1.3-4.3,3.2-6.5,4.6c-0.6,0.4-1.5,0.1-2.2,0.1c-3.9-2.4-4.4-6.6-4.2-10.2
			c0.6-10.2,4.8-19.3,10.8-27.5c3-5.1,5.9-10.2,9.2-15.1c1.7-2.5,2.7-4.7,2-7.7c-0.6-2.6-0.9-5.3-0.9-8c0-2.4,0.2-4.9,0.5-7.3
			c0.1-0.8,0.2-1.7,0.4-2.5c0.1-0.4,0.1-0.9,0.2-1.4c1-6,3.3-11.8,6.8-16.8l0.2-0.2c7.8-10.9,17.5-20.3,28.7-27.6
			c14.7-9.6,39.8-8,53,8.9c0.7,0.9,1.4,1.7,2.4,2.9l3.8-2.3l12.1-18.2l3,1c6.2,2,10.6,8.3,9.8,18c-1-0.3-2-0.5-2.9-0.8
			c-13.1-4.1-25.6,5-25.7,18.8c0,0.9,0,1.9,0,2.8c-0.3,0.9-0.4,2.3-1,2.6c-4.7,2.4-8.8,5.2-11.9,9.6c-0.4,0.6-1.5,0.7-3,1.3
			c1-3.4,1.8-6.1,2.5-8.8c0.2-11.1-3.9-19.8-14.3-24.7c-10.1-4.8-22.2-1.9-29.1,6.9c-7,8.8-7.3,21.3-0.5,29.9c2.1,2.6,3.1,5,2.5,8.4
			c-1,5.9,1.1,11.4,3.6,16.6l6.8,6.4c-3.6,6.1-6,12.8-7,19.9c-2.1,15.4,0.3,29.6,12.2,40.8c3,2.8,6.9,4.8,10.3,7.1
			c5.9,1.6,12.2,1.2,17.9-1.2c1.1-0.3,2.3-0.3,3.5-0.1c4.5,0.6,8.9,1.8,13.4,0.1c4.1-1.6,6.4-4,6.2-8.4c-0.1-3.1-1.1-6.1-1.9-9.1
			c-0.4-1.1-0.8-2.2-1.4-3.2c2.3,0,4.3,0,6.3,0c1.2,0,2.5,0,3.8-0.1c6.3-0.6,8.3-4.3,5-9.7c-2.4-3.9-4.5-7.9-5.3-12.4
			c-2-10.3-1.2-20.6,0.6-30.8c0.4-2,0.9-3.9,1.4-6c3.6,0.8,4.7,2.9,4.8,6.3c0.6,13.2,2.6,26.1,7.5,38.5c4,9.9,9.7,18.6,19.6,23.6
			l1.6,0.5l-1.1,1.6l-0.2,0.1c-1.6,2.5-4.1,3.2-6.8,3.3S366.8,244.5,364,244.5z M373.5,275c-1.1,1.1-2.2,2.5-4.1,0.4
			c3.1-7.6,3.8-16,2-24l8.2-0.9c2.7,2.3,3.7,5.3,2.5,9.2C380.4,265.5,378,270.8,373.5,275z M383.5,284.3c-1.1,0.9-2.3,1.7-3.5,2.4
			c-1.3,0.8-2.8,1.3-4.5,2.1l-1.2-9.6l10.5-8.2C388.5,275.7,388.1,280.5,383.5,284.3L383.5,284.3z M309.2,297.2
			c0.6,2.9,1.1,5.9,1.5,8.8c2.9,0,5.8-0.1,8.8-0.3l-9.4-8.8L309.2,297.2z M301.7,305.9h1.8c0.1-2.5-0.1-4.9-0.5-7.4
			C302.7,301,302.3,303.5,301.7,305.9L301.7,305.9z"/>
		<path class="st4" d="M358.3,233.2l-0.7-0.4C357.8,232.9,358,233.1,358.3,233.2c0.8,4.3,3.4,7.7,5.7,11.3c0.7,4.4,1.6,8.7,2,13.1
			c0.2,2.2-0.7,4.4-1.1,6.6c-0.8,0-1.5,0.1-2.3,0.3c-10.1,3.4-19.6,2.1-28.5-3.9c-1.3-0.8-2.7-1.4-4.1-2l-2.3-2.5
			c-2.5,4.5-3.9,9.5-8.8,12c-8.4,0.2-15.8-2.2-21.5-8.6c-0.6-0.5-1.3-0.8-2-1l-1.2-2l-2.7,3c-5.4,6-17.7,7.9-24.4,3.5
			c-1.7-1.1-2.8-3.5-3.8-5.5c-0.6-1.3-0.4-3-0.6-4.8c-3.1,2.1-5.5,5.5-9.8,4.8c-0.6-1.1-1.3-2.1-2.1-3c-3.7-3.8-6.7-8.1-9.1-12.8
			c-2.8-5.2-3.3-10.9-4.7-16.4l0.1-1.1c0.1-0.5,0.2-1,0.2-1.5c0.1-0.8,0.2-1.5,0.3-2.5c-4.6-0.2-8.4,1.7-12,3.8
			c-2.3,1.3-4.3,3.2-6.5,4.6c-0.6,0.4-1.5,0.1-2.2,0.1c-0.1-9.2,1.7-18.2,3.9-27c0.9-3.6,1.8-7.1,2.8-10.7c3-5.1,5.9-10.2,9.2-15.1
			c1.7-2.5,2.7-4.7,2-7.7c-0.6-2.6-0.9-5.3-0.9-8c0-2.4,0.2-4.9,0.5-7.3c0.1-0.8,0.2-1.7,0.4-2.5c0.1-0.4,0.1-0.9,0.2-1.4
			c1-6.1,3.3-11.8,6.9-16.8l0.2-0.2c7.8-10.9,17.5-20.3,28.7-27.6c14.7-9.6,39.8-8,53,8.9c0.7,0.9,1.4,1.7,2.4,2.9l3.8-2.3
			c1.5-0.7,3.2-1.1,4.4-2.1c4.8-4.1,8-9.4,10.7-15.1c6.2,2,10.6,8.3,9.8,18c-1-0.3-2-0.5-2.9-0.8c-13.1-4.1-25.6,5-25.7,18.8
			c0,0.9,0,1.9,0,2.8c-5,0-9.1,2.6-13.3,4.8c0.2-11.1-3.9-19.8-14.3-24.7c-10.1-4.8-22.2-1.9-29.1,6.9c-7,8.8-7.3,21.3-0.5,29.9
			c2.1,2.6,3.1,5,2.5,8.4c-1,5.9,1.1,11.4,3.6,16.6c-0.1,1.6-0.6,3.4-0.1,5c0.8,2.7,0.6,5.6-0.6,8.2c-4.2,9.6-5.7,20.2-4.5,30.6
			c1.9,14.9,10.7,24.9,24.5,30.5c0.9,0.4,2-0.1,3.1-0.1c5.9,1.6,12.2,1.2,17.9-1.2c1.1-0.3,2.3-0.3,3.5-0.1
			c4.5,0.6,8.9,1.8,13.4,0.1c4.1-1.6,6.4-4,6.2-8.4c-0.1-3.1-1.1-6.1-1.9-9.1c-0.4-1.1-0.8-2.2-1.4-3.2c2.3,0,4.3,0,6.3,0
			c1.2,0,2.5,0,3.8-0.1c6.3-0.6,8.3-4.3,5-9.7c-2.4-3.9-4.5-7.9-5.3-12.4c-2-10.3-1.2-20.6,0.6-30.8c0.4-2,0.9-3.9,1.4-6
			c3.6,0.8,4.7,2.9,4.8,6.3c0.6,13.2,2.6,26.1,7.5,38.5c4,9.9,9.7,18.6,19.6,23.6l0.5,2.1l-0.2,0.1
			C371.2,241.3,364.5,237.9,358.3,233.2z"/>
		<path class="st5" d="M211.8,117.3c-0.4,0.6-0.7,1.3-1.1,1.9c-0.1-0.5-0.1-0.9-0.1-1.4L211.8,117.3z"/>
		<path class="st5" d="M333.9,95.8c-1.2,4.3-4,8-7.7,10.4c-0.2-4.9-1-9.7-2.5-14.4c-0.9-2.7-2-5.3-3.4-7.7l0,0
			c-0.7-1.3-1.5-2.6-2.4-3.8c-1.3-1.8-2.7-3.6-4.3-5.2c-6.4-6.5-14.6-11-23.5-12.9c-0.3,1.4-0.6,2.7-0.9,4.1s-0.6,2.9-1,4.4
			s-0.7,3.2-1.1,4.9c-1.8-0.8-3.2-1.5-4.6-2.1c-5.4-2.4-11.2-3.8-17.1-4.2c-2.7-0.1-5.5,0.1-8.1,0.6c-6.2-2-12.4-4-18.8-5.7
			c-2.9-0.7-5.9-1.3-8.9-1.5c0.1-0.2,0.2-0.4,0.3-0.5l0.1-0.3l0.2-0.4c0,0,0-0.1,0.1-0.1c0.3-0.5,0.6-1,0.9-1.5l0.1-0.2
			c0.1-0.2,0.2-0.4,0.4-0.5s0.2-0.2,0.2-0.3s0.3-0.4,0.5-0.6s0.2-0.3,0.4-0.5c0,0,0.1-0.1,0.1-0.1v-0.1l0.4-0.5
			c0-0.1,0.1-0.1,0.1-0.1c0.2-0.2,0.4-0.5,0.6-0.7c0.1-0.2,0.3-0.3,0.4-0.4l0.1-0.1l0.3-0.3l0.1-0.1l0.3-0.3l0.7-0.6
			c0.3-0.3,0.6-0.5,1-0.8l0.6-0.5l0,0c0.2-0.2,0.4-0.3,0.7-0.5l0.7-0.4l0.7-0.4h0.1l0.6-0.3l0.1,0l0.5-0.3l0.4-0.2l0.5-0.2l0.8-0.3
			l0.4-0.1l0.3-0.1l0.4-0.1c0.6-0.2,1.1-0.4,1.8-0.6l0.7-0.2l1-0.3l0.6-0.1l0.4-0.1c0.6-0.1,1.2-0.2,1.8-0.3c2.2-0.4,4.4-1,6.6-1.4
			l5.7,1c2.4-6.1,4.5-12,10-15.6c2.3,0.1,4.7,0,7,0.1c1.1,0,2.2,0.1,3.3,0.2c3.7,0.3,7.4,0.8,11.1,1.7c10.5,2.5,18.7,7.5,25,14.7
			c1.5,1.7,2.9,3.5,4.1,5.4c1.1,1.6,2.1,3.3,3,5.1c0.5,1,1,1.9,1.4,2.9l0,0c0.7,1.5,1.4,3.1,2,4.8c1,2.8,1.9,5.7,2.5,8.6
			c0.4,1.6,0.6,3.1,0.9,4.7l0,0c0.2,1,0.3,2.1,0.5,3.1c0,0.4,0.1,0.8,0.1,1.2C333.6,88.5,333.8,92.1,333.9,95.8z"/>
		<path class="st6" d="M235.8,129.9c-0.2,0.4-0.4,0.7-0.6,1.1c-0.9,1.6-1.8,3.1-2.6,4.6C233.4,133.6,234.5,131.7,235.8,129.9z"/>
		<path class="st6" d="M265.1,100.7l-0.1,0.1l-1,0.7l-0.8,0.6l-0.5,0.4c-0.6,0.4-1.2,0.8-1.8,1.3c-0.2,0.1-0.4,0.3-0.5,0.4l-0.7,0.6
			l-0.6,0.4l-0.9,0.7l-1,0.8l-0.1,0.1l0,0c-0.8,0.6-1.5,1.3-2.2,1.9l-0.7,0.6l0,0l0,0c-0.5,0.5-1.1,1-1.6,1.5
			C256.3,106.9,260.5,103.5,265.1,100.7z"/>
		<path class="st6" d="M320.2,84.1c-2.6-0.1-5.1-0.2-7.7-0.3c-5.5-0.4-10.9-1.3-16.4-2.1c-1.8-0.2-3.6-0.6-5.4-1.2
			c-8.2-2.6-16.5-5.2-24.7-7.8c-2.9-0.9-5.9-1.9-8.8-2.8c2.7-0.5,5.4-0.7,8.1-0.6c5.9,0.3,11.7,1.7,17.1,4.2
			c1.4,0.6,2.8,1.2,4.6,2.1c0.4-1.7,0.7-3.3,1.1-4.9s0.6-2.9,1-4.4s0.6-2.7,0.9-4.1c8.9,1.9,17.1,6.4,23.5,12.9
			c1.6,1.6,3,3.3,4.3,5.2C318.7,81.5,319.5,82.8,320.2,84.1z"/>
		<path class="st7" d="M326.7,303.9c0-0.1-0.1-0.2-0.1-0.3c-0.1-0.3-0.2-0.5-0.4-0.8c-0.6-0.3-1.2-0.5-1.7-0.9
			c-0.2-0.1-0.4-0.2-0.6-0.3c-0.4-0.2-0.7-0.4-1.1-0.7l-0.5-0.4c-1.2-0.8-2.4-1.8-3.5-2.8c-0.6-0.5-1.2-1.1-1.8-1.7
			c-2.1-2.1-4.1-4.3-6.3-6.4c11.1-4.4,14.3-8.1,12.6-14.4c-8.9,6.6-17.4,4.9-25.6-2.1c-1.1,4.2,1.1,7.2,1.5,10.5l0.2,1l-0.6-0.6
			c-5.6-2.5-8.4-7.2-9.6-13c-1.6,0.7-2.9,1.5-4.4,2.1c-10.3,4.1-18,2.4-24.9-5.6c-2.4-2.7-4.5-3.7-7.9-3.4c-7,0.7-13.2-1.4-17.2-7.3
			c-2-2.9-3.5-6.2-4.4-9.7c-1.2-5-1.6-10.3-2.5-16.3l-12.8,11.4l-2.5-1.2c-1.3,5.7,0.8,10,4.6,13.4c3.5,3.1,7.1,6,11,8.6
			c3.5,2.4,7.4,4.2,11.8,6.6c-10,0.6-17.7-3.5-26.7-7.6c1,3.7,1.3,6.6,2.6,9c5.7,11.2,16.6,14.4,27.6,17.2c0.1,0,0.3,0,0.5,0
			c4.3-1.6,8.3-0.3,12.2,1.5c0.7,0.4,1.5,0.6,2.2,0.6c10.3-0.2,20.6-0.4,31-0.7c4-0.1,8-0.6,12.4-0.9c-0.9,1.8-1.7,3.4-2.4,4.9
			c-1.9,3.9-3.7,7.9-5.6,11.8c2.6,0.2,5.2,0.3,7.9,0.4c0.5-2.4,0.9-4.9,1.2-7.3c0.5,2.4,0.7,4.9,0.5,7.4c2.4,0,4.8,0,7.2,0
			c-0.4-2.9-0.9-5.8-1.5-8.8l0.9-0.3l9.4,8.8c2.4-0.1,4.8-0.3,7.2-0.5C326.8,304.8,326.8,304.4,326.7,303.9z M308.9,296.2v-0.7
			c0.1,0.1,0.3,0.2,0.3,0.4S309,296.1,308.9,296.2L308.9,296.2z M326.3,302.8L326.3,302.8L326.3,302.8z"/>
		<path class="st8" d="M307.6,199.2L307.6,199.2L307.6,199.2z"/>
		<path class="st8" d="M316.9,206.8L316.9,206.8z"/>
		<path class="st8" d="M317.8,149.4L317.8,149.4L317.8,149.4z"/>
		<path class="st8" d="M321.6,209.7L321.6,209.7L321.6,209.7L321.6,209.7z"/>
		<path class="st8" d="M364.7,164.3c-1.9-2.8-3.6-5.8-5.7-8.4c-5.2-6.6-11.9-10.3-20.5-10.4c-5.3-0.1-10.6,0.8-15.6,2.7
			c-1.7,0.6-3.5,1-5.3,1.3l-1.2,0.9l-6.4,7.3v-5l-7.7-2.4c-3.7,0-7.5-0.4-11.1,0c-6.7,0.7-10.5,5-12.5,11.1c-0.4,1.1-1,2.2-1.5,3.2
			c0.3,8.4,5.1,13.9,11.5,19l2-6.3c0.9,4.9,1.4,10.1,2.9,15c2.7,9.1,7,17.1,16.6,20.9c7.7,3.1,15.6,5.6,23.9,6.6
			c3.3,0.4,6.8,0.9,11-0.6c-4.5-7.9-6.9-16.9-6.7-26.1c0.1-9.1,2.1-17.8,4.4-26.5c-5.5-0.4-5.8-0.4-7.5,3.2
			c-3,5.9-4.3,12.5-3.8,19.1c0.7,7.1,2.6,14.1,4,21.1c0.3,1.4,0.7,2.9,1.1,4.5c-5.6,0.7-9.7-2.3-14.2-3.7l-1-1.1l-1.9-1h0.1
			l-2.8-1.9l0,0l-3.6-2.7l-1.8-1c-0.2-2-1.8-3.6-3.8-3.8l0,0l0,0l0,0c-2.5-4.4-5.1-8.7-7.6-13.1v0.1c-0.3-1-0.7-2-1-3
			c-1-4.4-1.8-8.8-3.1-13.1c-0.9-3-1.9-6.1-5-8.6c-1,2.6-1.8,4.7-2.6,6.9c-2.4-3-1.6-5.6,0.4-8.2c2.9-3.7,6.8-4.7,11.2-4l1,0.7
			l-1,1.1c-0.3,0-0.6,0-0.8,0.1l-1.8,2.6c4.3,5.9,9.3,7.1,16.3,4.2c4.4-2,8.8-3.8,13.4-5.3c8.9-2.7,17.9-3,26.1,2.1
			c3.7,2.3,8.1,4.3,8.9,9.5l1,0.9c0.8,0.9,1.7,1.1,1.8-0.4C364.9,169.2,364.8,166.7,364.7,164.3z M308,201.1
			c-0.1-0.2-0.2-0.4-0.3-0.7C307.8,200.7,307.9,200.9,308,201.1z"/>
		<path class="st9" d="M361.5,280.4c-2.6-1.3-4.7-1.4-6.8,0.7c-2.7,2.6-5.8,4.9-8,7.9c-3.6,4.9-7.3,9.9-10.7,15
			c3.9-0.5,7.9-1.2,12-2c3.3-6,7.1-11.6,11.5-16.9c0.3,3.5-1.6,9.2-4.7,15.4c2.7-0.6,5.4-1.3,8.1-2c1.1-2.2,2.1-4.5,3-6.9
			C368.5,284.8,367.9,283.7,361.5,280.4z"/>
		<path class="st10" d="M333.9,95.8c-0.3-9.7-1.4-19.3-4.7-28.5c-6.2-17-17.5-28.6-35.4-32.9c-3.6-0.8-7.3-1.4-11.1-1.7
			c-3.4-0.3-6.9-0.2-10.3-0.3c7.2-6.3,17-8.7,26.2-6.4c6.8,1.3,13.2,4,18.9,7.8c8.4,6,13.2,14.4,16.3,24s3.6,19.3,2.8,29.2
			C336.3,90,334.9,92.9,333.9,95.8z"/>
		<path class="st9" d="M304,146.4l-8.8-3.2c0.8-3.6,2.1-7-0.1-10.4c-3.5,3.6-5.7,4.3-8.4,2.9c-2.9-1.5-3.5-3.6-2.5-8.8
			c-4.3,0.1-7,2.4-8.6,6c-2.4,5.3-0.6,9.7,3.6,13.6l-4.4,3.6c-6.4-5.2-8.4-17-1.1-25.6c6.3-7.2,17.1-8.6,25.1-3.2
			C306.8,127.1,309.1,137.4,304,146.4z"/>
		<path class="st11" d="M292.6,297l-4.8,8.1c-8-0.7-15.9-1.9-23.8-3.4c0.2-1.5,0.4-3.1,0.5-4.7L292.6,297z"/>
		<path class="st5" d="M297.9,244.6c-4.8-2-8.8-5.7-11.1-10.3c-2.3-7.4-2-15-1.8-22.6c0.1-1.2,0.4-2.4,0.8-3.5
			c6.3,12.5,16.5,18.3,29.4,20.3c0.1,0.7,0.2,1.4,0.3,2.1c-0.6,2.1-1.2,4.2-2,6.2c-2.7,6.3-5.9,8.2-12.7,7.9
			C299.7,244.5,298.8,244.6,297.9,244.6z"/>
		<path class="st12" d="M315.1,228.4c-12.9-2-23-7.8-29.4-20.3c-0.4,1.1-0.6,2.3-0.8,3.5c-0.2,7.6-0.5,15.2,1.8,22.6
			c-4.4-4.7-6.5-10.7-7.3-16.8c-1.2-8.7,0.4-17.6,4.5-25.4c0.4-0.6,0.8-1.2,1.7-2.5c0.8,3.2,1.4,5.7,2.1,8.2
			c2.7,9.2,7.3,17.2,15.7,22.4c2.5,1.6,5.2,2.8,8.1,3.4C314.8,224.1,315.3,225.8,315.1,228.4z"/>
		<path class="st13" d="M323.6,178.5c3,1.7,1.4,5.1,2.6,7.5c0.6,1.3,0.1,3.1,0.1,4.8c-0.3,1.4-1,2.9-0.8,4.2
			c0.7,4.3,1.8,8.6,2.7,12.9c-4.8-0.1-7.9-3.4-11.1-6.3c-4.6-4-8.2-8.9-10.6-14.5l-0.8-2c-0.1-0.2-0.1-0.4-0.2-0.7l0.4-4l4.7,0.7
			C315.2,181.8,319.7,181.6,323.6,178.5z"/>
		<path class="st14" d="M297.5,251.4c-1,0-2.2,0.5-3.1,0.1c-13.7-5.7-22.6-15.6-24.5-30.5c-1.3-10.4,0.2-21,4.4-30.7
			c1.2-2.6,1.4-5.5,0.6-8.2c-0.4-1.5,0.1-3.3,0.1-5l6.8,6.4c-3.6,6.1-6,12.8-7,19.9c-2.1,15.4,0.3,29.6,12.2,40.8
			C290.3,247.1,294.1,249.1,297.5,251.4z"/>
		<path class="st15" d="M362,171.1l-0.8-0.4l-1.4-0.7l-1.4-0.7l-1.4-0.7l-1.6-0.9c-10.3-5.6-20.8-5.8-31.5-1.2
			c-5.3,2.3-10.6,4.4-16.6,3.7c-6.6-0.7-11.8-5.7-12.8-12.2h4.6l-1.8,2.6c4.3,5.9,9.3,7.1,16.3,4.2c4.4-2,8.9-3.8,13.4-5.3
			c8.9-2.7,17.9-3,26.1,2.1C356.9,163.9,361.3,165.9,362,171.1z"/>
		<path class="st16" d="M326.3,302.8c-1.4-2.2-2.8-4.4-4.1-6.5s-2.5-4.2-4.1-6.8c9.9-2,14.4-7.6,12.9-17.5l14,8.1
			c-3.5,4.3-6.8,8.8-10.5,12.9c-1,1.2-3.3,1.2-5.3,1.9l1.8,3.2C329.8,299.9,329.4,302.6,326.3,302.8L326.3,302.8z"/>
		<path class="st17" d="M357.6,138.3l-9.5-3c-0.1-1.2-0.2-2.6-0.3-4.2c-2.5,1-4.9,1.8-6.8-0.5s-1.2-4.6,1-7.5l-7.9,0.8
			c4.5-6.5,12.1-8.1,18.8-4C359.2,123.8,361.2,131.5,357.6,138.3z"/>
		<path class="st18" d="M256.6,47c-2.2,0.5-4.4,1.1-6.6,1.4c-0.6,0.1-1.2,0.2-1.8,0.3l-0.4,0.1l-0.6,0.1l-1,0.3l-0.7,0.2
			c-0.6,0.2-1.2,0.4-1.8,0.6l-0.4,0.1l-0.3,0.1l-0.4,0.1l-0.8,0.3l-0.5,0.2l-0.4,0.2c-0.2,0.1-0.4,0.2-0.5,0.3l-0.1,0l-0.6,0.3h-0.1
			l-0.7,0.4l-0.7,0.4c-0.2,0.2-0.5,0.3-0.7,0.5l0,0l-0.6,0.5c-0.3,0.2-0.7,0.5-1,0.8l-0.7,0.6l-0.3,0.3l-0.1,0.1l-0.3,0.3l-0.1,0.1
			c-0.1,0.1-0.3,0.3-0.4,0.4c-0.2,0.2-0.4,0.4-0.6,0.7c-0.1,0-0.1,0.1-0.1,0.1l-0.4,0.5v0.1c0,0-0.1,0.1-0.1,0.1
			c-0.1,0.2-0.3,0.3-0.4,0.5s-0.3,0.4-0.5,0.6l-0.2,0.3c-0.1,0.2-0.3,0.3-0.4,0.5l-0.1,0.2c-0.3,0.5-0.6,1-0.9,1.5
			c0,0,0,0.1-0.1,0.1l-0.2,0.4l-0.1,0.3c-0.1,0.2-0.2,0.4-0.3,0.5s-0.3,0.5-0.4,0.8s-0.3,0.6-0.4,0.9s-0.2,0.5-0.3,0.8
			c-0.4,0.9-0.7,1.7-1,2.6c-0.1,0.3-0.2,0.5-0.3,0.8c-0.2,0.7-0.4,1.4-0.6,2.2c-1,3.9-1.4,7.9-2,11.9c-2-3.9-3-8.2-3-12.6
			c0-0.1,0-0.2,0-0.3c0-0.1,0-0.3,0-0.4v-0.5v-0.3c0.1-0.9,0.2-1.8,0.4-2.7l0.1-0.3l0.1-0.4c0.1-0.3,0.2-0.6,0.3-0.9
			c0.1-0.5,0.3-0.9,0.5-1.4c0.1-0.2,0.1-0.3,0.2-0.5c0.2-0.5,0.4-1.1,0.7-1.6c0.1-0.3,0.3-0.5,0.4-0.8s0.3-0.5,0.4-0.8
			s0.3-0.5,0.4-0.7s0.3-0.5,0.5-0.7s0.3-0.5,0.5-0.7s0.3-0.5,0.5-0.7l0,0c1.1-1.4,2.2-2.6,3.6-3.7c0.1-0.1,0.2-0.2,0.3-0.3l0.1-0.1
			c0.2-0.2,0.4-0.3,0.6-0.5l0.8-0.6l0,0c0.3-0.2,0.6-0.4,0.9-0.6l0.5-0.3l0.4-0.3c0.9-0.5,1.7-1,2.6-1.5l0.5-0.2l0.5-0.2l0.6-0.3
			l1-0.4c0.2-0.1,0.5-0.2,0.7-0.3l0.7-0.2c0.3-0.1,0.7-0.2,1-0.3s0.4-0.1,0.7-0.2l0,0l0.7-0.2h0.2l0.6-0.1c0.3-0.1,0.6-0.1,0.9-0.2
			l0.8-0.1C249.1,45.5,253,45.4,256.6,47z"/>
		<path class="st19" d="M364.7,164.3c-1.9-2.8-3.6-5.8-5.7-8.4c-5.2-6.6-11.9-10.3-20.5-10.4c-5.3-0.1-10.6,0.8-15.6,2.7
			c-1.7,0.6-3.5,1-5.3,1.3c4.6-6,11.1-8.4,18.2-8.8c9.8-0.6,18.6,1.7,24.4,10.6C363,155.1,364.6,159.6,364.7,164.3z"/>
		<path class="st7" d="M371.5,251.4l8.2-0.9c2.7,2.3,3.7,5.3,2.4,9.2c-1.8,5.8-4.2,11.1-8.6,15.3c-1.1,1.1-2.2,2.5-4.1,0.4
			C372.5,267.8,373.3,259.5,371.5,251.4z"/>
		<path class="st20" d="M330,258.6c1.4,0.6,2.8,1.2,4.1,2c8.9,6,18.3,7.3,28.5,3.9c0.8-0.2,1.5-0.3,2.3-0.3c-0.8,5-2.4,6.1-7,7.9
			c-4.8,2-10.3,1.8-14.9-0.7C337.4,268.6,332.6,264.6,330,258.6z"/>
		<path class="st14" d="M237.2,225.2c1.4,5.5,1.9,11.2,4.7,16.4c2.4,4.7,5.4,9,9.1,12.8c0.8,0.9,1.5,1.9,2.1,3
			c-4.6,0.9-7.9-1.6-10.4-4.8c-6.2-7.8-7.7-16.8-6.3-26.4C236.3,225.8,236.9,225.5,237.2,225.2z"/>
		<path class="st16" d="M375.5,288.9l-1.2-9.6l10.5-8.2c3.6,4.7,3.2,9.5-1.4,13.3c-1.1,0.9-2.2,1.7-3.5,2.4
			C378.7,287.5,377.3,288,375.5,288.9z"/>
		<path class="st20" d="M223.7,190.8c-0.9,3.6-1.9,7.1-2.8,10.7c-2.2,8.9-4,17.8-3.9,27c-3.9-2.4-4.4-6.6-4.2-10.2
			C213.5,208.1,217.8,199.1,223.7,190.8z"/>
		<path class="st13" d="M328.2,246.3l-6.7-0.8c0.9-4.9,1.8-9.9,2.7-15.2h5.8l2.9,4.8C333.3,239.4,331.5,243.5,328.2,246.3z"/>
		<path class="st12" d="M323.6,178.5c-3.9,3.1-8.4,3.3-13,2.6l-4.7-0.7l-0.4,4c-2.9-3-3.3-7.1-5.3-11.6c1.8,0.6,2.6,0.9,3.4,1.2
			c3.5,1.6,7.5,2,11.3,1.2C320.9,174,322.8,174.7,323.6,178.5z"/>
		<path class="st14" d="M358.3,233.2c6.2,4.7,12.9,8.1,21,8c-1.6,2.5-4.1,3.2-6.8,3.3s-5.6,0-8.5,0
			C361.7,241,359.1,237.5,358.3,233.2L358.3,233.2z"/>
		<path class="st20" d="M295.5,258.5c0.7,0.2,1.4,0.6,2,1c5.7,6.5,13.1,8.9,21.5,8.6c-5,3.9-12,3.9-17.1,0
			C298.7,265.7,295.7,262.9,295.5,258.5z"/>
		<path class="st12" d="M330.1,230.3h-5.8c-1,5.3-1.9,10.2-2.7,15.2l-2.3-0.2c0.5-3.3,1.3-6.4,1.2-9.6s-1.1-6.3-1.8-10
			C323,226.8,327.4,226.2,330.1,230.3z"/>
		<path class="st21" d="M297.9,244.6c0.9,0,1.9,0,2.8,0c6.9,0.3,10-1.6,12.7-7.9c0.8-2,1.4-4.1,2-6.2c1.3,4.1,0.4,8.1-0.8,11.9
			c-0.7,3-3.5,5.1-6.6,4.9C304.4,247.3,300.8,246.9,297.9,244.6z"/>
		<path class="st22" d="M302.4,150.3c-3.7,0-7.5-0.4-11.1,0c-6.7,0.7-10.5,5-12.5,11.1c-0.4,1.1-1,2.2-1.5,3.2
			c-0.3-9.1,3.4-15.1,10.9-16.8C293,146.6,298.2,147.5,302.4,150.3z"/>
		<path class="st20" d="M312.9,140.1c4.2-2.2,8.3-4.8,13.3-4.7c-0.3,0.9-0.4,2.3-1,2.6c-4.7,2.4-8.8,5.2-11.9,9.6
			c-0.4,0.6-1.5,0.7-3,1.3C311.4,145.5,312.1,142.8,312.9,140.1z"/>
		<path class="st20" d="M345.1,96.6c-2.7,5.7-5.9,11-10.7,15.1c-1.2,1-2.9,1.4-4.4,2.1l12.1-18.2L345.1,96.6z"/>
		<path class="st21" d="M328.2,207.8c-0.9-4.3-2-8.6-2.7-12.9c-0.2-1.3,0.5-2.8,0.8-4.2c0.4,0.6,0.7,1.3,1,1.9
			c1.2,4.8,2.4,9.6,3.6,14.5c0.1,0.8,0.1,1.7,0,2.5l-1.9-1L328.2,207.8L328.2,207.8z"/>
		<path class="st21" d="M328.2,246.3c3.3-2.8,5-6.9,4.8-11.2c0.6,1.2,1.1,2.4,1.5,3.7C335.5,243.7,333.4,246.1,328.2,246.3z"/>
		<path class="st23" d="M307.6,199.2L307.6,199.2L307.6,199.2L307.6,199.2z"/>
		<path class="st23" d="M307.6,199.2L307.6,199.2L307.6,199.2L307.6,199.2z"/>
		<path class="st23" d="M316.9,206.8L316.9,206.8z"/>
		<path class="st23" d="M316.9,206.8L316.9,206.8z"/>
		<path class="st14" d="M379.5,241l-0.5-2.1l1.6,0.5L379.5,241z"/>
		<path class="st12" d="M305.7,185.1l0.8,2L305.7,185.1z"/>
		<path class="st15" d="M299.9,156.1l1,0.7l-1,1.1V156.1z"/>
		<path class="st13" d="M328.1,207.8l0.8,0.9L328.1,207.8z"/>
		<path class="st14" d="M237.5,222.6l-0.2,1.5L237.5,222.6z"/>
		<path class="st19" d="M317.8,149.4l-1.2,0.9L317.8,149.4z"/>
		<path class="st15" d="M362,171.1l1,0.9L362,171.1z"/>
		<path class="st14" d="M358.3,233.2l-0.7-0.4L358.3,233.2L358.3,233.2z"/>
		<path class="st24" d="M299.3,283.7l0.2,1l-0.6-0.6L299.3,283.7z"/>
		<path class="st24" d="M308.9,295.5c0.1,0.1,0.3,0.2,0.3,0.4s-0.2,0.2-0.3,0.3V295.5z"/>
		<path class="st2" d="M400.4,22.1c-0.5-5.2-1.4-10.4-3.8-15.1c-0.8-1.5-1.7-2.9-2.9-4.2c-3.6-3.8-8.5-3.8-11.9,0.2
			c-2.3,2.7-4.2,5.7-5.5,9c-4.9,12.1-9.3,24.4-14,36.5c-2.8,7.2-5.9,14.4-8.7,21.6c-1,2.5-3.4,1.7-5.2,2.9l-1-2.2
			c-2.4-5.2-4.9-10.2-7.5-15.2c-4.4-8.3-9.3-16.2-14.7-23.9c-4.2-6-8.9-11.7-13.8-17.1c-3.3-3.5-7-6.6-10.9-9.3
			c-2.1-1.3-4.4-2.2-6.8-2.7c-3.1-0.8-5.8,0.3-8.1,2.6c-1.1,1.1-2.3,2.1-3.4,3.2c-5,5.3-11.1,6.4-17.9,4.6
			c-3.7-0.9-7.4-1.8-11.1-2.8c-5.8-1.6-10.8-0.2-14.8,4.3c-4.4,4.9-6.7,10.9-8.6,17.1c-1.8,5.6-3.2,11.3-4.8,17
			c-0.1,0.4-0.2,0.9-0.4,1.3l-0.9,0.1c-3.7,0.3-7.6,0.4-11.3,1c-16.9,2.6-30.7,10.4-40.3,24.7c-12.9,19.3-10.3,42.9,6.3,59.7
			c9.5,9.6,21.2,15.7,34,19.5c5,1.5,10.2,2.6,15.3,3.7c0.1-2.2,0.2-4.5,0.5-6.7c-0.5-0.1-1-0.1-1.5-0.2c-1.2-0.2-2.4-0.4-3.5-0.6
			l-0.6-0.1l-0.7-0.1l-2.1-0.4l-1.2-0.3l-0.9-0.2l-1-0.3c-0.8-0.2-1.6-0.4-2.4-0.7l-0.8-0.2l-0.6-0.2l-0.6-0.2l-0.8-0.3
			c-14.3-4.9-26.4-12.7-34.8-25.6c-9.6-14.8-8.5-33.6,2.9-46.8c7.3-8.5,16.8-13.4,27.3-16.7l1.1-0.3l0.8-0.2h0.2l0.9-0.2l0.9-0.2
			l0.8-0.2l0.8-0.2l0.8-0.2c0.5-0.1,1-0.2,1.6-0.3l0.4-0.1l0.6-0.1h0.2l0.9-0.1l0.8-0.1l0.6-0.1h0.3l0.7-0.1c0.6,0,1.1-0.1,1.7-0.1
			c0.3,0,0.6,0,0.9,0h2.1h0.8h0.2h0.8h0.1l1,0.1c0.5,0,1,0.1,1.4,0.2l0.5,0.1l1.3,0.2l0.6,0.1l0.6,0.1l0.7,0.2l1.3,0.3
			c6.2,1.6,12.3,3.6,18.1,6.2c4.7,2,9.5,3.8,14.3,5.5c16.9,6,34.5,9.7,52.3,11l1,0.1c4.6,0.3,9.1,0.4,13.7,0.2h0.1
			c0.5,0,1.1,0,1.7-0.1c0.3,0,0.5,0,0.8-0.1h0.8l1-0.1l0.8-0.1l1.2-0.1L340,80l1.1-0.2l1.1-0.2l1.1-0.2l0,0l1.1-0.2
			c0.4-0.1,0.8-0.1,1.1-0.2l1.1-0.2c13.9-3.2,24.5-10.8,31.6-23.2c4.5-7.9,8.1-16.1,9.8-25.1c1.1-5.4,1.2-11,0.2-16.4
			c-2,19.8-8.1,37.6-23.8,51.6c0.1-0.6,0.2-1.3,0.3-1.9c5-14.4,9.9-28.8,15.1-43.1c1.6-4,3.6-7.9,5.9-11.6c1.2-2.1,3.1-1.8,4,0.5
			c0.8,2.5,1.4,5,1.9,7.5c0.1,0.2,0.3,0.5,0.3,0.7c1.7,11.2,1.4,22.7-0.8,33.8c-1.9,10-5.2,19.6-9.9,28.6
			c-5.2,10.2-11.6,19.3-20.5,26.4l-0.1,0.1l-0.1,0.1c0.3,1.7,0.5,3.5,0.6,5.2c6.6-3.4,12.4-8.1,17.1-13.8
			c9-10.8,14.5-23.3,18.1-36.7C400.1,48.5,401.7,35.4,400.4,22.1z M264.5,63.7c-5.9-2.5-11.7-5-17.6-7.1l-0.9-0.3
			c-0.2-0.1-0.3-0.1-0.5-0.2c-0.7-0.2-1.4-0.4-2.1-0.7h-0.1l-1.1-0.4c-1.6-0.5-3.3-0.9-4.9-1.3l-2.2-0.5l-1-0.3l-1.2-0.3
			c0-0.1,0-0.2,0-0.2s0-0.3,0-0.5c0-0.4,0-0.7,0.1-1.1l0,0c0-0.1,0-0.1,0-0.2s0-0.1,0-0.2c0.5-2.1,1-4.2,1.5-6.2
			c0.2-0.7,0.3-1.4,0.5-2.1c0.2-1,0.4-1.9,0.7-2.8l0.4-1.4c0.2-1,0.5-1.9,0.8-2.8c0.1-0.4,0.2-0.8,0.4-1.2l0,0
			c0.1-0.4,0.2-0.7,0.3-1.1c0.2-0.6,0.4-1.2,0.6-1.8c1.5-4,3.4-7.7,5.9-11.2c1.6-2.7,4.9-3.8,7.8-2.8c4.1,1.2,8.1,2.5,12.2,3.4
			c5.6,1.4,11.6,0.5,16.5-2.5c2.7-1.7,5.2-3.6,7.6-5.6c3-2.4,6-2.6,9.2-0.6c1.9,1.1,3.7,2.4,5.2,4c1.8,2.1,3.6,4.2,5.4,6.4l0.6,0.7
			c0.6,0.7,1.2,1.4,1.8,2.2l1.2,1.5l1.1,1.4l1.2,1.5l1.2,1.5c0.4,0.5,0.8,1,1.1,1.5c0.4,0.5,0.8,1,1.1,1.5l0.4,0.6l1,1.4
			c0.7,1,1.5,2.1,2.2,3.2l0.8,1.1l1,1.4l1,1.5l1.9,2.9l1.6,2.7c1.9,3,3.8,6,5.7,8.9l0,0l0,0c0,0,0.1,0,0.1,0.1c0,0,0,0.1,0,0.1
			l-0.1-0.2l0,0l0,0l-0.6-0.1c-0.1,0-0.3,0-0.4-0.1c-0.2,0-0.4-0.1-0.6-0.2l-1.5-0.5c-0.5-0.2-0.9-0.3-1.4-0.5L328,56
			c-0.4-0.1-0.8-0.3-1.2-0.4l-0.6-0.2c-0.8-0.2-1.6-0.5-2.4-0.7l-1-0.3l-1-0.2l-1.1-0.2l-0.7-0.1c-0.8-0.2-1.5-0.3-2.3-0.4
			s-1.4-0.2-2.1-0.3s-1.4-0.2-2.1-0.3l-0.8-0.1c-1.1-0.1-2.3-0.2-3.4-0.3h-0.8h-0.5h-0.7h-1.2c-13.7-0.1-26.4,3.1-37.8,11
			C267.2,64.3,265.7,64.4,264.5,63.7z M336.9,75.7l-5.2,0.2l0,0c-3.9-0.1-7.9,0-11.8-0.3c-1.7-0.1-3.4-0.2-5.1-0.4l-1.2-0.1
			l-1.5-0.1c-1-0.1-1.9-0.2-2.9-0.3c-0.3,0-0.6-0.1-1-0.1l-1-0.1c-0.9-0.1-1.8-0.2-2.7-0.4l-2.2-0.3c-1.6-0.2-3.1-0.5-4.6-0.8
			l-1.7-0.4l-1.8-0.4c-0.6-0.1-1.2-0.3-1.7-0.4h-0.1l-1.8-0.4l-2.3-0.6L273.2,67c0.4-0.7,1.1-1.3,1.8-1.6c12.5-6.7,26-8.7,39.9-7.6
			l0.9,0.1l0.5,0.1l0.8,0.1l1.9,0.3l0,0l0.9,0.1c1.5,0.2,3,0.5,4.5,0.8l1.4,0.3l1.4,0.3l1.9,0.4l2.2,0.5h0.2l0.4,0.1
			c0.3,0.1,0.6,0.1,0.9,0.2l0.4,0.1l0.4,0.1l0.2,0.1c0.1,0,0.3,0.1,0.4,0.2l0.2,0.1l0,0l0.2,0.1c0.1,0.1,0.2,0.1,0.3,0.2L335,62
			c0.1,0.1,0.1,0.1,0.2,0.2c3.1,4,5.5,8.5,7.2,13.3C340.4,75.6,338.6,75.7,336.9,75.7L336.9,75.7z"/>
		<path class="st6" d="M361.1,106.6l-0.1,0.1c0-0.1,0-0.2-0.1-0.3L361.1,106.6z"/>
		<path class="st25" d="M323.6,91.9c-0.9-2.7-2-5.3-3.4-7.7l0,0c-2.6-0.1-5.1-0.2-7.7-0.3c-5.5-0.4-10.9-1.3-16.4-2.1
			c-1.8-0.2-3.6-0.6-5.4-1.2c-8.2-2.6-16.5-5.2-24.7-7.8c-2.9-0.9-5.9-1.9-8.8-2.8c-6.2-2-12.4-4-18.8-5.7c-5-1.3-10.2-1.9-15.4-1.8
			c-0.4,0-0.7,0-1,0s-0.9,0-1.4,0.1s-0.9,0.1-1.4,0.1s-0.9,0.1-1.4,0.1l-1.3,0.2h-0.1l-0.9,0.1l-0.8,0.1l-1.7,0.3l-0.9,0.2l-0.7,0.2
			l-0.7,0.2l-1.1,0.3c-0.4,0.1-0.9,0.2-1.3,0.4h-0.1l-0.8,0.2c-0.2,0.1-0.5,0.1-0.7,0.2l-0.7,0.2l-0.9,0.3c-0.9,0.3-1.7,0.6-2.5,0.9
			l-0.7,0.3c-1,0.4-2.1,0.9-3.1,1.4l-0.8,0.4l-0.8,0.4c-0.8,0.4-1.5,0.8-2.2,1.2l-0.5,0.3l-1,0.6c-0.2,0.1-0.4,0.2-0.6,0.4l-0.7,0.5
			c-0.2,0.2-0.5,0.3-0.7,0.5c-5,3.4-9.3,7.6-11.9,13.2c-3.3,7.4-4.5,15.6-3.4,23.7c0.3,3.1,1.3,6.1,2.8,8.8
			c0.6-6.2,1.1-12.7,1.8-19.1c0.6-4.8,3-9.2,6.7-12.3c0.8-0.6,1.6-1.1,2.4-1.6c0.9-0.5,1.8-1,2.6-1.5c-4.3,6.2-6.8,13.4-7.2,20.9
			c-0.1,3.2,0,6.3,0.3,9.5c0.9,12,6.9,20.5,17.3,26.3l0.8,0.4l0.7,0.3c0.6,0.3,1.3,0.6,1.9,0.9l0.9,0.4l0.8,0.3
			c0.7,0.3,1.4,0.6,2.1,0.9l0.6,0.3c0.8,0.3,1.6,0.6,2.4,0.9l0.8,0.3l0.8,0.3l0.7,0.2l0.2,0.1c0.5,0.2,0.9,0.3,1.4,0.5l0.2,0.1
			l1.5,0.4l1.6,0.5l1.6,0.4c1.1,0.3,2.2,0.6,3.3,0.8l1.6,0.4c0.5,0.1,1.1,0.2,1.6,0.4c0.1-0.5,0.2-1.1,0.3-1.6v-0.1
			c0.7-4,1.9-7.9,3.6-11.7c0.9-2,2-3.9,3.3-5.7l0,0c4.5-7.3,10.6-13.2,16.7-19.1c3.7-3.9,8-7.3,12.6-10.1l0.6-0.4
			c0.4-0.2,0.8-0.5,1.2-0.7s0.7-0.4,1.1-0.6s0.8-0.5,1.2-0.7s1-0.6,1.5-0.8l1.2-0.6c0.4-0.2,0.8-0.4,1.2-0.6
			c0.1-0.1,0.3-0.1,0.5-0.2l1-0.4l1.3-0.6l0.4-0.2l1.2-0.5c1.4-0.5,2.7-1,4.1-1.4l0.9-0.3l0.6-0.2l0.4-0.1c0.1,0,0.1,0,0.2,0h0.1
			h0.1h0.1l0,0c0.5-0.1,1.1-0.3,1.6-0.4L286,92c0.4-0.1,0.8-0.2,1.2-0.2l1.1-0.2l0.5-0.1l0.9-0.1l0.7-0.1l1.1-0.1h0.6h0.4h0.5
			c8.6-0.1,17,2.5,23.9,7.5c3.3,2.2,6.2,5,9.3,7.5C326.1,101.4,325.2,96.5,323.6,91.9z M210.6,119.2c-0.1-0.5-0.1-0.9-0.1-1.4
			l1.2-0.5C211.4,118,211,118.6,210.6,119.2L210.6,119.2z"/>
		<path class="st6" d="M211.8,117.3c-0.4,0.6-0.7,1.3-1.1,1.9c-0.1-0.5-0.1-0.9-0.1-1.4L211.8,117.3z"/>
		<path class="st6" d="M235.8,129.9c-0.2,0.4-0.4,0.7-0.6,1.1c-0.9,1.6-1.8,3.1-2.6,4.6C233.4,133.6,234.5,131.7,235.8,129.9z"/>
		<path class="st6" d="M265.1,100.7l-0.1,0.1l-1,0.7l-0.8,0.6l-0.5,0.4c-0.6,0.4-1.2,0.8-1.8,1.3c-0.2,0.1-0.4,0.3-0.5,0.4l-0.7,0.6
			l-0.6,0.4l-0.9,0.7l-1,0.8l-0.1,0.1l0,0c-1,0.8-2,1.7-2.9,2.6l0,0l0,0c-0.5,0.5-1.1,1-1.6,1.5
			C256.3,106.9,260.5,103.5,265.1,100.7z"/>
		<path class="st6" d="M281.5,93.1l-0.1,0.1c-5.7,1.9-11.1,4.4-16.2,7.6l0.6-0.4c0.4-0.2,0.8-0.5,1.2-0.7s0.7-0.4,1.1-0.6
			s0.8-0.5,1.2-0.7s1-0.6,1.5-0.8l1.2-0.6c0.4-0.2,0.8-0.4,1.2-0.6c0.1-0.1,0.3-0.1,0.5-0.2l1-0.4l1.3-0.6l0.4-0.2l1.2-0.5
			C278.8,93.9,280.1,93.5,281.5,93.1z"/>
		<path class="st25" d="M391.5,51.5c-1.9,10-5.2,19.6-9.9,28.6c-5.2,10.2-11.6,19.3-20.5,26.4c-0.4-1.8-3-13.6-12.7-15.8
			c-0.9-1-1.9-1.9-2.9-2.7c-0.6-0.4-1.1-0.8-1.8-1.2c-2.1-1.3-4.5-2-7-2.2c-4.1-0.3-8,1.4-10.7,4.4c-0.8,0.9-1.6,1.9-2.3,2.9
			c-0.9-2.7-2-5.3-3.4-7.7h2.6h1.8h1.4h0.5l1.6-0.1l1.3-0.1h0.8c0.5,0,1.1-0.1,1.6-0.1l1.2-0.1l0,0l0.6-0.1l1.5-0.2l1.6-0.2h0.1
			c1-0.1,1.9-0.3,2.9-0.4l0.8-0.2l0.5-0.1l1.5-0.3l0.9-0.2l0.8-0.2c0.8-0.2,1.6-0.4,2.4-0.6l0.8-0.2l0.8-0.2
			c0.8-0.2,1.6-0.5,2.4-0.7l0.8-0.3c0.8-0.3,1.6-0.5,2.3-0.8l0.7-0.3c0.5-0.2,1.1-0.4,1.6-0.7c10-4.2,18.6-10.3,24.8-19.4
			c3.9-5.8,6.6-12.3,7.9-19.2c1.1-6.2,1.9-12.4,2.8-18.6c0.2-1.3,0.3-2.7,0.4-4c0.1,0.2,0.3,0.5,0.3,0.7
			C394,29,393.7,40.4,391.5,51.5z"/>
		<path class="st5" d="M392,17c-0.1,1.3-0.2,2.7-0.4,4c-0.9,6.2-1.7,12.4-2.8,18.6c-1.3,6.9-4,13.4-7.9,19.2
			c-6.2,9.1-14.7,15.2-24.8,19.4c-0.5,0.2-1.1,0.4-1.6,0.7l-0.7,0.3c-0.8,0.3-1.6,0.6-2.3,0.8l-0.8,0.3c-0.8,0.3-1.6,0.5-2.4,0.7
			l-0.8,0.2l-0.8,0.2c-0.8,0.2-1.6,0.4-2.4,0.6l-0.8,0.2l-0.9,0.2l-1.5,0.3l-0.5,0.1l-0.8,0.2c-1,0.2-1.9,0.3-2.9,0.4h-0.1l-1.6,0.2
			l-1.5,0.2l-0.6,0.1l0,0l-1.2,0.1c-0.5,0-1.1,0.1-1.6,0.1h-0.8l-1.4,0.1l-1.6,0.1H326h-1.4h-1.8h-2.6l0,0c-2.6-0.1-5.1-0.2-7.7-0.3
			c-5.5-0.4-10.9-1.3-16.4-2.1c-1.8-0.2-3.6-0.6-5.4-1.2c-8.2-2.6-16.5-5.2-24.7-7.8c-2.9-0.9-5.9-1.9-8.8-2.8
			c-6.2-2-12.4-4-18.8-5.7c-5-1.3-10.2-1.9-15.4-1.8c-0.4,0-0.7,0-1,0s-0.9,0-1.4,0.1s-0.9,0.1-1.4,0.1s-0.9,0.1-1.4,0.1
			s-0.9,0.1-1.3,0.2h-0.1l-0.9,0.1l-0.8,0.1l-1.7,0.3l-0.9,0.2l-0.7,0.2l-0.7,0.2l-1.1,0.3c-0.4,0.1-0.9,0.2-1.3,0.4h-0.1l-0.8,0.2
			c-0.2,0.1-0.5,0.1-0.7,0.2l-0.7,0.2l-0.9,0.3c-0.9,0.3-1.7,0.6-2.5,0.9l-0.7,0.3c-1,0.4-2.1,0.9-3.1,1.4l-0.8,0.4
			c-0.2,0.1-0.5,0.2-0.8,0.4c-0.8,0.4-1.5,0.8-2.2,1.2l-0.5,0.3l-1,0.6c-0.2,0.1-0.4,0.2-0.6,0.4l-0.7,0.5c-0.2,0.2-0.5,0.3-0.7,0.5
			c-5,3.4-9.3,7.6-11.9,13.2c-3.3,7.4-4.5,15.6-3.4,23.7c0.3,3.1,1.3,6.1,2.8,8.8c0.6-6.2,1.1-12.7,1.8-19.1c0.6-4.8,3-9.2,6.7-12.3
			c0.8-0.6,1.6-1.1,2.4-1.5c0.9-0.5,1.8-1,2.6-1.5c-4.3,6.2-6.8,13.4-7.2,20.9c-0.1,3.2,0,6.3,0.3,9.5c0.9,12,6.9,20.5,17.3,26.3
			l0.8,0.4l0.7,0.3c0.6,0.3,1.3,0.6,1.9,0.9l0.9,0.4l0.8,0.3c0.7,0.3,1.4,0.6,2.1,0.9l0.6,0.3c0.8,0.3,1.6,0.6,2.4,0.9l0.8,0.3
			l0.8,0.3l0.7,0.2l0.2,0.1c0.5,0.2,0.9,0.3,1.4,0.5l0.2,0.1l1.5,0.4l1.6,0.5l1.6,0.4c1.1,0.3,2.2,0.6,3.3,0.8l1.6,0.4
			c0.5,0.1,1.1,0.2,1.6,0.4c-0.2,1-0.3,2-0.4,3l-1.5-0.2c-1.2-0.2-2.4-0.4-3.5-0.6l-0.6-0.1l-0.7-0.1l-2.1-0.4l-1.2-0.3l-0.9-0.2
			l-1-0.3c-0.8-0.2-1.6-0.4-2.4-0.7l-0.8-0.2l-0.6-0.2l-0.6-0.2l-0.8-0.3c-14.3-4.9-26.4-12.7-34.8-25.6
			c-9.6-14.8-8.5-33.6,2.9-46.8c7.3-8.5,16.8-13.4,27.3-16.7l1.1-0.3l0.8-0.2h0.2l0.9-0.2l0.9-0.2l0.8-0.2l0.8-0.2l0.8-0.2
			c0.5-0.1,1-0.2,1.6-0.3l0.4-0.1l0.6-0.1h0.2l0.9-0.1l0.8-0.1l0.6-0.1h0.3l0.7-0.1c0.6,0,1.1-0.1,1.7-0.1c0.3,0,0.6,0,0.9,0h2.1
			h0.8h0.2h0.8h0.1l1,0.1c0.5,0,1,0.1,1.4,0.2l0.5,0.1l1.3,0.2l0.6,0.1l0.6,0.1l0.7,0.2l1.3,0.3c6.2,1.6,12.3,3.6,18.1,6.2
			c4.7,2,9.5,3.8,14.3,5.5c16.9,6,34.5,9.7,52.3,11l1,0.1c4.6,0.3,9.1,0.4,13.7,0.2h0.1c0.5,0,1.1,0,1.7-0.1c0.3,0,0.5,0,0.8-0.1
			h0.8c0.3,0,0.7,0,1-0.1l0.8-0.1l1.2-0.1L340,80l1.1-0.2l1.1-0.2l1.1-0.2l0,0l1.1-0.2c0.4-0.1,0.8-0.1,1.1-0.2l1.1-0.2
			c13.9-3.2,24.5-10.8,31.6-23.2c4.5-7.9,8.1-16.1,9.8-25.1c1.1-5.4,1.2-11,0.2-16.4c-2,19.8-8.1,37.6-23.8,51.6
			c0.1-0.6,0.2-1.3,0.3-1.9c5-14.4,9.9-28.8,15.1-43.1c1.6-4,3.6-7.9,5.9-11.6c1.2-2.1,3.1-1.8,4,0.5C390.9,11.9,391.5,14.5,392,17z
			"/>
		<path class="st5" d="M332.8,57.4c-5.1-7.7-9.9-15.7-15.3-23.2c-4.7-6.5-10-12.6-15.2-18.7c-1.5-1.6-3.3-2.9-5.2-4
			c-3.1-2-6.2-1.8-9.2,0.6c-2.4,2-4.9,3.9-7.5,5.6c-5,3-10.9,3.8-16.5,2.5c-4.1-0.9-8.1-2.2-12.2-3.4c-2.9-1-6.2,0.1-7.8,2.8
			c-2.4,3.5-4.4,7.2-5.9,11.2c-2.1,6.4-3.5,13.1-5.1,19.6c-0.1,0.7-0.2,1.5-0.2,2.3c4.8,1.3,9.6,2.4,14.1,4c6,2.1,11.8,4.7,17.7,7.1
			c1.2,0.7,2.8,0.6,3.9-0.3c11.4-7.9,24.1-11.1,37.8-11c8.5,0.1,17,1.7,25,4.6c0.5,0.1,1.1,0.2,1.6,0.3L332.8,57.4z M294.3,15.1
			c13.6,7.2,20.6,20.3,27.3,34.4c-12.5-1.5-24.5-2.8-36,2.1c-0.2-0.3-0.3-0.4-0.3-0.5c-0.8-6.3-2.8-12.4-5.8-18
			c-0.2-0.7,0-1.5,0.5-2.1c1.7-1.6,3.7-2.9,5.2-4.6C288.3,22.8,291.1,19,294.3,15.1z M288.3,15.3l0.3,0.2c-0.5,0.8-1,1.6-1.6,2.3
			c-7.9,8.5-17.5,13.6-29,14.5c-2.9,0.2-5.9-0.5-8.7-1.3c-2.2-0.5-3.9-2.4-4-4.6c-0.1-2.7,1.3-4.5,3.6-5.7c2.7-1.3,5.8-1.2,8.4,0.3
			c8.7,4.3,17.1,3.4,25.1-1.6C284.3,18.2,286.3,16.7,288.3,15.3L288.3,15.3z"/>
		<path class="st26" d="M290.5,71.2c9.6,2.4,19.5,3.9,29.4,4.4c3.9,0.3,7.9,0.2,11.8,0.3c-0.8-3.7-1.5-7.4-2.4-11.1
			c-0.4-1.6-1.5-2.3-3.2-2.7c-6-1.5-12.2-2.1-18.3-1.8c-5.9,0.4-11.7,1.1-17.5,1.7c-2,0.2-2.2,1.1-1.5,2.9
			C289.5,66.9,290,69.1,290.5,71.2z"/>
		<path class="st5" d="M290.5,71.2c-0.6-2.1-1-4.2-1.8-6.3c-0.7-1.7-0.5-2.7,1.5-2.9c5.9-0.6,11.7-1.3,17.5-1.7
			c6.2-0.3,12.4,0.3,18.3,1.8c1.6,0.4,2.8,1,3.2,2.7c0.8,3.7,1.6,7.4,2.4,11.1l10.6-0.4c-1.6-4.8-4-9.3-7.2-13.3
			c-0.8-0.9-2.5-1.2-3.9-1.5c-5.5-1.1-10.9-2.5-16.4-2.9c-14-1.1-27.4,0.8-39.9,7.6c-0.7,0.4-1.3,0.9-1.8,1.6L290.5,71.2z"/>
		<path class="st27" d="M332.8,57.3l0.1,0.2c0,0,0-0.1,0-0.1C332.9,57.4,332.8,57.4,332.8,57.3L332.8,57.3z"/>
		<path class="st28" d="M192.8,83.5l0.2-0.1L192.8,83.5z"/>
		<path class="st26" d="M294.3,15.1c-3.2,4-6,7.7-9,11.3c-1.5,1.7-3.6,3-5.2,4.6c-0.5,0.6-0.7,1.3-0.5,2.1c3,5.6,5,11.7,5.8,18
			c0,0.1,0.1,0.2,0.3,0.5c11.5-4.9,23.5-3.6,36-2.1C314.9,35.3,307.9,22.3,294.3,15.1z"/>
		<path class="st29" d="M288.3,15.3c-2,1.4-4,2.8-6,4.1c-8.1,5-16.4,6-25.1,1.6c-2.6-1.4-5.7-1.5-8.4-0.3c-2.4,1.2-3.8,3-3.6,5.7
			c0.1,2.3,1.8,4.2,4,4.6c2.8,0.7,5.9,1.5,8.7,1.3c11.5-1,21.2-6,29-14.5c0.6-0.7,1.1-1.5,1.6-2.4L288.3,15.3z"/>
		<path class="st30" d="M271,177.1l-0.8-0.4L271,177.1z"/>
		<path class="st31" d="M223,176.1l-0.2-0.3c0,0.1,0,0.3,0.1,0.4L223,176.1z"/>
		<path class="st32" d="M311.7,108.2l0.4,0.2l-0.1-0.5L311.7,108.2z"/>
		<path class="st33" d="M329.4,102.7l0.3-0.2l-0.4,0.1L329.4,102.7z"/>
		<path class="st4" d="M348.4,90.7C348.4,90.7,348.5,90.7,348.4,90.7l-0.1-0.1C348.4,90.7,348.4,90.7,348.4,90.7z"/>
		<path class="st4" d="M361.2,106.7l-0.1-0.2l0.1-0.1C361.2,106.6,361.2,106.6,361.2,106.7z"/>
		<path class="st6" d="M265.1,100.7l-0.1,0.1l-1,0.7l-0.8,0.6l-0.5,0.4c-0.6,0.4-1.2,0.8-1.8,1.3c-0.2,0.1-0.4,0.3-0.5,0.4l-0.7,0.6
			l-0.6,0.4l-0.9,0.7l-1,0.8l-0.1,0.1l0,0c-0.8,0.6-1.5,1.3-2.2,1.9l-0.7,0.6l0,0l0,0c-0.5,0.5-1.1,1-1.6,1.5
			C256.3,106.9,260.5,103.5,265.1,100.7z"/>
		<path class="st2" d="M211.8,117.3c-0.4,0.6-0.7,1.3-1.1,1.9c-0.1-0.5-0.1-0.9-0.1-1.4L211.8,117.3z"/>
		<path class="st2" d="M358.8,132.3c-7,0-15-4.3-16.4-16.3c0-0.4-0.1-0.9-0.1-1.3c-0.2-2.7-0.7-5.3-1.4-7.9
			c-0.8-2.5-1.7-2.5-2.3-2.5c-0.9,0-1.7,0.2-2.5,0.5c-1.2,0.4-2.5,0.6-3.8,0.7c-1.9,0-3.7-0.5-5.2-1.6l-0.1-0.1l-0.1-0.1
			c-5.7-4.4-12.4-5.6-20.6-6.5l-7.7,1.5l1.3-9.6l0.3-2.4l1.8-1.6c3.6-3.1,7-6.4,10.6-10c6.5-6.4,13.1-13,21.2-18
			c3.6-3,8.8-4.6,14.7-4.6c8.6,0,18.6,3.5,21.8,11.3c1.2,3.1,2.3,9.3-4.6,16.1c6.8,1.5,12.5,5.9,15.8,12.1c3.2,6.6,3.4,14.3,0.3,21
			C379.3,123.9,369.9,131.7,358.8,132.3L358.8,132.3z"/>
		<path class="st34" d="M336.1,86.9L336.1,86.9L336.1,86.9L336.1,86.9z"/>
		<path class="st34" d="M306.1,90c10.6-9.1,19.5-20.4,31.5-27.7c2.6,0,5.2-0.2,7.9,0.1c6.5,0.6,10.4,6.4,7,11.1
			c-4.4,5.6-14.2,5.5-16.3,13.3c-0.2,0.1-0.6,0.5-0.9,0.7c1,0.1,2.2,0.5,3.1,0.2c8.2-2.4,16.6-3.6,25.1-1.7
			c12.1,2.5,17.5,14.1,12.2,25.3l0,0c-5.8,6.2-14.5,11.8-18.4,0.6c-2-11.3-10.9-20.9-22.7-17.4c-1.4,0.3-2.8,0.1-4.1-0.6
			c-7.7-4.8-15.9-4.7-24.4-3.1L306.1,90z"/>
		<path class="st35" d="M306.1,90.9c8.4-1.7,16.6-1.7,24.3,3c1.3,0.7,2.7,0.9,4.1,0.6c11.9-3.5,20.8,6.2,22.7,17.4
			c3.8,11.2,12.6,5.5,18.4-0.6c-2.1,13.8-24.6,22.7-26.9,4c-0.3-3.5-0.9-7-1.8-10.4c-2.1-6.3-6.7-8.2-13-6c-1,0.4-2.2,0.4-3.2-0.1
			C323.4,93,314.9,91.8,306.1,90.9z"/>
		<path class="st35" d="M336.2,86.8c2.1-7.8,11.9-7.7,16.3-13.3c3.3-4.7-0.5-10.4-7-11.1c-2.6-0.2-5.2-0.1-7.9-0.1
			c9.4-8.4,37.4-0.2,23.4,13.4C353.7,81,344.5,83.4,336.2,86.8z"/>
		<path class="st35" d="M335.3,87.5l0.9-0.7L335.3,87.5z"/>
		<path class="st2" d="M302.7,84.6c0,0-6.3,5.2-13.8,6.9s9.4,5,9.4,5l2.6-1"/>
		<path class="st35" d="M306,91c0,0,13.4,9,20.2,15.3c0,0,5.2-7,10.8-8.2s-6.1-2.5-6.1-2.5l-9.9-3.8l-6.3-0.8"/>
		<path class="st2" d="M333.9,99.2c-3.1,1.7-5.7,4.1-7.7,7c-3.2,4.6-1,4.4-1,4.4l4.4-2.7l3.6-3.2"/>
		<polyline class="st2" points="332,110.8 327.4,117.6 323.9,113.1 		"/>
		<path class="st2" d="M352.3,184.5L352.3,184.5z"/>
		<polygon class="st2" points="26.1,452.3 38.5,402.5 0,380.9 27,365.4 41,357.4 66.7,342.7 69.5,349 69.7,349.4 69.7,349.4 
			69.9,349.9 72.9,356.7 37.3,372.6 29.1,378.8 57,394.5 49.7,423.7 84.4,407.6 72.5,367.6 80.2,365.3 87.9,363 103.7,416.3 		"/>
		<polygon class="st2" points="498.5,412.2 525.9,336.8 607,378.2 567.8,402.4 577.2,452.2 		"/>
		<path class="st36" d="M351.5,330.7l-2.6-0.1L351.5,330.7C351.4,330.6,351.4,330.6,351.5,330.7z"/>
		<path class="st37" d="M336,330.2c4,0.1,8.3,0.2,12.8,0.3L336,330.2z"/>
		<path class="st2" d="M537,328.1c-0.3,1.4-0.7,2.7-1.1,4l-1.6,4.5l-0.1,0.3c-0.4,1.2-0.8,2.4-1.2,3.5c-1.4,4-2.8,8-4.2,12
			c-1.1,3.3-2.3,6.5-3.4,9.8l-10.6,30.2c-0.1,0.4-0.2,0.7-0.4,1l-0.6,1.6c-0.7,1.9-2.2,3.4-4.1,4.2c-0.8,0.3-1.7,0.5-2.6,0.5
			c-1.1,0-2.2-0.3-3.2-0.8l-0.5-0.3c-1.5-0.8-3-1.5-4.4-2.1h0c-1.2-0.6-2.6-1.2-4.1-1.8l-1.5-0.6c-1-0.4-2.1-0.9-3.1-1.2
			c-10-3.8-20.6-6.9-30.9-9.8l-6.9-2c-7.1-2-14.4-4-21.6-5.7c-1.7-0.4-3.5-0.8-5.4-1.3c-14.7-3.4-30.2-6.2-46.2-8.4
			c-4.7-0.7-9.5-1.3-14.3-1.9c-4.5-0.5-9.1-1-13.7-1.4c-11.1-1-22.3-1.7-33.6-2c-4.9-0.1-9.7-0.2-14.6-0.2c-6.3,0-12.8,0.1-19.2,0.3
			c-2.5,0.1-5,0.2-7.4,0.3c-9,0.4-18,1.1-27,1.9c-13.1,1.3-26.2,3-39.2,5.1c-33.8,5.7-67,14.4-99.2,25.9c-1.1,0.4-2.3,0.9-3.8,1.6
			c-0.8,0.4-1.7,0.8-2.5,1.2l-1.2,0.6c-1.2,0.6-2.5,1.2-3.8,1.8c-0.3,0.1-0.7,0.3-1,0.4c-0.6,0.2-1.3,0.3-1.9,0.3
			c-1,0-1.9-0.2-2.8-0.6c-1.8-0.8-3.2-2.3-3.9-4.1l-2.7-7.8c-1.4-4-2.9-8.3-4.4-12.6c-0.5-1.5-1.1-3-1.6-4.6c-0.5-1.5-1-2.9-1.5-4.4
			c-0.2-0.6-0.4-1.1-0.6-1.7l-0.2-0.6c-1.7-4.8-3.4-9.8-5.3-15.3l-2.6-7.5c-1-3-2.1-6-3.2-9.3c-3.4-9.9,0.9-15.5,3.8-18l0,0l0.9-0.7
			l0,0c1-0.7,2-1.3,3.1-1.9c0.7-0.4,1.5-0.7,2.2-0.9c19.1-7,37.1-12.8,54.4-17.6c9-2.5,17.8-4.6,26.5-6.5c3.4-0.7,6.8-1.4,10.2-2.1
			h0.2c8.5-1.6,16.8-3.2,24.8-4.5c4.3-0.7,8.6-1.4,12.6-2.1c1.3-0.2,2.7-0.4,4-0.6c2.6-0.4,5.1-0.8,7.7-1.1
			c5.9-0.8,11.7-1.6,17.4-2.2c3.9-0.5,7.8-0.9,11.6-1.2c2.9-0.3,5.4-0.5,7.8-0.7h0.1c2.6-0.2,5-0.4,7.3-0.5h0.4l3.9-0.2
			c3.9-0.2,7.8-0.4,11.7-0.6c6.5-0.2,13.1-0.4,19.5-0.4h5.1l0,0c4.8,0,9.5,0.2,14.2,0.4l0,0c3.5,0.1,7.1,0.3,10.5,0.5l1.2,0.1
			l2.5,0.2c3.3,0.2,6.7,0.4,10.1,0.7h0.1h0.4l6.8,0.5c3.2,0.2,6.3,0.5,9.3,0.8c4.2,0.4,8.2,0.7,12.1,1.1l4.6,0.5
			c2,0.2,3.9,0.4,5.9,0.6l3.3,0.4l2.9,0.3l3.2,0.4l3.2,0.4l2.8,0.4h0.1c2.4,0.3,4.3,0.6,6,0.9l6,0.9c3,0.5,6,1,9,1.6
			c4.8,0.9,9.6,1.8,14.4,2.8c3.1,0.6,6.3,1.3,9.4,2l6,1.4c2.1,0.5,4.3,1,6.5,1.6l1.2,0.3l4.1,1c3.8,1,7.8,2,11.8,3.1
			c3,0.8,6,1.7,8.8,2.5c11.4,3.3,22.5,7,33.8,10.8l3.7,1.2l7.5,2.5c1.8,0.6,3.6,1.4,5.3,2.4h0.1c0.2,0.1,0.5,0.3,0.8,0.5
			c0.6,0.4,1.2,0.8,1.7,1.3c0.2,0.2,0.4,0.4,0.6,0.5C535.7,316.2,538.5,320.7,537,328.1z"/>
		<path class="st3" d="M530,326.6c-0.2,1-0.5,2.1-0.9,3.1c-0.5,1.5-1.1,3-1.6,4.5l0,0c-3,8.5-5.9,17-8.9,25.6l-10.5,30.1l-0.4,1.1
			l-0.6,1.6c-1.7-0.9-3.5-1.7-5.2-2.5c-1.4-0.7-2.9-1.3-4.3-1.9l-1.6-0.7c-1.1-0.4-2.2-0.9-3.3-1.3c-12.5-4.8-25.5-8.2-38.3-11.9
			c-7.3-2.1-14.6-4-21.9-5.8c-1.8-0.4-3.7-0.9-5.5-1.3c-20.2-4.6-40.7-8-61.3-10.4c-29.8-3.5-59.8-4.5-89.7-3
			c-57.2,2.7-113.6,13.9-167.5,33.4c-1.5,0.5-2.9,1.1-4.3,1.8c-1,0.4-1.9,0.9-2.9,1.4c-1.5,0.7-3,1.4-4.6,2.1
			c-0.9-2.6-1.8-5.2-2.7-7.8c-2.8-7.9-5.6-15.9-8.4-23.9c-3.7-10.7-7.4-21.4-11.1-32.1c-1.6-4.5-1-8,1.7-10.4
			c0.2-0.2,0.4-0.3,0.6-0.5c0.6-0.5,1.3-0.8,2-1.2c0.5-0.3,1-0.5,1.6-0.7c29.4-10.8,59.4-19.9,90.2-25.9c8.2-1.6,16.4-3.1,24.6-4.5
			c5.5-0.9,11-1.8,16.5-2.7c8.3-1.2,16.5-2.4,24.8-3.4c3.8-0.4,7.6-0.9,11.5-1.2c2.6-0.2,5.1-0.5,7.7-0.7l0,0
			c2.5-0.2,5.1-0.4,7.7-0.6l3.9-0.2c3.8-0.2,7.7-0.4,11.5-0.6c16.2-0.6,32.5-0.5,48.7,0.5c1.2,0.1,2.5,0.1,3.7,0.2
			c3.3,0.2,6.7,0.4,10,0.7h0.5l6.8,0.5c11.7,0.9,23.3,2,34.9,3.3c2,0.2,4,0.5,6,0.7c2,0.2,4,0.5,6,0.8l0,0c2,0.3,4,0.6,6,0.9l6,0.9
			c3,0.5,6,1,8.9,1.5c9.9,1.8,19.7,3.8,29.5,6.1c2.2,0.5,4.3,1,6.5,1.6c1.8,0.4,3.5,0.9,5.3,1.3c3.9,1,7.8,2,11.7,3.1
			c2.9,0.8,5.8,1.6,8.7,2.5c11.3,3.3,22.4,7,33.5,10.7l11.1,3.7c1.4,0.4,2.7,1,3.9,1.7c0.2,0.1,0.4,0.2,0.5,0.4
			c0.4,0.2,0.7,0.5,1,0.8l0.3,0.2C530.2,320.6,530.7,323.2,530,326.6z"/>
		<polygon class="st3" points="69.7,349.4 33.2,365.6 14.6,379.9 47.7,398.5 37.9,438 94.1,412 80.2,365.3 		"/>
		<polygon class="st3" points="530.3,348 508.5,408.3 566.3,437.7 558.9,398.5 590.7,378.8 		"/>
		<path class="st2" d="M172.6,418l-4.3-11.8l-2.1-5.8l-1.1-3v-0.1c-0.1-0.3-0.2-0.6-0.3-0.9l-0.8-3.8l9.6-2.2l15.4-3.6l4.1,14.6
			l-0.5,0.1l1.2,3.9l1.6-0.4l4.6,14.5l-4.3,1.1c-1.1,0.3-2.4,0.7-3.6,1l-8.2,2.4l-0.5,0.1c-1.2,0.3-2.4,0.7-3.8,1l-4.4,1.2
			L172.6,418z"/>
		<polygon class="st2" points="193.3,418.6 192.9,417.1 191.2,410.9 190,406.8 184.6,387.5 201.1,383.7 206.6,402.9 212.4,401.5 
			216.4,416.1 198.5,420.1 196.6,420.6 		"/>
		<path class="st2" d="M234.3,413.6c-0.4,0-0.8,0-1.2,0c-0.6,0-1.1-0.1-1.7-0.2h-0.1h-0.1c-0.5-0.1-0.9-0.2-1.3-0.3h-0.2h-0.1
			c-3.7-1-7-3.2-9.4-6.2l0,0c-0.5-0.6-0.9-1.2-1.3-1.8L219,405c-0.1-0.2-0.3-0.5-0.5-0.8l-0.1-0.2c-0.1-0.2-0.3-0.5-0.4-0.8
			c-1.3-2.8-1.8-5.8-1.5-8.9c0.3-3.2,1.5-6.2,3.4-8.7c3.5-4.7,8.9-7.5,14.8-7.6c0.3,0,0.5,0,0.8,0c2.2,0.1,4.4,0.6,6.4,1.5l4.3,1.9
			l-4.7,7.5c1.1,0.4,2.2,1,3.1,1.8c0.6,0.4,1.1,0.9,1.6,1.4c0.2,0.2,0.5,0.5,0.7,0.8l0.1,0.1l0.3,0.4c0.1,0.1,0.3,0.4,0.4,0.6l0,0
			c1.3,1.8,2,4,2.1,6.3c0.1,2.4-0.7,4.8-2.1,6.8c-0.6,0.9-1.3,1.7-2.1,2.4l-0.1,0.1c-0.8,0.7-1.7,1.4-2.7,1.9
			c-2,1.1-4.2,1.8-6.4,2.1C235.8,413.5,235.1,413.6,234.3,413.6z"/>
		<path class="st2" d="M240,383.2l-1.8-3.2l1.2-0.5l-0.1-0.8l3.7-0.7c1.7-0.7,3.5-1.3,5.3-1.7c2.2-0.5,4.4-0.8,6.6-0.8h0.4h0.9
			l1,0.1h0.1c0.6,0.1,1.2,0.1,2.1,0.3c1.6,0.3,3.2,0.9,4.6,1.7c1.5,0.8,2.9,1.9,4,3.2c1.1,1.3,1.9,2.8,2.4,4.5
			c0.9,3.8,0,7.8-2.6,10.8c1.2,1.2,2.4,2.5,3.4,3.8l2.7,3.5l-14.4,8.2l-1.3-1.6l-13.4,1.8L240,383.2z"/>
		<path class="st2" d="M263.5,408.2l0.3-4.2c0.2-2.2,0.4-4.4,0.7-6.9s0.8-4.8,1.2-6.9c0.5-2.5,1.2-5,2.1-7.3
			c0.3-0.8,0.6-1.5,0.9-2.1c0.2-0.4,0.4-0.8,0.6-1.2l0.3-0.4l0.3-0.4c0.2-0.3,0.5-0.7,0.7-1c1.1-1.3,2.4-2.5,3.9-3.3
			c1.7-0.9,3.6-1.4,5.5-1.4h0.3c1.8,0,3.5,0.4,5.1,1.1l0,0c1.6,0.7,3,1.7,4.1,2.9c0.3,0.3,0.5,0.5,0.6,0.7l0.1,0.1
			c0.2,0.2,0.4,0.4,0.5,0.6l0.2,0.3c0.3,0.4,0.5,0.8,0.8,1.1c0.4,0.7,0.8,1.4,1.2,2.1c1.1,2.4,2,4.9,2.6,7.5c0.5,2.1,1,4.4,1.4,7
			c0.2,1.1,0.4,2.3,0.5,3.4c0.1,1,0.3,2.1,0.4,3.5l0.4,4.1l-17,1.1l-0.2-2.7h-0.5l-0.2,3L263.5,408.2z"/>
		<polygon class="st2" points="289.7,373.2 305.6,372.7 306.2,374.2 320.9,373.8 322.1,407.7 305.1,408.2 305.1,407.7 291.2,408.2 
					"/>
		<path class="st2" d="M328.3,408.5l1.5-29.2l-1.1-3.6l1.3-0.3l0-1.1l4.1,0.2c1.8-0.3,3.5-0.6,5.3-0.6c0.6,0,1.1,0,1.7,0
			c1.8,0,3.6,0.2,5.4,0.5l1,0.2l1,0.3h0.1c0.7,0.2,1.3,0.4,2,0.7c1.5,0.6,2.9,1.4,4.2,2.5c1.3,1.1,2.4,2.4,3.2,3.9
			c0.8,1.5,1.3,3.1,1.4,4.8c0.1,3.4-1.2,6.7-3.6,9c-1.2,1.2-2.7,2.2-4.3,3c-0.8,0.4-1.6,0.7-2.5,0.9h-0.1c-0.3,0.1-0.8,0.2-1.2,0.3
			l-0.5,0.1l-0.5,0.1l-0.8,0.1l-0.5,9.1L328.3,408.5z"/>
		<path class="st2" d="M363.1,411.7l0.3-2.7l-0.5,0l-0.9,2.9l-16.6-3.7l1.2-4.1c0.6-2.1,1.3-4.2,2.2-6.6s1.8-4.6,2.6-6.5
			c1-2.4,2.3-4.7,3.7-6.8c0.5-0.7,0.9-1.3,1.4-1.9c0.3-0.4,0.6-0.7,0.9-1l0.4-0.4l0.4-0.4c0.3-0.3,0.6-0.6,0.9-0.8
			c1.3-1.1,2.8-2,4.5-2.5c1.9-0.6,3.8-0.8,5.7-0.4c1.8,0.3,3.6,1,5.1,2l0,0c1.4,1,2.5,2.2,3.5,3.6c0.2,0.2,0.3,0.5,0.5,0.8
			c0,0,0,0.1,0.1,0.1c0.1,0.2,0.3,0.5,0.4,0.7l0.1,0.3c0.2,0.4,0.4,0.9,0.5,1.3c0.2,0.7,0.5,1.5,0.7,2.3c0.6,2.6,0.9,5.2,1,7.8
			c0.1,2.2,0.1,4.5-0.1,7.1c-0.1,1.1-0.1,2.3-0.2,3.5c-0.1,1.4-0.2,2.4-0.4,3.5l-0.5,4.1L363.1,411.7z"/>
		<polygon class="st2" points="373.1,413 378.4,378.4 395.3,380.6 390,415.2 		"/>
		<path class="st2" d="M397.9,417c-2.1,0-4.1-0.4-6-1.2c-2.2-0.9-4.1-2.4-5.6-4.4c-1.3-1.7-2.1-3.7-2.3-5.8l-0.4-3.3l5.8-1.8
			c-0.2-0.2-0.3-0.4-0.5-0.7l-0.1-0.1c-0.6-0.9-1.1-1.9-1.5-2.9c-0.4-1.2-0.6-2.4-0.5-3.7c0-0.5,0.1-1.1,0.2-1.6v-0.2v-0.1
			c0.1-0.5,0.3-1.1,0.5-1.6c0.4-1,1-2,1.6-2.8c1.4-1.8,3.3-3.2,5.4-4.1c1.9-0.8,3.9-1.2,6-1.2c0.5,0,1.1,0,1.6,0.1
			c2.4,0.3,4.7,1.1,6.7,2.3c2.2,1.6,4,3.6,5.5,5.9l2.5,3.8l-8.2,3.6l0.1,0.1c1.3,1.5,2.1,3.3,2.6,5.3c0.2,1,0.3,2.1,0.2,3.2
			c0,0.6-0.1,1.1-0.3,1.6c0,0.2-0.1,0.5-0.2,0.7v0.1c-0.1,0.3-0.2,0.6-0.3,0.8l-0.1,0.2c-0.5,1.1-1.2,2.1-2,3
			c-0.8,0.8-1.6,1.5-2.5,2.1c-2,1.3-4.2,2.1-6.5,2.4l0,0C399.1,416.9,398.5,417,397.9,417z"/>
		<path class="st2" d="M416.4,421.6l0.7-2.6l-0.5-0.1l-1.3,2.8l-15.9-5.6l1.8-3.9c0.9-2,1.9-4,3.1-6.3s2.4-4.3,3.5-6.2
			c1.4-2.2,2.9-4.4,4.6-6.4c0.6-0.6,1.1-1.2,1.6-1.7c0.3-0.3,0.7-0.6,1-0.9l0.4-0.3l0.4-0.3c0.4-0.3,0.7-0.5,1-0.7
			c1.5-1,3.1-1.7,4.8-2c0.8-0.2,1.6-0.3,2.4-0.3c1.1,0,2.2,0.2,3.3,0.5c1.8,0.5,3.4,1.4,4.8,2.6l0,0c1.2,1.1,2.2,2.4,2.9,3.9
			c0.1,0.3,0.2,0.5,0.4,0.8l0.1,0.1c0.1,0.2,0.2,0.5,0.3,0.7l0.1,0.3c0.1,0.5,0.2,0.9,0.3,1.3c0.2,0.7,0.3,1.5,0.4,2.3
			c0.2,2.6,0.2,5.2-0.1,7.8c-0.2,2.2-0.6,4.5-1,7c-0.2,1.1-0.5,2.3-0.7,3.4c-0.2,1-0.5,2.1-0.9,3.4l-1.1,4L416.4,421.6z"/>
		<path class="st38" d="M190.8,409.5l2.1,6.5c-1.2,0.3-2.6,0.7-3.9,1.1l-4,1.2l-4,1.2c-1.4,0.4-2.7,0.8-4.1,1.2l-1.4-4.4l-4.3-11.9
			l-2.1-5.8l-0.7-2l-0.4-1c-0.1-0.2-0.1-0.3-0.2-0.5l0.6-0.1l4.8-1.1l11-2.6l1.8,6.6l-8.2,1.9l0.8,2.3l0.8,2.2l7.3-1.9l2.1,6.5
			l-7,1.8l0.4,1.1l0.4-0.1l4-1.2C188,410.3,189.3,409.9,190.8,409.5z"/>
		<path class="st38" d="M209.4,412.6l-12.2,2.7l-1.1,0.3h-0.1l0,0v-0.1l-0.1-0.2l-0.1-0.5l-0.5-1.8l-1-3.6l-1.2-4.2l-4.3-15.3
			l7.7-1.8l4.3,15.3l1.1,3.9l5.8-1.3L209.4,412.6z"/>
		<path class="st38" d="M244,399.8c0,1.6-0.4,3.2-1.4,4.5c-0.4,0.6-1,1.2-1.5,1.7c-0.6,0.5-1.2,1-1.9,1.4c-1.4,0.8-3,1.3-4.6,1.5
			c-0.8,0.1-1.7,0.1-2.5,0.1c-0.4,0-0.8-0.1-1.2-0.1l-1.2-0.2c-1.5-0.4-2.9-1-4.1-1.9c-1.1-0.8-2-1.7-2.9-2.7c-0.4-0.5-0.7-1-1-1.5
			c-0.1-0.3-0.3-0.5-0.4-0.7s-0.3-0.5-0.4-0.8c-1-2.2-1.4-4.5-1.2-6.9c0.2-2.4,1.2-4.8,2.6-6.8c1.7-2.3,4.1-4,6.7-4.9
			c1.5-0.5,3.2-0.8,4.8-0.7c1.6,0.1,3.2,0.4,4.7,1.1l-3.8,6c-0.9-0.4-2-0.5-2.9-0.1c-1.2,0.4-2.2,1.2-2.9,2.2
			c-0.6,0.8-1.1,1.8-1.3,2.8c0.8-0.5,1.7-1,2.6-1.3c1.1-0.4,2.2-0.7,3.3-0.8c1.3-0.1,2.5,0,3.8,0.3c1.1,0.3,2.2,0.8,3.1,1.5
			c0.4,0.3,0.8,0.6,1.1,1c0.2,0.2,0.4,0.4,0.5,0.5l0.2,0.3c0.1,0.1,0.2,0.2,0.3,0.4C243.5,396.8,244,398.3,244,399.8z M235.7,399.1
			L235.7,399.1L235.7,399.1l-0.2-0.2c-0.1-0.1-0.2-0.2-0.3-0.3c-0.2-0.1-0.3-0.2-0.5-0.3c-0.1,0-0.3,0-0.4,0c-0.3,0-0.6,0.1-0.8,0.2
			c-0.8,0.3-1.5,0.8-2.1,1.4c-0.4,0.4-0.8,0.8-1.1,1.2l0.4,0.3c0.4,0.3,0.9,0.6,1.5,0.7l0.4,0.1h0.3c0.2,0,0.5,0,0.7,0
			c0.9-0.1,1.8-0.6,2.3-1.3c0.2-0.2,0.2-0.5,0.2-0.8C236,399.7,235.9,399.3,235.7,399.1L235.7,399.1z"/>
		<path class="st38" d="M259.6,395.5c2.4,1.8,4.5,4,6.4,6.4l-6.7,3.8c-1.5-1.9-3.2-3.6-5.1-5l0.9,5l-7.9,1.1l-4.2-25.2l0,0
			c1.6-0.7,3.3-1.2,5-1.6c1.9-0.5,3.8-0.7,5.7-0.7h0.8l0.8,0.1c0.5,0.1,1.1,0.1,1.6,0.2c1.1,0.2,2.3,0.6,3.3,1.2
			c1,0.6,2,1.3,2.7,2.2c0.7,0.9,1.3,1.9,1.6,3c0.6,2.2,0.2,4.5-1.1,6.3c-0.7,1-1.5,1.8-2.5,2.5C260.6,395,260.1,395.3,259.6,395.5z
			 M256.8,387.5c-0.1-0.5-0.5-0.9-0.9-1.1c-0.3-0.2-0.6-0.3-0.9-0.3c-0.2,0-0.4-0.1-0.7-0.1h-0.4h-0.4c-0.6,0-1.1,0-1.7,0.1l0.7,4.4
			c0.9-0.1,1.8-0.3,2.6-0.6l0.2-0.1h0.1c0.1,0,0.1-0.1,0.2-0.1l0.4-0.2c0.2-0.2,0.4-0.3,0.5-0.5
			C256.8,388.6,256.9,388.1,256.8,387.5L256.8,387.5z"/>
		<path class="st38" d="M283.9,401.2l-8.8,0.5c-0.1,0.9-0.2,1.8-0.2,2.6l-8-0.4c0.2-2.3,0.4-4.4,0.7-6.6s0.7-4.4,1.1-6.6
			c0.5-2.3,1.2-4.6,2-6.8c0.2-0.6,0.5-1.2,0.8-1.8c0.1-0.3,0.3-0.6,0.5-0.9l0.2-0.3l0.2-0.4c0.2-0.2,0.3-0.5,0.5-0.7
			c0.7-0.9,1.6-1.6,2.5-2.2c1-0.6,2.1-0.8,3.3-0.9c1.2,0,2.3,0.2,3.4,0.7c1,0.5,2,1.2,2.8,2c0.2,0.2,0.4,0.4,0.6,0.6l0.3,0.3
			l0.2,0.2c0.2,0.3,0.4,0.6,0.6,0.9c0.4,0.6,0.7,1.1,1,1.8c1,2.2,1.8,4.4,2.4,6.7c0.6,2.2,1,4.4,1.4,6.6c0.2,1.1,0.3,2.2,0.5,3.3
			c0.1,1.1,0.3,2.2,0.4,3.4l-7.9,0.5C284.1,403,284,402.1,283.9,401.2z M276,394.8l6.8-0.4c-0.2-1-0.4-2-0.7-2.9
			c-0.5-1.9-1.1-3.8-2-5.6c-0.2-0.4-0.4-0.8-0.6-1.2c-0.1-0.2-0.2-0.3-0.3-0.5l-0.1-0.1l0,0l0,0l0,0c-0.1,0.2-0.2,0.4-0.3,0.5
			c-0.2,0.4-0.4,0.8-0.6,1.2c-0.7,1.9-1.3,3.8-1.7,5.8C276.4,392.8,276.2,393.8,276,394.8L276,394.8z"/>
		<path class="st38" d="M316,403.2l-8,0.2l-0.1-1.8c-1.9-2.5-6.2-8.8-6.2-8.8l0.4,10.3l-8,0.3l-1.1-26.8l7.9-0.2
			c0.6,1.7,4.8,11.2,6.6,13.2l-0.4-11.7l8-0.2L316,403.2z M301,376.4L301,376.4c-0.1-0.1-0.1-0.2-0.1-0.3L301,376.4z"/>
		<path class="st38" d="M350.9,392.6c-0.9,0.8-1.9,1.5-3,2c-0.6,0.3-1.1,0.5-1.7,0.6c-0.3,0.1-0.6,0.2-0.9,0.2l-0.5,0.1l-0.4,0
			c-1.5,0.2-3,0.2-4.4,0.2l-0.5,8.8l-8-0.4l1.3-25.8v-0.1l0,0l0,0h0.1c1.7-0.4,3.4-0.6,5.2-0.7c2-0.1,3.9,0,5.8,0.4l0.8,0.2l0.8,0.2
			c0.5,0.2,1,0.3,1.5,0.5c1.1,0.4,2.1,1,3,1.8c0.9,0.7,1.7,1.6,2.2,2.7c0.5,1,0.9,2.1,0.9,3.2C353.3,388.8,352.5,391,350.9,392.6z
			 M345.4,386.8c0-0.5-0.3-1-0.7-1.3c-0.3-0.2-0.6-0.4-0.9-0.5c-0.2-0.1-0.4-0.1-0.6-0.2l-0.4-0.1l-0.4-0.1
			c-0.6-0.1-1.2-0.2-1.8-0.2l-0.2,4.6c0.9,0.1,1.9,0,2.8-0.1h0.2h0.1l0.2,0c0.1,0,0.3-0.1,0.4-0.1c0.3-0.1,0.5-0.3,0.7-0.5
			C345.2,387.8,345.4,387.3,345.4,386.8z"/>
		<path class="st38" d="M367,405l-8.8-1.1c-0.3,0.8-0.5,1.7-0.8,2.5l-7.7-1.8c0.6-2.2,1.4-4.3,2.1-6.4s1.6-4.2,2.5-6.3
			c1-2.2,2.1-4.3,3.4-6.3c0.4-0.5,0.7-1.1,1.2-1.6c0.2-0.3,0.4-0.5,0.7-0.8l0.3-0.3l0.3-0.3c0.2-0.2,0.4-0.4,0.6-0.6
			c0.9-0.8,1.9-1.3,3-1.7c1.1-0.4,2.3-0.5,3.4-0.3c1.1,0.2,2.2,0.6,3.2,1.2c0.9,0.7,1.7,1.5,2.3,2.4c0.2,0.2,0.3,0.5,0.4,0.7
			s0.1,0.2,0.2,0.4l0.1,0.3c0.1,0.3,0.3,0.7,0.4,1c0.2,0.6,0.4,1.2,0.6,1.9c0.5,2.3,0.8,4.6,0.9,7c0.1,2.3,0,4.5-0.1,6.7
			c0,1.1-0.1,2.2-0.2,3.3s-0.2,2.2-0.4,3.4l-7.9-0.9C366.8,406.8,366.9,405.9,367,405z M360.6,397.3l6.8,0.9c0-1,0-2,0-3
			c0-2-0.3-3.9-0.7-5.8c-0.1-0.4-0.2-0.9-0.4-1.2c-0.1-0.2-0.1-0.4-0.2-0.5l0-0.1l0,0l0,0c-0.1,0.2-0.3,0.3-0.4,0.5
			c-0.3,0.4-0.5,0.7-0.8,1.1c-1.1,1.7-2.1,3.5-2.9,5.4C361.4,395.5,361,396.4,360.6,397.3L360.6,397.3z"/>
		<path class="st38" d="M376.8,409l4-26.4l7.9,1l-4,26.4L376.8,409z"/>
		<path class="st38" d="M398,393.2C398,393.2,398,393.3,398,393.2c0,0.1,0,0.1,0,0.2c0.1,0.1,0.1,0.2,0.2,0.3c0.4,0.5,0.8,1,1.3,1.4
			c0.3,0.3,0.7,0.6,1,1l0.5,0.5l0.5,0.5c0.3,0.3,0.7,0.7,1,1l0.5,0.5l0.3,0.3c0.1,0.1,0.2,0.3,0.3,0.4c0.9,1.1,1.5,2.3,1.8,3.7
			c0.2,0.7,0.2,1.4,0.1,2.1c0,0.4-0.1,0.7-0.2,1.1c0,0.2-0.1,0.4-0.1,0.5c-0.1,0.2-0.1,0.4-0.2,0.6c-0.3,0.7-0.7,1.4-1.3,1.9
			c-0.5,0.6-1.1,1.1-1.7,1.5c-1.3,0.9-2.9,1.4-4.5,1.6c-1.8,0.2-3.6,0-5.2-0.7c-1.5-0.6-2.8-1.7-3.8-3c-0.9-1.1-1.4-2.5-1.6-3.9
			l6.8-2.1c0.4,0.8,1,1.6,1.5,2.4c0.1,0.2,0.3,0.3,0.5,0.4c0.1,0.1,0.3,0.1,0.5,0c0.3,0,0.5-0.1,0.8-0.3c0.2-0.1,0.3-0.3,0.5-0.5
			h0.1h-0.1l0,0c0,0,0,0,0-0.1c0,0,0-0.1,0-0.1c0-0.1,0-0.2,0-0.4c-0.1-0.3-0.2-0.7-0.5-0.9l-0.1-0.1l-0.1-0.1l-0.1-0.1l-0.5-0.5
			c-0.3-0.3-0.5-0.6-0.9-0.9l-0.9-0.9l-0.9-0.9c-0.9-0.8-1.6-1.6-2.3-2.5c-0.4-0.6-0.8-1.3-1-2c-0.3-0.8-0.4-1.6-0.4-2.4
			c0-0.4,0.1-0.8,0.2-1.2c0.1-0.3,0.2-0.7,0.3-1c0.3-0.7,0.6-1.3,1.1-1.9c1-1.2,2.2-2.2,3.6-2.8c1.6-0.7,3.3-0.9,5.1-0.8
			c1.7,0.2,3.2,0.7,4.6,1.6c1.6,1.3,3.1,2.8,4.2,4.6l-6.7,3c-0.7-0.7-1.4-1.4-2.2-2c-0.2-0.1-0.5-0.2-0.7-0.3c-0.2,0-0.4,0-0.5,0.1
			c-0.2,0.1-0.5,0.3-0.6,0.5C398.1,393,398,393.1,398,393.2C398.1,393.1,398.1,393.2,398,393.2z"/>
		<path class="st38" d="M421.1,415.5l-8.5-2.1c-0.4,0.8-0.8,1.6-1.1,2.4l-7.4-2.6c1-2.1,1.9-4.1,3-6.1s2.2-4,3.4-5.9
			c1.2-2.1,2.7-4,4.2-5.9c0.4-0.5,0.9-1,1.4-1.5c0.2-0.2,0.5-0.5,0.8-0.7l0.3-0.2l0.3-0.3c0.2-0.2,0.5-0.3,0.7-0.5
			c1-0.7,2-1.1,3.2-1.4c1.1-0.2,2.3-0.2,3.4,0.1c1.1,0.3,2.1,0.8,3,1.6c0.8,0.7,1.5,1.7,2,2.7c0.1,0.2,0.2,0.5,0.3,0.8
			c0.1,0.1,0.1,0.3,0.1,0.4l0.1,0.3c0.1,0.4,0.2,0.7,0.3,1c0.1,0.6,0.2,1.3,0.3,1.9c0.2,2.4,0.2,4.7-0.1,7.1c-0.2,2.3-0.6,4.5-1,6.7
			c-0.2,1.1-0.4,2.2-0.7,3.3c-0.3,1.1-0.5,2.1-0.8,3.3l-7.7-1.8C420.7,417.3,420.9,416.4,421.1,415.5z M415.9,407.2l6.6,1.6
			c0.1-1,0.3-2,0.4-3c0.2-1.9,0.3-3.9,0.1-5.9c0-0.4-0.1-0.9-0.2-1.3c0-0.2-0.1-0.4-0.1-0.6v-0.1l0,0l0,0c-0.2,0.1-0.3,0.3-0.5,0.4
			c-0.3,0.3-0.6,0.7-1,1c-1.3,1.6-2.5,3.2-3.6,5C416.9,405.5,416.4,406.3,415.9,407.2L415.9,407.2z"/>
		<polygon class="st3" points="67.5,350.4 73.6,347.8 81.7,370.4 		"/>
		<polygon class="st2" points="66.4,342.1 73.6,339.4 73.6,347.8 68.8,349.8 60.6,347.8 		"/>
		<polygon class="st2" points="73.6,347.8 70,349.8 69.9,349.9 14.6,379.8 27,365.4 41,357.4 44.1,356.3 69.5,349 		"/>
		<path class="st4" d="M133.9,342.6c3.1,2,4,6.1,2.2,9.3c-1.3,2-3.3,3.4-5.6,4l-11.9,4.1l-8.7-25.5l11.4-3.9c2.1-0.9,4.5-1,6.7-0.3
			c3.2,1.3,4.9,4.9,3.9,8.2c-0.5,1.3-1.3,2.4-2.4,3.1C131.1,341.5,132.7,341.8,133.9,342.6z M119.7,342.7l4.1-1.4
			c0.9-0.2,1.6-0.7,2.1-1.5c0.4-0.7,0.4-1.5,0.1-2.2c-0.2-0.8-0.8-1.4-1.5-1.7c-0.8-0.3-1.8-0.2-2.6,0.1l-4.1,1.4L119.7,342.7z
			 M129.9,349.8c0.4-0.7,0.5-1.6,0.1-2.3c-0.2-0.8-0.8-1.5-1.6-1.8c-0.9-0.3-1.8-0.3-2.7,0.1l-4.5,1.5l1.9,5.6l4.6-1.6
			C128.6,351,129.4,350.5,129.9,349.8L129.9,349.8z"/>
		<path class="st4" d="M155.5,348.5l-8.1-8.3l-1.5,0.4l2.7,9.8l-6.3,1.8l-7.3-25.9l10.6-3c1.8-0.6,3.7-0.7,5.5-0.4
			c1.5,0.2,2.9,0.9,4,2c1.1,1.1,1.9,2.4,2.2,3.9c0.5,1.6,0.4,3.4-0.2,5c-0.7,1.7-1.9,3.2-3.5,4.1l8.9,8.6L155.5,348.5z M144.6,336.2
			l3.9-1.1c1-0.2,1.8-0.8,2.4-1.6c0.4-0.8,0.5-1.8,0.2-2.6c-0.2-0.9-0.7-1.6-1.5-2.1c-0.9-0.4-1.9-0.5-2.8-0.1l-3.9,1.1L144.6,336.2
			z"/>
		<path class="st4" d="M181.3,337.2l-9.8,2.3l-0.5,5l-6.7,1.5l3.4-28.4l7.4-1.7l15.5,24l-6.7,1.6L181.3,337.2z M178.6,332.7
			l-5.5-8.9l-1,10.3L178.6,332.7z"/>
		<path class="st4" d="M197.6,338c-1.6-0.3-3-1-4.2-2.1c-1.2-1.1-2-2.6-2.3-4.2l6.9-1.2c0.3,1.7,2,2.8,3.6,2.5c0.1,0,0.1,0,0.2,0
			c0.8-0.1,1.6-0.5,2.2-1.1c0.5-0.5,0.7-1.3,0.5-2c-0.1-0.6-0.5-1.2-1-1.5c-0.6-0.4-1.2-0.6-1.8-0.8c-1-0.2-1.9-0.4-2.9-0.4
			c-1.5-0.2-3-0.4-4.5-0.8c-1.2-0.3-2.3-1-3.2-1.8c-1-1-1.7-2.4-1.9-3.8c-0.5-2.2,0.1-4.6,1.6-6.3c1.7-1.8,4.1-3,6.6-3.4
			c2.5-0.6,5.1-0.3,7.4,0.8c2,1.1,3.5,3,3.9,5.3l-7,1.3c-0.2-0.8-0.6-1.4-1.3-1.8c-0.7-0.4-1.6-0.5-2.4-0.3c-0.7,0.1-1.3,0.5-1.8,1
			c-0.4,0.5-0.6,1.3-0.4,1.9c0.1,0.8,0.8,1.5,1.6,1.8c1.3,0.4,2.7,0.7,4.1,0.9c1.5,0.2,3,0.5,4.5,0.9c1.2,0.3,2.3,1,3.2,1.8
			c1,1,1.7,2.3,1.9,3.7c0.3,1.4,0.1,2.9-0.4,4.3c-0.6,1.4-1.6,2.7-2.8,3.5c-1.5,1-3.2,1.7-5,2C201.1,338.3,199.3,338.3,197.6,338z"
			/>
		<path class="st4" d="M221.7,333.1c-2.2-0.9-4.2-2.3-5.6-4.2c-3-4-3.7-9.4-1.9-14.1c0.9-2.2,2.4-4.1,4.3-5.5c2-1.4,4.2-2.4,6.7-2.7
			c2.4-0.3,4.9-0.1,7.1,0.8c2.2,0.9,4.1,2.3,5.6,4.2c3,4.1,3.7,9.4,1.9,14.1c-0.9,2.2-2.4,4.1-4.3,5.5c-1.9,1.5-4.2,2.4-6.6,2.7
			C226.4,334.3,224,334,221.7,333.1z M229,301.1l-8.6,5l-0.6-4.5l8.6-5.6L229,301.1z M232.9,325.2c2.1-3.7,1.5-8.3-1.5-11.3
			c-1.5-1.3-3.5-1.8-5.4-1.4c-1.9,0.2-3.7,1.2-4.9,2.8c-2.1,3.7-1.5,8.3,1.5,11.3C225.8,329.1,230.4,328.4,232.9,325.2L232.9,325.2z
			"/>
		<path class="st4" d="M269.7,329.7l-6.5,0.5L251,314.5l1.3,16.5l-6.5,0.5l-2.1-26.8l6.5-0.5l12.2,15.8l-1.3-16.6l6.5-0.5
			L269.7,329.7z"/>
		<path class="st4" d="M302.7,328.9l-2.5-2.4c-2.5,1.9-5.7,3-8.9,2.9c-1.9,0-3.7-0.3-5.4-1c-1.4-0.6-2.7-1.6-3.6-2.8
			c-0.9-1.3-1.3-2.8-1.3-4.3c0-1.6,0.4-3.2,1.3-4.6c1-1.5,2.4-2.6,4-3.4c-0.6-0.7-1-1.4-1.4-2.3c-0.3-0.8-0.5-1.6-0.5-2.5
			c0-1.2,0.3-2.5,1-3.5c0.7-1.1,1.7-2,2.9-2.5c1.4-0.6,2.9-1,4.5-1c1.6-0.1,3.1,0.3,4.5,0.9c2.3,1.1,3.8,3.5,3.7,6l-6.2,0.1
			c0.1-0.6-0.1-1.2-0.5-1.6c-0.4-0.4-0.9-0.6-1.5-0.5c-0.6,0-1.1,0.2-1.5,0.5c-0.4,0.4-0.6,0.9-0.6,1.4c0,0.6,0.2,1.2,0.5,1.7
			c0.5,0.7,1,1.4,1.6,2l6.6,6.3c0-0.1,0.1-0.3,0.2-0.5s0.2-0.4,0.3-0.6l1.4-2.4l6.6-0.1l-1.8,3.4c-0.7,1.5-1.4,2.9-2.3,4.3l6.5,6.3
			L302.7,328.9z M296.1,322.6l-6-5.7c-1.8,1-2.7,2.2-2.7,3.9c0,0.9,0.4,1.8,1.2,2.4c0.9,0.7,2,1,3,1
			C293.2,324.1,294.8,323.6,296.1,322.6z"/>
		<path class="st4" d="M340.6,316.3c-0.8,1.3-2,2.3-3.5,2.9c-1.8,0.7-3.7,1.1-5.6,0.9l-4.1-0.2l-0.5,9.6l-6.5-0.4l1.5-26.9l10.6,0.6
			c1.9,0,3.7,0.5,5.4,1.4c1.4,0.7,2.5,1.9,3.2,3.2c0.7,1.4,1,3,0.9,4.5C341.8,313.6,341.4,315,340.6,316.3z M334.1,314.2
			c1.3-1.4,1.4-3.5,0.3-5c-0.8-0.7-1.7-1-2.8-1l-3.6-0.2l-0.4,6.7l3.5,0.2C332.3,315,333.3,314.8,334.1,314.2z"/>
		<path class="st4" d="M361.1,327.5l-10-1l-2.1,4.5l-6.8-0.7l12.5-25.7l7.5,0.8l6.9,27.8l-6.9-0.7L361.1,327.5z M359.9,322.3
			l-2.3-10.1l-4.3,9.5L359.9,322.3z"/>
		<path class="st4" d="M385.3,335.7l-4-10.9l-1.5-0.2l-1.5,10l-6.5-1l4-26.6l10.9,1.6c1.9,0.2,3.6,0.9,5.2,1.9
			c1.3,0.9,2.3,2.1,2.9,3.5c0.5,1.4,0.7,2.9,0.4,4.4c-0.2,1.7-1,3.3-2.2,4.5c-1.3,1.3-3,2.1-4.9,2.3l4.5,11.5L385.3,335.7z
			 M380.4,320l4,0.6c1,0.2,2,0.1,2.8-0.5c0.7-0.6,1.2-1.4,1.3-2.3c0.2-0.9,0-1.8-0.5-2.5c-0.6-0.7-1.6-1.2-2.5-1.3l-4-0.6L380.4,320
			z"/>
		<path class="st4" d="M409.6,340.1l-3.5-11l-1.5-0.3l-2,10l-6.4-1.3l5.2-26.5l10.8,2.1c1.8,0.3,3.6,1,5.1,2.1
			c1.2,0.9,2.2,2.2,2.7,3.6c0.5,1.4,0.6,3,0.2,4.4c-0.3,1.7-1.2,3.2-2.4,4.4c-1.4,1.2-3.1,2-5,2.1l4,11.7L409.6,340.1z M405.4,324.2
			l4,0.8c0.9,0.3,2,0.1,2.8-0.3c0.8-0.5,1.2-1.4,1.4-2.3c0.2-0.9,0.1-1.8-0.4-2.5c-0.6-0.8-1.5-1.3-2.5-1.4l-4-0.8L405.4,324.2z"/>
		<path class="st4" d="M432.9,317.7l-6.1,26.2l-6.4-1.5l6.1-26.2L432.9,317.7z"/>
		<path class="st4" d="M438.8,341.7l8.3,2.2l-1.3,4.9l-14.6-3.8l6.8-26l6.3,1.6L438.8,341.7z"/>
		<path class="st4" d="M456.4,346.6l8.2,2.4l-1.4,4.9l-14.5-4.2l7.5-25.8l6.3,1.8L456.4,346.6z"/>
		<path class="st4" d="M483.3,355.5l-9.5-3.4l-3.1,3.9l-6.5-2.3l18.2-22.1l7.1,2.5l0.2,28.6l-6.5-2.3L483.3,355.5z M483.4,350.2
			l0.1-10.4l-6.4,8.2L483.4,350.2z"/>
		<text transform="matrix(1 0 0 1 590.65 372.58)" class="st39 st40 st41"></text>
	</g>
</g>
</svg>
