<svg xmlns="http://www.w3.org/2000/svg" viewBox="0 0 1809.15 645.9"><defs><style>.cls-1{fill:#fff;}.cls-2{fill:#eb1c25;}</style></defs><g id="Capa_2" data-name="Capa 2"><g id="Capa_1-2" data-name="Capa 1"><path class="cls-1" d="M109.6,0c44,0,19.6,39.8.8,39.8-3.8,0-7.4-1.6-10.2-5.8,16.4-7,25.2-26,8.8-26C74,8,45,47.2,90,57.8V67c-28,0-67.4,16-67.4,47.8,0,17,9.8,31,27.4,31,26.6,0,48.2-39.8,43.4-64,45.4,6.6-.6,72.4-47.2,72.4-24,0-46.2-12.8-46.2-39C0,79.6,35.2,62,63.2,58.4,39.6,53.8,39,0,109.6,0Z"/><path class="cls-1" d="M182,103.2c-10.2,15.8-23.6,44-46,44-11.8,0-22-4.4-22-17.6,0-14.4,32.4-74.2,43.8-94.2C164.6,23.2,173,16,191.4,14.2,179.2,39,135,116.8,135,132.4c0,3.4,1.2,6.2,3.6,6.2,11,0,29.6-32.6,34.6-41Z"/><path class="cls-1" d="M285,43.6c10.4,0,16.8,5.2,20.2,12.6,5.6-6.2,12.4-12.6,21.8-12.6,13,0,21.6,6.6,21.6,16.4,0,11.8-27.2,51.2-27.2,69.4,0,3.6,1,6.6,3.6,6.6,12.2,0,26.2-24.6,34-38.4l8.8,5.6c-9.6,15.2-23.2,41.4-45.4,41.4-12.2,0-22-6.2-22-18,0-18.8,27.2-57.4,27.2-69.4,0-3.2-1.4-5.6-3.8-5.6-13.6,0-49.4,79.6-56.8,95.6-9.4-3.4-15.4-15.6-9.4-29,8.6-19.2,27.2-48.6,27.2-60.8,0-3.4-1.2-5.8-3.6-5.8-14,0-48.8,77.8-56.8,95.6-9.8-3.4-16.6-14.8-9.8-29L253,43.6c6,2,10.6,8.2,11.6,12.6C266.6,53.4,274.4,43.6,285,43.6Z"/><path class="cls-1" d="M387.8,138.6c20.6,0,40.6-23.6,51-41l8.8,5.6c-13.8,22.2-34.2,44-63.2,44-17.8,0-30.8-10.4-30.8-26.8,0-30.6,36-77.2,69.8-77.2,36.2,0,5.6,64.8-46.6,68.2C373.4,121.6,372.4,138.6,387.8,138.6ZM419,51.8c-14.6,0-33.2,36.2-39.2,51.4C410.2,100,431.8,51.8,419,51.8Z"/><path class="cls-1" d="M476.39,60c0,8.4-38.4,79.8-47.6,96.2-6,11-20.8,26.8-38.6,26.8-13.79,0-17.19-7.2-11.59-13.4,1.39,3,1.8,4,7.39,4,21.41,0,66.2-105.2,78-131.2C470,44.4,476.39,48.6,476.39,60Zm-5-36.8c0-6.8,7.2-13.8,14.8-13.8,5.8,0,9.6,3.2,9.6,7.8,0,6.8-7.4,13.8-15,13.8C475,31,471.39,27.6,471.39,23.2Z"/><path class="cls-1" d="M490.39,147.4c-14.4,0-21.8-8.4-21.8-22,0-33.2,37-81.8,72.4-81.8,11.4,0,20,7.4,20,20.2,0,15-8.8,35-18.2,48.6a9.68,9.68,0,0,0,5.4,1.8c8.4,0,17.4-10.8,20.6-16.6l8.8,5.6c-7.4,11.2-18.2,21.8-30.4,21.8a22.7,22.7,0,0,1-11.8-3.4C525.19,132.8,512.19,147.4,490.39,147.4ZM536.19,80c2.2-5.2,4.8-12.6,4.8-19,0-4-1.4-8.8-4.4-8.8-20.2,0-47,58.6-47,76.8,0,4.6,1.2,9.4,5.4,9.4,9.4,0,22.6-20.2,28-29.2C521.19,98.2,528.39,85.4,536.19,80Z"/><path class="cls-1" d="M568.79,97.6c20-35.2,25.6-57.2,26.2-65.6h20l-5.8,13a34.71,34.71,0,0,1,10.6-1.6c10.6,0,22.2,4.2,22.2,15.6,0,17.6-30,53.2-30,73,0,3.6.8,6.6,2.8,6.6,9.8,0,30.8-33,35.6-41l8.8,5.6c-10,14.8-26,44-47,44-11.6,0-21.2-7-21.2-18,0-16.8,30-61.2,30-70.2,0-5.6-4-7.6-8.4-7.6a16.61,16.61,0,0,0-7.8,1.8,498,498,0,0,1-27.2,50C572.19,102.8,570,100.4,568.79,97.6Z"/><path class="cls-1" d="M702.59,145.8a24.43,24.43,0,0,1-5.2-.6l7-14.2c-1.2-7.8,2.4-13.8,9.6-17.2,7.2-11.6,22.2-38,33-56.6,5.4-9.4,11.4-15,19.4-15,3.8,0,8,1.2,12.8,3.8a25.4,25.4,0,0,0-5,16c0,11.2,1.6,22.4,1.6,33.6,0,28.6-13.8,51.6-45.8,51.6-6.4,0-13-1.8-17-5.4C711.39,143.6,708,145.8,702.59,145.8Zm27.4-7.2c22.4,0,24.8-25.2,24.8-42.8,0-8.8-.8-21.2-1.4-29.8L719,132S722.59,138.6,730,138.6Z"/><path class="cls-1" d="M803.79,147.2c-12.4,0-22-8.2-22-22,0-31.6,39.6-82,76.6-82,26,0,25,26.4,1.2,27.8,3.2-6.2,2.8-19.2-5.6-19.2-20.8,0-51.2,59.6-51.2,78.6,0,3.8.8,8.2,4.2,8.2,14.8,0,31.2-35.4,45-64.6,8.8,3.6,13.2,11.4,13.2,16.2,0,11.4-26.2,45.8-13.8,45.8,10.8,0,28.8-28.6,34.8-38.4l8.8,5.6c-16.6,24.2-27,41.4-46.2,41.4-13,0-16.6-7.4-17.8-13C824.39,139.8,815,147.2,803.79,147.2Z"/><path class="cls-1" d="M899.38,147.4c-12,0-21.6-7-21.6-20.8,0-17.6,28.2-72.2,38.2-91.4,6.6-12.8,14.8-18.8,33-21l-17.8,36c5-4.8,12.4-6.6,18.4-6.6,13.2.2,20.8,8.8,20.8,20.2,0,16-9.2,34.8-18.2,48.6a8.24,8.24,0,0,0,5.4,2c8,0,17.2-11,20.4-16.8l8.8,5.6c-7.8,12-18.4,21.8-30.2,21.8a22.86,22.86,0,0,1-12-3.4C934.18,133,920,147.4,899.38,147.4Zm46-67.4c2-5.2,4.6-12.8,4.6-19,0-3.6-.2-9.2-3.8-9.2-21.2,0-47.4,59-47.4,77.6,0,4,.8,9.4,4.8,9.4,9.4,0,23-20.4,28.6-29.4C929.58,97.2,939,84.2,945.38,80Z"/><path class="cls-1" d="M993,147.4c-14.4,0-21.79-8.4-21.79-22,0-33.2,37-81.8,72.39-81.8,11.4,0,20,7.4,20,20.2,0,15-8.8,35-18.2,48.6a9.68,9.68,0,0,0,5.4,1.8c8.4,0,17.4-10.8,20.6-16.6l8.8,5.6c-7.4,11.2-18.2,21.8-30.4,21.8a22.7,22.7,0,0,1-11.8-3.4C1027.78,132.8,1014.78,147.4,993,147.4Zm45.8-67.4c2.2-5.2,4.8-12.6,4.8-19,0-4-1.4-8.8-4.4-8.8-20.2,0-47,58.6-47,76.8,0,4.6,1.2,9.4,5.4,9.4,9.4,0,22.6-20.2,28-29.2C1023.78,98.2,1031,85.4,1038.78,80Z"/><path class="cls-1" d="M1071.38,97.6c20-35.2,25.6-57.2,26.2-65.6h20l-5.8,13a34.71,34.71,0,0,1,10.6-1.6c10.6,0,22.2,4.2,22.2,15.6,0,17.6-30,53.2-30,73,0,3.6.8,6.6,2.8,6.6,9.8,0,30.8-33,35.6-41l8.8,5.6c-10,14.8-26,44-47,44-11.6,0-21.2-7-21.2-18,0-16.8,30-61.2,30-70.2,0-5.6-4-7.6-8.4-7.6a16.61,16.61,0,0,0-7.8,1.8,498,498,0,0,1-27.2,50C1074.78,102.8,1072.58,100.4,1071.38,97.6Z"/><path class="cls-2" d="M44.28,207.07v27.51H88.63v25.57H44.28V290H94.45v26.54H11.15v-136h83.3v26.54Z"/><path class="cls-2" d="M237.59,316.52H204.47l-55.4-83.88v83.88H115.94v-136h33.13l55.4,84.27V180.53h33.12Z"/><path class="cls-2" d="M335.22,180.53v81.36q0,12.21,6,18.79t17.62,6.59q11.63,0,17.83-6.59t6.2-18.79V180.53H416V261.7q0,18.21-7.75,30.8a49.68,49.68,0,0,1-20.82,19,65.54,65.54,0,0,1-29.16,6.39,63.89,63.89,0,0,1-28.76-6.29,47,47,0,0,1-20.05-19q-7.36-12.68-7.36-30.89V180.53Z"/><path class="cls-2" d="M560.89,316.52H527.77l-55.4-83.88v83.88H439.24v-136h33.13l55.4,84.27V180.53h33.12Z"/><path class="cls-2" d="M648.45,313a43.61,43.61,0,0,1-18.89-14.33q-7.06-9.49-7.46-22.86h35.26c.51,5,2.26,8.88,5.23,11.52s6.84,4,11.62,4,8.78-1.12,11.62-3.39a11.32,11.32,0,0,0,4.26-9.39,11.13,11.13,0,0,0-3.39-8.33,27.42,27.42,0,0,0-8.32-5.42,135.06,135.06,0,0,0-14-4.85,152.88,152.88,0,0,1-21.5-8.13,39.74,39.74,0,0,1-14.33-12q-6-8-6-20.73,0-19,13.75-29.73t35.84-10.76q22.47,0,36.22,10.76T723,219.27H687.19a14,14,0,0,0-4.84-10.36,17.07,17.07,0,0,0-11.43-3.78,14.24,14.24,0,0,0-9.69,3.2q-3.68,3.19-3.68,9.2,0,6.58,6.2,10.27t19.37,7.94a179.83,179.83,0,0,1,21.41,8.52,40.71,40.71,0,0,1,14.23,11.82q6,7.76,6,19.95a39.16,39.16,0,0,1-5.91,21.12,41.38,41.38,0,0,1-17.14,15.1q-11.24,5.63-26.54,5.62A69.86,69.86,0,0,1,648.45,313Z"/><path class="cls-2" d="M774.26,309a66.72,66.72,0,0,1-25.38-24.89,69.58,69.58,0,0,1-9.39-35.93q0-19.95,9.39-35.84a66.89,66.89,0,0,1,25.38-24.79,73.76,73.76,0,0,1,70.32,0,65.46,65.46,0,0,1,25.18,24.79q9.19,15.88,9.2,35.84a70.1,70.1,0,0,1-9.3,35.93A66.13,66.13,0,0,1,844.48,309a73.63,73.63,0,0,1-70.22,0Zm61.21-32.15q9.78-10.86,9.78-28.67,0-18-9.78-28.77t-26.05-10.75q-16.47,0-26.25,10.65t-9.78,28.87q0,18,9.78,28.76t26.25,10.75Q825.7,287.65,835.47,276.81Z"/><path class="cls-2" d="M930.49,291h43.39v25.57H897.36v-136h33.13Z"/><path class="cls-2" d="M1018.91,309a66.62,66.62,0,0,1-25.37-24.89,69.49,69.49,0,0,1-9.4-35.93q0-19.95,9.4-35.84a66.79,66.79,0,0,1,25.37-24.79,73.76,73.76,0,0,1,70.32,0,65.4,65.4,0,0,1,25.18,24.79q9.19,15.88,9.2,35.84a70.1,70.1,0,0,1-9.3,35.93A66.06,66.06,0,0,1,1089.13,309a73.63,73.63,0,0,1-70.22,0Zm61.22-32.15q9.78-10.86,9.78-28.67,0-18-9.78-28.77t-26.06-10.75q-16.47,0-26.25,10.65T1018,248.14q0,18,9.78,28.76t26.25,10.75Q1070.35,287.65,1080.13,276.81Z"/><path class="cls-2" d="M1216.2,291h43.39v25.57h-76.51v-136h33.12Z"/><path class="cls-2" d="M1308,180.53v81.36q0,12.21,6,18.79t17.62,6.59q11.63,0,17.82-6.59t6.2-18.79V180.53h33.13V261.7q0,18.21-7.75,30.8a49.68,49.68,0,0,1-20.82,19,65.54,65.54,0,0,1-29.16,6.39,63.89,63.89,0,0,1-28.76-6.29,46.91,46.91,0,0,1-20-19q-7.37-12.68-7.36-30.89V180.53Z"/><path class="cls-2" d="M1502.31,223.54a24.86,24.86,0,0,0-10.56-10.37,34.49,34.49,0,0,0-16.17-3.58q-16.08,0-25.77,10.56t-9.68,28.18q0,18.79,10.17,29.35t28,10.55q12.21,0,20.63-6.19t12.3-17.83h-42v-24.4h72.07v30.8a65,65,0,0,1-12.5,23.05,66,66,0,0,1-22.37,17.24q-13.56,6.59-30.61,6.58-20.14,0-35.93-8.81a62.66,62.66,0,0,1-24.6-24.5q-8.82-15.69-8.82-35.84t8.82-35.93a62.66,62.66,0,0,1,24.5-24.6q15.69-8.82,35.84-8.82,24.4,0,41.16,11.82t22.18,32.74Z"/><path class="cls-2" d="M1644.3,292.5h-50.75l-8.14,24h-34.67l49.2-136h38.35l49.2,136h-35.06Zm-8.53-25.57-16.85-49.79-16.66,49.79Z"/><path class="cls-2" d="M1771.76,316.52l-28.28-51.34h-7.94v51.34h-33.13v-136H1758q16.08,0,27.42,5.62t16.95,15.4a43,43,0,0,1,5.61,21.79,40.52,40.52,0,0,1-7.65,24.22q-7.65,10.65-22.57,15.1l31.39,53.86Zm-36.22-74.78h20.53q9.11,0,13.66-4.45t4.55-12.59c0-5.17-1.52-9.23-4.55-12.21s-7.59-4.45-13.66-4.45h-20.53Z"/><rect class="cls-2" x="11.15" y="446.84" width="1006.73" height="199.06" rx="99.53"/><path class="cls-1" d="M247,545.24a18.91,18.91,0,0,1-7.9,7.48,27.77,27.77,0,0,1-13.22,2.85h-9.73v23.14H200.42V514.25h25.44a28.89,28.89,0,0,1,13,2.66,18.3,18.3,0,0,1,8,7.34A21.45,21.45,0,0,1,249.55,535,20.81,20.81,0,0,1,247,545.24ZM231.37,541a9.2,9.2,0,0,0,0-11.94c-1.47-1.41-3.71-2.11-6.7-2.11h-8.54v16.16h8.54C227.66,543.08,229.9,542.38,231.37,541Z"/><path class="cls-1" d="M258.87,519.71a7.91,7.91,0,0,1-2.62-6,8,8,0,0,1,2.62-6.1,9.55,9.55,0,0,1,6.75-2.44,9.43,9.43,0,0,1,6.66,2.44,8,8,0,0,1,2.62,6.1,7.91,7.91,0,0,1-2.62,6,9.42,9.42,0,0,1-6.66,2.43A9.54,9.54,0,0,1,258.87,519.71Zm14.56,7.76v51.24H257.72V527.47Z"/><path class="cls-1" d="M284.68,539.13A22.14,22.14,0,0,1,292.8,530a21.26,21.26,0,0,1,11.48-3.22,20.15,20.15,0,0,1,9.23,2.12,16.84,16.84,0,0,1,6.57,5.69V510.76h15.7v68h-15.7v-7.35a16,16,0,0,1-6.29,5.88,19.75,19.75,0,0,1-9.51,2.2,21,21,0,0,1-11.48-3.26,22.4,22.4,0,0,1-8.12-9.27,33.76,33.76,0,0,1,0-27.78Zm32.14,4.68a11.05,11.05,0,0,0-15.89,0q-3.26,3.35-3.26,9.23t3.26,9.32a10.94,10.94,0,0,0,15.89,0q3.26-3.39,3.26-9.27T316.82,543.81Z"/><path class="cls-1" d="M395.19,556.85H359.65c.25,3.19,1.27,5.62,3.08,7.3a9.36,9.36,0,0,0,6.66,2.53q5.87,0,8.17-5h16.71a23,23,0,0,1-4.63,9.09,23.2,23.2,0,0,1-8.41,6.34,27,27,0,0,1-11.29,2.29,27.53,27.53,0,0,1-13.41-3.21,22.79,22.79,0,0,1-9.18-9.18,28.28,28.28,0,0,1-3.31-14,28.71,28.71,0,0,1,3.26-14,22.51,22.51,0,0,1,9.14-9.18,27.72,27.72,0,0,1,13.5-3.22,27.41,27.41,0,0,1,13.22,3.13,22.47,22.47,0,0,1,9,8.9,27.09,27.09,0,0,1,3.26,13.5A40.91,40.91,0,0,1,395.19,556.85Zm-15.79-8.72a8.09,8.09,0,0,0-2.76-6.43,10.14,10.14,0,0,0-6.89-2.39,9.92,9.92,0,0,0-6.65,2.3,10.21,10.21,0,0,0-3.36,6.52Z"/><path class="cls-1" d="M423.06,539.13a22.23,22.23,0,0,1,8.13-9.18,21.21,21.21,0,0,1,11.48-3.22,19.69,19.69,0,0,1,9.5,2.21,16.32,16.32,0,0,1,6.29,5.78v-7.25h15.7v51.24h-15.7v-7.25a17,17,0,0,1-6.38,5.78,19.73,19.73,0,0,1-9.51,2.2,20.74,20.74,0,0,1-11.38-3.26,22.49,22.49,0,0,1-8.13-9.27,33.86,33.86,0,0,1,0-27.78Zm32.14,4.68a11.05,11.05,0,0,0-15.89,0q-3.26,3.35-3.26,9.23t3.26,9.32a10.94,10.94,0,0,0,15.89,0q3.26-3.39,3.26-9.27T455.2,543.81Z"/><path class="cls-1" d="M504.88,539.13A22.28,22.28,0,0,1,513,530a21.26,21.26,0,0,1,11.48-3.22,20.12,20.12,0,0,1,9.23,2.12,16.77,16.77,0,0,1,6.57,5.69V510.76H556v68h-15.7v-7.35a16,16,0,0,1-6.29,5.88,19.73,19.73,0,0,1-9.51,2.2A21,21,0,0,1,513,576.18a22.54,22.54,0,0,1-8.12-9.27,33.76,33.76,0,0,1,0-27.78ZM537,543.81a11.05,11.05,0,0,0-15.89,0q-3.25,3.35-3.26,9.23t3.26,9.32a10.94,10.94,0,0,0,15.89,0q3.26-3.39,3.26-9.27T537,543.81Z"/><path class="cls-1" d="M577.15,576.23a23.47,23.47,0,0,1-9.46-9.18,29.72,29.72,0,0,1,0-27.87,23.69,23.69,0,0,1,9.55-9.23,30.31,30.31,0,0,1,27.19,0,23.69,23.69,0,0,1,9.55,9.23,27.26,27.26,0,0,1,3.49,13.91A26.89,26.89,0,0,1,614,567a23.91,23.91,0,0,1-9.64,9.23,28.86,28.86,0,0,1-13.64,3.21A28.29,28.29,0,0,1,577.15,576.23Zm21.21-13.68q3.17-3.31,3.17-9.46t-3.08-9.46a10.46,10.46,0,0,0-15.2,0q-3,3.27-3,9.51t3,9.46a9.66,9.66,0,0,0,7.48,3.3A10.24,10.24,0,0,0,598.36,562.55Z"/><path class="cls-1" d="M706.44,532.7q5.65,5.79,5.65,16.07v29.94H696.48V550.89q0-5-2.62-7.67a10.95,10.95,0,0,0-14.42,0q-2.61,2.7-2.61,7.67v27.82H661.22V550.89c0-3.31-.88-5.87-2.62-7.67a10.95,10.95,0,0,0-14.42,0c-1.74,1.8-2.62,4.36-2.62,7.67v27.82h-15.7V527.47h15.7v6.43a16.89,16.89,0,0,1,6.25-5.1,19.69,19.69,0,0,1,8.72-1.88,21.13,21.13,0,0,1,10.33,2.48,17.74,17.74,0,0,1,7.12,7.07,20.69,20.69,0,0,1,7.25-6.89,19.68,19.68,0,0,1,10-2.66Q700.8,526.92,706.44,532.7Z"/><path class="cls-1" d="M724.26,519.71a7.87,7.87,0,0,1-2.62-6,8,8,0,0,1,2.62-6.1,9.52,9.52,0,0,1,6.75-2.44,9.39,9.39,0,0,1,6.65,2.44,8,8,0,0,1,2.62,6.1,7.87,7.87,0,0,1-2.62,6,9.38,9.38,0,0,1-6.65,2.43A9.51,9.51,0,0,1,724.26,519.71Zm14.55,7.76v51.24h-15.7V527.47Z"/><path class="cls-1" d="M750.34,539.13a22.58,22.58,0,0,1,9.09-9.18,27.23,27.23,0,0,1,13.36-3.22q9.65,0,16.11,5T797.4,546H780.69q-2.12-5.88-8.18-5.88a8.23,8.23,0,0,0-6.88,3.35q-2.58,3.36-2.58,9.6t2.58,9.6a8.23,8.23,0,0,0,6.88,3.35q6.06,0,8.18-5.88H797.4a24.1,24.1,0,0,1-8.54,14.14q-6.52,5.15-16.07,5.14a27.22,27.22,0,0,1-13.36-3.21,22.58,22.58,0,0,1-9.09-9.18,31.52,31.52,0,0,1,0-27.92Z"/><path class="cls-1" d="M806.9,519.71a7.91,7.91,0,0,1-2.62-6,8,8,0,0,1,2.62-6.1,9.55,9.55,0,0,1,6.75-2.44,9.43,9.43,0,0,1,6.66,2.44,8,8,0,0,1,2.62,6.1,7.91,7.91,0,0,1-2.62,6,9.42,9.42,0,0,1-6.66,2.43A9.54,9.54,0,0,1,806.9,519.71Zm14.56,7.76v51.24H805.75V527.47Z"/><path class="cls-1" d="M848.55,510.76v68H832.84v-68Z"/><path class="cls-1" d="M861.08,519.71a7.91,7.91,0,0,1-2.62-6,8,8,0,0,1,2.62-6.1,9.55,9.55,0,0,1,6.75-2.44,9.43,9.43,0,0,1,6.66,2.44,8,8,0,0,1,2.62,6.1,7.91,7.91,0,0,1-2.62,6,9.42,9.42,0,0,1-6.66,2.43A9.54,9.54,0,0,1,861.08,519.71Zm14.56,7.76v51.24H859.93V527.47Z"/><path class="cls-1" d="M896.8,576.23a23.53,23.53,0,0,1-9.46-9.18,27.49,27.49,0,0,1-3.44-14,27.16,27.16,0,0,1,3.49-13.91,23.69,23.69,0,0,1,9.55-9.23,30.29,30.29,0,0,1,27.18,0,23.63,23.63,0,0,1,9.55,9.23,29.32,29.32,0,0,1,0,27.82,23.87,23.87,0,0,1-9.65,9.23,28.82,28.82,0,0,1-13.63,3.21A28.33,28.33,0,0,1,896.8,576.23ZM918,562.55q3.16-3.31,3.16-9.46t-3.07-9.46a10.46,10.46,0,0,0-15.2,0q-3,3.27-3,9.51t3,9.46a9.68,9.68,0,0,0,7.49,3.3A10.26,10.26,0,0,0,918,562.55Z"/><circle class="cls-1" cx="105.82" cy="547.35" r="53.02"/></g></g></svg>