<svg xmlns="http://www.w3.org/2000/svg" xmlns:xlink="http://www.w3.org/1999/xlink" viewBox="0 0 1478.74 1002.67"><defs><style>.cls-1{fill:url(#Degradado_sin_nombre_3);}.cls-2{fill:#351e0f;}.cls-3{fill:#eb1c25;}.cls-4{fill:#fbfbfb;}.cls-5{fill:#eb1c24;}.cls-6{fill:#90320c;}.cls-7{fill:#e81b25;}.cls-8{fill:#f1a53f;}.cls-9{fill:#f8f8f9;}.cls-10{fill:#e4c1b4;}.cls-11{fill:#f9f8f9;}.cls-12{fill:#8f310f;}.cls-13{fill:#e91c25;}.cls-14{fill:#aab2ba;}.cls-15{fill:#b7652f;}.cls-16{fill:#e41b26;}.cls-17{fill:#f8f7f9;}.cls-18{fill:#e4bfb2;}.cls-19{fill:#f7f4f2;}.cls-20{fill:#a9b1b9;}.cls-21{fill:#dfb5aa;}.cls-22{fill:#eeedf0;}.cls-23{fill:#e7deda;}.cls-24{fill:#371e50;}.cls-25{fill:#75270c;}.cls-26{fill:#f24452;}.cls-27{fill:#c48660;}.cls-28{fill:#c4865f;}.cls-29{fill:#673615;}.cls-30{fill:#7f1618;}.cls-31{fill:#7e1517;}.cls-32{fill:#3c3b3d;}.cls-33{fill:#dd3039;}.cls-34{fill:#e2212a;}.cls-35{fill:#b10309;}.cls-36{fill:#bbbcbe;}.cls-37{fill:#262122;}.cls-38{fill:#ededeb;}.cls-39{fill:#f2f2f0;}.cls-40{fill:#fff;}.cls-41{fill:#fccd1b;}</style><linearGradient id="Degradado_sin_nombre_3" x1="451.95" y1="316.75" x2="932.88" y2="316.75" gradientUnits="userSpaceOnUse"><stop offset="0" stop-color="#f2602f"/><stop offset="1" stop-color="#fac41c"/></linearGradient></defs><g id="Capa_2" data-name="Capa 2"><g id="Capa_1-2" data-name="Capa 1"><path class="cls-1" d="M904.93,430.1q-2.8,5.28-5.89,10.45-4.74,7.95-10.17,15.62-4.71,6.66-9.93,13.07c-1.49,1.83-3,3.65-4.57,5.45q-1.22,1.4-2.46,2.79c-1.26,1.42-2.53,2.82-3.83,4.2a238.24,238.24,0,0,1-17.49,16.94q-3.52,3.09-7.14,6a237.65,237.65,0,0,1-27.92,19.46q-7.06,4.21-14.35,7.91c-1.21.61-2.43,1.22-3.66,1.81l-1,.47A238.68,238.68,0,0,1,764,547.07a241.17,241.17,0,0,1-43.39,9.22Q708.83,556,697,556c-10.22,0-20.62.17-31,.52a239.38,239.38,0,0,1-43.68-9,236.58,236.58,0,0,1-26.93-10A233.33,233.33,0,0,1,572.49,526q-3.56-2-7.07-4.23c-2.17-1.36-4.33-2.74-6.47-4.18s-4.34-3-6.49-4.5l-2.27-1.64q-9.13-6.73-17.78-14.42-4.44-4-8.65-8.1-2.61-2.55-5.12-5.18-6.32-6.58-12-13.53c-1.62-1.94-3.18-3.91-4.71-5.9a236.54,236.54,0,0,1-15.21-22.16c-2.1-3.45-4.09-6.95-6-10.48-46.64-86.51-37-196.53,32.21-274.15C601.28,58.34,753.28,49.61,852.42,138,936.8,213.2,955.68,334.53,904.93,430.1Z"/><path class="cls-2" d="M981.07,349.06a302.18,302.18,0,0,1-29.48,94.25c-1.8,3.56-3.72,7.18-5.72,10.78-2.7,4.86-5.55,9.67-8.47,14.29-2.1,3.34-4.31,6.7-6.76,10.25s-5,7.08-7.66,10.63l-.49.65h0c-3,3.93-6.06,7.8-9.19,11.52-2,2.39-4.12,4.86-6.31,7.31l-.25.28c-.75.85-1.51,1.68-2.26,2.51-4.23,4.63-8.7,9.23-13.28,13.66-3.25,3.15-6.65,6.29-10.07,9.31-2,1.82-4.17,3.65-6.28,5.4-.12.1-.25.22-.4.33-.68.58-1.36,1.14-2.05,1.69-3.61,3-7.31,5.86-11,8.59-6.44,4.81-13.19,9.43-20,13.71-5.36,3.35-10.86,6.56-16.37,9.54l-3,1.62-3.36-.48c-3.81-.54-7.66-1.07-11.49-1.57-2.27-.29-4.55-.58-6.81-.85-1.54-.2-3.06-.38-4.58-.56-7.17-.85-14.52-1.61-21.83-2.27l-1-8.16-.16-1.3c7.78-2.76,18.46-6.88,25-9.86a254.87,254.87,0,0,0,25-13.09,249.09,249.09,0,0,0,22-14.72,254,254,0,0,0,25-21.24l.83-.81q4.41-4.31,8.65-8.87,1.92-2,3.78-4.14l.29-.33q8.43-9.5,15.75-19.56,3.29-4.5,6.35-9.11,4.77-7.2,9-14.63c2-3.44,3.85-6.93,5.64-10.44,51.77-101.33,31.08-228.6-57.84-307.85C756.66,31.34,594.62,40.66,500.41,146.34,427.6,228,416.63,343.36,464.18,435q2.74,5.27,5.74,10.44a253.22,253.22,0,0,0,21.75,31.71c1.64,2.05,3.31,4.07,5,6.08a257.48,257.48,0,0,0,24.5,25c.41.37.82.74,1.24,1.1q3.43,3,7,5.91,7.4,6.06,15.09,11.47c3,2.12,6,4.15,9.09,6.12,1,.65,2,1.3,3.06,1.93,2.67,1.67,5.37,3.27,8.07,4.82q11.06,6.31,22.55,11.44c6.22,2.79,17,7.72,25.07,10.85l-.27,2.43-.68,5.95c-8.92.85-17.88,1.84-26.83,3-8.17,1-16.34,2.18-24.46,3.44q-5.65.87-11.29,1.81l-3.34.56-3-1.54c-5.58-2.84-11.17-5.91-16.62-9.12a305.91,305.91,0,0,1-47.9-35c-2.57-2.29-5.07-4.6-7.42-6.85-1.4-1.32-2.88-2.77-4.38-4.25-5.92-5.86-11.61-12-16.89-18.14a305.37,305.37,0,0,1-20.83-27.27c-3.52-5.18-6.9-10.52-10.06-15.89-2-3.36-4-6.83-6-10.58A303.91,303.91,0,1,1,981.07,349.06Z"/><path class="cls-3" d="M875.51,87.36C754.47-20.54,568.87-9.88,461,111.17c-84.37,94.65-96.26,228.77-39.56,334.35q2.79,5.18,5.78,10.26,4.59,7.79,9.71,15.33A290.73,290.73,0,0,0,457,497.46q7.72,9,16.31,17.53,2.1,2.09,4.26,4.13,3.51,3.35,7.16,6.6a294.92,294.92,0,0,0,46.28,33.83c4.34,2.56,20.45,12.24,29,17.13,1.85,1.05,3.35,1.87,4.3,2.37a99.89,99.89,0,0,0,20.16-5.81c8.82-3.42,16.85-7.15,27.51-8.92,1.63-.27,3.33-.49,5.11-.66-1.42-.47-3.06-1.08-4.84-1.77-8-3.13-18.85-8.06-25.07-10.85q-11.47-5.12-22.55-11.44c-2.7-1.55-5.4-3.15-8.07-4.82-1-.63-2-1.28-3.06-1.93-3.06-2-6.09-4-9.09-6.12q-7.71-5.4-15.09-11.47-3.52-2.88-7-5.91c-.42-.36-.83-.73-1.24-1.1a257.48,257.48,0,0,1-24.5-25c-1.72-2-3.39-4-5-6.08a253.22,253.22,0,0,1-21.75-31.71q-3-5.18-5.74-10.44c-47.55-91.67-36.58-207,36.23-288.69,94.21-105.68,256.25-115,361.92-20.79,88.92,79.25,109.61,206.52,57.84,307.85-1.79,3.51-3.67,7-5.64,10.44q-4.24,7.43-9,14.63-3.06,4.61-6.35,9.11-7.3,10.07-15.75,19.56l-.29.33q-1.86,2.1-3.78,4.14-4.23,4.56-8.65,8.87l-.83.81a254,254,0,0,1-25,21.24,249.09,249.09,0,0,1-22,14.72,254.87,254.87,0,0,1-25,13.09c-6.56,3-17.24,7.1-25,9.86-1.12.4-2.2.78-3.18,1.11,1,.09,2.14.15,3.34.19,7.47.22,17.71-.51,24,.24,5.61.66,2.61,6.91,3.38,10.75a3.42,3.42,0,0,0,3.27,2.9c.83-.45,2-1.16,3.54-2,8.14-4.84,24.35-15.06,28.74-17.81q9.9-6.19,19.37-13.26,5.4-4,10.64-8.31c.7-.56,1.39-1.13,2.08-1.71l.18-.15c2.07-1.72,4.13-3.49,6.15-5.29q4.95-4.35,9.73-9,6.57-6.36,12.84-13.21c.74-.81,1.48-1.62,2.2-2.44l.23-.25q3.12-3.5,6.1-7.07,4.86-5.81,9.35-11.76h0q3.83-5.08,7.4-10.27,3.38-4.9,6.53-9.91,4.31-6.81,8.19-13.81,2.88-5.16,5.52-10.4C1000.89,322.83,977,177.8,875.51,87.36Z"/><path class="cls-2" d="M747,134.42c0,.72-.08,1.44-.13,2.16a24.78,24.78,0,0,1,11.26,3.54c-.15-2.56-.27-5.09-.38-7.6-.06-1.41-.12-2.81-.19-4.2a179.82,179.82,0,0,0-2-22.52,131.28,131.28,0,0,0-3.81-16.14C747,74.31,739.38,61.31,728,51.26a82.64,82.64,0,0,0-28-16h0q-4.66-1.65-9.79-2.92h0l-.37-.09a64.53,64.53,0,0,0-16.33-1.91h0a60.44,60.44,0,0,0-9.37.84,56.75,56.75,0,0,0-8.59,2.13h0a56.7,56.7,0,0,0-8.4,3.52h0a58.94,58.94,0,0,0-17.63,14,63,63,0,0,0-7,10c-.72,1.27-1.62,2.44-1.83,2.76-7.45,0-14-.32-20.52.05a52.52,52.52,0,0,0-17.59,4.08,51.62,51.62,0,0,0-16.2,10.81c-.72.71-1.43,1.45-2.11,2.21a51.45,51.45,0,0,0-7.3,10.39,50.58,50.58,0,0,0-4.19,10.46.39.39,0,0,1,.15,0l2.1-.25c.76-.08,1.52-.16,2.28-.21s1.51-.12,2.27-.17l2.3-.11,1.69-.05c.34-.87.72-1.72,1.13-2.56.21-.42.42-.83.64-1.24s.44-.81.67-1.21l.72-1.19c.25-.39.5-.78.76-1.15s.53-.76.8-1.13.55-.74.83-1.1h0a43.39,43.39,0,0,1,5.72-6c.17-.16.35-.32.53-.46l.14-.12c.3-.26.61-.51.93-.76s.85-.67,1.29-1l.07,0c.46-.34.92-.67,1.39-1,.28-.2.57-.38.85-.56s.45-.29.67-.43a45.28,45.28,0,0,1,4.24-2.37l.75-.37.87-.39c.33-.16.67-.3,1-.45L589,76.6c.38-.15.76-.28,1.15-.41s.7-.24,1.06-.35c.55-.18,1.11-.34,1.66-.49.37-.11.74-.2,1.11-.29,0,0,0,0,0,0,.37-.09.74-.18,1.11-.25l.32-.07.9-.17c.5-.1,1-.18,1.49-.24s.83-.12,1.24-.16c6.2-.65,12.44-.9,18.38,1.73l9.18,1.58c3.93-9.87,7.19-19.38,16.22-25.13a48.67,48.67,0,0,1,21.53-10.7,50,50,0,0,1,20.81.4,94.24,94.24,0,0,1,19.62,6.39h0a66,66,0,0,1,10.25,5.83h0l.62.44c13.55,9.62,21.35,23.18,26.33,38.69q1.08,3.38,1.91,6.75h0A112,112,0,0,1,747,122.24c.11,2.48.13,5,.1,7.44C747.11,131.26,747.06,132.84,747,134.42ZM651,152.5l-1.89.75-.68.28c-.71.3-1.42.6-2.12.92-.53.23-1.06.47-1.58.72l-.72.33c-.64.3-1.29.62-1.92.94l-1.88.95c-.83.44-1.65.88-2.47,1.34l-1.94,1.1c-.58.35-1.16.69-1.72,1s-1.29.78-1.92,1.18l-.93.6a129.13,129.13,0,0,1,26.24-12.22c0-.06.1-.12.15-.18C655.41,150.89,653.21,151.64,651,152.5Z"/><path class="cls-2" d="M660.13,149.55l-1,.28c-.5.13-1,.27-1.47.42-.05.06-.11.12-.15.18,1.78-.59,3-1,3.59-1.11l-.29.07Zm-97-48c-.28.73-.52,1.47-.75,2.23C562.64,103,562.89,102.24,563.16,101.51Z"/><path class="cls-2" d="M836.29,438.46c-.8-2.07-1.73-4.35-1.62-6.47.68-12.75-2.22-24.53-9-34.82,2.72-5.33,5.21-10.2,7.78-15.25a30.18,30.18,0,0,0-3.17-1.81c-17.48-6.92-28.85-19.95-36.62-36.56-6.07-12.95-9.1-26.75-10.68-40.88-.59-5.26-2-10.54-1-16.82,5.94,4.58,11,8.5,16.37,12.61,6.14-24.56,8.37-47.82-8.68-68.2,4.06-15.38,4.08-23.17-.81-32.79a21,21,0,0,1-2.18-11.54c.12-1.8.15-3.56.1-5.27a47.22,47.22,0,0,0-.93-8.46c0-.18-.08-.35-.11-.53l.31.38a.93.93,0,0,0,.15-.13c-.56-3-4.84-22-20.56-25.44l.07.08-.24-.12a48.05,48.05,0,0,0-6.95-2.61c-.42-.13-.72-.63-.24-.18-.08-1.19-.15-2.36-.21-3.53a24.78,24.78,0,0,0-11.26-3.54c-.07,1.32-.17,2.63-.29,3.95-.41,4.81-2.81,9.45-4.29,14.16a30.29,30.29,0,0,1-12.48,16.86c-5-4.07-9.73-8.5-15-12.14-12.34-8.5-25.24-12.44-38.6-12.16l-.75,0-.67,0-.93,0-1.73.12-1.12.1-1.42.16-.88.12-1.83.27c-.64.1-1.29.21-1.94.35l-1,.19c-.85.17-1.71.36-2.56.57h0l-.1,0-.09,0-.13,0c-.56.16-1.81.52-3.59,1.11a129.13,129.13,0,0,0-26.24,12.22c-.08,0-.14.09-.22.14-.53.34-1.06.69-1.58,1.05s-.91.61-1.36.93l-.84.58c-1,.66-1.88,1.35-2.82,2.05l-.88.66-1.19.91-.92.72c-.49.38-1,.77-1.44,1.16l-1.63,1.34-.1.09,0,0q-1.82,1.53-3.59,3.12c-.38.34-.76.67-1.13,1l-.06.05h0c-.85.77-1.7,1.57-2.54,2.37-9.94,9.45-19.82,19-27,30.8a0,0,0,0,1,0,0s0,0,0,0c-.34.57-.68,1.13-1,1.72-1.44,2.5-2.86,5-4.28,7.5a77.82,77.82,0,0,0-5.86,18.82.52.52,0,0,1,0,.11c-.15.84-.29,1.71-.42,2.6-.25,1.62-.49,3.23-.7,4.84a103,103,0,0,0-.85,10.77,65.62,65.62,0,0,0,.84,12.25c.83,4.86-.3,8.62-3.22,12.53-11.37,15.22-21.34,31.29-28.59,49-4.74,11.53-6.6,23.33-4.07,35.61a14.19,14.19,0,0,1-1,9.4c-6.7,14.66-10,29.69-3.48,45.44a7.63,7.63,0,0,1,.45,3.67c-2,15.47,5.51,26.15,17.34,34.62,9,6.41,19.11,10.22,29.52,13.47,1.8.56,3.57,1.22,5.54,1.9l-.46.55c3.58,1.29,7.89,2.74,12.87,4.27,3.63-2.87,7.48-2.81,11.77-.57s6.77,3.89,8,5.95c4.16,1,8.58,2,13.22,2.91a64.86,64.86,0,0,0,.75-7.53H675.5c-2.52,4.3-5.07,8.62-7.69,13.08,3.16.29,6.39.53,9.66.74,3-6.36,6-12.69,9-19,1.18-2.49,2.44-5,3.91-7.92-7,.55-13.46,1.31-19.94,1.51-16.65.52-33.31.82-50,1.12a8.43,8.43,0,0,1-3.6-.95c-6.3-3-12.67-5.15-19.67-2.49a1.26,1.26,0,0,1-.74.07c-17.82-4.56-35.35-9.77-44.61-27.83-2-3.85-2.46-8.45-4.12-14.45,14.51,6.48,27,13.12,43.06,12.22-7.16-4-13.41-6.89-19-10.7a170.37,170.37,0,0,1-17.82-14c-6.21-5.5-9.47-12.42-7.43-21.57l4,2,20.66-18.47c1.39,9.69,2,18.18,4,26.32a48.64,48.64,0,0,0,7.1,15.64c6.57,9.66,16.5,12.93,27.81,11.84,5.48-.52,8.9,1.09,12.73,5.44,11.24,12.78,23.66,15.58,40.26,9,2.34-.93,4.55-2.15,7.09-3.35,2.08,9.41,6.47,17,15.56,21,.2-.23.42-.45.63-.66-.62-5.29-4.22-10.14-2.43-16.92,13.2,11.33,26.89,14.15,41.32,3.46,2.76,10.15-2.48,16.14-20.33,23.19,3.52,3.45,6.78,7.05,10.21,10.39,1,.94,1.95,1.87,3,2.77a55.48,55.48,0,0,0,5.6,4.42c.28.19.57.39.86.57.56.38,1.14.73,1.74,1.08l.9.51c.89.49,1.82.95,2.77,1.37l0-.05h0c-2.2-3.49-4.42-7-6.59-10.48-2.07-3.34-4.1-6.71-6.7-11,16-3.31,23.18-12.3,20.87-28.27l22.61,13c-5.58,7-11,14.21-17,20.85-1.69,1.86-5.35,1.95-8.57,3,.84,1.48,1.75,3.11,2.89,5.13-1,1.72-1.63,3.86-2.92,5.45a4.54,4.54,0,0,1-.45.52,5.53,5.53,0,0,1-1.79,1.23,4.16,4.16,0,0,1-.65.24l-.09,0-.33.08a7,7,0,0,1-1.3.19h0l0,.07,0,0a6.8,6.8,0,0,1,.57,1.25,4.08,4.08,0,0,1,.16.54,4.22,4.22,0,0,1,0,2c5-.45,10-1,15.08-1.69,5.42-8.31,11.34-16.33,17.23-24.3,3.55-4.81,8.57-8.55,12.89-12.79,3.38-3.33,6.83-3.28,11-1.14,10.31,5.31,11.22,7.09,7,18.38A104.68,104.68,0,0,1,789,482.24a329.86,329.86,0,0,0,31.92-10.41h0a44.5,44.5,0,0,0,4.83-2.43C838.4,462,841.54,451.93,836.29,438.46ZM792,265.21c0,4,.25,7.94,0,11.89-.13,2.42-1.52,2-2.82.61l-1.58-1.46c-.45-.23-.89-.45-1.33-.69-.74-.36-1.48-.73-2.21-1.11l-2.23-1.13c-.74-.37-1.47-.75-2.2-1.13s-1.76-.93-2.63-1.41c-16.63-9.09-33.64-9.27-50.82-1.93-8.63,3.68-17.14,7-26.87,6A23.3,23.3,0,0,1,678.59,255H686a3.9,3.9,0,0,1,1.32-.12l.06-2.89c-7.25-1.2-13.53.41-18.14,6.46-3.13,4.1-4.42,8.43-.6,13.21l4.24-11.1c5,4,6.66,9,8.06,13.94,2,6.95,3.33,14.08,5,21.13.56,1.63,1.1,3.25,1.66,4.87l-.06-.09q6.13,10.57,12.27,21.17h0a6.79,6.79,0,0,1,6.08,6.11l2.94,1.58c2,1.52,4,3,6,4.56h0l4.6,3.1-.09-.06,3,1.6,0,0,.12.07-.1-.05,1.54,1.74c7.25,2.24,13.84,7.07,22.85,5.95-.68-2.68-1.37-5-1.85-7.29-2.27-11.32-5.38-22.58-6.44-34-1-10.55,1.41-21.07,6.1-30.79,2.76-5.71,3.19-5.79,12.17-5.1-3.77,14.08-7,28.15-7.15,42.81a82.37,82.37,0,0,0,10.85,42.11c-6.92,2.45-12.48,1.54-17.82.93-13.34-1.54-26.06-5.66-38.51-10.61-15.36-6.09-22.42-19-26.75-33.68-2.33-7.9-3.16-16.25-4.62-24.21-.88,2.7-1.91,5.89-3.28,10.12-10.36-8.2-18.06-17.15-18.6-30.65-.53-14.68,5.52-24.43,17.54-27.18a29.29,29.29,0,0,1,23.08,4l12.44,3.82v8l10.37-11.85,1.93-1.42h0c7.39-9.73,18-13.5,29.43-14.23,15.81-1,30,2.77,39.44,17.12C789.22,250.53,791.85,257.46,792,265.21ZM733,335.54c-7.72-.23-12.78-5.54-17.87-10.12-7.24-6.5-13.3-14.15-17.05-23.35-.45-1.08-.91-2.16-1.37-3.25a9.77,9.77,0,0,1-.25-1.1c-4.7-4.87-5.34-11.39-8.59-18.74,3,1,4.24,1.36,5.46,1.87a29.6,29.6,0,0,0,18.2,2c9.77-2,12.76-.8,14.06,5.36,4.79,2.78,2.23,8.16,4.15,12.06,1,2.09.18,5.09.18,7.68a15.2,15.2,0,0,1,1.62,3.12q3,11.67,5.77,23.39a20.66,20.66,0,0,1,0,4.09l-3-1.67-1.3-1.34-.05-.06Zm-15.28,28.79c7,1.86,14,.92,18.34,7.48l4.75,7.79c.85,2,2,3.91,2.47,6,1.65,7.8-1.78,11.75-10.16,12l-10.78-1.32-3.71-.35c.76-5.35,2.15-10.42,2-15.45S718.84,370.36,717.68,364.33Zm-5.33,7.87c2,6.58.64,13-1.29,19.26-1.54,5-5.07,8-10.7,7.9-5.85-.09-11.51-.7-16.31-4.51a35,35,0,0,1-18-16.7c-7.16-7.64-10.56-17.26-11.78-27.14-1.73-14.16.37-28.12,7.19-41,.57-1.06,1.35-2,2.72-4,1.33,5.1,2.29,9.17,3.46,13.16C672,334.08,679.43,347,693,355.4c4,2.48,8.51,4.78,13.07,5.58,5.2.91,6.07,3.57,5.73,7.82C712,369.94,712.18,371.07,712.35,372.2ZM679.46,214.39c-5.7,5.75-9.18,7-13.54,4.72-4.62-2.37-5.67-5.87-4-14.13-6.94.18-11.31,4-13.92,9.71-3.84,8.51-.94,15.67,5.89,22l-7.15,5.76c-10.27-8.47-13.59-27.48-1.82-41.28,10-11.68,28-14,40.48-5.19,13.15,9.24,16.76,25.89,8.53,40.46l-14.19-5.21C681.06,225.49,683.1,219.86,679.46,214.39Zm101,9-15.41-4.92c-.14-2-.29-4.19-.48-6.84-4,1.65-7.86,2.91-11-.86-3-3.61-1.92-7.42,1.6-12L742.48,200c7.25-10.51,19.58-13.11,30.3-6.47C783,199.91,786.27,212.27,780.49,223.34Zm10.31,171.4c1.11,7,2.6,14.06,3.16,21.16.28,3.48-1.16,7.1-1.82,10.66-1.24,8.09-3.8,9.85-11.24,12.82a27.75,27.75,0,0,1-24-1.13c-9-4.61-16.75-11-21-20.66l-3.67-4.06c-4.08,7.18-6.33,15.41-14.22,19.38-7.41,6.1-19.3,6.34-27.54,0-5.09-3.92-9.88-8.41-10.31-15.59-.52-.86-1-1.72-1.93-3.25l-4.31,4.76c-8.77,9.71-28.59,12.82-39.46,5.59-2.79-1.86-4.54-5.68-6.06-8.94-1-2.09-.62-4.79-.91-7.72-5.08,3.43-8.9,8.92-15.78,7.75C604.23,417,599,413,594.83,407.83c-10-12.51-12.39-27.1-10.21-42.64.08-.59,1-1.05,1.52-1.57,0-.6.07-1.2.09-1.8.14-.82.27-1.64.41-2.47.13-1.21.27-2.42.45-4-7.47-.41-13.53,2.72-19.39,6.08-3.7,2.12-6.9,5.1-10.48,7.44-.88.57-2.41.15-3.64.18-6.3-3.82-7.08-10.61-6.71-16.5,1-16.52,7.82-31.13,17.48-44.44,4.9-8.17,9.49-16.53,14.79-24.43,2.68-4,4.37-7.58,3.28-12.49a61.35,61.35,0,0,1-1.37-12.9,84.83,84.83,0,0,1,.77-11.8c.16-1.35.36-2.69.57-4,.12-.73.24-1.46.37-2.18a64.64,64.64,0,0,1,11-27.06l.26-.36a171.82,171.82,0,0,1,46.4-44.53c23.78-15.57,64.21-13,85.55,14.32,1.08,1.38,2.25,2.69,3.89,4.64l6.17-3.67c6.28-9.45,12.55-18.9,19.47-29.3l4.8,1.56c10,3.29,17.07,13.45,15.87,29.06-1.64-.45-3.19-.82-4.71-1.3C750.27,177,730.08,191.73,730,214c0,1.5-.05,3-.09,4.51-.5,1.46-.59,3.74-1.58,4.24-7.54,3.83-14.29,8.45-19.18,15.55-.65.93-2.46,1.07-4.89,2,1.58-5.45,2.84-9.82,4.12-14.18.33-17.95-6.34-32-23.09-39.93a38.82,38.82,0,0,0-47,11.1c-11.22,14.16-11.79,34.42-.76,48.33,3.38,4.27,5,8.16,4.07,13.61-1.56,9.59,1.8,18.35,5.87,26.84l11,10.36c-5.77,10.21-9.83,20.79-11.35,32.05-3.36,24.86.51,47.88,19.78,65.88,4.88,4.56,11.06,7.71,16.65,11.52a43.25,43.25,0,0,0,28.84-2c1.61-.66,3.75-.35,5.59-.08,7.21,1.05,14.31,2.93,21.62.12,6.56-2.51,10.25-6.46,10-13.5-.2-4.93-1.83-9.8-3-14.66a37.7,37.7,0,0,0-2.2-5.23c3.74,0,6.95,0,10.16,0,2,0,4.06.05,6.07-.16,10.1-1,13.36-7,8.12-15.64-3.83-6.32-7.21-12.67-8.62-20-3.19-16.65-1.94-33.19,1-49.7.58-3.2,1.41-6.35,2.18-9.75,5.88,1.34,7.52,4.61,7.78,10.19.95,21.28,4.17,42.22,12.15,62.12,6.44,16.07,15.7,30,31.72,38.16l2.6.81q-.88,1.32-1.77,2.61l-.31.21c-2.59,4-6.71,5.13-11,5.4C799.92,395,795.36,394.76,790.8,394.74ZM806.2,444c-1.82,1.72-3.58,4-6.57.7a65.71,65.71,0,0,0,3.29-38.77l13.22-1.52c4.33,3.74,5.93,8.49,4,14.93C817.24,428.66,813.34,437.21,806.2,444Zm16.09,15a38.44,38.44,0,0,1-5.61,3.85c-2.15,1.21-4.46,2.14-7.26,3.46-.72-6-1.32-10.87-1.89-15.52l17-13.25C830.38,445.19,829.68,452.87,822.29,459Zm-120,20.82c.9,4.72,1.75,9.44,2.41,14.15q7-.11,14.27-.5l-15.19-14.12Zm-12.07,14,2.83.07a50.94,50.94,0,0,0-.86-11.91C691.56,486,691.31,490.08,690.26,493.9Z"/><path class="cls-4" d="M781.58,376.49l-1.13-.57,1.12.58c1.27,7,5.52,12.48,9.23,18.24,1.11,7,2.6,14.06,3.16,21.16.28,3.48-1.16,7.1-1.82,10.66a20.46,20.46,0,0,0-3.72.52c-16.38,5.56-31.64,3.39-46-6.26a51.33,51.33,0,0,0-6.57-3.23l-3.67-4.06c-4.08,7.18-6.33,15.41-14.22,19.38-13.58.38-25.42-3.52-34.69-13.94-.73-.84-2.1-1.12-3.16-1.66-.52-.86-1-1.72-1.93-3.25l-4.31,4.76c-8.77,9.71-28.59,12.82-39.46,5.59-2.79-1.86-4.54-5.68-6.06-8.94-1-2.09-.62-4.79-.91-7.72-5.08,3.43-8.9,8.92-15.78,7.75-1.1-1.61-2-3.45-3.32-4.8-6.12-6-10.66-13.1-14.69-20.68-4.44-8.34-5.34-17.52-7.55-26.4,0-.6.07-1.2.09-1.8.14-.82.27-1.64.41-2.47.13-1.21.27-2.42.45-4-7.47-.41-13.53,2.72-19.39,6.08-3.7,2.12-6.9,5.1-10.48,7.44-.88.57-2.41.15-3.64.18-.11-14.86,2.69-29.31,6.31-43.64,1.46-5.78,3-11.54,4.46-17.3,4.9-8.17,9.49-16.53,14.79-24.43,2.68-4,4.37-7.58,3.28-12.49a61.35,61.35,0,0,1-1.37-12.9,84.83,84.83,0,0,1,.77-11.8c.16-1.35.36-2.69.57-4,.12-.73.24-1.46.37-2.18a64.64,64.64,0,0,1,11-27.06l.26-.36a171.82,171.82,0,0,1,46.4-44.53c23.78-15.57,64.21-13,85.55,14.32,1.08,1.38,2.25,2.69,3.89,4.64l6.17-3.67c2.37-1.1,5.14-1.75,7.05-3.39,7.75-6.64,12.93-15.2,17.22-24.35,10,3.29,17.07,13.45,15.87,29.06-1.64-.45-3.19-.82-4.71-1.3C750.27,177,730.08,191.73,730,214c0,1.5-.05,3-.09,4.51-8.1,0-14.7,4.14-21.53,7.66.33-17.95-6.34-32-23.09-39.93a38.82,38.82,0,0,0-47,11.1c-11.22,14.16-11.79,34.42-.76,48.33,3.38,4.27,5,8.16,4.07,13.61-1.56,9.59,1.8,18.35,5.87,26.84-.13,2.67-.93,5.55-.23,8a18.7,18.7,0,0,1-1,13.19,95.38,95.38,0,0,0-7.13,49.51c3,24.1,17.29,40.11,39.47,49.27,1.4.58,3.31-.07,5-.15a43.25,43.25,0,0,0,28.84-2c1.61-.66,3.75-.35,5.59-.08,7.21,1.05,14.31,2.93,21.62.12,6.56-2.51,10.25-6.46,10-13.5-.2-4.93-1.83-9.8-3-14.66a37.7,37.7,0,0,0-2.2-5.23c3.74,0,6.95,0,10.16,0,2,0,4.06.05,6.07-.16,10.1-1,13.36-7,8.12-15.64-3.83-6.32-7.21-12.67-8.62-20-3.19-16.65-1.94-33.19,1-49.7.58-3.2,1.41-6.35,2.18-9.75,5.88,1.34,7.52,4.61,7.78,10.19.95,21.28,4.17,42.22,12.15,62.12,6.44,16.07,15.7,30,31.72,38.16.28,1.15.55,2.29.83,3.42l-.31.21C802.45,389.59,791.61,384.1,781.58,376.49Z"/><path class="cls-5" d="M545,189.41c-.57,1-1.14,2.07-1.73,3.09-.1-.76-.17-1.51-.23-2.26Z"/><path class="cls-5" d="M742.28,154.69a30.29,30.29,0,0,1-12.48,16.86,83,83,0,0,0-4.12-23.24,73.65,73.65,0,0,0-5.48-12.5h0a66.54,66.54,0,0,0-3.88-6.2,70.19,70.19,0,0,0-6.88-8.35,75.2,75.2,0,0,0-37.9-20.89c-.48,2.2-1,4.4-1.45,6.62s-1,4.64-1.54,7c-.56,2.57-1.14,5.2-1.74,7.93-3-1.35-5.19-2.39-7.43-3.36a76.88,76.88,0,0,0-27.55-6.7,60.55,60.55,0,0,0-13.15.89c-10-3.28-20.08-6.53-30.29-9.14a92.11,92.11,0,0,0-14.33-2.49l.48-.9c.09-.15.17-.3.26-.44s.24-.45.38-.67l.09-.15c.49-.83,1-1.62,1.52-2.39l.16-.24.62-.88L578,95c.24-.32.48-.64.74-.95s.41-.51.62-.76a.55.55,0,0,1,.14-.17.21.21,0,0,1,.09-.1c.19-.25.4-.49.61-.72a1.57,1.57,0,0,1,.21-.24c.32-.36.65-.71,1-1.06s.44-.47.67-.69l.2-.2c.15-.15.31-.31.48-.46a1.34,1.34,0,0,1,.21-.2l.52-.48c.36-.33.73-.65,1.1-1s1-.84,1.57-1.25l1-.76s0,0,0,0l1.1-.74c.37-.24.74-.48,1.12-.71s.77-.47,1.16-.69l.11-.07,1-.54.16-.09.83-.41c.19-.11.39-.2.58-.3l.85-.39c.4-.18.81-.36,1.21-.52l.56-.24.51-.2c.19-.07.38-.15.58-.21.91-.35,1.85-.67,2.81-1l1.11-.32c.52-.15,1-.28,1.58-.42l1-.23.59-.13c.93-.21,1.88-.39,2.86-.55,3.57-.59,7.08-1.55,10.61-2.33l9.18,1.58c3.93-9.87,7.19-19.38,16.22-25.13,3.78.09,7.57.07,11.35.2,1.77.06,3.53.15,5.29.31a124.78,124.78,0,0,1,17.88,2.67c16.92,4.11,30.18,12.2,40.28,23.69A78.19,78.19,0,0,1,724.35,88a88.46,88.46,0,0,1,4.81,8.22c.8,1.54,1.56,3.12,2.3,4.73h0c1.13,2.51,2.19,5.09,3.16,7.78a109.23,109.23,0,0,1,4,13.85c.57,2.52,1.05,5,1.46,7.58h0c.27,1.65.51,3.31.73,5,.08.62.15,1.24.23,1.86C741.75,142.84,742.11,148.75,742.28,154.69Z"/><path class="cls-6" d="M583.86,209.68c-.34.58-.69,1.15-1,1.75-1.44,2.5-2.86,5-4.28,7.5A51.35,51.35,0,0,1,583.86,209.68Z"/><path class="cls-6" d="M631.22,162.65c-.08,0-.14.09-.22.14-.53.34-1.06.69-1.58,1.05s-.91.61-1.36.93l-.84.58c-1,.66-1.88,1.35-2.82,2.05l-.88.66-1.19.91-.92.72c-.49.38-1,.77-1.44,1.16l-1.63,1.34-.1.09,0,0q-1.82,1.53-3.59,3.12c-.38.34-.76.67-1.13,1l-.06.05h0c-.85.77-1.7,1.57-2.54,2.37A100.79,100.79,0,0,1,631.22,162.65Z"/><path class="cls-6" d="M720.19,135.81c-4.14-.08-8.29-.28-12.45-.56-8.83-.59-17.61-2.12-26.4-3.36a55,55,0,0,1-8.63-1.86c-13.3-4.15-26.56-8.44-39.85-12.64-4.73-1.5-9.46-3-14.19-4.6a60.55,60.55,0,0,1,13.15-.89,76.88,76.88,0,0,1,27.55,6.7c2.24,1,4.46,2,7.43,3.36.6-2.73,1.18-5.36,1.74-7.93.52-2.4,1-4.73,1.54-7s1-4.42,1.45-6.62a75.2,75.2,0,0,1,37.9,20.89,70.19,70.19,0,0,1,6.88,8.35A66.54,66.54,0,0,1,720.19,135.81Z"/><path class="cls-7" d="M730.65,490.7a4.08,4.08,0,0,0-.16-.54,6.8,6.8,0,0,0-.57-1.25c-.95-.42-1.88-.88-2.77-1.37l-.9-.51c-.6-.35-1.18-.7-1.74-1.08-.29-.18-.58-.38-.86-.57a55.48,55.48,0,0,1-5.6-4.42c-1-.9-2-1.82-3-2.77-3.43-3.34-6.69-6.94-10.21-10.39,17.85-7.05,23.09-13,20.33-23.19-14.43,10.69-28.12,7.87-41.32-3.46-1.79,6.78,1.81,11.63,2.43,16.92.13.52.25,1.05.38,1.57l-1-.91c-9.09-4-13.48-11.6-15.56-21-2.54,1.2-4.75,2.42-7.09,3.35-16.6,6.59-29,3.79-40.26-9-3.83-4.35-7.25-6-12.73-5.44-11.31,1.09-21.24-2.18-27.81-11.84a48.64,48.64,0,0,1-7.1-15.64c-2-8.14-2.6-16.63-4-26.32l-20.66,18.47-4-2c-2,9.15,1.22,16.07,7.43,21.57a170.37,170.37,0,0,0,17.82,14c5.64,3.81,11.89,6.73,19,10.7-16.06.9-28.55-5.74-43.06-12.22,1.66,6,2.14,10.6,4.12,14.45,9.26,18.06,26.79,23.27,44.61,27.83a1.26,1.26,0,0,0,.74-.07c7-2.66,13.37-.47,19.67,2.49a8.43,8.43,0,0,0,3.6.95c16.66-.3,33.32-.6,50-1.12,6.48-.2,12.94-1,19.94-1.51-1.47,3-2.73,5.43-3.91,7.92-3,6.34-6,12.67-9,19q6.27.39,12.79.58c1-3.82,1.3-7.9,2-11.84a50.94,50.94,0,0,1,.86,11.91q5.74.11,11.65,0c-.66-4.71-1.51-9.43-2.41-14.15l1.49-.47L719,493.5q5.75-.31,11.63-.83A4.22,4.22,0,0,0,730.65,490.7Zm-28.82-12.53V477c.17.22.43.41.43.58S702,478,701.83,478.17Zm28.06,10.69,0,.05,0,0Z"/><path class="cls-8" d="M699.75,321.66l0,0v0Z"/><path class="cls-8" d="M714.83,333.89h0v0Z"/><path class="cls-8" d="M716.22,241.17l-.06.05h0Z"/><path class="cls-8" d="M722.4,338.55l-.1-.05,0,0Z"/><path class="cls-8" d="M792,265.21c-3-4.55-5.77-9.35-9.17-13.61-8.41-10.58-19.17-16.66-33.09-16.77a65,65,0,0,0-25.07,4.29c-2.7,1.07-5.68,1.43-8.54,2.11l-1.93,1.42L703.85,254.5v-8l-12.44-3.82c-6-.06-12-.67-17.93,0-10.75,1.16-16.93,8-20.18,18a41,41,0,0,1-2.51,5.22c.54,13.5,8.24,22.45,18.6,30.65,1.37-4.23,2.4-7.42,3.28-10.12,1.46,8,2.29,16.31,4.62,24.21,4.33,14.67,11.39,27.59,26.75,33.68,12.45,4.95,25.17,9.07,38.51,10.61,5.34.61,10.9,1.52,17.82-.93a82.37,82.37,0,0,1-10.85-42.11c.17-14.66,3.38-28.73,7.15-42.81-9-.69-9.41-.61-12.17,5.1-4.69,9.72-7.09,20.24-6.1,30.79,1.06,11.43,4.17,22.69,6.44,34,.48,2.33,1.17,4.61,1.85,7.29-9,1.12-15.6-3.71-22.85-5.95l-1.54-1.74-3-1.6.09.06-4.6-3.1h0l0,0h0v0c-2-1.52-4-3-6-4.56l-2.94-1.58a6.79,6.79,0,0,0-6.08-6.11l0,0,0,0v0Q693.6,311,687.45,300.45l.06.09c-.56-1.62-1.1-3.24-1.66-4.87-1.62-7.05-3-14.18-5-21.13-1.4-4.89-3-9.91-8.06-13.94l-4.24,11.1c-3.82-4.78-2.53-9.11.6-13.21,4.61-6.05,10.89-7.66,18.14-6.46l1.56,1.12-1.62,1.77A3.9,3.9,0,0,0,686,255L683,259.26c7,9.59,15.08,11.52,26.38,6.71,7.14-3,14.28-6.23,21.69-8.45,14.4-4.32,28.86-4.8,42.19,3.39,6,3.7,13.11,6.95,14.37,15.34l1.58,1.46c1.3,1.41,2.69,1.81,2.82-.61C792.27,273.15,792.05,269.18,792,265.21Zm-91.54,59.46a5.27,5.27,0,0,1-.43-1.09A5.27,5.27,0,0,0,700.48,324.67Z"/><path class="cls-9" d="M786.83,452.75c-4.16-2.14-7.61-2.19-11,1.14-4.32,4.24-9.34,8-12.89,12.79-5.89,8-11.81,16-17.23,24.3,6.33-.84,12.77-1.89,19.28-3.16a172.59,172.59,0,0,1,18.5-27.2c.56,5.57-2.56,14.9-7.58,24.9q6.5-1.49,13.09-3.28a104.68,104.68,0,0,0,4.87-11.11C798.05,459.84,797.14,458.06,786.83,452.75Z"/><path class="cls-10" d="M742.28,154.69c-.45-15.68-2.25-31.14-7.66-46-10-27.47-28.29-46.14-57.22-53.17a123.18,123.18,0,0,0-17.88-2.67c-5.51-.5-11.09-.37-16.64-.51C655.31,42,669.39,38.57,685.23,42c10.94,2.4,21.3,6.13,30.49,12.66,13.55,9.62,21.35,23.18,26.33,38.69s5.89,31.22,4.52,47.14C746.16,145.34,743.76,150,742.28,154.69Z"/><path class="cls-9" d="M693.89,236.44l-14.19-5.21c1.36-5.74,3.4-11.37-.24-16.84-5.7,5.75-9.18,7-13.54,4.72-4.62-2.37-5.67-5.87-4-14.13-6.94.18-11.31,4-13.92,9.71-3.84,8.51-.94,15.67,5.89,22l-7.15,5.76c-10.27-8.47-13.59-27.48-1.82-41.28,10-11.68,28-14,40.48-5.19C698.51,205.22,702.12,221.87,693.89,236.44Z"/><path class="cls-11" d="M675.5,479.5c-2.52,4.3-5.07,8.62-7.69,13.08A364,364,0,0,1,629.42,487a64.86,64.86,0,0,0,.75-7.53Z"/><path class="cls-5" d="M684.05,394.85a35,35,0,0,1-18-16.7c-3.69-11.93-3.2-24.2-2.93-36.45.05-1.88.82-3.75,1.26-5.63,10.23,20.13,26.65,29.55,47.43,32.74.17,1.13.34,2.25.52,3.38-1.07,3.34-1.86,6.79-3.24,10-4.37,10.16-9.44,13.18-20.55,12.7C687.06,394.81,685.55,394.85,684.05,394.85Z"/><path class="cls-12" d="M711.83,368.81c-20.78-3.19-37.2-12.61-47.43-32.74-.44,1.88-1.21,3.75-1.26,5.63-.27,12.25-.76,24.52,2.93,36.45-7.16-7.64-10.56-17.26-11.77-27.14-1.74-14.16.36-28.12,7.18-41,.57-1.06,1.35-2,2.72-4,1.33,5.1,2.29,9.17,3.46,13.17C672,334.09,679.43,347,693,355.4c4,2.48,8.51,4.78,13.07,5.58C711.3,361.89,712.17,364.55,711.83,368.81Z"/><path class="cls-13" d="M725.55,288.2c4.79,2.78,2.23,8.16,4.15,12.06,1,2.09.18,5.09.17,7.68-.45,2.27-1.59,4.65-1.24,6.79,1.15,7,2.84,13.88,4.33,20.81-7.72-.23-12.79-5.54-17.87-10.11-7.24-6.51-13.3-14.16-17.05-23.36-.45-1.08-.91-2.16-1.37-3.25a8.19,8.19,0,0,1-.25-1.09c.17-1.93.34-3.85.57-6.52l7.54,1.17C712.05,293.53,719.26,293.16,725.55,288.2Z"/><path class="cls-14" d="M683.53,405.89c-1.67.09-3.58.74-5,.17-22.17-9.17-36.49-25.19-39.47-49.29a95.26,95.26,0,0,1,7.13-49.5,18.7,18.7,0,0,0,1-13.19c-.71-2.44.1-5.32.22-8l11,10.37c-5.77,10.22-9.82,20.79-11.35,32.05-3.36,24.86.51,47.87,19.78,65.88C671.76,398.94,678,402.09,683.53,405.89Z"/><path class="cls-15" d="M787.65,276.25c-.45-.23-.89-.45-1.33-.69-.74-.36-1.48-.73-2.21-1.11l-2.23-1.13c-.74-.37-1.47-.75-2.2-1.13s-1.76-.93-2.63-1.41c-16.63-9.09-33.64-9.27-50.82-1.93-8.63,3.68-17.14,7-26.87,6A23.3,23.3,0,0,1,678.59,255H686L683,259.26c7,9.59,15.08,11.52,26.38,6.71,7.14-3,14.28-6.23,21.69-8.45,14.4-4.32,28.86-4.8,42.19,3.39C779.3,264.61,786.39,267.86,787.65,276.25Z"/><path class="cls-16" d="M730,488.93c-2.21-3.51-4.44-7-6.63-10.55-2.07-3.34-4.1-6.71-6.7-11,16-3.3,23.18-12.3,20.87-28.27l22.61,13c-5.58,7-11,14.21-17,20.86-1.7,1.86-5.34,1.94-8.56,3,.82,1.48,1.74,3.11,2.88,5.13-1.76,3.06-2.41,7.44-7.56,7.74Z"/><path class="cls-17" d="M780.49,223.34l-15.41-4.92c-.14-2-.29-4.19-.48-6.84-4,1.65-7.86,2.91-11-.86-3-3.61-1.92-7.42,1.6-12L742.48,200c7.25-10.51,19.58-13.11,30.3-6.47C783,199.91,786.27,212.27,780.49,223.34Z"/><path class="cls-18" d="M617.48,75.89c-3.53.78-7,1.74-10.61,2.33-1,.16-1.93.34-2.86.55l-.59.13-1,.23c-.54.14-1.06.27-1.58.42l-1.11.32c-1,.29-1.9.61-2.81,1-.2.06-.39.14-.58.21l-.51.2-.56.24c-.4.16-.81.34-1.21.52l-.85.39c-.19.1-.39.19-.58.3l-.83.41-.16.09-1,.54-.11.07c-.39.22-.78.45-1.16.69s-.75.46-1.12.71l-1.1.74s0,0,0,0l-1,.76c-.54.41-1.06.82-1.57,1.25s-.74.63-1.1,1l-.52.48a1.34,1.34,0,0,0-.21.2c-.17.15-.33.31-.48.46l-.2.2c-.23.22-.45.45-.67.69s-.68.7-1,1.06a1.57,1.57,0,0,0-.21.24c-.22.24-.42.48-.61.72a.21.21,0,0,0-.09.1.55.55,0,0,0-.14.17c-.22.25-.42.51-.62.76s-.5.63-.74.95l-.39.53-.62.88-.16.24c-.53.77-1,1.57-1.52,2.39l-.09.15c-.14.22-.26.44-.38.67s-.17.29-.26.44l-.48.9c-.23.43-.45.87-.67,1.3s-.48,1-.71,1.49-.37.83-.54,1.24c-.6,1.38-1.15,2.79-1.65,4.26-.15.43-.3.86-.43,1.3-.37,1.14-.72,2.31-1,3.5-1.67,6.26-2.21,12.83-3.27,19.25a43.21,43.21,0,0,1-4.85-20.25c0-.16,0-.31,0-.47s0-.49,0-.72,0-.55.06-.81l0-.52a37.35,37.35,0,0,1,.69-4.42l.13-.51c0-.2.09-.39.14-.59.12-.49.26-1,.41-1.47.23-.76.47-1.5.75-2.23.1-.26.2-.51.31-.77.34-.87.71-1.72,1.13-2.56.21-.42.42-.83.64-1.24s.44-.81.67-1.21l.72-1.19c.25-.39.5-.78.76-1.15s.53-.76.8-1.13.55-.74.83-1.1h0a43.39,43.39,0,0,1,5.72-6c.17-.16.35-.31.53-.46l.14-.12c.3-.26.61-.51.93-.76s.85-.67,1.29-1l.07,0c.46-.34.92-.67,1.39-1,.28-.2.57-.38.85-.56l.67-.43a45.28,45.28,0,0,1,4.24-2.37c.24-.13.5-.25.75-.37l.87-.39c.33-.16.67-.3,1-.45L589,76.6c.38-.15.76-.28,1.15-.41s.7-.24,1.06-.35c.55-.18,1.11-.34,1.66-.49.37-.11.74-.2,1.11-.29,0,0,0,0,0,0,.37-.09.74-.18,1.11-.25l.32-.07.9-.17c.5-.1,1-.18,1.49-.24s.83-.12,1.24-.16C605.3,73.51,611.54,73.26,617.48,75.89Z"/><path class="cls-19" d="M792,265.21c-3-4.55-5.77-9.35-9.17-13.61-8.41-10.58-19.17-16.66-33.09-16.77a65.13,65.13,0,0,0-25.07,4.28c-2.7,1.08-5.69,1.43-8.54,2.12,7.4-9.73,18-13.51,29.44-14.25,15.81-1,30.06,2.78,39.44,17.13C789.22,250.53,791.85,257.46,792,265.21Z"/><path class="cls-7" d="M802.92,405.94l13.23-1.52c4.32,3.74,5.92,8.5,3.94,14.93-2.85,9.31-6.75,17.86-13.9,24.66-1.8,1.72-3.57,4-6.56.7A65.79,65.79,0,0,0,802.92,405.94Z"/><path class="cls-20" d="M735.89,417.59a50.85,50.85,0,0,1,6.58,3.24c14.31,9.64,29.58,11.8,45.95,6.25a19.63,19.63,0,0,1,3.71-.52c-1.23,8.09-3.79,9.85-11.23,12.82a27.75,27.75,0,0,1-24-1.13C747.86,433.65,740.16,427.25,735.89,417.59Z"/><path class="cls-14" d="M586.14,363.61c2.21,8.89,3.11,18.07,7.55,26.41,4,7.58,8.57,14.64,14.69,20.69,1.36,1.34,2.22,3.18,3.31,4.79C604.23,417,599,413,594.83,407.83c-10-12.51-12.39-27.1-10.21-42.64C584.7,364.61,585.61,364.14,586.14,363.61Z"/><path class="cls-16" d="M809.43,466.35l-1.9-15.53,17-13.25c5.88,7.62,5.18,15.3-2.21,21.46a37.1,37.1,0,0,1-5.61,3.84C814.53,464.09,812.22,465,809.43,466.35Z"/><path class="cls-20" d="M564.36,308.12c-1.49,5.76-3,11.53-4.47,17.3-3.62,14.33-6.42,28.78-6.31,43.65-6.3-3.83-7.08-10.62-6.71-16.51C547.89,336,554.69,321.43,564.36,308.12Z"/><path class="cls-13" d="M733.08,397.63l-10.78-1.32c1.44-8,2.88-15.94,4.42-24.5H736l4.75,7.8A21.94,21.94,0,0,1,733.08,397.63Z"/><path class="cls-12" d="M725.55,288.2c-6.29,5-13.5,5.33-21,4.18L697,291.21c-.23,2.67-.4,4.59-.57,6.52-4.71-4.88-5.34-11.41-8.59-18.75,3,1,4.24,1.36,5.46,1.87a29.59,29.59,0,0,0,18.2,2C721.26,280.88,724.25,282,725.55,288.2Z"/><path class="cls-14" d="M781.58,376.48c10,7.62,20.87,13.11,33.88,12.86-2.59,4-6.71,5.13-11,5.4-4.53.28-9.09,0-13.64,0-3.71-5.76-8-11.25-9.24-18.24Z"/><path class="cls-20" d="M680.15,417.31c1.07.54,2.42.83,3.16,1.66,9.27,10.42,21.11,14.32,34.69,13.94-7.41,6.09-19.3,6.34-27.54,0C685.37,429,680.58,424.49,680.15,417.31Z"/><path class="cls-12" d="M736,371.81h-9.3c-1.54,8.56-3,16.53-4.42,24.5l-3.71-.35c.76-5.35,2.15-10.41,2-15.44s-1.77-10.15-2.93-16.19C724.64,366.19,731.72,365.25,736,371.81Z"/><path class="cls-21" d="M684.05,394.85c1.5,0,3,0,4.51,0,11.11.48,16.18-2.54,20.55-12.7,1.38-3.2,2.17-6.65,3.24-10,2,6.58.64,13-1.29,19.27-1.54,5-5.07,8-10.71,7.9C694.51,399.27,688.85,398.65,684.05,394.85Z"/><path class="cls-22" d="M691.41,242.66c-6-.06-12-.67-17.93,0-10.75,1.16-16.93,8-20.18,18a41,41,0,0,1-2.51,5.22c-.53-14.68,5.52-24.43,17.54-27.18A29.29,29.29,0,0,1,691.41,242.66Z"/><path class="cls-20" d="M708.34,226.14c6.84-3.52,13.44-7.7,21.54-7.65-.5,1.45-.59,3.73-1.59,4.23-7.53,3.83-14.28,8.45-19.17,15.54-.65,1-2.46,1.08-4.89,2.06C705.81,234.87,707.08,230.5,708.34,226.14Z"/><path class="cls-20" d="M760.33,155.89c-4.29,9.15-9.47,17.71-17.22,24.35-1.91,1.64-4.68,2.29-7.05,3.39,6.28-9.45,12.55-18.9,19.47-29.3Z"/><path class="cls-21" d="M733,335.54c-1.49-6.93-3.18-13.82-4.33-20.81-.35-2.14.79-4.52,1.24-6.79a15,15,0,0,1,1.63,3.11q3,11.68,5.77,23.4a20.64,20.64,0,0,1,0,4.09l-3-1.67c-.45-.46-.9-.93-1.36-1.39Z"/><path class="cls-21" d="M733.08,397.63a21.94,21.94,0,0,0,7.69-18c.84,2,2,3.9,2.46,6C744.89,393.39,741.46,397.34,733.08,397.63Z"/><path class="cls-23" d="M699.75,321.66l0,0v0h0Z"/><path class="cls-23" d="M699.73,321.62l0,0,0,0v0Z"/><path class="cls-23" d="M714.83,333.89h0v0Z"/><path class="cls-23" d="M714.83,333.89h0v0Z"/><path class="cls-14" d="M815.77,389.14l-.83-3.43,2.6.81Z"/><path class="cls-12" d="M696.67,298.82c.46,1.09.92,2.17,1.37,3.25Z"/><path class="cls-15" d="M687.34,252l1.57,1.12-1.63,1.77Z"/><path class="cls-13" d="M732.9,335.48c.46.46.91.93,1.36,1.39C733.81,336.41,733.36,335.94,732.9,335.48Z"/><path class="cls-14" d="M586.64,359.35l-.4,2.47Z"/><path class="cls-19" d="M716.22,241.18l-2,1.47Z"/><path class="cls-15" d="M787.64,276.24l1.59,1.47Z"/><path class="cls-14" d="M781.57,376.5l-1.12-.58,1.13.56Z"/><path class="cls-24" d="M686.32,458.07l.38,1.57-1-.91C685.89,458.51,686.11,458.29,686.32,458.07Z"/><path class="cls-24" d="M701.83,477c.17.21.44.4.43.59s-.27.36-.43.54Z"/><path class="cls-2" d="M849.6,35.66c-.8-8.43-2.28-16.75-6.19-24.37a28.12,28.12,0,0,0-4.66-6.7c-5.85-6.08-13.73-6.23-19.13.2a54.41,54.41,0,0,0-8.91,14.44c-7.83,19.56-15,39.37-22.66,59-4.53,11.68-9.47,23.2-14.08,34.85-1.59,4-5.56,2.79-8.45,4.68-.65-1.4-1.14-2.51-1.65-3.61q-5.73-12.47-12.16-24.5A351.45,351.45,0,0,0,728,51.26a290.46,290.46,0,0,0-22.3-27.69c-5.16-5.68-11.41-10.47-17.64-15-3.09-2.26-7.17-3.42-11-4.36-5-1.23-9.42.54-13.09,4.17-1.78,1.77-3.74,3.35-5.45,5.18-8.06,8.61-17.87,10.28-28.86,7.48-6-1.51-12-2.94-17.89-4.56-9.41-2.56-17.38-.29-23.83,7C580.92,31.39,577.13,41.08,574,51c-2.83,9.09-5.22,18.31-7.76,27.49-.19.7-.39,1.4-.58,2.1l-1.53.11c-6,.44-12.21.65-18.29,1.58-27.22,4.18-49.59,16.71-65,39.9-20.8,31.25-16.58,69.31,10.22,96.36,15.38,15.53,34.19,25.38,54.85,31.51,8.15,2.41,16.45,4.25,24.78,6a103,103,0,0,1,.85-10.77c-.81-.11-1.61-.23-2.42-.36q-2.85-.44-5.67-1l-1-.19-1.1-.22c-1.11-.22-2.22-.46-3.32-.71l-2-.46-1.44-.36-1.61-.42c-1.26-.33-2.52-.69-3.78-1.06l-1.27-.39-1-.33-1-.31-1.32-.45c-23.06-7.9-42.61-20.48-56.12-41.37-15.5-24-13.76-54.18,4.68-75.65,11.76-13.69,27.18-21.54,44.07-26.93l1.77-.54,1.22-.36.26-.07,1.47-.41,1.37-.35,1.22-.31,1.23-.28,1.22-.26c.85-.18,1.69-.34,2.54-.5l.73-.13.94-.15.38-.06,1.45-.2,1.33-.17.91-.1.5,0c.35,0,.7-.07,1-.09.92-.09,1.84-.14,2.76-.18l1.42,0,1.54,0h.1l1.4,0h.4c.42,0,.83,0,1.25,0l.26,0,1.26.07.17,0c.54,0,1.06.08,1.6.14.76.07,1.54.16,2.31.27l.83.12c.69.1,1.39.22,2.09.35q.53.09,1,.21l1,.19,1.14.27,2.05.51a205.76,205.76,0,0,1,29.3,9.93q11.44,4.83,23.07,8.89a324,324,0,0,0,84.49,17.71l1.7.12a217.7,217.7,0,0,0,22.1.41h.15c.89,0,1.79-.08,2.68-.14l1.3-.08c.42,0,.84,0,1.25-.09l1.64-.14c.44,0,.87-.07,1.31-.12l1.91-.2c.57-.07,1.14-.13,1.7-.21s1.24-.16,1.87-.25l1.85-.28,1.78-.3.07,0c.63-.11,1.24-.22,1.86-.35s1.24-.24,1.85-.38l1.85-.41c22.36-5.22,39.54-17.51,51.07-37.52,7.32-12.72,13.11-26,15.82-40.54a71.79,71.79,0,0,0,.34-26.47c-3.24,31.93-13,60.77-38.4,83.33a25.68,25.68,0,0,1,.52-3.11c8.08-23.21,16-46.49,24.42-69.58,2.39-6.56,5.95-12.77,9.58-18.78,2-3.36,5-2.94,6.41.73,1.46,3.88,2,8.09,3,12.16a4.54,4.54,0,0,1,.53,1.2c3,18.27,2.06,36.41-1.3,54.56a168.89,168.89,0,0,1-15.92,46.2c-8.35,16.39-18.75,31.1-33,42.58a.93.93,0,0,1-.15.13,1.3,1.3,0,0,1-.2.15,47.22,47.22,0,0,1,.93,8.46c10.84-5.3,19.77-13.1,27.54-22.35C829,141,837.84,120.7,843.6,99,849.1,78.25,851.63,57.15,849.6,35.66ZM630.13,102.78c-9.45-4-18.85-8.08-28.5-11.52l-1.38-.48-.85-.29c-1.11-.36-2.21-.71-3.33-1a.55.55,0,0,0-.17,0L594,88.85c-2.62-.74-5.26-1.43-7.94-2.13l-3.62-1-1.65-.44-2-.54,0-.39c0-.28,0-.56.06-.87a13.44,13.44,0,0,1,.17-1.75s0,0,0,0l.06-.29c0-.11,0-.23.07-.34.84-3.35,1.63-6.71,2.43-10.07.27-1.13.53-2.25.81-3.36.36-1.54.74-3.07,1.13-4.61.19-.76.39-1.52.58-2.29.4-1.52.81-3,1.24-4.56.19-.68.39-1.36.59-2a.19.19,0,0,1,0-.07c.17-.58.34-1.14.52-1.72.3-1,.62-2,1-3,2.1-6.37,5.74-12.36,9.46-18,2.77-4.23,7.27-6.07,12.62-4.48,6.54,1.93,13,4.07,19.69,5.51,9.29,2,18.44,1,26.7-4a117.5,117.5,0,0,0,12.07-9c4.79-3.83,9.78-4.15,14.86-.91,3,1.89,6.14,3.78,8.37,6.4,2.91,3.42,5.83,6.84,8.72,10.28.32.39.65.77,1,1.16q1.47,1.74,2.91,3.5l1.93,2.34,1.79,2.22c.65.81,1.29,1.63,1.93,2.44l1.9,2.44c.63.81,1.24,1.62,1.85,2.45s1.21,1.62,1.8,2.43l.71,1,1.62,2.27q1.8,2.55,3.55,5.13c.4.59.81,1.19,1.2,1.78l1.56,2.33q.78,1.17,1.53,2.34,1.54,2.34,3.06,4.69,1.41,2.17,2.81,4.37c3.08,4.81,6.15,9.64,9.27,14.42l.07,0,0,.08a.56.56,0,0,1,.15.1s0,.13,0,.19l-.15-.29-.08,0,0,0-1-.14-.62-.1a6.27,6.27,0,0,1-1-.25c-.81-.31-1.63-.59-2.45-.87s-1.49-.51-2.23-.75l-.34-.11c-.67-.22-1.34-.42-2-.62l-1-.29c-1.27-.37-2.55-.73-3.83-1.06L724.35,88l-1.65-.39c-.61-.14-1.21-.28-1.81-.4l-1.12-.23c-1.24-.26-2.48-.48-3.71-.7s-2.23-.36-3.35-.51-2.24-.3-3.36-.42l-1.24-.13c-1.82-.18-3.66-.33-5.5-.42l-1.23-.06-.89,0-1.09,0-2,0c-22.15-.19-42.68,5-61,17.71C634.17,103.86,632.42,103.73,630.13,102.78ZM747,122.24l-8.37.31h0c-6.35-.14-12.71,0-19-.45-2.74-.19-5.47-.4-8.2-.65l-2-.19-2.35-.23c-1.57-.16-3.13-.34-4.69-.53l-1.56-.19-1.67-.22c-1.44-.19-2.89-.39-4.32-.61-1.2-.18-2.41-.37-3.61-.58-2.51-.4-5-.86-7.5-1.35L681,117c-1-.2-2-.42-2.94-.65s-1.87-.42-2.8-.66l-.21,0-2.84-.72-3.65-.88-24.34-5.92a7.1,7.1,0,0,1,2.84-2.55c20.21-10.88,42-14,64.49-12.22l1.39.13c.27,0,.55,0,.82.09q.68.06,1.35.15c1,.13,2,.26,3.07.42h0l1.49.23c2.44.4,4.87.87,7.29,1.36l2.19.45,2.28.48,3.07.64L738,98l.41.08.59.12c.47.09,1,.2,1.43.32l.6.16c.22.07.44.13.65.21A1.66,1.66,0,0,1,742,99a5.42,5.42,0,0,1,.6.26l.27.13,0,0,.27.15c.18.11.35.23.51.35l.24.22c.1.1.2.2.29.31,5,6.2,8.59,13.28,11.57,21.46Z"/><path class="cls-6" d="M786.1,172.05a1.3,1.3,0,0,1-.2.15c0-.18-.08-.35-.11-.53Z"/><path class="cls-25" d="M725.68,148.31a73.65,73.65,0,0,0-5.48-12.5h0c-4.14-.08-8.29-.28-12.45-.56-8.83-.59-17.61-2.12-26.4-3.36a55,55,0,0,1-8.63-1.86c-13.3-4.15-26.56-8.44-39.85-12.64-4.73-1.5-9.46-3-14.19-4.6-10-3.28-20.08-6.53-30.29-9.14a92.11,92.11,0,0,0-14.33-2.49,93.85,93.85,0,0,0-10.58-.42l-1.69.05-2.3.11c-.76,0-1.52.1-2.27.17s-1.52.13-2.28.21l-2.1.25a.39.39,0,0,0-.15,0l-1.42.19-1.26.19c-.89.14-1.78.29-2.67.47-.51.08-1,.19-1.51.29s-.76.16-1.13.24l-1.13.25c-.62.15-1.24.29-1.85.45l-2.15.56-.12,0-1.27.37-1.13.34-1,.33-1.49.5c-1.37.46-2.72,1-4.06,1.5-.37.15-.74.29-1.1.45-1.67.68-3.33,1.43-5,2.23-.41.19-.82.39-1.22.6l-1.21.62c-1.2.63-2.4,1.29-3.59,2l-.86.5c-.56.34-1.12.68-1.67,1-.34.2-.67.42-1,.63s-.78.5-1.16.76-.77.51-1.15.78c-8.1,5.55-15,12.31-19.16,21.36-5.57,12.18-7.07,25-5.41,38.27.66,5.29,2.09,10.34,4.54,14.24.93-10,1.74-20.47,2.9-30.9A30.25,30.25,0,0,1,506.25,140a27.47,27.47,0,0,1,4-2.73c1.4-.83,2.84-1.61,4.21-2.47a66.81,66.81,0,0,0-11.64,33.72,116.33,116.33,0,0,0,.45,15.27c1.42,19.32,11.06,33.13,28,42.4l1.28.7,1.06.55c1,.53,2.05,1,3.08,1.53.46.23.92.45,1.39.66l1.21.55c1.12.51,2.24,1,3.37,1.46l1,.42c1.27.51,2.53,1,3.81,1.47l1.28.46,1.28.46,1.12.38.28.09c.75.26,1.51.5,2.27.74l.4.13c.79.25,1.59.5,2.38.73l2.61.75c.83.24,1.67.47,2.51.69,1.78.47,3.58.92,5.38,1.35l2.63.61,2.66.59c.13-.89.27-1.76.42-2.6a.52.52,0,0,0,0-.11,77.82,77.82,0,0,1,5.86-18.82,51.35,51.35,0,0,1,5.31-9.25,0,0,0,0,0,0,0c7.2-11.82,17.08-21.35,27-30.8a100.79,100.79,0,0,1,20.33-16.22l.93-.6c.63-.4,1.27-.8,1.92-1.18s1.15-.7,1.72-1l1.94-1.1c.82-.46,1.64-.9,2.47-1.34l1.88-.95c.63-.32,1.28-.64,1.92-.94l.72-.33c.52-.25,1-.49,1.58-.72.7-.32,1.41-.62,2.12-.92l.68-.28,1.89-.75c2.22-.86,4.42-1.61,6.62-2.25.49-.15,1-.29,1.47-.42.35-.1.7-.2,1-.28l.63-.16a1.74,1.74,0,0,1,.29-.07l.13,0,.09,0,.1,0h0c.85-.21,1.71-.4,2.56-.57l1-.19c.65-.14,1.3-.25,1.94-.35l1.83-.27.88-.12,1.42-.16,1.12-.1c.57-.05,1.16-.09,1.73-.12l.93,0,.67,0,.75,0c13.36-.28,26.26,3.66,38.6,12.16,5.28,3.64,10,8.07,15,12.14A83,83,0,0,0,725.68,148.31ZM543.28,192.5c-.1-.76-.17-1.51-.23-2.26l2-.83C544.44,190.45,543.87,191.48,543.28,192.5Z"/><path class="cls-6" d="M545,189.41c-.57,1-1.14,2.07-1.73,3.09-.1-.76-.17-1.51-.23-2.26Z"/><path class="cls-6" d="M583.86,209.68c-.34.58-.69,1.15-1,1.75-1.44,2.5-2.86,5-4.28,7.5A51.35,51.35,0,0,1,583.86,209.68Z"/><path class="cls-6" d="M631.22,162.65c-.08,0-.14.09-.22.14-.53.34-1.06.69-1.58,1.05s-.91.61-1.36.93l-.84.58c-1,.66-1.88,1.35-2.82,2.05l-.88.66-1.19.91-.92.72c-.49.38-1,.77-1.44,1.16l-1.63,1.34-.1.09,0,0a56.14,56.14,0,0,0-4.72,4.14l-.06.05h0c-.85.77-1.7,1.57-2.54,2.37A100.79,100.79,0,0,1,631.22,162.65Z"/><path class="cls-6" d="M657.61,150.25c-.05.06-.11.12-.15.18a129.13,129.13,0,0,0-26.24,12.22l.93-.6c.63-.4,1.27-.8,1.92-1.18s1.15-.7,1.72-1l1.94-1.1c.82-.46,1.64-.9,2.47-1.34l1.88-.95c.63-.32,1.28-.64,1.92-.94l.72-.33c.52-.25,1-.49,1.58-.72.7-.32,1.41-.62,2.12-.92l.68-.28,1.89-.75C653.21,151.64,655.41,150.89,657.61,150.25Z"/><path class="cls-25" d="M835.19,83.14a168.89,168.89,0,0,1-15.92,46.2c-8.35,16.39-18.75,31.1-33,42.58-.56-3-4.84-22-20.56-25.44a40.05,40.05,0,0,0-4.75-4.41,26.28,26.28,0,0,0-2.82-1.95,24.78,24.78,0,0,0-11.26-3.54,22,22,0,0,0-5.79.4,21.36,21.36,0,0,0-11.65,6.7c-1.32,1.47-2.54,3-3.74,4.63a73.65,73.65,0,0,0-5.48-12.5c1.37,0,2.75,0,4.13,0l2.85,0,2.29-.05.8,0,2.6-.1c.7,0,1.4-.06,2.12-.11l1.24-.07,2.64-.19,1.92-.17h.05l1-.1c.79-.07,1.58-.16,2.36-.25s1.77-.21,2.65-.33l.17,0c1.56-.21,3.11-.45,4.67-.71.43-.08.87-.15,1.3-.24s.57-.1.85-.15l2.42-.47,1.51-.33,1.28-.28c1.28-.3,2.56-.61,3.84-1l1.27-.35,1.27-.35c1.27-.36,2.55-.75,3.81-1.17l1.27-.41q1.89-.64,3.78-1.35c.36-.14.73-.27,1.09-.42.89-.34,1.78-.7,2.67-1.07,16.19-6.77,30-16.65,40-31.31a81,81,0,0,0,12.77-31c1.81-9.94,3-20,4.48-30,.32-2.15.48-4.33.7-6.5a4.54,4.54,0,0,1,.53,1.2C839.46,46.85,838.55,65,835.19,83.14Z"/><path class="cls-5" d="M836,27.38c-.22,2.17-.38,4.35-.7,6.5-1.45,10-2.67,20-4.48,30a81,81,0,0,1-12.77,31c-10,14.66-23.8,24.54-40,31.31-.89.37-1.78.73-2.67,1.07-.36.15-.73.28-1.09.42q-1.89.71-3.78,1.35l-1.27.41c-1.26.42-2.54.81-3.81,1.17l-1.27.35-1.27.35c-1.28.34-2.56.65-3.84,1l-1.28.28-1.51.33-2.42.47c-.28.05-.56.11-.85.15s-.87.16-1.3.24c-1.56.26-3.11.5-4.67.71l-.17,0c-.88.12-1.76.23-2.65.33s-1.57.18-2.36.25l-1,.1h-.05l-1.92.17-2.64.19-1.24.07c-.72,0-1.42.08-2.12.11l-2.6.1-.8,0-2.29.05-2.85,0c-1.38,0-2.76,0-4.13,0h0c-4.14-.08-8.29-.28-12.45-.56-8.83-.59-17.61-2.12-26.4-3.36a55,55,0,0,1-8.63-1.86c-13.3-4.15-26.56-8.44-39.85-12.64-4.73-1.5-9.46-3-14.19-4.6-10-3.28-20.08-6.53-30.29-9.14a92.11,92.11,0,0,0-14.33-2.49,93.85,93.85,0,0,0-10.58-.42l-1.69.05-2.3.11c-.76,0-1.52.1-2.27.17s-1.52.13-2.28.21-1.4.15-2.1.25a.39.39,0,0,0-.15,0l-1.42.19-1.26.19c-.89.14-1.78.29-2.67.47-.51.08-1,.19-1.51.29s-.76.16-1.13.24l-1.13.25c-.62.15-1.24.29-1.85.45s-1.44.37-2.15.56l-.12,0-1.27.37-1.13.34-1,.33-1.49.5c-1.37.46-2.72,1-4.06,1.5-.37.14-.74.29-1.1.45-1.67.68-3.33,1.43-5,2.23-.41.19-.82.39-1.22.6s-.81.4-1.21.62c-1.2.63-2.4,1.29-3.59,2l-.86.5c-.56.34-1.12.68-1.67,1-.34.2-.67.41-1,.63s-.78.5-1.16.76-.77.51-1.15.78c-8.1,5.55-15,12.31-19.16,21.36-5.57,12.18-7.07,25-5.41,38.27.66,5.29,2.09,10.34,4.54,14.24.93-10,1.74-20.47,2.9-30.9A30.25,30.25,0,0,1,506.25,140a27.47,27.47,0,0,1,4-2.73c1.4-.83,2.84-1.61,4.21-2.47a66.81,66.81,0,0,0-11.64,33.72,116.33,116.33,0,0,0,.45,15.27c1.42,19.32,11.06,33.13,28,42.4l1.28.7,1.06.55c1,.53,2.05,1,3.08,1.53.46.23.92.45,1.39.66l1.21.55c1.12.51,2.24,1,3.37,1.46l1,.42c1.27.51,2.53,1,3.81,1.47l1.28.46,1.28.46,1.12.38.28.09c.75.26,1.51.5,2.27.74l.4.13c.79.25,1.59.5,2.38.73l2.61.75c.83.24,1.67.47,2.51.69,1.78.47,3.58.92,5.38,1.35.88.21,1.75.42,2.63.61l2.66.59c-.25,1.62-.49,3.23-.7,4.84l-2.42-.36q-2.85-.44-5.67-1l-1-.19-1.1-.22c-1.11-.22-2.22-.46-3.32-.71l-2-.46-1.44-.36-1.61-.42c-1.26-.33-2.52-.69-3.78-1.06l-1.27-.39-1-.33-1-.31-1.32-.45c-23.06-7.9-42.61-20.48-56.12-41.37-15.5-24-13.76-54.18,4.68-75.65,11.76-13.69,27.18-21.54,44.07-26.93l1.77-.54,1.22-.36.26-.07,1.47-.41,1.37-.35,1.22-.31,1.23-.28,1.22-.26c.85-.18,1.69-.34,2.54-.5l.73-.13.94-.15.38-.06,1.45-.2,1.33-.17.91-.1.5,0c.35,0,.7-.07,1-.09.92-.09,1.84-.14,2.76-.18l1.42,0,1.54,0h.1l1.4,0h.4c.42,0,.83,0,1.25,0l.26,0,1.26.07.17,0c.54,0,1.06.08,1.6.14.76.07,1.54.16,2.31.27l.83.12c.69.1,1.39.22,2.09.35q.53.09,1,.21l1,.19,1.14.27,2.05.51a205.76,205.76,0,0,1,29.3,9.93q11.44,4.83,23.07,8.89a324,324,0,0,0,84.49,17.71l1.7.12a217.7,217.7,0,0,0,22.1.41h.15c.89,0,1.79-.08,2.68-.14l1.3-.08c.42,0,.84,0,1.25-.09s1.09-.08,1.64-.14.87-.07,1.31-.12l1.91-.2c.57-.07,1.14-.13,1.7-.21s1.24-.16,1.87-.25l1.85-.28,1.78-.3.07,0c.63-.11,1.24-.22,1.86-.35s1.24-.24,1.85-.38l1.85-.41c22.36-5.22,39.54-17.51,51.07-37.52,7.32-12.72,13.11-26,15.82-40.54a71.79,71.79,0,0,0,.34-26.47c-3.24,31.93-13,60.77-38.4,83.33a25.68,25.68,0,0,1,.52-3.11c8.08-23.21,16-46.49,24.42-69.58,2.39-6.56,5.95-12.77,9.58-18.78,2-3.36,5-2.94,6.41.73C834.4,19.1,835,23.31,836,27.38Z"/><path class="cls-5" d="M740.43,92.61c-8.17-12.49-15.92-25.29-24.63-37.38C708.22,44.72,699.68,34.88,691.28,25c-2.23-2.62-5.41-4.52-8.37-6.4-5.08-3.24-10.07-2.91-14.87.91a117.38,117.38,0,0,1-12.06,9c-8.26,5-17.41,6-26.7,4-6.65-1.44-13.15-3.58-19.69-5.51-5.35-1.58-9.85.25-12.63,4.48-3.71,5.67-7.35,11.66-9.46,18-3.43,10.33-5.61,21.08-8.26,31.67a24.58,24.58,0,0,0-.41,3.68c7.79,2.17,15.46,3.85,22.8,6.47,9.65,3.44,19,7.57,28.51,11.52,2.28,1,4,1.08,6.26-.48,18.32-12.73,38.85-17.89,61-17.7a119.08,119.08,0,0,1,40.43,7.47,17.6,17.6,0,0,0,2.64.51ZM678.25,24.3C700.2,36,711.5,57,722.35,79.77c-20.19-2.45-39.55-4.47-58.12,3.38-.28-.43-.47-.59-.5-.78a82.78,82.78,0,0,0-9.36-29.06c-.42-.76.14-2.65.88-3.36,2.68-2.61,6-4.64,8.42-7.45C668.62,36.8,673.14,30.74,678.25,24.3Zm-9.72.46.44.35a31.78,31.78,0,0,1-2.63,3.78c-12.67,13.68-28.21,21.89-46.83,23.45-4.63.38-9.52-.85-14.1-2-3.5-.92-6.32-3.38-6.52-7.49-.22-4.37,2-7.34,5.85-9.21,4.57-2.24,9.24-1.68,13.53.45,14.1,7,27.55,5.51,40.58-2.65C662.17,29.33,665.31,27,668.53,24.76Z"/><path class="cls-26" d="M672.19,114.91a257.64,257.64,0,0,0,47.42,7.19c6.33.43,12.7.32,19,.45-1.27-6-2.49-11.94-3.85-17.89-.6-2.6-2.5-3.68-5.11-4.29-9.76-2.29-19.62-3.63-29.61-2.94-9.46.66-18.89,1.84-28.33,2.76-3.23.32-3.5,1.83-2.43,4.63C670.57,108.07,671.26,111.54,672.19,114.91Z"/><path class="cls-5" d="M672.19,114.91c-.93-3.37-1.62-6.84-2.86-10.09-1.07-2.8-.8-4.31,2.43-4.63,9.44-.92,18.87-2.1,28.33-2.76,10-.69,19.85.65,29.61,2.94,2.61.61,4.51,1.69,5.11,4.29,1.36,6,2.58,11.92,3.85,17.89l17.16-.63c-3-8.17-6.56-15.26-11.57-21.46-1.22-1.51-4-2-6.21-2.45-8.81-1.72-17.6-4-26.51-4.67C689,91.52,667.25,94.68,647,105.56a6.94,6.94,0,0,0-2.83,2.55Z"/><path class="cls-27" d="M740.47,92.58l.19.37c0-.07,0-.15,0-.19a1.3,1.3,0,0,0-.23-.15Z"/><path class="cls-28" d="M514.44,134.75l.31-.13-.31.13Z"/><path class="cls-26" d="M678.25,24.3c-5.11,6.44-9.63,12.5-14.58,18.2-2.43,2.81-5.74,4.84-8.42,7.45-.74.71-1.3,2.6-.88,3.36a82.78,82.78,0,0,1,9.36,29.06c0,.19.22.35.5.78,18.57-7.85,37.93-5.83,58.12-3.38C711.5,57,700.2,36,678.25,24.3Z"/><path class="cls-29" d="M668.53,24.76c-3.22,2.22-6.36,4.57-9.68,6.64-13,8.16-26.48,9.63-40.58,2.65-4.29-2.13-9-2.69-13.53-.45-3.81,1.87-6.07,4.84-5.85,9.21.2,4.11,3,6.57,6.52,7.49,4.58,1.19,9.47,2.42,14.1,2,18.62-1.56,34.16-9.77,46.83-23.45A31.78,31.78,0,0,0,669,25.11Z"/><path class="cls-30" d="M640.6,285.87l-1.25-.57Z"/><path class="cls-31" d="M563.18,284.23l-.35-.41c0,.21,0,.42.08.63Z"/><path class="cls-32" d="M706.34,174.65l.67.38c0-.27-.1-.53-.14-.8Z"/><path class="cls-33" d="M735,165.73l.45-.3-.6.12Z"/><path class="cls-4" d="M765.69,146.48l.07.08-.24-.12Z"/><path class="cls-4" d="M786.32,172.3l-.22-.25a.93.93,0,0,0,.15-.13C786.29,172.13,786.32,172.25,786.32,172.3Z"/><path class="cls-6" d="M631.22,162.65c-.08,0-.14.09-.22.14-.53.34-1.06.69-1.58,1.05s-.91.61-1.36.93l-.84.58c-1,.66-1.88,1.35-2.82,2.05l-.88.66-1.19.91-.92.72c-.49.38-1,.77-1.44,1.16l-1.63,1.34-.1.09,0,0q-1.82,1.53-3.59,3.12c-.38.34-.76.67-1.13,1l-.06.05h0c-.85.77-1.7,1.57-2.54,2.37A100.79,100.79,0,0,1,631.22,162.65Z"/><path class="cls-2" d="M545,189.41c-.57,1-1.14,2.07-1.73,3.09-.1-.76-.17-1.51-.23-2.26Z"/><path class="cls-2" d="M782.49,213.54c-11.27,0-24.15-6.91-26.47-26.29-.09-.71-.16-1.39-.24-2.07-.52-4.64-1-9-2.24-12.71-1.33-4-2.69-4-3.68-4a12.46,12.46,0,0,0-4.09.86,18.29,18.29,0,0,1-6.12,1,14.5,14.5,0,0,1-8.47-2.53l-.18-.12-.17-.14c-9.19-7.16-20.08-9-33.29-10.49l-12.46,2.39,2.14-15.53.55-3.84,2.94-2.52c5.84-5,11.33-10.42,17.15-16.15,10.43-10.29,21.21-20.91,34.22-29.07,5.82-4.81,14.18-7.45,23.69-7.45,13.83,0,30.08,5.64,35.19,18.22,2,5,3.72,15-7.38,26.05C805,132,814,138.82,819,148.62c5.24,10.19,5.42,22.55.5,34a38.08,38.08,0,0,1-13.31,21.68C799.18,210.16,790.53,213.54,782.49,213.54Z"/><path class="cls-34" d="M745.78,140.25l.09-.08v0A.24.24,0,0,0,745.78,140.25Z"/><path class="cls-34" d="M697.39,145.34c17.09-14.64,31.57-32.87,50.78-44.71,4.22,0,8.48-.24,12.66.15,10.58,1,16.72,10.34,11.38,17.85-7.07,9.09-22.92,8.9-26.34,21.56-.3.17-1,.79-1.43,1.11,1.67.13,3.48.75,5,.32,13.31-3.87,26.74-5.89,40.51-2.78,19.47,4.1,28.16,22.78,19.64,40.84l0,0c-9.29,9.95-23.5,19.07-29.64,1-3.19-18.18-17.55-33.81-36.73-28.14a9.36,9.36,0,0,1-6.61-.88c-12.47-7.73-25.74-7.58-39.44-5C697.26,146.23,697.32,145.78,697.39,145.34Z"/><path class="cls-35" d="M697.38,146.71c13.64-2.8,26.86-2.68,39.26,4.93a9.36,9.36,0,0,0,6.61.88c19.18-5.67,33.54,10,36.73,28.14,6.11,18.05,20.39,8.94,29.64-1-3.33,22.19-39.78,36.7-43.41,6.37-.66-5.64-1.16-11.44-2.93-16.78-3.36-10.19-10.89-13.23-21-9.61-1.54.55-4,.67-5.17-.18C725.29,150.22,711.61,148.26,697.38,146.71Z"/><path class="cls-35" d="M745.87,140.19c3.42-12.65,19.27-12.48,26.34-21.56,5.34-7.51-.8-16.85-11.38-17.85-4.18-.39-8.44-.12-12.66-.15,15.11-13.56,60.39-.33,37.8,21.62C774.14,130.81,759.31,134.71,745.87,140.19Z"/><path class="cls-35" d="M744.44,141.3l1.46-1.15Z"/><path class="cls-2" d="M691.82,136.58s-10.13,8.46-22.25,11.15,15.1,8.16,15.1,8.16l4.26-1.56"/><path class="cls-35" d="M697.2,146.88s21.6,14.55,32.6,24.67c0,0,8.43-11.34,17.34-13.17s-9.77-4-9.77-4l-15.91-6.13-10.26-1.32"/><path class="cls-2" d="M742.28,160.25a38.92,38.92,0,0,0-12.48,11.3c-5.19,7.51-1.67,7.07-1.67,7.07l7-4.39L741,169"/><polyline class="cls-2" points="739.23 178.87 731.65 189.92 726 182.66"/><path class="cls-2" d="M772,297.82v.06l0-.09Z"/><polygon class="cls-2" points="245.26 730.31 265.22 649.76 203.14 614.92 246.76 589.98 269.37 577.06 310.86 553.34 315.38 563.5 315.65 564.11 315.66 564.13 315.99 564.87 320.91 575.93 263.31 601.53 250.11 611.61 295.08 636.85 283.37 684.11 339.39 658.12 320.18 593.47 332.58 589.78 344.99 586.09 370.56 672.19 245.26 730.31"/><polygon class="cls-2" points="1007.98 665.49 1052.19 543.75 1183.14 610.56 1119.79 649.64 1135.06 730.14 1007.98 665.49"/><path class="cls-36" d="M770.56,533.85l-4.29-.16,4.23.11S770.54,533.84,770.56,533.85Z"/><path class="cls-37" d="M745.66,533.15q9.76.14,20.59.54Q756,533.41,745.66,533.15Z"/><path class="cls-2" d="M1070.06,529.68a53.43,53.43,0,0,1-1.82,6.44l-2.55,7.31-.15.41-2,5.71L1056.79,569q-2.74,7.86-5.49,15.73l-17,48.78q-.3.85-.6,1.68l-.94,2.56a11.35,11.35,0,0,1-2.3,3.8,11.42,11.42,0,0,1-8.42,3.71,11.34,11.34,0,0,1-5.21-1.26l-.86-.43c-2.42-1.23-4.82-2.39-7.16-3.45l-.07,0c-2-.92-4.13-1.87-6.59-2.91l-2.48-1c-1.67-.69-3.37-1.36-5-2-16.11-6.21-33.26-11.06-49.83-15.74l-11.1-3.16c-11.47-3.29-23.19-6.37-34.83-9.14-2.75-.67-5.6-1.33-8.76-2.05-23.79-5.42-48.81-10-74.62-13.62q-11.46-1.63-23.12-3-11-1.29-22.11-2.3c-17.85-1.61-36-2.67-54.27-3.15q-11.78-.33-23.6-.32c-10.22,0-20.62.17-31.05.52-4,.13-8,.3-12,.48q-21.81,1-43.57,3.09-31.72,3-63.3,8.31a928.6,928.6,0,0,0-160.22,41.88c-1.81.66-3.78,1.46-6.18,2.55-1.36.6-2.73,1.24-4.1,1.89l-1.9.9c-1.95.92-4,1.88-6.11,2.84a12.76,12.76,0,0,1-1.57.56,11.41,11.41,0,0,1-13.87-7.21l-4.41-12.58c-2.3-6.55-4.7-13.37-7.14-20.35l-2.6-7.42-2.48-7.1c-.31-.9-.63-1.8-.95-2.71-.11-.33-.23-.67-.35-1-2.71-7.79-5.5-15.83-8.56-24.67l-4.19-12.13c-1.65-4.76-3.37-9.77-5.2-15.09-5.48-16,1.49-25.05,6.13-29.07l.07-.06c.47-.4.95-.79,1.44-1.15l.07-.05a30.71,30.71,0,0,1,5-3,34.6,34.6,0,0,1,3.57-1.51c30.77-11.32,59.86-20.72,87.82-28.35,14.55-4,28.78-7.46,42.78-10.49q8.31-1.81,16.52-3.39l.25-.05c13.69-2.65,27.15-5.11,40-7.3,7-1.19,13.8-2.3,20.41-3.33,2.16-.35,4.3-.67,6.41-1q6.26-.94,12.42-1.82c9.56-1.36,18.93-2.57,28-3.64,6.27-.73,12.57-1.41,18.76-2,4.67-.45,8.76-.81,12.53-1.13H615c4.17-.34,8-.64,11.74-.89l.67-.05,6.28-.4c6.26-.38,12.59-.69,18.85-.93,10.54-.41,21.15-.62,31.55-.62,2.73,0,5.48,0,8.21.05h0c7.69.07,15.37.27,23,.57h0c5.7.23,11.38.52,17,.87l2,.12c1.36.09,2.73.17,4.09.27,5.39.34,10.83.71,16.26,1.09h.12l.68,0,10.94.81c5.13.4,10.13.8,15,1.21,6.71.58,13.21,1.17,19.56,1.79l7.47.74,9.48,1,5.31.6c1.49.17,3,.34,4.62.54s3.39.41,5.21.64l5.2.67c1.54.2,3,.41,4.46.61l.16,0c3.89.55,6.9,1,9.76,1.41q4.9.75,9.75,1.53c4.87.79,9.78,1.64,14.61,2.51,7.71,1.4,15.49,2.9,23.29,4.52q7.61,1.59,15.23,3.31c3.24.72,6.49,1.47,9.72,2.23,3.44.81,7,1.67,10.56,2.56l2,.49,6.61,1.67c6.16,1.58,12.57,3.3,19,5.09,4.87,1.35,9.66,2.71,14.24,4,18.33,5.34,36.28,11.32,54.58,17.48l5.93,2,12,4a44.06,44.06,0,0,1,8.53,3.82l.11.06c.39.24.85.53,1.35.88a25.06,25.06,0,0,1,2.72,2.09c.32.28.63.56.95.88C1068.05,510.47,1072.5,517.81,1070.06,529.68Z"/><path class="cls-3" d="M1058.87,527.39a39.6,39.6,0,0,1-1.41,5l-2.55,7.35h0q-7.19,20.63-14.38,41.26l-17,48.6c-.2.58-.4,1.16-.61,1.72l-.93,2.55c-2.81-1.43-5.64-2.81-8.48-4.11-2.3-1.07-4.63-2.09-7-3.07-.87-.37-1.74-.73-2.62-1.08-1.74-.72-3.49-1.41-5.25-2.09-20.19-7.78-41.14-13.26-61.88-19.22q-17.6-5.06-35.35-9.28c-3-.71-5.92-1.4-8.88-2.07a942.69,942.69,0,0,0-98.92-16.84,886.65,886.65,0,0,0-144.88-4.84c-92.81,4.3-182.95,22.59-270.41,53.95-2.36.85-4.68,1.82-7,2.87-1.56.69-3.12,1.43-4.71,2.18-2.38,1.12-4.82,2.3-7.38,3.44q-2.19-6.24-4.43-12.59c-4.46-12.69-9-25.62-13.5-38.55q-9-25.92-17.94-51.86c-2.53-7.35-1.67-12.84,2.81-16.72l.89-.71a20.16,20.16,0,0,1,3.21-1.91,26.84,26.84,0,0,1,2.57-1.09c47.51-17.48,95.89-32.17,145.58-41.77q19.83-3.84,39.77-7.26,13.29-2.25,26.62-4.29,20-3,40-5.41,9.27-1.08,18.54-2,6.16-.58,12.36-1.1h0q6.18-.51,12.36-.94l6.21-.4q9.29-.56,18.58-.92a781.41,781.41,0,0,1,78.63.86l6,.38c5.4.35,10.82.72,16.22,1.1l.78.05,10.92.81c18.83,1.44,37.65,3.16,56.4,5.3q4.86.56,9.7,1.16c3.22.41,6.45.84,9.66,1.29h0q4.83.67,9.64,1.39t9.63,1.51c4.8.78,9.61,1.61,14.4,2.47q24,4.33,47.65,9.95c3.48.81,6.94,1.65,10.41,2.52,2.84.7,5.67,1.41,8.51,2.14,6.29,1.61,12.58,3.3,18.84,5q7.05,2,14.08,4c18.19,5.3,36.17,11.29,54.14,17.34q9,3,18,6a32.86,32.86,0,0,1,6.31,2.79c.3.19.6.37.88.57a14.83,14.83,0,0,1,1.66,1.28,5.66,5.66,0,0,1,.44.4C1059.13,517.69,1060,521.8,1058.87,527.39Z"/><polygon class="cls-3" points="315.65 564.11 256.67 590.33 226.63 613.27 280.15 643.3 264.31 707.21 354.98 665.15 332.58 589.78 315.65 564.11"/><polygon class="cls-3" points="1059.35 561.92 1024.04 659.14 1117.44 706.66 1105.42 643.3 1156.77 611.63 1059.35 561.92"/><path class="cls-2" d="M481.77,674.81l-6.92-19.08-3.37-9.31-1.75-4.87-.05-.12a9.52,9.52,0,0,1-.42-1.38l-1.34-6.16,15.46-3.6,24.93-5.8L514.88,648l-.87.21,2,6.2,2.65-.7L526,677.05l-7,1.86c-1.79.47-3.84,1.06-5.82,1.63L500,684.38l-.8.23c-1.91.55-3.88,1.11-6,1.69L486,688.18Z"/><polygon class="cls-2" points="515.22 675.89 514.64 673.35 511.83 663.43 509.94 656.74 501.15 625.57 527.87 619.43 536.61 650.42 545.98 648.32 552.45 671.86 523.63 678.33 520.47 679.05 515.22 675.89"/><path class="cls-2" d="M581.47,667.74c-.65,0-1.3,0-1.93-.07a27.38,27.38,0,0,1-2.73-.31l-.13,0-.12,0c-.76-.14-1.45-.3-2.06-.44l-.3-.07-.13,0a28.55,28.55,0,0,1-15.12-10l-.05-.06a33.59,33.59,0,0,1-2-2.93l-.15-.25c-.23-.37-.49-.79-.79-1.36l-.17-.31c-.18-.35-.42-.78-.64-1.26a27.5,27.5,0,0,1-2.49-14.34,28,28,0,0,1,5.5-14.06,30.13,30.13,0,0,1,14.42-10.45A29.79,29.79,0,0,1,582,610.2c.42,0,.84,0,1.25,0a29,29,0,0,1,10.41,2.44l7,3.1-7.53,12.08a23.14,23.14,0,0,1,5.05,2.82,24.54,24.54,0,0,1,2.65,2.25c.36.37.75.77,1.15,1.22l.12.15.48.57c.18.23.45.58.73,1l0,0A18.8,18.8,0,0,1,606.71,646a18.06,18.06,0,0,1-.7,5.5,18.25,18.25,0,0,1-2.64,5.48,23.12,23.12,0,0,1-3.46,3.91l-.12.1a25,25,0,0,1-4.38,3.11,28.86,28.86,0,0,1-13.94,3.61Z"/><path class="cls-2" d="M590.65,618.76l-2.88-5.21,1.87-.77-.21-1.27,6-1.11a63,63,0,0,1,8.61-2.74,45.94,45.94,0,0,1,10.64-1.29h.74l1.44,0,1.6.13h.13a32.59,32.59,0,0,1,3.37.54,27,27,0,0,1,7.42,2.7,22.92,22.92,0,0,1,6.45,5.2,19.24,19.24,0,0,1,3.86,7.2,18.49,18.49,0,0,1-2.51,15.2,21.41,21.41,0,0,1-1.7,2.25,61.49,61.49,0,0,1,5.49,6.2l4.42,5.73-23.25,13.19-2-2.65L598.47,665Z"/><path class="cls-2" d="M628.49,659.13l.53-6.77c.27-3.56.65-7.07,1.19-11.05s1.21-7.74,1.94-11.13a77.2,77.2,0,0,1,3.45-11.86c.5-1.26,1-2.35,1.52-3.4.34-.66.67-1.27,1-1.87l.42-.7.45-.66a18.34,18.34,0,0,1,1.17-1.6,20.13,20.13,0,0,1,6.25-5.3,19.17,19.17,0,0,1,8.93-2.34h.51a21,21,0,0,1,8.29,1.74l.07,0a21.91,21.91,0,0,1,6.7,4.69,13.41,13.41,0,0,1,1,1.09l.18.2c.31.35.58.68.82,1l.33.44c.46.62.88,1.25,1.27,1.87a36.86,36.86,0,0,1,1.88,3.39,65.74,65.74,0,0,1,4.26,12c.9,3.47,1.66,7.14,2.34,11.24.29,1.82.56,3.68.8,5.54.2,1.58.43,3.48.62,5.65l.58,6.69-27.49,1.77-.38-4.34-.75,0-.38,4.85Z"/><polygon class="cls-2" points="670.87 602.48 696.6 601.66 697.5 604.24 721.24 603.57 723.22 658.2 695.68 658.98 695.66 658.3 673.36 659.01 670.87 602.48"/><path class="cls-2" d="M733.17,659.58l2.43-47.12-1.77-5.83,2.08-.44.09-1.72,6.64.31a62.1,62.1,0,0,1,8.57-1c.92-.05,1.84-.07,2.74-.07a44.27,44.27,0,0,1,8.66.81l1.57.34,1.55.42.13,0a34.05,34.05,0,0,1,3.22,1.13,26.09,26.09,0,0,1,6.73,4A21.56,21.56,0,0,1,781,616.7a18.71,18.71,0,0,1,2.23,7.8,19.15,19.15,0,0,1-5.82,14.55,23.48,23.48,0,0,1-6.92,4.75,26.1,26.1,0,0,1-4,1.45l-.16,0c-.54.14-1.22.31-2,.44l-.86.16-.78.1-1.23.15-.75,14.72Z"/><path class="cls-2" d="M789.4,664.7l.55-4.32-.74-.09L787.8,665l-26.74-6.05,2-6.55c1-3.44,2.15-6.82,3.54-10.64s2.83-7.37,4.28-10.58a81,81,0,0,1,5.92-11c.76-1.14,1.48-2.13,2.23-3.07.46-.59.93-1.13,1.41-1.66l.56-.61.58-.57c.5-.5,1-1,1.49-1.36a21.25,21.25,0,0,1,7.27-4.11,19,19,0,0,1,6.08-1,20,20,0,0,1,3.18.26,20.2,20.2,0,0,1,8.26,3.24l.06.05a20.35,20.35,0,0,1,5.57,5.78,12.42,12.42,0,0,1,.74,1.23l.13.23c.24.41.43.77.6,1.13l.23.49c.31.68.6,1.37.84,2a33.77,33.77,0,0,1,1.12,3.66,63.39,63.39,0,0,1,1.6,12.56c.14,3.56.1,7.3-.11,11.44-.1,1.84-.23,3.71-.4,5.57-.2,2.25-.38,3.94-.6,5.66l-.86,6.66Z"/><polygon class="cls-2" points="805.51 666.76 814.01 611 841.29 614.52 832.79 670.29 805.51 666.76"/><path class="cls-2" d="M845.56,673.28a24.27,24.27,0,0,1-9.66-2,22.1,22.1,0,0,1-9-7,19.34,19.34,0,0,1-3.76-9.41l-.59-5.27,9.43-2.89c-.27-.33-.53-.69-.8-1.06l-.09-.14a19.14,19.14,0,0,1-2.39-4.65,16.23,16.23,0,0,1-.89-6,15,15,0,0,1,.31-2.57l.07-.35,0-.16a16.3,16.3,0,0,1,.81-2.54,18.56,18.56,0,0,1,2.64-4.56,21.92,21.92,0,0,1,8.67-6.6,24.52,24.52,0,0,1,12.2-1.81,25.29,25.29,0,0,1,10.86,3.77c3.66,2.33,7.84,7.79,8.94,9.52l4,6.2-13.18,5.78a1.47,1.47,0,0,1,.1.13,20.46,20.46,0,0,1,4.16,8.48,17.75,17.75,0,0,1,.37,5.16,18.47,18.47,0,0,1-.42,2.66c-.09.39-.2.77-.31,1.14l0,.14c-.17.52-.36,1-.5,1.33l-.12.28a17.92,17.92,0,0,1-3.24,4.9,21,21,0,0,1-4.07,3.47,24.83,24.83,0,0,1-10.53,3.84h-.06A25.19,25.19,0,0,1,845.56,673.28Z"/><path class="cls-2" d="M875.48,680.67l1.15-4.22-.73-.18-2,4.5-25.7-9,2.85-6.28c1.5-3.29,3.08-6.52,5-10.15s3.83-7,5.7-10A83.71,83.71,0,0,1,869.08,635c.92-1.06,1.77-2,2.63-2.8.55-.53,1.08-1,1.63-1.49l.63-.53.66-.51c.56-.44,1.1-.82,1.66-1.18a22,22,0,0,1,7.78-3.26,19.18,19.18,0,0,1,3.95-.41,20.11,20.11,0,0,1,5.34.73,19.88,19.88,0,0,1,7.76,4.15l0,0a19.92,19.92,0,0,1,4.73,6.36,14.18,14.18,0,0,1,.57,1.31l.09.24a12.65,12.65,0,0,1,.44,1.19l.16.51c.22.72.4,1.44.55,2.13a34.78,34.78,0,0,1,.61,3.76,64.58,64.58,0,0,1-.13,12.64c-.35,3.54-.91,7.24-1.69,11.34-.35,1.81-.74,3.65-1.16,5.48-.36,1.57-.8,3.44-1.37,5.55l-1.77,6.51Z"/><path class="cls-38" d="M511.21,661.2l3.33,10.54c-2,.52-4.16,1.15-6.29,1.76l-6.43,1.87-6.48,1.88c-2.19.63-4.3,1.25-6.68,1.88l-2.22-7-7-19.21-3.36-9.31L475,640.37l-.58-1.6c-.09-.26-.21-.54-.27-.79l1-.22,7.76-1.81,17.78-4.14,3,10.62-13.25,3.09,1.36,3.76L493,652.9l11.74-3,3.34,10.53-11.31,2.94.66,1.81.61-.18,6.48-1.88C506.72,662.45,508.83,661.83,511.21,661.2Z"/><path class="cls-38" d="M541.17,666.22l-19.72,4.42-1.82.41-.11,0h-.06a.06.06,0,0,1,0,0l-.06-.19-.1-.36-.21-.73-.83-2.93L516.59,661l-1.88-6.68-7-24.72,12.46-2.86,7,24.72,1.76,6.23,9.32-2.09Z"/><path class="cls-38" d="M597,645.42a12,12,0,0,1-2.19,7.22,16.76,16.76,0,0,1-2.48,2.8,18.47,18.47,0,0,1-3.13,2.23,20.22,20.22,0,0,1-7.49,2.45,21.21,21.21,0,0,1-6.05-.11c-.64-.12-1.26-.26-1.89-.41a20.66,20.66,0,0,1-6.61-3.09,22.11,22.11,0,0,1-4.62-4.39,28.11,28.11,0,0,1-1.65-2.36c-.26-.42-.46-.74-.7-1.19s-.48-.87-.68-1.31a21.17,21.17,0,0,1-1.93-11.17,21.58,21.58,0,0,1,4.26-10.9,22.8,22.8,0,0,1,10.93-8,21.65,21.65,0,0,1,7.79-1.13,20.91,20.91,0,0,1,7.54,1.77L582,627.62a6.21,6.21,0,0,0-4.73-.2,10,10,0,0,0-4.66,3.53,11.34,11.34,0,0,0-2,4.51,24.63,24.63,0,0,1,4.26-2.17,21,21,0,0,1,5.27-1.24,16.54,16.54,0,0,1,6.09.53,15.8,15.8,0,0,1,5,2.47,15.36,15.36,0,0,1,1.86,1.59,9.68,9.68,0,0,1,.82.87l.4.47c.14.18.31.4.45.6A12.73,12.73,0,0,1,597,645.42Zm-13.33-1.12,0,0-.09-.11a3.07,3.07,0,0,0-.25-.26,4.59,4.59,0,0,0-.55-.47,2.92,2.92,0,0,0-.84-.45,1.87,1.87,0,0,0-.68,0,6.26,6.26,0,0,0-1.36.33,11.18,11.18,0,0,0-3.38,2.21,15,15,0,0,0-1.75,2,8.32,8.32,0,0,0,.68.53,7.53,7.53,0,0,0,2.35,1.12l.62.13a4.69,4.69,0,0,0,.54.06,4.85,4.85,0,0,0,1.14,0,5.3,5.3,0,0,0,3.73-2.1,2.06,2.06,0,0,0,.35-1.3A3,3,0,0,0,583.67,644.3Z"/><path class="cls-38" d="M622.26,638.61a56.7,56.7,0,0,1,10.32,10.27L621.82,655a45.92,45.92,0,0,0-8.21-8.15L615,655l-12.72,1.71L595.39,616h0v0a54.48,54.48,0,0,1,8.13-2.64,37.5,37.5,0,0,1,9.26-1.08l1.25,0,1.26.11a24.06,24.06,0,0,1,2.61.4,19.26,19.26,0,0,1,5.31,1.93,15.26,15.26,0,0,1,4.41,3.55,12.75,12.75,0,0,1,2.58,4.78,12.36,12.36,0,0,1-1.71,10.18,15.19,15.19,0,0,1-3.94,4A18.29,18.29,0,0,1,622.26,638.61Zm-4.56-12.89a2.91,2.91,0,0,0-1.5-1.74,5.37,5.37,0,0,0-1.53-.54c-.27-.07-.7-.12-1.07-.17l-.6,0-.63,0a18.47,18.47,0,0,0-2.73.16l1.19,7a24.27,24.27,0,0,0,4.2-.91l.31-.1.18-.07.34-.14a4.83,4.83,0,0,0,.59-.35,3.34,3.34,0,0,0,.87-.89A2.67,2.67,0,0,0,617.7,625.72Z"/><path class="cls-38" d="M661.46,647.7l-14.25.72c-.15,1.42-.29,2.82-.39,4.2L634,652c.28-3.66.67-7.14,1.16-10.71s1.08-7.09,1.85-10.67a71.43,71.43,0,0,1,3.16-10.9c.38-.94.79-1.88,1.29-2.86.24-.48.51-1,.81-1.48l.31-.52.38-.56a12.6,12.6,0,0,1,.81-1.11,13.23,13.23,0,0,1,4.1-3.53,11.3,11.3,0,0,1,5.33-1.38,12.64,12.64,0,0,1,5.44,1.09,14.46,14.46,0,0,1,4.5,3.19c.34.32.62.69.93,1a6.38,6.38,0,0,1,.42.52l.3.39c.35.49.68,1,1,1.45.6,1,1.11,1.9,1.57,2.83a59.3,59.3,0,0,1,3.83,10.88c.92,3.57,1.62,7.12,2.21,10.67.29,1.78.55,3.55.77,5.33s.43,3.52.6,5.41l-12.83.82C661.8,650.58,661.64,649.13,661.46,647.7Zm-12.74-10.33,11-.55c-.33-1.58-.68-3.15-1.08-4.69a49.8,49.8,0,0,0-3.15-9,20.39,20.39,0,0,0-1-1.87c-.18-.29-.36-.55-.54-.8l-.12-.15v0h0l0,0c-.16.27-.32.57-.48.89-.32.62-.62,1.31-.91,2a61.89,61.89,0,0,0-2.69,9.36C649.3,634.16,649,635.76,648.72,637.37Z"/><path class="cls-38" d="M713.26,651l-12.85.36-.11-2.84c-3.14-4.07-10-14.22-10-14.22l.55,16.66-12.84.41-1.9-43.23,12.75-.41c1,2.74,7.66,18.06,10.65,21.25l-.63-19,12.85-.36ZM689,607.7h-.1a2.49,2.49,0,0,1-.12-.41Z"/><path class="cls-38" d="M769.63,633.8a16.1,16.1,0,0,1-4.78,3.27,18.56,18.56,0,0,1-2.82,1c-.48.12-1,.25-1.46.33l-.73.13-.61.08a38.66,38.66,0,0,1-7.17.26l-.73,14.2-12.84-.59,2.14-41.57,0-.17.06,0v-.05h.23a54.66,54.66,0,0,1,8.37-1.1,37.74,37.74,0,0,1,9.43.6l1.23.26,1.23.34a22.66,22.66,0,0,1,2.5.87,18.75,18.75,0,0,1,4.84,2.87,14.61,14.61,0,0,1,3.58,4.3,12.34,12.34,0,0,1,1.5,5.2A12.84,12.84,0,0,1,769.63,633.8Zm-8.91-9.38a2.86,2.86,0,0,0-1.15-2.07,5.16,5.16,0,0,0-1.42-.83c-.26-.12-.68-.25-1-.37l-.59-.16-.63-.13a19.45,19.45,0,0,0-2.87-.34l-.38,7.42a24.53,24.53,0,0,0,4.5-.15l.34,0,.19,0a3.61,3.61,0,0,0,.38-.08,4.17,4.17,0,0,0,.68-.25,3.46,3.46,0,0,0,1.1-.75A2.86,2.86,0,0,0,760.72,624.42Z"/><path class="cls-38" d="M795.64,653.89,781.5,652.1c-.44,1.36-.88,2.72-1.28,4l-12.46-2.82c1.06-3.54,2.19-6.88,3.43-10.3s2.58-6.77,4.11-10.14a73.22,73.22,0,0,1,5.43-10.14c.57-.85,1.18-1.71,1.87-2.58.35-.43.71-.87,1.12-1.31l.42-.46.49-.48a13,13,0,0,1,1-.94,13.87,13.87,0,0,1,4.78-2.75,11.57,11.57,0,0,1,5.52-.42,12.47,12.47,0,0,1,5.11,2,13.69,13.69,0,0,1,3.73,3.93c.26.37.46.78.69,1.17a5.34,5.34,0,0,1,.3.58l.21.43c.25.54.46,1.08.66,1.6a30.76,30.76,0,0,1,.92,3.05A57.6,57.6,0,0,1,809,637.93c.14,3.67.07,7.28-.11,10.87-.1,1.79-.23,3.57-.38,5.36s-.34,3.53-.58,5.41l-12.76-1.44C795.36,656.78,795.51,655.33,795.64,653.89Zm-10.29-12.36,10.89,1.38c0-1.61,0-3.21-.06-4.79A49,49,0,0,0,795,628.7a20.06,20.06,0,0,0-.62-2c-.11-.31-.23-.6-.35-.88l-.09-.17s0,0,0,0h0l0,0c-.22.24-.45.5-.67.78-.44.56-.89,1.18-1.32,1.83a64,64,0,0,0-4.64,8.71C786.62,638.48,786,640,785.35,641.53Z"/><path class="cls-38" d="M811.43,660.33l6.49-42.59,12.72,1.65L824.15,662Z"/><path class="cls-38" d="M845.79,634.89c0,.05,0,.1,0,.12s0,.07,0,.17a2.47,2.47,0,0,0,.29.54,16.42,16.42,0,0,0,2.13,2.25c.5.47,1.06,1,1.68,1.58l.84.84.79.8c.53.54,1.09,1.11,1.63,1.7l.73.78.43.48c.19.21.38.42.55.64a14.21,14.21,0,0,1,2.92,5.91,11.58,11.58,0,0,1,.25,3.39,13.09,13.09,0,0,1-.27,1.74c-.07.29-.16.57-.25.86s-.23.61-.35.91a11.2,11.2,0,0,1-2.07,3.14,14,14,0,0,1-2.75,2.35,16.68,16.68,0,0,1-15.63,1.44,15.05,15.05,0,0,1-6.13-4.76,13,13,0,0,1-2.53-6.34l11-3.36a28.81,28.81,0,0,0,2.48,3.86,2,2,0,0,0,.79.65,1.41,1.41,0,0,0,.72.1,3.07,3.07,0,0,0,1.22-.48,2.12,2.12,0,0,0,.73-.73h0l.08,0h.05l-.12,0v0a.45.45,0,0,0,0-.11,1.5,1.5,0,0,0,0-.24,1.92,1.92,0,0,0,0-.61,3.64,3.64,0,0,0-.75-1.48l-.15-.18-.1-.11-.2-.21-.74-.8c-.44-.48-.9-1-1.39-1.45l-1.45-1.44-1.51-1.43a27.42,27.42,0,0,1-3.74-4.11,13.47,13.47,0,0,1-1.64-3.14,10.05,10.05,0,0,1-.56-3.81,9.47,9.47,0,0,1,.25-1.86,11.57,11.57,0,0,1,.52-1.67,12.1,12.1,0,0,1,1.74-3,14.5,14.5,0,0,1,5.84-4.45,16.59,16.59,0,0,1,8.18-1.21,17.37,17.37,0,0,1,7.48,2.61c2.12,1.34,5.61,5.52,6.82,7.4l-10.87,4.77a34,34,0,0,0-3.54-3.28,2.79,2.79,0,0,0-1.15-.43,1.71,1.71,0,0,0-.88.14,2.45,2.45,0,0,0-1,.77,2,2,0,0,0-.31.54A1,1,0,0,0,845.79,634.89Z"/><path class="cls-38" d="M883,670.91l-13.78-3.36q-1,2-1.83,3.87l-12-4.2c1.54-3.39,3.12-6.58,4.82-9.83s3.49-6.43,5.47-9.6a76.61,76.61,0,0,1,6.78-9.46c.68-.78,1.41-1.56,2.21-2.35q.6-.59,1.29-1.17l.48-.41.56-.42a11.78,11.78,0,0,1,1.14-.82,14.39,14.39,0,0,1,5.13-2.19,11.52,11.52,0,0,1,5.53.2,12.17,12.17,0,0,1,4.79,2.58,13.18,13.18,0,0,1,3.16,4.32c.21.4.35.82.52,1.24a5.05,5.05,0,0,1,.23.61l.14.45c.17.57.32,1.12.43,1.66a28.65,28.65,0,0,1,.51,3.13,57.75,57.75,0,0,1-.14,11.42c-.37,3.65-.93,7.22-1.61,10.76q-.51,2.65-1.11,5.28c-.41,1.77-.82,3.47-1.32,5.3L882,675.06C882.36,673.75,882.71,672.32,883,670.91Zm-8.51-13.42,10.61,2.59c.24-1.59.44-3.18.6-4.76a48.82,48.82,0,0,0,.15-9.48,20.39,20.39,0,0,0-.33-2.07c-.07-.32-.15-.63-.24-.91l-.06-.18v0h0l0,0c-.25.21-.5.45-.76.7-.52.51-1.05,1.07-1.56,1.66a65.74,65.74,0,0,0-5.81,8.13Q875.77,655.3,874.53,657.49Z"/><polygon class="cls-3" points="312.07 565.7 322.02 561.6 335.04 598.04 312.07 565.7"/><polygon class="cls-2" points="310.4 552.29 322.02 547.88 322.02 561.6 314.24 564.67 301.02 561.6 310.4 552.29"/><polygon class="cls-2" points="322.02 561.6 316.11 564.8 315.99 564.87 226.62 613.26 246.76 589.98 269.37 577.06 274.32 575.27 315.38 563.5 322.02 561.6"/><path class="cls-4" d="M426.13,553.14a11.41,11.41,0,0,1,1.39,15.36c-2.1,2.55-5.38,4.27-9.84,5.1l-19.85,3.81-8.14-42.66,19.2-3.67c4.33-.82,7.92-.48,10.74,1a10.08,10.08,0,0,1,5.23,7.38,9.85,9.85,0,0,1-.8,6.63,10.24,10.24,0,0,1-4.59,4.47A10.07,10.07,0,0,1,426.13,553.14ZM403.38,550l6.81-1.3a6.26,6.26,0,0,0,3.68-1.87,4.13,4.13,0,0,0,.74-3.58,4.22,4.22,0,0,0-2-3.08,6,6,0,0,0-4.15-.4l-6.78,1.3Zm14.7,13.59a4.3,4.3,0,0,0,.77-3.72,4.4,4.4,0,0,0-2.16-3.23,6.21,6.21,0,0,0-4.34-.5l-7.52,1.44,1.8,9.43,7.64-1.47A6.25,6.25,0,0,0,418.08,563.62Z"/><path class="cls-4" d="M461.58,562.77,448.92,549l-2.45.61,3.87,15.92L440.06,568l-10.31-42.18L447,521.64a19.49,19.49,0,0,1,8.94-.34,12.18,12.18,0,0,1,6.41,3.5,13.65,13.65,0,0,1,3.41,6.33,12.65,12.65,0,0,1-6.41,14.49l13.84,14.32Zm-16.91-20.45,6.38-1.55a6,6,0,0,0,3.9-2.41,5.47,5.47,0,0,0,.47-4.26,5.27,5.27,0,0,0-2.36-3.44,6.07,6.07,0,0,0-4.58-.35l-6.34,1.56Z"/><path class="cls-4" d="M503.93,544.91l-15.82,3.51-.87,8.06-10.8,2.4,5.91-45.8,11.95-2.66,24.77,39-10.93,2.43Zm-4.43-7.39-8.7-14.35-1.73,16.67Z"/><path class="cls-4" d="M529.5,546.53a14.09,14.09,0,0,1-6.72-3.48,12.54,12.54,0,0,1-3.59-6.8l11.08-1.92a5.59,5.59,0,0,0,2.29,3.35,5.32,5.32,0,0,0,3.87.62,5.78,5.78,0,0,0,3.47-1.71,3.61,3.61,0,0,0,.84-3.19,3.57,3.57,0,0,0-1.52-2.43,8.44,8.44,0,0,0-2.91-1.25,42.79,42.79,0,0,0-4.7-.76,46.64,46.64,0,0,1-7.19-1.39,12.51,12.51,0,0,1-5.17-3,10.66,10.66,0,0,1-3-6.21,11.39,11.39,0,0,1,2.72-10.1q3.72-4.11,10.68-5.33c4.71-.82,8.7-.34,12,1.41a12.24,12.24,0,0,1,6.26,8.62l-11.27,1.95a4.47,4.47,0,0,0-2.07-3,5.47,5.47,0,0,0-3.81-.57,4.64,4.64,0,0,0-2.88,1.53,3.69,3.69,0,0,0-.65,3.09,3.64,3.64,0,0,0,2.51,2.9,31.06,31.06,0,0,0,6.53,1.45,54.71,54.71,0,0,1,7.18,1.52,12.82,12.82,0,0,1,5.14,2.94,10,10,0,0,1,3,6,12.36,12.36,0,0,1-.71,7,13.25,13.25,0,0,1-4.58,5.7,18.67,18.67,0,0,1-8,3.2A22.43,22.43,0,0,1,529.5,546.53Z"/><path class="cls-4" d="M568.41,539a21.41,21.41,0,0,1-9-6.89,22.57,22.57,0,0,1-4.39-11,22.2,22.2,0,0,1,1.58-11.73,21.66,21.66,0,0,1,7.06-8.86,23.58,23.58,0,0,1,22.29-2.77,20.84,20.84,0,0,1,8.94,6.88,23.69,23.69,0,0,1,2.82,22.74,21.27,21.27,0,0,1-7,8.88,22.45,22.45,0,0,1-10.77,4.21A22.7,22.7,0,0,1,568.41,539Zm18.12-12.6a13.16,13.16,0,0,0,2-9.47q-.71-5.71-4.24-8.73a10.68,10.68,0,0,0-8.67-2.39,10.9,10.9,0,0,0-7.9,4.42q-2.69,3.75-2,9.53c.47,3.79,1.86,6.72,4.21,8.73a10.84,10.84,0,0,0,8.76,2.37A10.62,10.62,0,0,0,586.53,526.36Zm-6-39-14,8-.9-7.24,13.9-9Z"/><path class="cls-4" d="M645.62,534.1l-10.55.74-19.54-25.48,1.89,26.72-10.52.76-3.07-43.33,10.56-.74,19.53,25.59L632,491.52l10.53-.75Z"/><path class="cls-4" d="M699.06,533.23l-4-3.88a22.94,22.94,0,0,1-14.36,4.6,21.68,21.68,0,0,1-8.7-1.63,12.83,12.83,0,0,1-5.73-4.63,12.13,12.13,0,0,1-2-7,13.13,13.13,0,0,1,2.2-7.4,15.87,15.87,0,0,1,6.56-5.43,14.77,14.77,0,0,1-2.29-3.79,11.94,11.94,0,0,1-.68-4,10.26,10.26,0,0,1,1.61-5.63,10.86,10.86,0,0,1,4.67-4,16.69,16.69,0,0,1,7.25-1.45,15.17,15.17,0,0,1,7.24,1.53,10.53,10.53,0,0,1,4.46,4.13,10.28,10.28,0,0,1,1.36,5.7l-9.94,0a3.3,3.3,0,0,0-.83-2.57,3.2,3.2,0,0,0-2.38-.9,3.59,3.59,0,0,0-2.48.87,2.78,2.78,0,0,0-1,2.22,5.47,5.47,0,0,0,.83,2.73,18.39,18.39,0,0,0,2.64,3.28L694,516.3c.1-.2.22-.45.34-.74s.31-.62.47-1l2.29-3.9,10.59,0-3,5.39a50,50,0,0,1-3.83,6.93l10.49,10.25Zm-10.53-10.18-9.66-9.32c-3,1.52-4.45,3.59-4.45,6.19a5,5,0,0,0,1.82,3.92,7.26,7.26,0,0,0,4.93,1.58A12.21,12.21,0,0,0,688.53,523.05Z"/><path class="cls-4" d="M759.58,513.47a12.79,12.79,0,0,1-5.6,4.69,18.75,18.75,0,0,1-9,1.36l-6.56-.42-1,15.56L726.89,534l2.72-43.34,17.09,1.06a19.77,19.77,0,0,1,8.67,2.34,12.43,12.43,0,0,1,5,5.28,14.34,14.34,0,0,1,1.33,7.34A13.94,13.94,0,0,1,759.58,513.47Zm-10.31-3.53A5.24,5.24,0,0,0,751,506a5.43,5.43,0,0,0-1.21-4.12,6.39,6.39,0,0,0-4.43-1.7l-5.76-.35-.68,10.86,5.76.36A6.33,6.33,0,0,0,749.27,509.94Z"/><path class="cls-4" d="M792.52,531.84l-16.1-1.78L773,537.4l-11-1.23,20.4-41.43,12.17,1.34L805.4,541l-11.14-1.22Zm-1.79-8.42L787.14,507l-7.06,15.21Z"/><path class="cls-4" d="M831.44,545.12l-6.35-17.6-2.51-.4L820,543.31l-10.46-1.66,6.81-42.89,17.55,2.79a19.72,19.72,0,0,1,8.36,3.14,12.41,12.41,0,0,1,4.58,5.71,13.88,13.88,0,0,1,.69,7.15,13.14,13.14,0,0,1-3.63,7.26,13.35,13.35,0,0,1-7.89,3.64L843.23,547Zm-7.68-25.38,6.47,1a6,6,0,0,0,4.52-.71,5.4,5.4,0,0,0,2.07-3.75,5.19,5.19,0,0,0-.83-4.09,6.06,6.06,0,0,0-4.06-2.09l-6.5-1Z"/><path class="cls-4" d="M870,552.41l-5.54-17.88L862,534l-3.31,16.06-10.37-2.16,8.82-42.52L874.53,509a19.42,19.42,0,0,1,8.21,3.53,12.14,12.14,0,0,1,4.3,5.91,13.7,13.7,0,0,1,.37,7.18,13.08,13.08,0,0,1-4,7.08A13.27,13.27,0,0,1,875.4,536l6.31,18.87Zm-6.5-25.72L870,528a5.92,5.92,0,0,0,4.55-.51,6.16,6.16,0,0,0,1.61-7.76,6.08,6.08,0,0,0-4-2.27l-6.41-1.34Z"/><path class="cls-4" d="M908.06,516.62,897.9,558.85l-10.3-2.47,10.18-42.23Z"/><path class="cls-4" d="M917.16,555.2l13.44,3.34-2,7.93-23.72-5.92,10.53-42.13L925.67,521Z"/><path class="cls-4" d="M947.78,562.61l13.53,3-1.8,8-23.84-5.36,9.51-42.36,10.34,2.32Z"/><path class="cls-4" d="M995.73,572.43l-16.1-1.89-3.46,7.32-11-1.3,20.65-41.3L998,536.69l10.56,45-11.11-1.3ZM994,564l-3.5-16.41-7.15,15.17Z"/><path class="cls-39" d="M1177.92,560.68a11.08,11.08,0,0,1,4.18,4.3,12.54,12.54,0,0,1,1.55,6.18,12.36,12.36,0,0,1-1.55,6.14,11.09,11.09,0,0,1-4.18,4.28,11.83,11.83,0,0,1-6.06,1.56,12.07,12.07,0,0,1-6.13-1.56,11.17,11.17,0,0,1-4.21-4.28,12.26,12.26,0,0,1-1.55-6.14,12.44,12.44,0,0,1,1.55-6.18,11.15,11.15,0,0,1,4.21-4.3,12,12,0,0,1,6.13-1.56A11.74,11.74,0,0,1,1177.92,560.68Zm.9,17.66a11,11,0,0,0,0-14.36,9.11,9.11,0,0,0-7-2.82,9.21,9.21,0,0,0-7.06,2.82,11,11,0,0,0,0,14.36,9.21,9.21,0,0,0,7.06,2.82A9.11,9.11,0,0,0,1178.82,578.34Zm-2.6-7.34a3.84,3.84,0,0,1-2.35,1.29l3.59,5.15-3,.06-3.31-5.09h-1.36v5.09h-2.57V564.63h5.57a4.51,4.51,0,0,1,3.13,1,4,4,0,0,1,.34,5.32Zm-6.47-.74h2.82a2.1,2.1,0,0,0,1.36-.42,1.46,1.46,0,0,0,.56-1.25,1.41,1.41,0,0,0-.56-1.24,2.22,2.22,0,0,0-1.36-.39h-2.82Z"/><path class="cls-40" d="M60.27,877.68A60.28,60.28,0,1,0,120.55,938,60.28,60.28,0,0,0,60.27,877.68Zm-2.56,38.05h3.36a1.75,1.75,0,0,1,1.28,0,33.71,33.71,0,0,1,4.31,1.6A22.28,22.28,0,0,1,79,932.52a.94.94,0,0,1,.13.48,1,1,0,0,1-.13.48v2.88c0,1.12,0,.95-.63.63H75v-3.35a4.57,4.57,0,0,0,0-2.08,15,15,0,0,0-4.63-7.36,18.67,18.67,0,0,0-7-4.31,3.68,3.68,0,0,0-1.92,0h-3l-.64.16ZM66.83,936v.81H63.15c-.64,0-.64,0-.64-.64a4.45,4.45,0,0,0-3.36-3.68l-.64,1s-.64,0-.64-.8V929a9.12,9.12,0,0,1,3.52.64H63a8,8,0,0,1,2.08,1.92l1.11,1.76A5.25,5.25,0,0,1,66.83,936Zm21.1,25.58v3.52a9.24,9.24,0,0,1-2.39,4l-3.05,3.52a2.53,2.53,0,0,1-1.43,1.12,4.52,4.52,0,0,1-2.4.63H74.5a19.5,19.5,0,0,1-4.32,0,7.83,7.83,0,0,1-4.64-1,50.74,50.74,0,0,1-8.31-2.71h-.79l-1.6-.64-4-1.92a36,36,0,0,1-5.12-3.35l-4.31-3.36-4-3.68-3.36-4-.8-1.12-.48-.63c-.48-.64-2.24-3.36-3.36-5.12l-1.91-3.84-.64-1.28a40,40,0,0,1-1.44-4c-.63-1.76-1.12-3.52-1.6-5.27v-1.28a5.29,5.29,0,0,0,0-2.24l-.15-.48a22.37,22.37,0,0,1-1.45-4.64c-.48-2.07.16-4.47-.16-6.71v-1.6a29.94,29.94,0,0,1,5.12-5.91l1.59-1.28a6.74,6.74,0,0,1,2.24-1h5.6a9.77,9.77,0,0,1,5.59,5.11,9.17,9.17,0,0,1,.81,2.72c.64,2.08,1.28,4.47,1.76,6.87a9.72,9.72,0,0,1-.81,6.4,14,14,0,0,0-1.28,1.76l-2.55,1.92a1.2,1.2,0,0,0,0,1.44l.95,2.72a33.45,33.45,0,0,0,5.29,9.27,4.72,4.72,0,0,0,1.28,1.28,36.79,36.79,0,0,0,9.27,7.19l3.35,1.44c.8.48,2.08.64,2.72,1.12a1,1,0,0,0,1,0l2.4-2.4a8.77,8.77,0,0,1,6.55-2.72,17,17,0,0,1,3,.64l5.6,1.76h.64a8.66,8.66,0,0,1,5.75,6.4A1.74,1.74,0,0,1,87.93,961.61Zm5.59-24.3H89.05v-1.92l-.64-5.27v-1.76a17.35,17.35,0,0,0-1.12-3L85.54,922l-1.29-1.91v-.48a29.66,29.66,0,0,0-7.51-7.36A10.68,10.68,0,0,0,75,911.1a15.76,15.76,0,0,0-3.35-1.76,27.9,27.9,0,0,0-5.12-1.77,24.1,24.1,0,0,0-6.71-.79V903.1c0-.64,0-.64.64-.64h2.39a.49.49,0,0,1,.64,0,35.22,35.22,0,0,1,13,4.46,34.22,34.22,0,0,1,10.22,9.13l.63,1a16.16,16.16,0,0,1,1.76,2.71,38.18,38.18,0,0,1,3.2,7.36,1.86,1.86,0,0,1,0,1.28c.32,1.76.63,3.36.8,5.12v2.72l.47-.17Z"/><path class="cls-40" d="M935,930.29v.31a14.56,14.56,0,0,1-14.51,14.54h-.69A15,15,0,1,1,935,930.29Z"/><path class="cls-40" d="M980.64,911.65a65.81,65.81,0,1,0-35.62,86A65.82,65.82,0,0,0,980.64,911.65Zm-30.1,19.67A45.79,45.79,0,0,1,944,952.05,74.18,74.18,0,0,1,931.71,969c-2.42,2.24-4.67,4.66-7.26,6.91a6.91,6.91,0,0,1-3.45,1.55h-2.42a8.81,8.81,0,0,1-4.49-2.41,90.83,90.83,0,0,1-20.73-27.82,35.47,35.47,0,0,1-4.15-17.27,30.4,30.4,0,0,1,20.21-28.68,26.18,26.18,0,0,1,6.22-.86h6.91a17,17,0,0,0,4.15,0,25.15,25.15,0,0,1,13.13,6.22l-.18-.17A30.45,30.45,0,0,1,950.54,931.32Z"/><path class="cls-41" d="M161.85,889q5.24-4.6,14.21-4.61a23.08,23.08,0,0,1,10.2,2.07,14.89,14.89,0,0,1,6.43,5.63,15.07,15.07,0,0,1,2.19,8,13.13,13.13,0,0,1-8.74,13v.31a14.37,14.37,0,0,1,7.15,5,14.53,14.53,0,0,1,2.62,9,16.53,16.53,0,0,1-2.26,8.69,15.47,15.47,0,0,1-6.59,5.92,23,23,0,0,1-10.29,2.14q-9.53,0-15.2-4.68t-6-14.14h13.18a8,8,0,0,0,2,5.52,7.27,7.27,0,0,0,5.56,2,6.34,6.34,0,0,0,4.8-1.79,6.55,6.55,0,0,0,1.71-4.72c0-2.55-.81-4.38-2.42-5.52s-4.2-1.71-7.74-1.71H170.1v-11h2.55a13.43,13.43,0,0,0,6.55-1.39c1.66-.92,2.5-2.58,2.5-5a6,6,0,0,0-1.59-4.45,6,6,0,0,0-4.37-1.58,5.38,5.38,0,0,0-4.48,1.82,8.21,8.21,0,0,0-1.71,4.53H156.29Q156.61,893.62,161.85,889Z"/><path class="cls-41" d="M202.42,898.39V885.76h22v58H210.28V898.39Z"/><path class="cls-41" d="M235.69,930.86q7.78-6.43,12.27-10.56a50.76,50.76,0,0,0,7.58-8.65,15.63,15.63,0,0,0,3.1-8.82,7.73,7.73,0,0,0-1.51-5.08,5.53,5.53,0,0,0-4.53-1.83,5.59,5.59,0,0,0-4.72,2.27,10.42,10.42,0,0,0-1.71,6.39h-13.1A22.52,22.52,0,0,1,236,893.3a16.9,16.9,0,0,1,7.22-6.67,22.83,22.83,0,0,1,10-2.14q9.45,0,14.25,4.84T272.22,902a24.79,24.79,0,0,1-5.8,15.76,85.2,85.2,0,0,1-14.77,14.17h21.44v11H233.23V932.85C235,931.42,235.85,930.76,235.69,930.86Z"/><path class="cls-41" d="M279.36,933.4V922.45l25.1-35.9h15.16v35.1h6.51V933.4h-6.51v10.33H306V933.4ZM307,901.48l-13.34,20.17H307Z"/><path class="cls-41" d="M369.8,895.92l-19.93,47.81H336l20.17-46.3h-24.7V885.84H369.8Z"/><path class="cls-41" d="M412.28,895.92l-19.93,47.81H378.46l20.17-46.3h-24.7V885.84h38.35Z"/><path class="cls-41" d="M439.68,933a6.08,6.08,0,0,0,5.95-3.74q1.75-3.72,1.75-12.14a11.38,11.38,0,0,1-4.76,3.81,16.41,16.41,0,0,1-6.75,1.35,19,19,0,0,1-9.06-2.11,15,15,0,0,1-6.23-6.27,23.34,23.34,0,0,1,.16-20.37,16.65,16.65,0,0,1,6.91-6.75,22.26,22.26,0,0,1,10.6-2.38q11.75,0,16.44,7.31t4.68,21.51a64.72,64.72,0,0,1-1.87,17,19,19,0,0,1-6.27,10.2q-4.41,3.49-12,3.49a20.7,20.7,0,0,1-10.28-2.38,16.94,16.94,0,0,1-6.51-6.27,19.37,19.37,0,0,1-2.58-8.58h12.54Q433.57,933,439.68,933Zm4.6-23.47a7.52,7.52,0,0,0,2-5.52,7.91,7.91,0,0,0-2.07-5.87,7.48,7.48,0,0,0-5.55-2.07,7.32,7.32,0,0,0-5.52,2.11,7.94,7.94,0,0,0-2,5.75,7.16,7.16,0,0,0,7.86,7.63A7.1,7.1,0,0,0,444.28,909.54Z"/><path class="cls-41" d="M488.51,933a6.1,6.1,0,0,0,6-3.74q1.74-3.72,1.74-12.14a11.38,11.38,0,0,1-4.76,3.81,16.34,16.34,0,0,1-6.75,1.35,18.92,18.92,0,0,1-9.05-2.11,15,15,0,0,1-6.24-6.27,23.34,23.34,0,0,1,.16-20.37,16.71,16.71,0,0,1,6.91-6.75,22.26,22.26,0,0,1,10.6-2.38q11.76,0,16.44,7.31t4.68,21.51a65.19,65.19,0,0,1-1.86,17,19.09,19.09,0,0,1-6.28,10.2q-4.4,3.49-12,3.49a20.7,20.7,0,0,1-10.28-2.38,16.94,16.94,0,0,1-6.51-6.27,19.37,19.37,0,0,1-2.58-8.58h12.55Q482.4,933,488.51,933Zm4.61-23.47a7.56,7.56,0,0,0,2-5.52,8,8,0,0,0-2.06-5.87,7.51,7.51,0,0,0-5.56-2.07,7.32,7.32,0,0,0-5.52,2.11,7.94,7.94,0,0,0-2,5.75,7.61,7.61,0,0,0,2,5.52,7.71,7.71,0,0,0,5.84,2.11A7.13,7.13,0,0,0,493.12,909.54Z"/><path class="cls-41" d="M521.46,889q5.25-4.6,14.22-4.61a23.08,23.08,0,0,1,10.2,2.07,14.62,14.62,0,0,1,8.62,13.65,13.17,13.17,0,0,1-8.74,13v.31a14.37,14.37,0,0,1,7.15,5,14.6,14.6,0,0,1,2.62,9,16.54,16.54,0,0,1-2.27,8.69,15.35,15.35,0,0,1-6.59,5.92,22.89,22.89,0,0,1-10.28,2.14q-9.52,0-15.21-4.68t-6-14.14h13.18a8,8,0,0,0,2,5.52,7.26,7.26,0,0,0,5.55,2,6.34,6.34,0,0,0,4.81-1.79,6.55,6.55,0,0,0,1.71-4.72c0-2.55-.81-4.38-2.43-5.52s-4.19-1.71-7.74-1.71h-2.54v-11h2.54a13.38,13.38,0,0,0,6.55-1.39c1.67-.92,2.5-2.58,2.5-5a6,6,0,0,0-1.58-4.45,6,6,0,0,0-4.37-1.58,5.41,5.41,0,0,0-4.49,1.82,8.21,8.21,0,0,0-1.71,4.53H515.9Q516.23,893.62,521.46,889Z"/><path class="cls-41" d="M569.5,889q5.25-4.6,14.22-4.61a23.08,23.08,0,0,1,10.2,2.07,14.59,14.59,0,0,1,8.61,13.65,13.14,13.14,0,0,1-8.73,13v.31a14.37,14.37,0,0,1,7.15,5,14.6,14.6,0,0,1,2.62,9,16.54,16.54,0,0,1-2.27,8.69,15.41,15.41,0,0,1-6.59,5.92,22.89,22.89,0,0,1-10.28,2.14q-9.52,0-15.21-4.68t-6-14.14h13.18a8,8,0,0,0,2,5.52,7.26,7.26,0,0,0,5.55,2,6.34,6.34,0,0,0,4.81-1.79,6.54,6.54,0,0,0,1.7-4.72c0-2.55-.8-4.38-2.42-5.52s-4.19-1.71-7.74-1.71h-2.54v-11h2.54a13.4,13.4,0,0,0,6.55-1.39c1.67-.92,2.5-2.58,2.5-5a6,6,0,0,0-1.58-4.45,6,6,0,0,0-4.37-1.58,5.41,5.41,0,0,0-4.49,1.82,8.21,8.21,0,0,0-1.71,4.53H563.94Q564.25,893.62,569.5,889Z"/><path class="cls-40" d="M160.56,960a13.18,13.18,0,0,1,8.69-2.77,13.5,13.5,0,0,1,6.07,1.26,9,9,0,0,1,3.83,3.46,9.56,9.56,0,0,1,1.29,4.94,8.88,8.88,0,0,1-1.95,5.75,8.52,8.52,0,0,1-5.55,3v.27a10.37,10.37,0,0,1,6,3.24,9.58,9.58,0,0,1,2.22,6.58,9.73,9.73,0,0,1-3,7.41q-3,2.88-8.79,2.88a13.85,13.85,0,0,1-9-2.88,11.47,11.47,0,0,1-4.06-8.15h3.59a9,9,0,0,0,2.95,5.73,9.55,9.55,0,0,0,6.55,2.19,8.4,8.4,0,0,0,6.15-2.11,7.25,7.25,0,0,0,2.14-5.39q0-8-11.56-8h-1.16v-3.12h1.21q10.77,0,10.77-7a6.44,6.44,0,0,0-2-4.94,8,8,0,0,0-5.7-1.87,9.24,9.24,0,0,0-5.94,1.87,7.64,7.64,0,0,0-2.77,5.26h-3.59A10.44,10.44,0,0,1,160.56,960Z"/><path class="cls-40" d="M202.17,979.77q5.29-5.79,5.3-11.33a8.84,8.84,0,0,0-1.82-5.83q-1.82-2.19-5.94-2.19a7.77,7.77,0,0,0-6.2,2.51,10.89,10.89,0,0,0-2.46,6.67h-3.59q.31-5.85,3.62-9.1a13.22,13.22,0,0,1,16.92-.37q3.17,2.88,3.17,8.15,0,6.39-5.31,12.39a83,83,0,0,1-13.07,11.69h19.54v3.11H187.15v-2.64A112,112,0,0,0,202.17,979.77Z"/><path class="cls-40" d="M216.29,961.21v-3.33h9v37.86h-3.74V961.21Z"/><path class="cls-40" d="M247.78,979.77q5.31-5.79,5.31-11.33a8.79,8.79,0,0,0-1.83-5.83q-1.81-2.19-5.93-2.19a7.78,7.78,0,0,0-6.21,2.51,10.82,10.82,0,0,0-2.45,6.67h-3.59q.31-5.85,3.61-9.1a13.22,13.22,0,0,1,16.92-.37c2.12,1.92,3.17,4.64,3.17,8.15q0,6.39-5.3,12.39a83.5,83.5,0,0,1-13.07,11.69h19.53v3.11H232.76v-2.64A111.34,111.34,0,0,0,247.78,979.77Z"/><path class="cls-40" d="M271.25,990.93a9.16,9.16,0,0,0,13-2q2.4-3.89,2.19-12.85a8.36,8.36,0,0,1-3.83,4.56,12.46,12.46,0,0,1-6.46,1.67,12.08,12.08,0,0,1-8.9-3.33q-3.35-3.33-3.35-9.24a14.61,14.61,0,0,1,1.37-6.39,10.38,10.38,0,0,1,4.17-4.49,13.44,13.44,0,0,1,6.87-1.63q7.49,0,10.45,4.88t3,14q0,9.87-2.93,14.83t-10.06,5q-5.24,0-8.13-2.83a11.81,11.81,0,0,1-3.43-7.42h3.43A8.71,8.71,0,0,0,271.25,990.93Zm10.06-12.85a8.24,8.24,0,0,0,3.35-3,8.83,8.83,0,0,0,1.26-4.8,10.4,10.4,0,0,0-2.45-7.13,8.91,8.91,0,0,0-7.05-2.8,8.67,8.67,0,0,0-6.52,2.54,9.27,9.27,0,0,0-2.45,6.75,9.69,9.69,0,0,0,2.42,7,9.07,9.07,0,0,0,6.87,2.54A10.32,10.32,0,0,0,281.31,978.08Z"/><path class="cls-40" d="M319.34,960.79l-14.73,35h-3.74l14.88-34.64H294.64v-3.16h24.7Z"/><path class="cls-40" d="M328.4,960a13.16,13.16,0,0,1,8.68-2.77,13.5,13.5,0,0,1,6.07,1.26,9,9,0,0,1,3.83,3.46,9.56,9.56,0,0,1,1.3,4.94,8.88,8.88,0,0,1-2,5.75,8.52,8.52,0,0,1-5.54,3v.27a10.31,10.31,0,0,1,6,3.24,9.58,9.58,0,0,1,2.22,6.58,9.75,9.75,0,0,1-3,7.41q-3,2.88-8.79,2.88a13.81,13.81,0,0,1-9-2.88A11.44,11.44,0,0,1,324,985h3.59a8.94,8.94,0,0,0,3,5.73,9.52,9.52,0,0,0,6.55,2.19,8.43,8.43,0,0,0,6.15-2.11,7.28,7.28,0,0,0,2.13-5.39q0-8-11.56-8H332.7v-3.12h1.21q10.77,0,10.78-7a6.44,6.44,0,0,0-2-4.94,8,8,0,0,0-5.7-1.87,9.2,9.2,0,0,0-5.94,1.87,7.6,7.6,0,0,0-2.77,5.26h-3.59A10.37,10.37,0,0,1,328.4,960Z"/><path class="cls-40" d="M359.28,960A13.18,13.18,0,0,1,368,957.2a13.53,13.53,0,0,1,6.07,1.26,9,9,0,0,1,3.83,3.46,9.56,9.56,0,0,1,1.29,4.94,8.88,8.88,0,0,1-2,5.75,8.54,8.54,0,0,1-5.55,3v.27a10.37,10.37,0,0,1,6,3.24,9.58,9.58,0,0,1,2.22,6.58,9.76,9.76,0,0,1-3,7.41q-3,2.88-8.79,2.88a13.85,13.85,0,0,1-9-2.88,11.43,11.43,0,0,1-4.06-8.15h3.59a8.93,8.93,0,0,0,3,5.73,9.55,9.55,0,0,0,6.55,2.19,8.42,8.42,0,0,0,6.15-2.11,7.25,7.25,0,0,0,2.14-5.39q0-8-11.56-8h-1.16v-3.12h1.21q10.77,0,10.77-7a6.44,6.44,0,0,0-2-4.94,8,8,0,0,0-5.7-1.87,9.24,9.24,0,0,0-5.94,1.87,7.64,7.64,0,0,0-2.77,5.26h-3.59A10.44,10.44,0,0,1,359.28,960Z"/><path class="cls-40" d="M400.38,960.26a8.63,8.63,0,0,0-7.76,4q-2.58,4-2.37,13.15a9.05,9.05,0,0,1,4-5,12.75,12.75,0,0,1,6.83-1.82,11.55,11.55,0,0,1,8.79,3.4q3.25,3.4,3.25,9.37a14.42,14.42,0,0,1-1.35,6.31,10.47,10.47,0,0,1-4.11,4.52,13.1,13.1,0,0,1-6.89,1.69q-7.87,0-10.85-5t-3-14.2q0-19.53,13.41-19.54a11.09,11.09,0,0,1,8,2.78,11.53,11.53,0,0,1,3.43,7.2h-3.43Q407.19,960.26,400.38,960.26Zm-4.64,14.52a8.37,8.37,0,0,0-5,8,10.34,10.34,0,0,0,2.54,7.13c1.68,1.9,4.15,2.85,7.39,2.85a8.64,8.64,0,0,0,6.49-2.48,9.24,9.24,0,0,0,2.43-6.76,10.2,10.2,0,0,0-2.38-7.18,8.71,8.71,0,0,0-6.75-2.58A11.24,11.24,0,0,0,395.74,974.78Z"/><path class="cls-40" d="M422.16,972.77a8.85,8.85,0,0,1-1.71-5.49,9.13,9.13,0,0,1,1.45-5.09,9.68,9.68,0,0,1,4.25-3.54,18.07,18.07,0,0,1,13.41,0,9.79,9.79,0,0,1,4.25,3.54,9.21,9.21,0,0,1,1.45,5.09,9,9,0,0,1-1.72,5.49,9.35,9.35,0,0,1-5,3.33,10.19,10.19,0,0,1,5.65,3.43,9.45,9.45,0,0,1,2.06,6.18,10.37,10.37,0,0,1-1.66,5.88,10.77,10.77,0,0,1-4.7,3.88,18.7,18.7,0,0,1-14.1,0,10.68,10.68,0,0,1-4.69-3.88,10.38,10.38,0,0,1-1.67-5.88,9.5,9.5,0,0,1,2.06-6.18,10.23,10.23,0,0,1,5.65-3.43A9.8,9.8,0,0,1,422.16,972.77Zm3.62,6.92A6.77,6.77,0,0,0,423,985.6a7.3,7.3,0,0,0,2.64,6,11,11,0,0,0,7.18,2.16,10.83,10.83,0,0,0,7.13-2.19,7.31,7.31,0,0,0,2.64-5.94,6.83,6.83,0,0,0-2.72-5.89,11.74,11.74,0,0,0-7-2A11.94,11.94,0,0,0,425.78,979.69Zm13.51-17.37a10,10,0,0,0-6.44-1.9,10.11,10.11,0,0,0-6.44,1.87A6.5,6.5,0,0,0,424,967.7a6.35,6.35,0,0,0,2.42,5.23,11.44,11.44,0,0,0,12.78,0,6.36,6.36,0,0,0,2.43-5.23A6.48,6.48,0,0,0,439.29,962.32Z"/><path class="cls-40" d="M475.35,974.62v3.12H454.81v-3.12Z"/><path class="cls-40" d="M491.53,960a13.18,13.18,0,0,1,8.69-2.77,13.53,13.53,0,0,1,6.07,1.26,9,9,0,0,1,3.83,3.46,9.56,9.56,0,0,1,1.29,4.94,8.88,8.88,0,0,1-2,5.75,8.54,8.54,0,0,1-5.55,3v.27a10.37,10.37,0,0,1,6,3.24,9.58,9.58,0,0,1,2.22,6.58,9.76,9.76,0,0,1-3,7.41q-3,2.88-8.79,2.88a13.85,13.85,0,0,1-9-2.88,11.43,11.43,0,0,1-4.06-8.15h3.59a8.93,8.93,0,0,0,3,5.73,9.55,9.55,0,0,0,6.55,2.19,8.43,8.43,0,0,0,6.15-2.11,7.25,7.25,0,0,0,2.14-5.39q0-8-11.56-8h-1.17v-3.12h1.22q10.77,0,10.77-7a6.44,6.44,0,0,0-2-4.94,8,8,0,0,0-5.7-1.87,9.24,9.24,0,0,0-5.94,1.87,7.64,7.64,0,0,0-2.77,5.26h-3.59A10.44,10.44,0,0,1,491.53,960Z"/><path class="cls-40" d="M517.06,961.21v-3.33h9v37.86h-3.75V961.21Z"/><path class="cls-40" d="M558.13,961.05H538.81v13.52a9.6,9.6,0,0,1,3.85-3,14.22,14.22,0,0,1,12.57.58,10.16,10.16,0,0,1,4,4.6,15.09,15.09,0,0,1,1.21,6,15.45,15.45,0,0,1-1.4,6.68,10.7,10.7,0,0,1-4.27,4.72,13.54,13.54,0,0,1-7.16,1.75,13.24,13.24,0,0,1-8.81-2.83,11.85,11.85,0,0,1-4.12-7.63h3.64a8.58,8.58,0,0,0,3.17,5.39,9.73,9.73,0,0,0,6.12,1.9c3.07,0,5.38-.91,6.95-2.72a10.66,10.66,0,0,0,2.35-7.21,9.41,9.41,0,0,0-2.38-6.83q-2.37-2.46-6.81-2.46a10.12,10.12,0,0,0-5.39,1.43,8.63,8.63,0,0,0-3.43,3.85h-3.48v-21h22.75Z"/><path class="cls-40" d="M589.49,960.79l-14.73,35H571L585.9,961.1H564.78v-3.16h24.71Z"/><path class="cls-40" d="M593.35,986.76V984l19.21-25.86H617v25.44h5.64v3.22H617v9H613.3v-9Zm20.11-24.6-15.84,21.38h15.84Z"/><path class="cls-40" d="M650,960.79l-14.73,35h-3.74L646.4,961.1H625.29v-3.16H650Z"/><path class="cls-40" d="M663,990.93a9.18,9.18,0,0,0,13-2q2.4-3.89,2.19-12.85a8.4,8.4,0,0,1-3.83,4.56,12.5,12.5,0,0,1-6.47,1.67,12.06,12.06,0,0,1-8.89-3.33q-3.36-3.33-3.35-9.24a14.47,14.47,0,0,1,1.37-6.39,10.26,10.26,0,0,1,4.17-4.49,13.37,13.37,0,0,1,6.86-1.63q7.5,0,10.46,4.88t3,14q0,9.87-2.93,14.83t-10.05,5q-5.24,0-8.14-2.83a11.87,11.87,0,0,1-3.43-7.42h3.43A8.82,8.82,0,0,0,663,990.93Zm10.06-12.85a8.18,8.18,0,0,0,3.35-3,8.75,8.75,0,0,0,1.27-4.8,10.45,10.45,0,0,0-2.45-7.13,8.91,8.91,0,0,0-7-2.8,8.65,8.65,0,0,0-6.52,2.54,9.28,9.28,0,0,0-2.46,6.75,9.65,9.65,0,0,0,2.43,7,9.07,9.07,0,0,0,6.87,2.54A10.24,10.24,0,0,0,673.09,978.08Z"/><path class="cls-40" d="M691.28,962.37q2.81-5,10-5t10,5c1.87,3.35,2.8,8,2.8,14.1s-.93,10.93-2.8,14.31-5.21,5.06-10,5.06-8.21-1.69-10.06-5.06-2.77-8.15-2.77-14.31S689.41,965.72,691.28,962.37Zm18.53,5.81a10.61,10.61,0,0,0-2.69-5.44,9.22,9.22,0,0,0-11.62,0,10.69,10.69,0,0,0-2.69,5.44,42.18,42.18,0,0,0-.69,8.29,43.59,43.59,0,0,0,.69,8.47,10.75,10.75,0,0,0,2.69,5.47,9.22,9.22,0,0,0,11.62,0,10.67,10.67,0,0,0,2.69-5.47,43.59,43.59,0,0,0,.69-8.47A42.18,42.18,0,0,0,709.81,968.18Z"/><path class="cls-40" d="M719.21,961.21v-3.33h9v37.86h-3.75V961.21Z"/><path class="cls-40" d="M734.78,986.76V984L754,958.1h4.38v25.44H764v3.22h-5.65v9h-3.64v-9Zm20.12-24.6-15.84,21.38H754.9Z"/><path class="cls-40" d="M1042.29,894a18.52,18.52,0,0,1,7.07-6.93,19.66,19.66,0,0,1,9.78-2.5,19.86,19.86,0,0,1,10.82,3,17,17,0,0,1,6.88,8.47h-7.51a10,10,0,0,0-4.11-4.5,12.25,12.25,0,0,0-6.08-1.48,13.31,13.31,0,0,0-6.74,1.7,11.8,11.8,0,0,0-4.63,4.88,17.21,17.21,0,0,0,0,14.79,12,12,0,0,0,4.63,4.91,13.13,13.13,0,0,0,6.74,1.72,12.14,12.14,0,0,0,6.08-1.48,10,10,0,0,0,4.11-4.49h7.51a16.85,16.85,0,0,1-6.88,8.44,20,20,0,0,1-10.82,3,19.71,19.71,0,0,1-9.81-2.49,18.68,18.68,0,0,1-7-6.94,20.63,20.63,0,0,1,0-20Z"/><path class="cls-40" d="M1083.94,899.85a13.79,13.79,0,0,1,12.35-7.4,13.18,13.18,0,0,1,6.22,1.4,12.62,12.62,0,0,1,4.25,3.48V893h6.3v30.19h-6.3v-4.49a12.43,12.43,0,0,1-4.33,3.56,13.35,13.35,0,0,1-6.25,1.42,13.2,13.2,0,0,1-7.12-2,14.07,14.07,0,0,1-5.12-5.59,17.17,17.17,0,0,1-1.89-8.13A16.72,16.72,0,0,1,1083.94,899.85Zm21.53,2.74a9.12,9.12,0,0,0-3.37-3.51,8.86,8.86,0,0,0-4.49-1.2,8.87,8.87,0,0,0-7.87,4.63,10.87,10.87,0,0,0-1.28,5.4,11.35,11.35,0,0,0,1.28,5.48,9.14,9.14,0,0,0,3.4,3.59,8.84,8.84,0,0,0,9,0,9,9,0,0,0,3.37-3.53,11.06,11.06,0,0,0,1.29-5.45A10.93,10.93,0,0,0,1105.47,902.59Z"/><path class="cls-40" d="M1131.17,893.74a10.79,10.79,0,0,1,5.4-1.29v6.47H1135a7.61,7.61,0,0,0-5.56,1.86c-1.26,1.25-1.89,3.4-1.89,6.47v15.89h-6.25V893h6.25v4.38A9.79,9.79,0,0,1,1131.17,893.74Z"/><path class="cls-40" d="M1152.21,893.74a10.79,10.79,0,0,1,5.4-1.29v6.47H1156a7.61,7.61,0,0,0-5.56,1.86c-1.26,1.25-1.89,3.4-1.89,6.47v15.89h-6.25V893h6.25v4.38A9.87,9.87,0,0,1,1152.21,893.74Z"/><path class="cls-40" d="M1190.82,910.37h-23.07a8.36,8.36,0,0,0,2.68,5.81,8.49,8.49,0,0,0,5.92,2.19,7.3,7.3,0,0,0,7.12-4.22h6.74a13.58,13.58,0,0,1-5,6.83,14.55,14.55,0,0,1-8.9,2.65,15.35,15.35,0,0,1-7.75-1.94,13.81,13.81,0,0,1-5.37-5.48,16.7,16.7,0,0,1-2-8.19,17.14,17.14,0,0,1,1.89-8.2,13.3,13.3,0,0,1,5.32-5.45,15.78,15.78,0,0,1,7.86-1.92,15.42,15.42,0,0,1,7.62,1.87,13.15,13.15,0,0,1,5.2,5.23,15.78,15.78,0,0,1,1.86,7.75A20.29,20.29,0,0,1,1190.82,910.37Zm-6.31-5a7.1,7.1,0,0,0-2.46-5.53,8.82,8.82,0,0,0-6-2.09,8,8,0,0,0-5.54,2.06,8.59,8.59,0,0,0-2.74,5.56Z"/><path class="cls-40" d="M1207.06,893.74a10.79,10.79,0,0,1,5.4-1.29v6.47h-1.59a7.61,7.61,0,0,0-5.56,1.86c-1.26,1.25-1.89,3.4-1.89,6.47v15.89h-6.25V893h6.25v4.38A9.87,9.87,0,0,1,1207.06,893.74Z"/><path class="cls-40" d="M1218,899.85a13.79,13.79,0,0,1,12.36-7.4,13.24,13.24,0,0,1,6.22,1.4,12.58,12.58,0,0,1,4.24,3.48V893h6.31v30.19h-6.31v-4.49a12.43,12.43,0,0,1-4.33,3.56,14,14,0,0,1-13.37-.58A14.14,14.14,0,0,1,1218,916a17.17,17.17,0,0,1-1.89-8.13A16.72,16.72,0,0,1,1218,899.85Zm21.54,2.74a9.19,9.19,0,0,0-3.37-3.51,8.95,8.95,0,0,0-12.36,3.43,10.76,10.76,0,0,0-1.29,5.4,11.24,11.24,0,0,0,1.29,5.48,9.14,9.14,0,0,0,3.4,3.59,8.84,8.84,0,0,0,9,0,9,9,0,0,0,3.37-3.53,11.17,11.17,0,0,0,1.28-5.45A11,11,0,0,0,1239.56,902.59Z"/><path class="cls-40" d="M1042.91,954.23a14.48,14.48,0,0,1,2.07-7.59,14.27,14.27,0,0,1,6.2-5.48,26.14,26.14,0,0,1,20.2,0,14.33,14.33,0,0,1,6.24,5.48,14.48,14.48,0,0,1,2.07,7.59,13.3,13.3,0,0,1-2.18,7.55,14.61,14.61,0,0,1-5.79,5,14.1,14.1,0,0,1,6.9,5.25,14.54,14.54,0,0,1,2.53,8.54,15.58,15.58,0,0,1-2.53,8.81,16.33,16.33,0,0,1-7,5.9,24.43,24.43,0,0,1-10.27,2.07,24.15,24.15,0,0,1-10.23-2.07,16.28,16.28,0,0,1-7-5.9,15.58,15.58,0,0,1-2.53-8.81,14.52,14.52,0,0,1,2.53-8.58,14.13,14.13,0,0,1,6.82-5.21Q1042.9,962.81,1042.91,954.23Zm10.15,18.89a8.56,8.56,0,0,0-3.18,7.16,9,9,0,0,0,3.07,7.09c2,1.82,4.82,2.72,8.35,2.72a11.78,11.78,0,0,0,8.24-2.76,9.08,9.08,0,0,0,3-7.05,8.66,8.66,0,0,0-3.11-7.12,12.5,12.5,0,0,0-8.16-2.53A13,13,0,0,0,1053.06,973.12Zm15.6-24.41a11,11,0,0,0-7.36-2.3,10.82,10.82,0,0,0-7.28,2.3,8.28,8.28,0,0,0-2.68,6.67,7.87,7.87,0,0,0,2.79,6.24,11.8,11.8,0,0,0,14.37,0,7.92,7.92,0,0,0,2.84-6.28A8.23,8.23,0,0,0,1068.66,948.71Z"/><path class="cls-40" d="M1091.23,963.39a18.81,18.81,0,0,1,7.31-7.63,21.18,21.18,0,0,1,10.73-2.68q7.67,0,12.69,3.64a18,18,0,0,1,6.78,10.38h-9.43a9.9,9.9,0,0,0-3.68-4.9,10.8,10.8,0,0,0-6.36-1.77,10.58,10.58,0,0,0-8.54,3.8q-3.18,3.79-3.18,10.61t3.18,10.66a10.54,10.54,0,0,0,8.54,3.83q7.59,0,10-6.67h9.43a18.91,18.91,0,0,1-6.9,10.23,20.34,20.34,0,0,1-12.57,3.79,20.9,20.9,0,0,1-10.73-2.72,19,19,0,0,1-7.31-7.66,26.08,26.08,0,0,1,0-22.91Z"/><path class="cls-40" d="M1202.08,960.89l-2.83,13.26h10.11v7.67h-11.72L1194.57,996h-8.35l3.06-14.17h-15L1171.2,996h-8.36l3.07-14.17H1154v-7.67h13.49l2.83-13.26h-11.8v-7.66H1172l3-14h8.35l-3,14h15l3-14h8.35l-3,14h10.19v7.66Zm-8.35,0h-15l-2.84,13.26h15Z"/><path class="cls-40" d="M1221.93,948.1v-8h15.94V996h-8.81V948.1Z"/><path class="cls-40" d="M1251.36,954.23a14.1,14.1,0,0,1,8.27-13.07,26.14,26.14,0,0,1,20.2,0,14.33,14.33,0,0,1,6.24,5.48,14.48,14.48,0,0,1,2.07,7.59,13.23,13.23,0,0,1-2.18,7.55,14.61,14.61,0,0,1-5.79,5,14.05,14.05,0,0,1,6.9,5.25,14.54,14.54,0,0,1,2.53,8.54,15.58,15.58,0,0,1-2.53,8.81,16.33,16.33,0,0,1-7,5.9,24.43,24.43,0,0,1-10.27,2.07,24.15,24.15,0,0,1-10.23-2.07,16.28,16.28,0,0,1-7-5.9,15.58,15.58,0,0,1-2.53-8.81,14.52,14.52,0,0,1,2.53-8.58,14.18,14.18,0,0,1,6.82-5.21Q1251.35,962.81,1251.36,954.23Zm10.15,18.89a8.56,8.56,0,0,0-3.18,7.16,9,9,0,0,0,3.07,7.09c2,1.82,4.83,2.72,8.35,2.72a11.78,11.78,0,0,0,8.24-2.76,9.08,9.08,0,0,0,3-7.05,8.66,8.66,0,0,0-3.11-7.12,12.5,12.5,0,0,0-8.16-2.53A13,13,0,0,0,1261.51,973.12Zm15.6-24.41a11,11,0,0,0-7.36-2.3,10.84,10.84,0,0,0-7.28,2.3,8.28,8.28,0,0,0-2.68,6.67,7.87,7.87,0,0,0,2.79,6.24,11.8,11.8,0,0,0,14.37,0,7.92,7.92,0,0,0,2.84-6.28A8.19,8.19,0,0,0,1277.11,948.71Z"/><path class="cls-40" d="M1334.81,947.64h-25.67v15.25a12.11,12.11,0,0,1,4.79-3.6,16.11,16.11,0,0,1,6.78-1.46q6.45,0,10.46,2.76a15.41,15.41,0,0,1,5.75,7,23.27,23.27,0,0,1,1.73,8.89,22.37,22.37,0,0,1-2.19,10.08,16.26,16.26,0,0,1-6.51,6.94,20.82,20.82,0,0,1-10.62,2.52q-8.36,0-13.41-4.13a16.76,16.76,0,0,1-6.05-11h8.5a9.54,9.54,0,0,0,3.76,5.71,12.13,12.13,0,0,0,7.28,2.1c3.63,0,6.35-1.09,8.16-3.29a13.26,13.26,0,0,0,2.72-8.74q0-5.52-2.76-8.47c-1.83-2-4.54-3-8.12-3a10.43,10.43,0,0,0-6.32,1.88,10.54,10.54,0,0,0-3.72,5.1h-8.28V940h33.72Z"/><path class="cls-40" d="M1381.33,964.57v7.36h-31.49v-7.36Z"/><path class="cls-40" d="M1391.53,984.35v-6.6l25.75-36.93h10.57v35.94H1435v7.59h-7.13V996h-8.58V984.35Zm28.12-34.64-18.08,27h18.08Z"/><path class="cls-40" d="M1447,984.12q7.37-6.36,11.61-10.47a46.91,46.91,0,0,0,7.09-8.54,16.43,16.43,0,0,0,2.84-8.89,10.83,10.83,0,0,0-2.19-7.2q-2.17-2.61-6.86-2.61a8.8,8.8,0,0,0-7,2.87,12,12,0,0,0-2.64,7.71h-8.43q.22-8.75,5.25-13.38a18,18,0,0,1,12.76-4.63q8.34,0,13.06,4.59t4.72,12.27a21.84,21.84,0,0,1-2.8,10.61,42.82,42.82,0,0,1-6.67,9.12q-3.87,4-9.85,9.31l-3.45,3.07h24.3v7.28h-37.25v-6.36Z"/></g></g></svg>